G04 EAGLE Gerber RS-274X export*
G75*
%MOMM*%
%FSLAX34Y34*%
%LPD*%
%INBoard Outline*%
%IPPOS*%
%AMOC8*
5,1,8,0,0,1.08239X$1,22.5*%
G01*
%ADD10C,0.000000*%
%ADD11C,0.254000*%


D10*
X1000Y993650D02*
X1000Y906350D01*
X1002Y906192D01*
X1008Y906033D01*
X1018Y905875D01*
X1032Y905718D01*
X1049Y905560D01*
X1071Y905404D01*
X1096Y905247D01*
X1126Y905092D01*
X1159Y904937D01*
X1196Y904783D01*
X1237Y904630D01*
X1282Y904478D01*
X1331Y904328D01*
X1383Y904178D01*
X1439Y904030D01*
X1499Y903883D01*
X1562Y903738D01*
X1629Y903595D01*
X1699Y903453D01*
X1773Y903313D01*
X1851Y903175D01*
X1932Y903039D01*
X2016Y902905D01*
X2103Y902773D01*
X2194Y902643D01*
X2288Y902516D01*
X2385Y902391D01*
X2486Y902268D01*
X2589Y902148D01*
X2695Y902031D01*
X2804Y901916D01*
X2916Y901804D01*
X3031Y901695D01*
X3148Y901589D01*
X3268Y901486D01*
X3391Y901385D01*
X3516Y901288D01*
X3643Y901194D01*
X3773Y901103D01*
X3905Y901016D01*
X4039Y900932D01*
X4175Y900851D01*
X4313Y900773D01*
X4453Y900699D01*
X4595Y900629D01*
X4738Y900562D01*
X4883Y900499D01*
X5030Y900439D01*
X5178Y900383D01*
X5328Y900331D01*
X5478Y900282D01*
X5630Y900237D01*
X5783Y900196D01*
X5937Y900159D01*
X6092Y900126D01*
X6247Y900096D01*
X6404Y900071D01*
X6560Y900049D01*
X6718Y900032D01*
X6875Y900018D01*
X7033Y900008D01*
X7192Y900002D01*
X7350Y900000D01*
X9650Y900000D01*
X9808Y899998D01*
X9967Y899992D01*
X10125Y899982D01*
X10282Y899968D01*
X10440Y899951D01*
X10596Y899929D01*
X10753Y899904D01*
X10908Y899874D01*
X11063Y899841D01*
X11217Y899804D01*
X11370Y899763D01*
X11522Y899718D01*
X11672Y899669D01*
X11822Y899617D01*
X11970Y899561D01*
X12117Y899501D01*
X12262Y899438D01*
X12405Y899371D01*
X12547Y899301D01*
X12687Y899227D01*
X12825Y899149D01*
X12961Y899068D01*
X13095Y898984D01*
X13227Y898897D01*
X13357Y898806D01*
X13484Y898712D01*
X13609Y898615D01*
X13732Y898514D01*
X13852Y898411D01*
X13969Y898305D01*
X14084Y898196D01*
X14196Y898084D01*
X14305Y897969D01*
X14411Y897852D01*
X14514Y897732D01*
X14615Y897609D01*
X14712Y897484D01*
X14806Y897357D01*
X14897Y897227D01*
X14984Y897095D01*
X15068Y896961D01*
X15149Y896825D01*
X15227Y896687D01*
X15301Y896547D01*
X15371Y896405D01*
X15438Y896262D01*
X15501Y896117D01*
X15561Y895970D01*
X15617Y895822D01*
X15669Y895672D01*
X15718Y895522D01*
X15763Y895370D01*
X15804Y895217D01*
X15841Y895063D01*
X15874Y894908D01*
X15904Y894753D01*
X15929Y894596D01*
X15951Y894440D01*
X15968Y894282D01*
X15982Y894125D01*
X15992Y893967D01*
X15998Y893808D01*
X16000Y893650D01*
X16000Y866350D01*
X15998Y866192D01*
X15992Y866033D01*
X15982Y865875D01*
X15968Y865718D01*
X15951Y865560D01*
X15929Y865404D01*
X15904Y865247D01*
X15874Y865092D01*
X15841Y864937D01*
X15804Y864783D01*
X15763Y864630D01*
X15718Y864478D01*
X15669Y864328D01*
X15617Y864178D01*
X15561Y864030D01*
X15501Y863883D01*
X15438Y863738D01*
X15371Y863595D01*
X15301Y863453D01*
X15227Y863313D01*
X15149Y863175D01*
X15068Y863039D01*
X14984Y862905D01*
X14897Y862773D01*
X14806Y862643D01*
X14712Y862516D01*
X14615Y862391D01*
X14514Y862268D01*
X14411Y862148D01*
X14305Y862031D01*
X14196Y861916D01*
X14084Y861804D01*
X13969Y861695D01*
X13852Y861589D01*
X13732Y861486D01*
X13609Y861385D01*
X13484Y861288D01*
X13357Y861194D01*
X13227Y861103D01*
X13095Y861016D01*
X12961Y860932D01*
X12825Y860851D01*
X12687Y860773D01*
X12547Y860699D01*
X12405Y860629D01*
X12262Y860562D01*
X12117Y860499D01*
X11970Y860439D01*
X11822Y860383D01*
X11672Y860331D01*
X11522Y860282D01*
X11370Y860237D01*
X11217Y860196D01*
X11063Y860159D01*
X10908Y860126D01*
X10753Y860096D01*
X10596Y860071D01*
X10440Y860049D01*
X10282Y860032D01*
X10125Y860018D01*
X9967Y860008D01*
X9808Y860002D01*
X9650Y860000D01*
X7350Y860000D01*
X7192Y859998D01*
X7033Y859992D01*
X6875Y859982D01*
X6718Y859968D01*
X6560Y859951D01*
X6404Y859929D01*
X6247Y859904D01*
X6092Y859874D01*
X5937Y859841D01*
X5783Y859804D01*
X5630Y859763D01*
X5478Y859718D01*
X5328Y859669D01*
X5178Y859617D01*
X5030Y859561D01*
X4883Y859501D01*
X4738Y859438D01*
X4595Y859371D01*
X4453Y859301D01*
X4313Y859227D01*
X4175Y859149D01*
X4039Y859068D01*
X3905Y858984D01*
X3773Y858897D01*
X3643Y858806D01*
X3516Y858712D01*
X3391Y858615D01*
X3268Y858514D01*
X3148Y858411D01*
X3031Y858305D01*
X2916Y858196D01*
X2804Y858084D01*
X2695Y857969D01*
X2589Y857852D01*
X2486Y857732D01*
X2385Y857609D01*
X2288Y857484D01*
X2194Y857357D01*
X2103Y857227D01*
X2016Y857095D01*
X1932Y856961D01*
X1851Y856825D01*
X1773Y856687D01*
X1699Y856547D01*
X1629Y856405D01*
X1562Y856262D01*
X1499Y856117D01*
X1439Y855970D01*
X1383Y855822D01*
X1331Y855672D01*
X1282Y855522D01*
X1237Y855370D01*
X1196Y855217D01*
X1159Y855063D01*
X1126Y854908D01*
X1096Y854753D01*
X1071Y854596D01*
X1049Y854440D01*
X1032Y854282D01*
X1018Y854125D01*
X1008Y853967D01*
X1002Y853808D01*
X1000Y853650D01*
X1000Y770000D01*
X1003Y769758D01*
X1012Y769517D01*
X1026Y769276D01*
X1047Y769035D01*
X1073Y768795D01*
X1105Y768555D01*
X1143Y768316D01*
X1186Y768079D01*
X1236Y767842D01*
X1291Y767607D01*
X1351Y767373D01*
X1418Y767141D01*
X1489Y766910D01*
X1567Y766681D01*
X1650Y766454D01*
X1738Y766229D01*
X1832Y766006D01*
X1931Y765786D01*
X2036Y765568D01*
X2145Y765353D01*
X2260Y765140D01*
X2380Y764930D01*
X2505Y764724D01*
X2635Y764520D01*
X2770Y764319D01*
X2910Y764122D01*
X3054Y763928D01*
X3203Y763738D01*
X3357Y763552D01*
X3515Y763369D01*
X3677Y763190D01*
X3844Y763015D01*
X4015Y762844D01*
X4190Y762677D01*
X4369Y762515D01*
X4552Y762357D01*
X4738Y762203D01*
X4928Y762054D01*
X5122Y761910D01*
X5319Y761770D01*
X5520Y761635D01*
X5724Y761505D01*
X5930Y761380D01*
X6140Y761260D01*
X6353Y761145D01*
X6568Y761036D01*
X6786Y760931D01*
X7006Y760832D01*
X7229Y760738D01*
X7454Y760650D01*
X7681Y760567D01*
X7910Y760489D01*
X8141Y760418D01*
X8373Y760351D01*
X8607Y760291D01*
X8842Y760236D01*
X9079Y760186D01*
X9316Y760143D01*
X9555Y760105D01*
X9795Y760073D01*
X10035Y760047D01*
X10276Y760026D01*
X10517Y760012D01*
X10758Y760003D01*
X11000Y760000D01*
X266000Y760000D01*
X266242Y760003D01*
X266483Y760012D01*
X266724Y760026D01*
X266965Y760047D01*
X267205Y760073D01*
X267445Y760105D01*
X267684Y760143D01*
X267921Y760186D01*
X268158Y760236D01*
X268393Y760291D01*
X268627Y760351D01*
X268859Y760418D01*
X269090Y760489D01*
X269319Y760567D01*
X269546Y760650D01*
X269771Y760738D01*
X269994Y760832D01*
X270214Y760931D01*
X270432Y761036D01*
X270647Y761145D01*
X270860Y761260D01*
X271070Y761380D01*
X271276Y761505D01*
X271480Y761635D01*
X271681Y761770D01*
X271878Y761910D01*
X272072Y762054D01*
X272262Y762203D01*
X272448Y762357D01*
X272631Y762515D01*
X272810Y762677D01*
X272985Y762844D01*
X273156Y763015D01*
X273323Y763190D01*
X273485Y763369D01*
X273643Y763552D01*
X273797Y763738D01*
X273946Y763928D01*
X274090Y764122D01*
X274230Y764319D01*
X274365Y764520D01*
X274495Y764724D01*
X274620Y764930D01*
X274740Y765140D01*
X274855Y765353D01*
X274964Y765568D01*
X275069Y765786D01*
X275168Y766006D01*
X275262Y766229D01*
X275350Y766454D01*
X275433Y766681D01*
X275511Y766910D01*
X275582Y767141D01*
X275649Y767373D01*
X275709Y767607D01*
X275764Y767842D01*
X275814Y768079D01*
X275857Y768316D01*
X275895Y768555D01*
X275927Y768795D01*
X275953Y769035D01*
X275974Y769276D01*
X275988Y769517D01*
X275997Y769758D01*
X276000Y770000D01*
X269650Y900000D02*
X267350Y900000D01*
X267192Y899998D01*
X267033Y899992D01*
X266875Y899982D01*
X266718Y899968D01*
X266560Y899951D01*
X266404Y899929D01*
X266247Y899904D01*
X266092Y899874D01*
X265937Y899841D01*
X265783Y899804D01*
X265630Y899763D01*
X265478Y899718D01*
X265328Y899669D01*
X265178Y899617D01*
X265030Y899561D01*
X264883Y899501D01*
X264738Y899438D01*
X264595Y899371D01*
X264453Y899301D01*
X264313Y899227D01*
X264175Y899149D01*
X264039Y899068D01*
X263905Y898984D01*
X263773Y898897D01*
X263643Y898806D01*
X263516Y898712D01*
X263391Y898615D01*
X263268Y898514D01*
X263148Y898411D01*
X263031Y898305D01*
X262916Y898196D01*
X262804Y898084D01*
X262695Y897969D01*
X262589Y897852D01*
X262486Y897732D01*
X262385Y897609D01*
X262288Y897484D01*
X262194Y897357D01*
X262103Y897227D01*
X262016Y897095D01*
X261932Y896961D01*
X261851Y896825D01*
X261773Y896687D01*
X261699Y896547D01*
X261629Y896405D01*
X261562Y896262D01*
X261499Y896117D01*
X261439Y895970D01*
X261383Y895822D01*
X261331Y895672D01*
X261282Y895522D01*
X261237Y895370D01*
X261196Y895217D01*
X261159Y895063D01*
X261126Y894908D01*
X261096Y894753D01*
X261071Y894596D01*
X261049Y894440D01*
X261032Y894282D01*
X261018Y894125D01*
X261008Y893967D01*
X261002Y893808D01*
X261000Y893650D01*
X261000Y866350D01*
X261002Y866192D01*
X261008Y866033D01*
X261018Y865875D01*
X261032Y865718D01*
X261049Y865560D01*
X261071Y865404D01*
X261096Y865247D01*
X261126Y865092D01*
X261159Y864937D01*
X261196Y864783D01*
X261237Y864630D01*
X261282Y864478D01*
X261331Y864328D01*
X261383Y864178D01*
X261439Y864030D01*
X261499Y863883D01*
X261562Y863738D01*
X261629Y863595D01*
X261699Y863453D01*
X261773Y863313D01*
X261851Y863175D01*
X261932Y863039D01*
X262016Y862905D01*
X262103Y862773D01*
X262194Y862643D01*
X262288Y862516D01*
X262385Y862391D01*
X262486Y862268D01*
X262589Y862148D01*
X262695Y862031D01*
X262804Y861916D01*
X262916Y861804D01*
X263031Y861695D01*
X263148Y861589D01*
X263268Y861486D01*
X263391Y861385D01*
X263516Y861288D01*
X263643Y861194D01*
X263773Y861103D01*
X263905Y861016D01*
X264039Y860932D01*
X264175Y860851D01*
X264313Y860773D01*
X264453Y860699D01*
X264595Y860629D01*
X264738Y860562D01*
X264883Y860499D01*
X265030Y860439D01*
X265178Y860383D01*
X265328Y860331D01*
X265478Y860282D01*
X265630Y860237D01*
X265783Y860196D01*
X265937Y860159D01*
X266092Y860126D01*
X266247Y860096D01*
X266404Y860071D01*
X266560Y860049D01*
X266718Y860032D01*
X266875Y860018D01*
X267033Y860008D01*
X267192Y860002D01*
X267350Y860000D01*
X269650Y860000D01*
X269808Y859998D01*
X269967Y859992D01*
X270125Y859982D01*
X270282Y859968D01*
X270440Y859951D01*
X270596Y859929D01*
X270753Y859904D01*
X270908Y859874D01*
X271063Y859841D01*
X271217Y859804D01*
X271370Y859763D01*
X271522Y859718D01*
X271672Y859669D01*
X271822Y859617D01*
X271970Y859561D01*
X272117Y859501D01*
X272262Y859438D01*
X272405Y859371D01*
X272547Y859301D01*
X272687Y859227D01*
X272825Y859149D01*
X272961Y859068D01*
X273095Y858984D01*
X273227Y858897D01*
X273357Y858806D01*
X273484Y858712D01*
X273609Y858615D01*
X273732Y858514D01*
X273852Y858411D01*
X273969Y858305D01*
X274084Y858196D01*
X274196Y858084D01*
X274305Y857969D01*
X274411Y857852D01*
X274514Y857732D01*
X274615Y857609D01*
X274712Y857484D01*
X274806Y857357D01*
X274897Y857227D01*
X274984Y857095D01*
X275068Y856961D01*
X275149Y856825D01*
X275227Y856687D01*
X275301Y856547D01*
X275371Y856405D01*
X275438Y856262D01*
X275501Y856117D01*
X275561Y855970D01*
X275617Y855822D01*
X275669Y855672D01*
X275718Y855522D01*
X275763Y855370D01*
X275804Y855217D01*
X275841Y855063D01*
X275874Y854908D01*
X275904Y854753D01*
X275929Y854596D01*
X275951Y854440D01*
X275968Y854282D01*
X275982Y854125D01*
X275992Y853967D01*
X275998Y853808D01*
X276000Y853650D01*
X276000Y770000D01*
X276000Y906350D02*
X276000Y993650D01*
X276000Y906350D02*
X275998Y906192D01*
X275992Y906033D01*
X275982Y905875D01*
X275968Y905718D01*
X275951Y905560D01*
X275929Y905404D01*
X275904Y905247D01*
X275874Y905092D01*
X275841Y904937D01*
X275804Y904783D01*
X275763Y904630D01*
X275718Y904478D01*
X275669Y904328D01*
X275617Y904178D01*
X275561Y904030D01*
X275501Y903883D01*
X275438Y903738D01*
X275371Y903595D01*
X275301Y903453D01*
X275227Y903313D01*
X275149Y903175D01*
X275068Y903039D01*
X274984Y902905D01*
X274897Y902773D01*
X274806Y902643D01*
X274712Y902516D01*
X274615Y902391D01*
X274514Y902268D01*
X274411Y902148D01*
X274305Y902031D01*
X274196Y901916D01*
X274084Y901804D01*
X273969Y901695D01*
X273852Y901589D01*
X273732Y901486D01*
X273609Y901385D01*
X273484Y901288D01*
X273357Y901194D01*
X273227Y901103D01*
X273095Y901016D01*
X272961Y900932D01*
X272825Y900851D01*
X272687Y900773D01*
X272547Y900699D01*
X272405Y900629D01*
X272262Y900562D01*
X272117Y900499D01*
X271970Y900439D01*
X271822Y900383D01*
X271672Y900331D01*
X271522Y900282D01*
X271370Y900237D01*
X271217Y900196D01*
X271063Y900159D01*
X270908Y900126D01*
X270753Y900096D01*
X270596Y900071D01*
X270440Y900049D01*
X270282Y900032D01*
X270125Y900018D01*
X269967Y900008D01*
X269808Y900002D01*
X269650Y900000D01*
X276000Y993650D02*
X275998Y993808D01*
X275992Y993967D01*
X275982Y994125D01*
X275968Y994282D01*
X275951Y994440D01*
X275929Y994596D01*
X275904Y994753D01*
X275874Y994908D01*
X275841Y995063D01*
X275804Y995217D01*
X275763Y995370D01*
X275718Y995522D01*
X275669Y995672D01*
X275617Y995822D01*
X275561Y995970D01*
X275501Y996117D01*
X275438Y996262D01*
X275371Y996405D01*
X275301Y996547D01*
X275227Y996687D01*
X275149Y996825D01*
X275068Y996961D01*
X274984Y997095D01*
X274897Y997227D01*
X274806Y997357D01*
X274712Y997484D01*
X274615Y997609D01*
X274514Y997732D01*
X274411Y997852D01*
X274305Y997969D01*
X274196Y998084D01*
X274084Y998196D01*
X273969Y998305D01*
X273852Y998411D01*
X273732Y998514D01*
X273609Y998615D01*
X273484Y998712D01*
X273357Y998806D01*
X273227Y998897D01*
X273095Y998984D01*
X272961Y999068D01*
X272825Y999149D01*
X272687Y999227D01*
X272547Y999301D01*
X272405Y999371D01*
X272262Y999438D01*
X272117Y999501D01*
X271970Y999561D01*
X271822Y999617D01*
X271672Y999669D01*
X271522Y999718D01*
X271370Y999763D01*
X271217Y999804D01*
X271063Y999841D01*
X270908Y999874D01*
X270753Y999904D01*
X270596Y999929D01*
X270440Y999951D01*
X270282Y999968D01*
X270125Y999982D01*
X269967Y999992D01*
X269808Y999998D01*
X269650Y1000000D01*
X191000Y1000000D01*
X190867Y999998D01*
X190733Y999992D01*
X190600Y999982D01*
X190468Y999968D01*
X190336Y999951D01*
X190204Y999929D01*
X190073Y999904D01*
X189943Y999874D01*
X189814Y999841D01*
X189686Y999804D01*
X189559Y999763D01*
X189433Y999718D01*
X189309Y999670D01*
X189186Y999618D01*
X189065Y999563D01*
X188945Y999503D01*
X188827Y999441D01*
X188712Y999375D01*
X188598Y999305D01*
X188486Y999232D01*
X188377Y999156D01*
X188269Y999077D01*
X188165Y998994D01*
X188062Y998909D01*
X187963Y998820D01*
X187866Y998729D01*
X187771Y998634D01*
X187680Y998537D01*
X187591Y998438D01*
X187506Y998335D01*
X187423Y998231D01*
X187344Y998123D01*
X187268Y998014D01*
X187195Y997902D01*
X187125Y997788D01*
X187059Y997673D01*
X186997Y997555D01*
X186937Y997435D01*
X186882Y997314D01*
X186830Y997191D01*
X186782Y997067D01*
X186737Y996941D01*
X186696Y996814D01*
X186659Y996686D01*
X186626Y996557D01*
X186596Y996427D01*
X186571Y996296D01*
X186549Y996164D01*
X186532Y996032D01*
X186518Y995900D01*
X186508Y995767D01*
X186502Y995633D01*
X186500Y995500D01*
X186500Y923500D01*
X186498Y923367D01*
X186492Y923233D01*
X186482Y923100D01*
X186468Y922968D01*
X186451Y922836D01*
X186429Y922704D01*
X186404Y922573D01*
X186374Y922443D01*
X186341Y922314D01*
X186304Y922186D01*
X186263Y922059D01*
X186218Y921933D01*
X186170Y921809D01*
X186118Y921686D01*
X186063Y921565D01*
X186003Y921445D01*
X185941Y921327D01*
X185875Y921212D01*
X185805Y921098D01*
X185732Y920986D01*
X185656Y920877D01*
X185577Y920769D01*
X185494Y920665D01*
X185409Y920562D01*
X185320Y920463D01*
X185229Y920366D01*
X185134Y920271D01*
X185037Y920180D01*
X184938Y920091D01*
X184835Y920006D01*
X184731Y919923D01*
X184623Y919844D01*
X184514Y919768D01*
X184402Y919695D01*
X184288Y919625D01*
X184173Y919559D01*
X184055Y919497D01*
X183935Y919437D01*
X183814Y919382D01*
X183691Y919330D01*
X183567Y919282D01*
X183441Y919237D01*
X183314Y919196D01*
X183186Y919159D01*
X183057Y919126D01*
X182927Y919096D01*
X182796Y919071D01*
X182664Y919049D01*
X182532Y919032D01*
X182400Y919018D01*
X182267Y919008D01*
X182133Y919002D01*
X182000Y919000D01*
X174600Y919000D01*
X174467Y919002D01*
X174333Y919008D01*
X174200Y919018D01*
X174068Y919032D01*
X173936Y919049D01*
X173804Y919071D01*
X173673Y919096D01*
X173543Y919126D01*
X173414Y919159D01*
X173286Y919196D01*
X173159Y919237D01*
X173033Y919282D01*
X172909Y919330D01*
X172786Y919382D01*
X172665Y919437D01*
X172545Y919497D01*
X172427Y919559D01*
X172312Y919625D01*
X172198Y919695D01*
X172086Y919768D01*
X171977Y919844D01*
X171869Y919923D01*
X171765Y920006D01*
X171662Y920091D01*
X171563Y920180D01*
X171466Y920271D01*
X171371Y920366D01*
X171280Y920463D01*
X171191Y920562D01*
X171106Y920665D01*
X171023Y920769D01*
X170944Y920877D01*
X170868Y920986D01*
X170795Y921098D01*
X170725Y921212D01*
X170659Y921327D01*
X170597Y921445D01*
X170537Y921565D01*
X170482Y921686D01*
X170430Y921809D01*
X170382Y921933D01*
X170337Y922059D01*
X170296Y922186D01*
X170259Y922314D01*
X170226Y922443D01*
X170196Y922573D01*
X170171Y922704D01*
X170149Y922836D01*
X170132Y922968D01*
X170118Y923100D01*
X170108Y923233D01*
X170102Y923367D01*
X170100Y923500D01*
X170100Y995500D01*
X170098Y995633D01*
X170092Y995767D01*
X170082Y995900D01*
X170068Y996032D01*
X170051Y996164D01*
X170029Y996296D01*
X170004Y996427D01*
X169974Y996557D01*
X169941Y996686D01*
X169904Y996814D01*
X169863Y996941D01*
X169818Y997067D01*
X169770Y997191D01*
X169718Y997314D01*
X169663Y997435D01*
X169603Y997555D01*
X169541Y997673D01*
X169475Y997788D01*
X169405Y997902D01*
X169332Y998014D01*
X169256Y998123D01*
X169177Y998231D01*
X169094Y998335D01*
X169009Y998438D01*
X168920Y998537D01*
X168829Y998634D01*
X168734Y998729D01*
X168637Y998820D01*
X168538Y998909D01*
X168435Y998994D01*
X168331Y999077D01*
X168223Y999156D01*
X168114Y999232D01*
X168002Y999305D01*
X167888Y999375D01*
X167773Y999441D01*
X167655Y999503D01*
X167535Y999563D01*
X167414Y999618D01*
X167291Y999670D01*
X167167Y999718D01*
X167041Y999763D01*
X166914Y999804D01*
X166786Y999841D01*
X166657Y999874D01*
X166527Y999904D01*
X166396Y999929D01*
X166264Y999951D01*
X166132Y999968D01*
X166000Y999982D01*
X165867Y999992D01*
X165733Y999998D01*
X165600Y1000000D01*
X7350Y1000000D01*
X7192Y999998D01*
X7033Y999992D01*
X6875Y999982D01*
X6718Y999968D01*
X6560Y999951D01*
X6404Y999929D01*
X6247Y999904D01*
X6092Y999874D01*
X5937Y999841D01*
X5783Y999804D01*
X5630Y999763D01*
X5478Y999718D01*
X5328Y999669D01*
X5178Y999617D01*
X5030Y999561D01*
X4883Y999501D01*
X4738Y999438D01*
X4595Y999371D01*
X4453Y999301D01*
X4313Y999227D01*
X4175Y999149D01*
X4039Y999068D01*
X3905Y998984D01*
X3773Y998897D01*
X3643Y998806D01*
X3516Y998712D01*
X3391Y998615D01*
X3268Y998514D01*
X3148Y998411D01*
X3031Y998305D01*
X2916Y998196D01*
X2804Y998084D01*
X2695Y997969D01*
X2589Y997852D01*
X2486Y997732D01*
X2385Y997609D01*
X2288Y997484D01*
X2194Y997357D01*
X2103Y997227D01*
X2016Y997095D01*
X1932Y996961D01*
X1851Y996825D01*
X1773Y996687D01*
X1699Y996547D01*
X1629Y996405D01*
X1562Y996262D01*
X1499Y996117D01*
X1439Y995970D01*
X1383Y995822D01*
X1331Y995672D01*
X1282Y995522D01*
X1237Y995370D01*
X1196Y995217D01*
X1159Y995063D01*
X1126Y994908D01*
X1096Y994753D01*
X1071Y994596D01*
X1049Y994440D01*
X1032Y994282D01*
X1018Y994125D01*
X1008Y993967D01*
X1002Y993808D01*
X1000Y993650D01*
X123200Y868000D02*
X123205Y868380D01*
X123219Y868761D01*
X123242Y869140D01*
X123275Y869519D01*
X123317Y869897D01*
X123368Y870274D01*
X123428Y870650D01*
X123498Y871024D01*
X123577Y871396D01*
X123665Y871766D01*
X123761Y872134D01*
X123867Y872499D01*
X123982Y872862D01*
X124106Y873222D01*
X124239Y873578D01*
X124380Y873932D01*
X124530Y874281D01*
X124688Y874627D01*
X124855Y874969D01*
X125030Y875307D01*
X125214Y875640D01*
X125405Y875969D01*
X125605Y876292D01*
X125812Y876611D01*
X126027Y876925D01*
X126250Y877233D01*
X126481Y877536D01*
X126718Y877833D01*
X126963Y878124D01*
X127215Y878409D01*
X127474Y878688D01*
X127740Y878960D01*
X128012Y879226D01*
X128291Y879485D01*
X128576Y879737D01*
X128867Y879982D01*
X129164Y880219D01*
X129467Y880450D01*
X129775Y880673D01*
X130089Y880888D01*
X130408Y881095D01*
X130731Y881295D01*
X131060Y881486D01*
X131393Y881670D01*
X131731Y881845D01*
X132073Y882012D01*
X132419Y882170D01*
X132768Y882320D01*
X133122Y882461D01*
X133478Y882594D01*
X133838Y882718D01*
X134201Y882833D01*
X134566Y882939D01*
X134934Y883035D01*
X135304Y883123D01*
X135676Y883202D01*
X136050Y883272D01*
X136426Y883332D01*
X136803Y883383D01*
X137181Y883425D01*
X137560Y883458D01*
X137939Y883481D01*
X138320Y883495D01*
X138700Y883500D01*
X139080Y883495D01*
X139461Y883481D01*
X139840Y883458D01*
X140219Y883425D01*
X140597Y883383D01*
X140974Y883332D01*
X141350Y883272D01*
X141724Y883202D01*
X142096Y883123D01*
X142466Y883035D01*
X142834Y882939D01*
X143199Y882833D01*
X143562Y882718D01*
X143922Y882594D01*
X144278Y882461D01*
X144632Y882320D01*
X144981Y882170D01*
X145327Y882012D01*
X145669Y881845D01*
X146007Y881670D01*
X146340Y881486D01*
X146669Y881295D01*
X146992Y881095D01*
X147311Y880888D01*
X147625Y880673D01*
X147933Y880450D01*
X148236Y880219D01*
X148533Y879982D01*
X148824Y879737D01*
X149109Y879485D01*
X149388Y879226D01*
X149660Y878960D01*
X149926Y878688D01*
X150185Y878409D01*
X150437Y878124D01*
X150682Y877833D01*
X150919Y877536D01*
X151150Y877233D01*
X151373Y876925D01*
X151588Y876611D01*
X151795Y876292D01*
X151995Y875969D01*
X152186Y875640D01*
X152370Y875307D01*
X152545Y874969D01*
X152712Y874627D01*
X152870Y874281D01*
X153020Y873932D01*
X153161Y873578D01*
X153294Y873222D01*
X153418Y872862D01*
X153533Y872499D01*
X153639Y872134D01*
X153735Y871766D01*
X153823Y871396D01*
X153902Y871024D01*
X153972Y870650D01*
X154032Y870274D01*
X154083Y869897D01*
X154125Y869519D01*
X154158Y869140D01*
X154181Y868761D01*
X154195Y868380D01*
X154200Y868000D01*
X154195Y867620D01*
X154181Y867239D01*
X154158Y866860D01*
X154125Y866481D01*
X154083Y866103D01*
X154032Y865726D01*
X153972Y865350D01*
X153902Y864976D01*
X153823Y864604D01*
X153735Y864234D01*
X153639Y863866D01*
X153533Y863501D01*
X153418Y863138D01*
X153294Y862778D01*
X153161Y862422D01*
X153020Y862068D01*
X152870Y861719D01*
X152712Y861373D01*
X152545Y861031D01*
X152370Y860693D01*
X152186Y860360D01*
X151995Y860031D01*
X151795Y859708D01*
X151588Y859389D01*
X151373Y859075D01*
X151150Y858767D01*
X150919Y858464D01*
X150682Y858167D01*
X150437Y857876D01*
X150185Y857591D01*
X149926Y857312D01*
X149660Y857040D01*
X149388Y856774D01*
X149109Y856515D01*
X148824Y856263D01*
X148533Y856018D01*
X148236Y855781D01*
X147933Y855550D01*
X147625Y855327D01*
X147311Y855112D01*
X146992Y854905D01*
X146669Y854705D01*
X146340Y854514D01*
X146007Y854330D01*
X145669Y854155D01*
X145327Y853988D01*
X144981Y853830D01*
X144632Y853680D01*
X144278Y853539D01*
X143922Y853406D01*
X143562Y853282D01*
X143199Y853167D01*
X142834Y853061D01*
X142466Y852965D01*
X142096Y852877D01*
X141724Y852798D01*
X141350Y852728D01*
X140974Y852668D01*
X140597Y852617D01*
X140219Y852575D01*
X139840Y852542D01*
X139461Y852519D01*
X139080Y852505D01*
X138700Y852500D01*
X138320Y852505D01*
X137939Y852519D01*
X137560Y852542D01*
X137181Y852575D01*
X136803Y852617D01*
X136426Y852668D01*
X136050Y852728D01*
X135676Y852798D01*
X135304Y852877D01*
X134934Y852965D01*
X134566Y853061D01*
X134201Y853167D01*
X133838Y853282D01*
X133478Y853406D01*
X133122Y853539D01*
X132768Y853680D01*
X132419Y853830D01*
X132073Y853988D01*
X131731Y854155D01*
X131393Y854330D01*
X131060Y854514D01*
X130731Y854705D01*
X130408Y854905D01*
X130089Y855112D01*
X129775Y855327D01*
X129467Y855550D01*
X129164Y855781D01*
X128867Y856018D01*
X128576Y856263D01*
X128291Y856515D01*
X128012Y856774D01*
X127740Y857040D01*
X127474Y857312D01*
X127215Y857591D01*
X126963Y857876D01*
X126718Y858167D01*
X126481Y858464D01*
X126250Y858767D01*
X126027Y859075D01*
X125812Y859389D01*
X125605Y859708D01*
X125405Y860031D01*
X125214Y860360D01*
X125030Y860693D01*
X124855Y861031D01*
X124688Y861373D01*
X124530Y861719D01*
X124380Y862068D01*
X124239Y862422D01*
X124106Y862778D01*
X123982Y863138D01*
X123867Y863501D01*
X123761Y863866D01*
X123665Y864234D01*
X123577Y864604D01*
X123498Y864976D01*
X123428Y865350D01*
X123368Y865726D01*
X123317Y866103D01*
X123275Y866481D01*
X123242Y866860D01*
X123219Y867239D01*
X123205Y867620D01*
X123200Y868000D01*
D11*
X1000Y770000D02*
X1038Y769128D01*
X1152Y768264D01*
X1341Y767412D01*
X1603Y766580D01*
X1937Y765774D01*
X2340Y765000D01*
X2808Y764264D01*
X3340Y763572D01*
X3929Y762929D01*
X4572Y762340D01*
X5264Y761808D01*
X6000Y761340D01*
X6774Y760937D01*
X7580Y760603D01*
X8412Y760341D01*
X9264Y760152D01*
X10128Y760038D01*
X11000Y760000D01*
X266000Y760000D01*
X266872Y760038D01*
X267736Y760152D01*
X268588Y760341D01*
X269420Y760603D01*
X270226Y760937D01*
X271000Y761340D01*
X271736Y761808D01*
X272428Y762340D01*
X273071Y762929D01*
X273660Y763572D01*
X274192Y764264D01*
X274660Y765000D01*
X275063Y765774D01*
X275397Y766580D01*
X275659Y767412D01*
X275848Y768264D01*
X275962Y769128D01*
X276000Y770000D01*
X276000Y853650D01*
X275976Y854203D01*
X275904Y854753D01*
X275784Y855294D01*
X275617Y855822D01*
X275405Y856334D01*
X275149Y856825D01*
X274852Y857292D01*
X274514Y857732D01*
X274140Y858140D01*
X273732Y858514D01*
X273292Y858852D01*
X272825Y859149D01*
X272334Y859405D01*
X271822Y859617D01*
X271294Y859784D01*
X270753Y859904D01*
X270203Y859976D01*
X269650Y860000D01*
X267350Y860000D01*
X266797Y860024D01*
X266247Y860096D01*
X265707Y860216D01*
X265178Y860383D01*
X264666Y860595D01*
X264175Y860851D01*
X263708Y861148D01*
X263268Y861486D01*
X262860Y861860D01*
X262486Y862268D01*
X262148Y862708D01*
X261851Y863175D01*
X261595Y863666D01*
X261383Y864178D01*
X261216Y864707D01*
X261096Y865247D01*
X261024Y865797D01*
X261000Y866350D01*
X261000Y893650D01*
X261024Y894203D01*
X261096Y894753D01*
X261216Y895294D01*
X261383Y895822D01*
X261595Y896334D01*
X261851Y896825D01*
X262148Y897292D01*
X262486Y897732D01*
X262860Y898140D01*
X263268Y898514D01*
X263708Y898852D01*
X264175Y899149D01*
X264666Y899405D01*
X265178Y899617D01*
X265707Y899784D01*
X266247Y899904D01*
X266797Y899976D01*
X267350Y900000D01*
X269650Y900000D01*
X270203Y900024D01*
X270753Y900096D01*
X271294Y900216D01*
X271822Y900383D01*
X272334Y900595D01*
X272825Y900851D01*
X273292Y901148D01*
X273732Y901486D01*
X274140Y901860D01*
X274514Y902268D01*
X274852Y902708D01*
X275149Y903175D01*
X275405Y903666D01*
X275617Y904178D01*
X275784Y904707D01*
X275904Y905247D01*
X275976Y905797D01*
X276000Y906350D01*
X276000Y993650D01*
X275976Y994203D01*
X275904Y994753D01*
X275784Y995294D01*
X275617Y995822D01*
X275405Y996334D01*
X275149Y996825D01*
X274852Y997292D01*
X274514Y997732D01*
X274140Y998140D01*
X273732Y998514D01*
X273292Y998852D01*
X272825Y999149D01*
X272334Y999405D01*
X271822Y999617D01*
X271294Y999784D01*
X270753Y999904D01*
X270203Y999976D01*
X269650Y1000000D01*
X191000Y1000000D01*
X190608Y999983D01*
X190219Y999932D01*
X189835Y999847D01*
X189461Y999729D01*
X189098Y999578D01*
X188750Y999397D01*
X188419Y999186D01*
X188107Y998947D01*
X187818Y998682D01*
X187553Y998393D01*
X187314Y998081D01*
X187103Y997750D01*
X186922Y997402D01*
X186771Y997039D01*
X186653Y996665D01*
X186568Y996281D01*
X186517Y995892D01*
X186500Y995500D01*
X186500Y923500D01*
X186483Y923108D01*
X186432Y922719D01*
X186347Y922335D01*
X186229Y921961D01*
X186078Y921598D01*
X185897Y921250D01*
X185686Y920919D01*
X185447Y920607D01*
X185182Y920318D01*
X184893Y920053D01*
X184581Y919814D01*
X184250Y919603D01*
X183902Y919422D01*
X183539Y919271D01*
X183165Y919153D01*
X182781Y919068D01*
X182392Y919017D01*
X182000Y919000D01*
X174600Y919000D01*
X174208Y919017D01*
X173819Y919068D01*
X173435Y919153D01*
X173061Y919271D01*
X172698Y919422D01*
X172350Y919603D01*
X172019Y919814D01*
X171707Y920053D01*
X171418Y920318D01*
X171153Y920607D01*
X170914Y920919D01*
X170703Y921250D01*
X170522Y921598D01*
X170371Y921961D01*
X170253Y922335D01*
X170168Y922719D01*
X170117Y923108D01*
X170100Y923500D01*
X170100Y995500D01*
X170083Y995892D01*
X170032Y996281D01*
X169947Y996665D01*
X169829Y997039D01*
X169678Y997402D01*
X169497Y997750D01*
X169286Y998081D01*
X169047Y998393D01*
X168782Y998682D01*
X168493Y998947D01*
X168181Y999186D01*
X167850Y999397D01*
X167502Y999578D01*
X167139Y999729D01*
X166765Y999847D01*
X166381Y999932D01*
X165992Y999983D01*
X165600Y1000000D01*
X7350Y1000000D01*
X6797Y999976D01*
X6247Y999904D01*
X5707Y999784D01*
X5178Y999617D01*
X4666Y999405D01*
X4175Y999149D01*
X3708Y998852D01*
X3268Y998514D01*
X2860Y998140D01*
X2486Y997732D01*
X2148Y997292D01*
X1851Y996825D01*
X1595Y996334D01*
X1383Y995822D01*
X1216Y995294D01*
X1096Y994753D01*
X1024Y994203D01*
X1000Y993650D01*
X1000Y906350D01*
X1024Y905797D01*
X1096Y905247D01*
X1216Y904707D01*
X1383Y904178D01*
X1595Y903666D01*
X1851Y903175D01*
X2148Y902708D01*
X2486Y902268D01*
X2860Y901860D01*
X3268Y901486D01*
X3708Y901148D01*
X4175Y900851D01*
X4666Y900595D01*
X5178Y900383D01*
X5707Y900216D01*
X6247Y900096D01*
X6797Y900024D01*
X7350Y900000D01*
X9650Y900000D01*
X10203Y899976D01*
X10753Y899904D01*
X11294Y899784D01*
X11822Y899617D01*
X12334Y899405D01*
X12825Y899149D01*
X13292Y898852D01*
X13732Y898514D01*
X14140Y898140D01*
X14514Y897732D01*
X14852Y897292D01*
X15149Y896825D01*
X15405Y896334D01*
X15617Y895822D01*
X15784Y895294D01*
X15904Y894753D01*
X15976Y894203D01*
X16000Y893650D01*
X16000Y866350D01*
X15976Y865797D01*
X15904Y865247D01*
X15784Y864707D01*
X15617Y864178D01*
X15405Y863666D01*
X15149Y863175D01*
X14852Y862708D01*
X14514Y862268D01*
X14140Y861860D01*
X13732Y861486D01*
X13292Y861148D01*
X12825Y860851D01*
X12334Y860595D01*
X11822Y860383D01*
X11294Y860216D01*
X10753Y860096D01*
X10203Y860024D01*
X9650Y860000D01*
X7350Y860000D01*
X6797Y859976D01*
X6247Y859904D01*
X5707Y859784D01*
X5178Y859617D01*
X4666Y859405D01*
X4175Y859149D01*
X3708Y858852D01*
X3268Y858514D01*
X2860Y858140D01*
X2486Y857732D01*
X2148Y857292D01*
X1851Y856825D01*
X1595Y856334D01*
X1383Y855822D01*
X1216Y855294D01*
X1096Y854753D01*
X1024Y854203D01*
X1000Y853650D01*
X1000Y770000D01*
M02*
