G04 EAGLE Gerber RS-274X export*
G75*
%MOMM*%
%FSLAX34Y34*%
%LPD*%
%INTop Copper*%
%IPPOS*%
%AMOC8*
5,1,8,0,0,1.08239X$1,22.5*%
G01*
%ADD10R,1.905000X8.255000*%
%ADD11R,2.000000X4.000000*%
%ADD12C,1.108000*%
%ADD13R,1.828800X1.828800*%
%ADD14P,1.979475X8X292.500000*%
%ADD15C,0.900000*%


D10*
X39700Y954540D03*
X79300Y954540D03*
X118900Y954540D03*
X158500Y954540D03*
X198100Y954540D03*
X237700Y954540D03*
D11*
X39700Y790000D03*
X79300Y790000D03*
X118900Y790000D03*
X158500Y790000D03*
X198100Y790000D03*
X237700Y790000D03*
D12*
X39700Y809800D03*
X79300Y809800D03*
X118900Y809800D03*
X158500Y809800D03*
X198100Y809800D03*
X237700Y809800D03*
D13*
X207300Y881400D03*
D14*
X232700Y881400D03*
X207300Y856000D03*
X232700Y856000D03*
X207300Y830600D03*
X232700Y830600D03*
D15*
X237700Y886400D02*
X237700Y954540D01*
X237700Y886400D02*
X232700Y881400D01*
X232700Y830600D01*
X237700Y809800D02*
X237700Y790000D01*
X237700Y809800D02*
X237700Y825600D01*
X232700Y830600D01*
X198100Y890600D02*
X198100Y954540D01*
X198100Y890600D02*
X207300Y881400D01*
X207300Y830600D02*
X198100Y821400D01*
X207300Y830600D02*
X207300Y881400D01*
X198100Y821400D02*
X198100Y790000D01*
X158500Y887500D02*
X158500Y954540D01*
X164000Y852000D02*
X158000Y846000D01*
X158000Y810300D01*
X164000Y882000D02*
X158500Y887500D01*
X164000Y882000D02*
X164000Y852000D01*
X158500Y809800D02*
X158500Y790000D01*
X158500Y809800D02*
X158000Y810300D01*
X118900Y886900D02*
X118900Y954540D01*
X118900Y886900D02*
X114000Y882000D01*
X114000Y852000D01*
X118900Y847100D02*
X118900Y809800D01*
X118900Y847100D02*
X114000Y852000D01*
X118900Y809800D02*
X118900Y790000D01*
X79300Y809800D02*
X79300Y954540D01*
X79300Y809800D02*
X79300Y790000D01*
X39700Y809800D02*
X39700Y954540D01*
X39700Y809800D02*
X39700Y790000D01*
M02*
