G04 EAGLE Gerber RS-274X export*
G75*
%MOMM*%
%FSLAX34Y34*%
%LPD*%
%INTop Copper*%
%IPPOS*%
%AMOC8*
5,1,8,0,0,1.08239X$1,22.5*%
G01*
%ADD10R,1.411200X1.411200*%
%ADD11C,1.411200*%
%ADD12C,0.762000*%
%ADD13R,1.828800X1.828800*%
%ADD14P,1.979475X8X292.500000*%
%ADD15R,1.440000X1.440000*%
%ADD16C,1.440000*%
%ADD17P,2.034460X8X22.500000*%
%ADD18R,1.905000X8.255000*%
%ADD19C,0.203200*%
%ADD20C,0.502400*%
%ADD21C,0.127000*%

G36*
X135860Y8993D02*
X135860Y8993D01*
X135918Y8991D01*
X136000Y9013D01*
X136084Y9025D01*
X136137Y9048D01*
X136193Y9063D01*
X136266Y9106D01*
X136343Y9141D01*
X136388Y9179D01*
X136438Y9208D01*
X136496Y9270D01*
X136560Y9324D01*
X136592Y9373D01*
X136632Y9416D01*
X136671Y9491D01*
X136718Y9561D01*
X136735Y9617D01*
X136762Y9669D01*
X136773Y9737D01*
X136803Y9832D01*
X136806Y9932D01*
X136817Y10000D01*
X136817Y50701D01*
X137591Y52568D01*
X139020Y53997D01*
X140887Y54771D01*
X160689Y54771D01*
X162556Y53997D01*
X163985Y52568D01*
X164759Y50701D01*
X164759Y10000D01*
X164767Y9942D01*
X164765Y9884D01*
X164787Y9802D01*
X164799Y9718D01*
X164822Y9665D01*
X164837Y9609D01*
X164880Y9536D01*
X164915Y9459D01*
X164953Y9414D01*
X164982Y9364D01*
X165044Y9306D01*
X165098Y9242D01*
X165147Y9210D01*
X165190Y9170D01*
X165265Y9131D01*
X165335Y9084D01*
X165391Y9067D01*
X165443Y9040D01*
X165511Y9029D01*
X165606Y8999D01*
X165706Y8996D01*
X165774Y8985D01*
X175402Y8985D01*
X175460Y8993D01*
X175518Y8991D01*
X175600Y9013D01*
X175684Y9025D01*
X175737Y9048D01*
X175793Y9063D01*
X175866Y9106D01*
X175943Y9141D01*
X175988Y9179D01*
X176038Y9208D01*
X176096Y9270D01*
X176160Y9324D01*
X176192Y9373D01*
X176232Y9416D01*
X176271Y9491D01*
X176318Y9561D01*
X176335Y9617D01*
X176362Y9669D01*
X176373Y9737D01*
X176403Y9832D01*
X176406Y9932D01*
X176417Y10000D01*
X176417Y50701D01*
X177191Y52568D01*
X178620Y53997D01*
X180487Y54771D01*
X187086Y54771D01*
X187144Y54779D01*
X187202Y54777D01*
X187284Y54799D01*
X187368Y54811D01*
X187421Y54834D01*
X187477Y54849D01*
X187550Y54892D01*
X187627Y54927D01*
X187672Y54965D01*
X187722Y54994D01*
X187780Y55056D01*
X187844Y55110D01*
X187876Y55159D01*
X187916Y55202D01*
X187955Y55277D01*
X188002Y55347D01*
X188019Y55403D01*
X188046Y55455D01*
X188057Y55523D01*
X188087Y55618D01*
X188090Y55718D01*
X188101Y55786D01*
X188101Y68694D01*
X188089Y68781D01*
X188086Y68868D01*
X188069Y68921D01*
X188061Y68976D01*
X188026Y69056D01*
X187999Y69139D01*
X187971Y69178D01*
X187945Y69235D01*
X187849Y69348D01*
X187804Y69412D01*
X175366Y81850D01*
X175365Y81851D01*
X175364Y81852D01*
X175254Y81935D01*
X175139Y82021D01*
X175137Y82022D01*
X175136Y82023D01*
X175007Y82071D01*
X174873Y82122D01*
X174872Y82122D01*
X174870Y82123D01*
X174726Y82135D01*
X174590Y82146D01*
X174588Y82146D01*
X174587Y82146D01*
X174571Y82142D01*
X174311Y82090D01*
X174284Y82076D01*
X174260Y82070D01*
X172456Y81323D01*
X169144Y81323D01*
X167340Y82070D01*
X167339Y82071D01*
X167338Y82071D01*
X167203Y82106D01*
X167065Y82141D01*
X167064Y82141D01*
X167062Y82141D01*
X166921Y82137D01*
X166781Y82133D01*
X166779Y82133D01*
X166778Y82132D01*
X166645Y82090D01*
X166510Y82046D01*
X166509Y82045D01*
X166507Y82045D01*
X166495Y82036D01*
X166274Y81888D01*
X166254Y81865D01*
X166234Y81850D01*
X157734Y73350D01*
X156097Y71713D01*
X140053Y71713D01*
X128713Y83053D01*
X128713Y246947D01*
X158416Y276650D01*
X160053Y278287D01*
X185632Y278287D01*
X185719Y278299D01*
X185806Y278302D01*
X185859Y278319D01*
X185914Y278327D01*
X185994Y278362D01*
X186077Y278389D01*
X186116Y278417D01*
X186173Y278443D01*
X186286Y278539D01*
X186350Y278584D01*
X191216Y283450D01*
X191268Y283520D01*
X191328Y283584D01*
X191354Y283633D01*
X191387Y283677D01*
X191418Y283759D01*
X191458Y283837D01*
X191466Y283884D01*
X191488Y283943D01*
X191500Y284090D01*
X191513Y284168D01*
X191513Y286979D01*
X191505Y287037D01*
X191507Y287095D01*
X191485Y287177D01*
X191473Y287261D01*
X191450Y287314D01*
X191435Y287370D01*
X191392Y287443D01*
X191357Y287520D01*
X191319Y287565D01*
X191290Y287615D01*
X191228Y287673D01*
X191174Y287737D01*
X191125Y287769D01*
X191082Y287809D01*
X191007Y287848D01*
X190937Y287895D01*
X190881Y287912D01*
X190829Y287939D01*
X190761Y287950D01*
X190666Y287980D01*
X190566Y287983D01*
X190498Y287994D01*
X183749Y287994D01*
X183004Y288739D01*
X183004Y290000D01*
X182996Y290058D01*
X182998Y290116D01*
X182976Y290198D01*
X182964Y290282D01*
X182941Y290335D01*
X182926Y290391D01*
X182883Y290464D01*
X182848Y290541D01*
X182810Y290586D01*
X182781Y290636D01*
X182719Y290694D01*
X182665Y290758D01*
X182616Y290790D01*
X182573Y290830D01*
X182498Y290869D01*
X182428Y290916D01*
X182372Y290933D01*
X182320Y290960D01*
X182252Y290971D01*
X182157Y291001D01*
X182057Y291004D01*
X181989Y291015D01*
X-11116Y291015D01*
X-11146Y291011D01*
X-11177Y291013D01*
X-11254Y290996D01*
X-11397Y290975D01*
X-11456Y290949D01*
X-11504Y290938D01*
X-13069Y290290D01*
X-13095Y290274D01*
X-13125Y290265D01*
X-13188Y290219D01*
X-13314Y290145D01*
X-13358Y290098D01*
X-13398Y290070D01*
X-16070Y287398D01*
X-16088Y287373D01*
X-16112Y287353D01*
X-16154Y287286D01*
X-16241Y287171D01*
X-16264Y287111D01*
X-16290Y287069D01*
X-17736Y283578D01*
X-17807Y283302D01*
X-17807Y283295D01*
X-17808Y283289D01*
X-17994Y281400D01*
X-17992Y281343D01*
X-17999Y281300D01*
X-17999Y10000D01*
X-17991Y9942D01*
X-17993Y9884D01*
X-17971Y9802D01*
X-17959Y9718D01*
X-17936Y9665D01*
X-17921Y9609D01*
X-17878Y9536D01*
X-17843Y9459D01*
X-17805Y9414D01*
X-17776Y9364D01*
X-17714Y9306D01*
X-17660Y9242D01*
X-17611Y9210D01*
X-17568Y9170D01*
X-17493Y9131D01*
X-17423Y9084D01*
X-17367Y9067D01*
X-17315Y9040D01*
X-17247Y9029D01*
X-17152Y8999D01*
X-17052Y8996D01*
X-16984Y8985D01*
X135802Y8985D01*
X135860Y8993D01*
G37*
G36*
X757042Y8993D02*
X757042Y8993D01*
X757100Y8991D01*
X757182Y9013D01*
X757266Y9025D01*
X757319Y9049D01*
X757375Y9063D01*
X757448Y9106D01*
X757525Y9141D01*
X757570Y9179D01*
X757620Y9209D01*
X757678Y9270D01*
X757742Y9325D01*
X757774Y9373D01*
X757814Y9416D01*
X757853Y9491D01*
X757900Y9561D01*
X757917Y9617D01*
X757944Y9669D01*
X757955Y9737D01*
X757985Y9832D01*
X757988Y9932D01*
X757999Y10000D01*
X757999Y281300D01*
X757991Y281356D01*
X757994Y281400D01*
X757808Y283289D01*
X757741Y283565D01*
X757737Y283572D01*
X757736Y283578D01*
X756290Y287069D01*
X756274Y287095D01*
X756265Y287125D01*
X756219Y287189D01*
X756145Y287313D01*
X756099Y287358D01*
X756070Y287398D01*
X753398Y290070D01*
X753373Y290088D01*
X753353Y290112D01*
X753287Y290154D01*
X753171Y290241D01*
X753111Y290264D01*
X753069Y290290D01*
X751504Y290938D01*
X751474Y290946D01*
X751447Y290960D01*
X751369Y290973D01*
X751229Y291009D01*
X751165Y291007D01*
X751116Y291015D01*
X601611Y291015D01*
X601553Y291007D01*
X601495Y291009D01*
X601413Y290987D01*
X601329Y290975D01*
X601276Y290952D01*
X601220Y290937D01*
X601147Y290894D01*
X601070Y290859D01*
X601025Y290821D01*
X600975Y290792D01*
X600917Y290730D01*
X600853Y290676D01*
X600821Y290627D01*
X600781Y290584D01*
X600742Y290509D01*
X600695Y290439D01*
X600678Y290383D01*
X600651Y290331D01*
X600640Y290263D01*
X600610Y290168D01*
X600607Y290068D01*
X600596Y290000D01*
X600596Y288739D01*
X599851Y287994D01*
X595802Y287994D01*
X595744Y287986D01*
X595686Y287988D01*
X595604Y287966D01*
X595520Y287954D01*
X595467Y287931D01*
X595411Y287916D01*
X595338Y287873D01*
X595261Y287838D01*
X595216Y287800D01*
X595166Y287771D01*
X595108Y287709D01*
X595044Y287655D01*
X595012Y287606D01*
X594972Y287563D01*
X594933Y287488D01*
X594886Y287418D01*
X594869Y287362D01*
X594842Y287310D01*
X594831Y287242D01*
X594801Y287147D01*
X594798Y287047D01*
X594787Y286979D01*
X594787Y276623D01*
X594791Y276594D01*
X594788Y276565D01*
X594811Y276454D01*
X594827Y276342D01*
X594839Y276315D01*
X594844Y276286D01*
X594897Y276186D01*
X594943Y276082D01*
X594962Y276060D01*
X594975Y276034D01*
X595053Y275952D01*
X595126Y275865D01*
X595151Y275849D01*
X595171Y275828D01*
X595269Y275771D01*
X595363Y275708D01*
X595391Y275699D01*
X595416Y275684D01*
X595526Y275656D01*
X595634Y275622D01*
X595664Y275621D01*
X595692Y275614D01*
X595805Y275618D01*
X595918Y275615D01*
X595947Y275622D01*
X595976Y275623D01*
X596084Y275658D01*
X596193Y275687D01*
X596219Y275702D01*
X596247Y275711D01*
X596310Y275756D01*
X596438Y275832D01*
X596481Y275877D01*
X596520Y275905D01*
X598433Y277819D01*
X601567Y277819D01*
X602766Y276620D01*
X602835Y276568D01*
X602899Y276508D01*
X602949Y276482D01*
X602993Y276449D01*
X603074Y276418D01*
X603152Y276378D01*
X603200Y276370D01*
X603258Y276348D01*
X603406Y276336D01*
X603483Y276323D01*
X618377Y276323D01*
X618406Y276327D01*
X618435Y276324D01*
X618546Y276347D01*
X618658Y276363D01*
X618685Y276375D01*
X618714Y276380D01*
X618814Y276433D01*
X618918Y276479D01*
X618940Y276498D01*
X618966Y276511D01*
X619048Y276589D01*
X619135Y276662D01*
X619151Y276687D01*
X619172Y276707D01*
X619229Y276805D01*
X619292Y276899D01*
X619301Y276927D01*
X619316Y276952D01*
X619344Y277062D01*
X619378Y277170D01*
X619379Y277200D01*
X619386Y277228D01*
X619382Y277341D01*
X619385Y277454D01*
X619378Y277483D01*
X619377Y277512D01*
X619342Y277620D01*
X619313Y277729D01*
X619298Y277755D01*
X619289Y277783D01*
X619244Y277847D01*
X619168Y277974D01*
X619123Y278017D01*
X619095Y278056D01*
X618717Y278433D01*
X618717Y281567D01*
X620933Y283783D01*
X624067Y283783D01*
X626283Y281567D01*
X626283Y279872D01*
X626295Y279785D01*
X626298Y279698D01*
X626315Y279645D01*
X626323Y279590D01*
X626358Y279510D01*
X626385Y279427D01*
X626413Y279388D01*
X626439Y279331D01*
X626535Y279218D01*
X626580Y279154D01*
X647287Y258447D01*
X647287Y143483D01*
X647299Y143397D01*
X647302Y143309D01*
X647319Y143257D01*
X647327Y143202D01*
X647362Y143122D01*
X647389Y143039D01*
X647417Y143000D01*
X647443Y142942D01*
X647539Y142829D01*
X647584Y142766D01*
X648783Y141567D01*
X648783Y138433D01*
X646567Y136217D01*
X643433Y136217D01*
X641217Y138433D01*
X641217Y140532D01*
X641213Y140561D01*
X641216Y140591D01*
X641193Y140702D01*
X641177Y140814D01*
X641165Y140841D01*
X641160Y140869D01*
X641108Y140970D01*
X641061Y141073D01*
X641042Y141096D01*
X641029Y141122D01*
X640951Y141204D01*
X640878Y141290D01*
X640853Y141306D01*
X640833Y141328D01*
X640735Y141385D01*
X640641Y141448D01*
X640613Y141457D01*
X640588Y141472D01*
X640478Y141499D01*
X640370Y141534D01*
X640341Y141534D01*
X640312Y141542D01*
X640199Y141538D01*
X640086Y141541D01*
X640057Y141533D01*
X640028Y141533D01*
X639920Y141498D01*
X639811Y141469D01*
X639785Y141454D01*
X639757Y141445D01*
X639693Y141399D01*
X639566Y141324D01*
X639523Y141278D01*
X639484Y141250D01*
X639080Y140846D01*
X639028Y140776D01*
X638968Y140712D01*
X638942Y140663D01*
X638909Y140619D01*
X638878Y140537D01*
X638838Y140459D01*
X638830Y140412D01*
X638808Y140353D01*
X638796Y140206D01*
X638783Y140128D01*
X638783Y138433D01*
X636567Y136217D01*
X633433Y136217D01*
X631217Y138433D01*
X631217Y141567D01*
X633433Y143783D01*
X635128Y143783D01*
X635215Y143795D01*
X635302Y143798D01*
X635355Y143815D01*
X635410Y143823D01*
X635490Y143858D01*
X635573Y143885D01*
X635612Y143913D01*
X635669Y143939D01*
X635782Y144035D01*
X635846Y144080D01*
X637416Y145650D01*
X637468Y145720D01*
X637528Y145784D01*
X637554Y145833D01*
X637587Y145877D01*
X637618Y145959D01*
X637658Y146037D01*
X637666Y146084D01*
X637688Y146143D01*
X637700Y146290D01*
X637713Y146368D01*
X637713Y235303D01*
X637709Y235332D01*
X637712Y235361D01*
X637689Y235473D01*
X637673Y235585D01*
X637661Y235611D01*
X637656Y235640D01*
X637603Y235741D01*
X637557Y235844D01*
X637538Y235866D01*
X637525Y235893D01*
X637447Y235975D01*
X637374Y236061D01*
X637349Y236077D01*
X637329Y236099D01*
X637231Y236156D01*
X637137Y236219D01*
X637109Y236228D01*
X637084Y236242D01*
X636974Y236270D01*
X636866Y236304D01*
X636836Y236305D01*
X636808Y236312D01*
X636695Y236309D01*
X636582Y236312D01*
X636553Y236304D01*
X636524Y236303D01*
X636416Y236268D01*
X636307Y236240D01*
X636281Y236225D01*
X636253Y236216D01*
X636189Y236170D01*
X636062Y236095D01*
X636019Y236049D01*
X635980Y236021D01*
X635582Y235623D01*
X620418Y235623D01*
X619673Y236368D01*
X619673Y251532D01*
X620418Y252277D01*
X635582Y252277D01*
X635980Y251879D01*
X636004Y251861D01*
X636023Y251839D01*
X636117Y251776D01*
X636207Y251708D01*
X636235Y251698D01*
X636259Y251681D01*
X636367Y251647D01*
X636473Y251607D01*
X636502Y251604D01*
X636530Y251596D01*
X636644Y251593D01*
X636756Y251583D01*
X636785Y251589D01*
X636814Y251588D01*
X636924Y251617D01*
X637035Y251639D01*
X637061Y251653D01*
X637089Y251660D01*
X637187Y251718D01*
X637287Y251770D01*
X637309Y251790D01*
X637334Y251805D01*
X637411Y251888D01*
X637493Y251966D01*
X637508Y251991D01*
X637528Y252013D01*
X637580Y252114D01*
X637637Y252211D01*
X637644Y252240D01*
X637658Y252266D01*
X637671Y252343D01*
X637707Y252487D01*
X637705Y252549D01*
X637713Y252597D01*
X637713Y253632D01*
X637701Y253719D01*
X637698Y253806D01*
X637681Y253859D01*
X637673Y253914D01*
X637638Y253994D01*
X637611Y254077D01*
X637583Y254116D01*
X637557Y254173D01*
X637482Y254262D01*
X637462Y254296D01*
X637440Y254316D01*
X637416Y254350D01*
X620314Y271452D01*
X620244Y271504D01*
X620180Y271564D01*
X620131Y271590D01*
X620087Y271623D01*
X620005Y271654D01*
X619927Y271694D01*
X619880Y271702D01*
X619821Y271724D01*
X619674Y271736D01*
X619596Y271749D01*
X603483Y271749D01*
X603397Y271737D01*
X603309Y271734D01*
X603257Y271717D01*
X603202Y271709D01*
X603122Y271674D01*
X603039Y271647D01*
X603000Y271619D01*
X602942Y271593D01*
X602829Y271497D01*
X602766Y271452D01*
X601567Y270253D01*
X598433Y270253D01*
X596520Y272167D01*
X596496Y272184D01*
X596477Y272207D01*
X596383Y272269D01*
X596293Y272337D01*
X596265Y272348D01*
X596241Y272364D01*
X596133Y272398D01*
X596027Y272439D01*
X595998Y272441D01*
X595970Y272450D01*
X595856Y272453D01*
X595744Y272462D01*
X595715Y272456D01*
X595686Y272457D01*
X595576Y272429D01*
X595465Y272406D01*
X595439Y272393D01*
X595411Y272385D01*
X595313Y272328D01*
X595213Y272275D01*
X595191Y272255D01*
X595166Y272240D01*
X595089Y272158D01*
X595007Y272080D01*
X594992Y272054D01*
X594972Y272033D01*
X594920Y271932D01*
X594863Y271834D01*
X594856Y271806D01*
X594842Y271780D01*
X594829Y271702D01*
X594793Y271559D01*
X594795Y271496D01*
X594787Y271449D01*
X594787Y250364D01*
X594791Y250334D01*
X594788Y250305D01*
X594811Y250194D01*
X594827Y250082D01*
X594839Y250055D01*
X594844Y250027D01*
X594897Y249926D01*
X594943Y249823D01*
X594962Y249800D01*
X594975Y249774D01*
X595053Y249692D01*
X595126Y249606D01*
X595151Y249589D01*
X595171Y249568D01*
X595269Y249511D01*
X595363Y249448D01*
X595391Y249439D01*
X595416Y249424D01*
X595526Y249397D01*
X595634Y249362D01*
X595664Y249362D01*
X595692Y249354D01*
X595805Y249358D01*
X595918Y249355D01*
X595947Y249362D01*
X595976Y249363D01*
X596084Y249398D01*
X596193Y249427D01*
X596219Y249442D01*
X596247Y249451D01*
X596311Y249496D01*
X596438Y249572D01*
X596481Y249618D01*
X596520Y249646D01*
X597883Y251009D01*
X600944Y252277D01*
X604256Y252277D01*
X607317Y251009D01*
X609659Y248667D01*
X610927Y245606D01*
X610927Y242294D01*
X609659Y239233D01*
X607317Y236891D01*
X604256Y235623D01*
X600944Y235623D01*
X597883Y236891D01*
X596520Y238254D01*
X596496Y238272D01*
X596477Y238294D01*
X596383Y238357D01*
X596293Y238425D01*
X596265Y238436D01*
X596241Y238452D01*
X596133Y238486D01*
X596027Y238526D01*
X595998Y238529D01*
X595970Y238538D01*
X595856Y238541D01*
X595744Y238550D01*
X595715Y238544D01*
X595686Y238545D01*
X595576Y238516D01*
X595465Y238494D01*
X595439Y238481D01*
X595411Y238473D01*
X595313Y238416D01*
X595213Y238363D01*
X595191Y238343D01*
X595166Y238328D01*
X595089Y238245D01*
X595007Y238167D01*
X594992Y238142D01*
X594972Y238121D01*
X594920Y238020D01*
X594863Y237922D01*
X594856Y237894D01*
X594842Y237868D01*
X594829Y237790D01*
X594793Y237647D01*
X594795Y237584D01*
X594787Y237536D01*
X594787Y126518D01*
X594799Y126431D01*
X594802Y126344D01*
X594819Y126291D01*
X594827Y126236D01*
X594862Y126156D01*
X594889Y126073D01*
X594917Y126034D01*
X594943Y125977D01*
X595039Y125864D01*
X595084Y125800D01*
X623434Y97450D01*
X623435Y97449D01*
X623436Y97448D01*
X623549Y97363D01*
X623661Y97279D01*
X623663Y97278D01*
X623664Y97277D01*
X623796Y97228D01*
X623927Y97178D01*
X623928Y97178D01*
X623930Y97177D01*
X624074Y97165D01*
X624210Y97154D01*
X624212Y97154D01*
X624213Y97154D01*
X624229Y97158D01*
X624489Y97210D01*
X624516Y97224D01*
X624540Y97230D01*
X626344Y97977D01*
X629656Y97977D01*
X632717Y96709D01*
X635059Y94367D01*
X636327Y91306D01*
X636327Y87994D01*
X635059Y84933D01*
X632717Y82591D01*
X629656Y81323D01*
X626344Y81323D01*
X624540Y82070D01*
X624539Y82071D01*
X624538Y82071D01*
X624403Y82106D01*
X624265Y82141D01*
X624264Y82141D01*
X624262Y82141D01*
X624121Y82137D01*
X623981Y82133D01*
X623979Y82133D01*
X623978Y82132D01*
X623845Y82090D01*
X623710Y82046D01*
X623709Y82045D01*
X623707Y82045D01*
X623695Y82036D01*
X623474Y81888D01*
X623454Y81865D01*
X623434Y81850D01*
X608434Y66850D01*
X606797Y65213D01*
X594106Y65213D01*
X594019Y65201D01*
X593932Y65198D01*
X593879Y65181D01*
X593824Y65173D01*
X593744Y65138D01*
X593661Y65111D01*
X593622Y65083D01*
X593565Y65057D01*
X593452Y64961D01*
X593388Y64916D01*
X588972Y60500D01*
X588920Y60430D01*
X588860Y60366D01*
X588834Y60317D01*
X588801Y60273D01*
X588770Y60191D01*
X588730Y60113D01*
X588722Y60066D01*
X588700Y60007D01*
X588694Y59931D01*
X588689Y59915D01*
X588687Y59857D01*
X588675Y59782D01*
X588675Y55786D01*
X588683Y55728D01*
X588681Y55670D01*
X588703Y55588D01*
X588715Y55504D01*
X588738Y55451D01*
X588753Y55395D01*
X588796Y55322D01*
X588831Y55245D01*
X588869Y55200D01*
X588898Y55150D01*
X588960Y55092D01*
X589014Y55028D01*
X589063Y54996D01*
X589106Y54956D01*
X589181Y54917D01*
X589251Y54870D01*
X589307Y54853D01*
X589359Y54826D01*
X589427Y54815D01*
X589522Y54785D01*
X589622Y54782D01*
X589690Y54771D01*
X596289Y54771D01*
X598156Y53997D01*
X599585Y52568D01*
X600359Y50701D01*
X600359Y10000D01*
X600367Y9942D01*
X600365Y9884D01*
X600387Y9802D01*
X600399Y9719D01*
X600422Y9665D01*
X600437Y9609D01*
X600480Y9536D01*
X600515Y9459D01*
X600553Y9414D01*
X600582Y9364D01*
X600644Y9306D01*
X600698Y9242D01*
X600747Y9210D01*
X600790Y9170D01*
X600865Y9131D01*
X600935Y9085D01*
X600991Y9067D01*
X601043Y9040D01*
X601111Y9029D01*
X601206Y8999D01*
X601306Y8996D01*
X601374Y8985D01*
X756984Y8985D01*
X757042Y8993D01*
G37*
G36*
X452660Y8993D02*
X452660Y8993D01*
X452718Y8991D01*
X452800Y9013D01*
X452884Y9025D01*
X452937Y9049D01*
X452993Y9063D01*
X453066Y9106D01*
X453143Y9141D01*
X453188Y9179D01*
X453238Y9209D01*
X453296Y9270D01*
X453360Y9325D01*
X453392Y9373D01*
X453432Y9416D01*
X453471Y9491D01*
X453518Y9561D01*
X453535Y9617D01*
X453562Y9669D01*
X453573Y9737D01*
X453603Y9832D01*
X453606Y9932D01*
X453617Y10000D01*
X453617Y50701D01*
X454391Y52568D01*
X455820Y53997D01*
X457687Y54771D01*
X464198Y54771D01*
X464256Y54779D01*
X464314Y54777D01*
X464396Y54799D01*
X464480Y54811D01*
X464533Y54834D01*
X464589Y54849D01*
X464662Y54892D01*
X464739Y54927D01*
X464784Y54965D01*
X464834Y54994D01*
X464892Y55056D01*
X464956Y55110D01*
X464988Y55159D01*
X465028Y55202D01*
X465067Y55277D01*
X465114Y55347D01*
X465131Y55403D01*
X465158Y55455D01*
X465169Y55523D01*
X465199Y55618D01*
X465202Y55718D01*
X465213Y55786D01*
X465213Y72097D01*
X473030Y79914D01*
X473038Y79920D01*
X473090Y79943D01*
X473156Y79998D01*
X473227Y80046D01*
X473264Y80090D01*
X473307Y80126D01*
X473355Y80198D01*
X473410Y80264D01*
X473433Y80316D01*
X473465Y80363D01*
X473491Y80445D01*
X473526Y80524D01*
X473533Y80580D01*
X473551Y80634D01*
X473553Y80720D01*
X473565Y80805D01*
X473556Y80861D01*
X473558Y80918D01*
X473536Y81001D01*
X473524Y81087D01*
X473500Y81138D01*
X473486Y81193D01*
X473442Y81267D01*
X473407Y81346D01*
X473370Y81389D01*
X473341Y81438D01*
X473278Y81497D01*
X473222Y81562D01*
X473180Y81588D01*
X473133Y81632D01*
X473004Y81698D01*
X472938Y81740D01*
X470883Y82591D01*
X468541Y84933D01*
X467273Y87994D01*
X467273Y91306D01*
X468541Y94367D01*
X470883Y96709D01*
X473944Y97977D01*
X477256Y97977D01*
X480317Y96709D01*
X482659Y94367D01*
X483927Y91306D01*
X483927Y87994D01*
X482659Y84933D01*
X480317Y82591D01*
X478262Y81740D01*
X478188Y81696D01*
X478110Y81661D01*
X478066Y81624D01*
X478017Y81595D01*
X477958Y81533D01*
X477893Y81477D01*
X477861Y81430D01*
X477822Y81389D01*
X477783Y81312D01*
X477735Y81241D01*
X477718Y81187D01*
X477692Y81136D01*
X477675Y81052D01*
X477649Y80970D01*
X477648Y80913D01*
X477637Y80857D01*
X477644Y80772D01*
X477642Y80686D01*
X477657Y80631D01*
X477661Y80574D01*
X477692Y80493D01*
X477714Y80411D01*
X477743Y80362D01*
X477763Y80309D01*
X477815Y80240D01*
X477859Y80166D01*
X477901Y80127D01*
X477935Y80082D01*
X478004Y80030D01*
X478067Y79972D01*
X478117Y79946D01*
X478163Y79912D01*
X478243Y79881D01*
X478320Y79842D01*
X478368Y79834D01*
X478429Y79811D01*
X478573Y79800D01*
X478651Y79787D01*
X497949Y79787D01*
X498034Y79799D01*
X498120Y79801D01*
X498174Y79819D01*
X498231Y79827D01*
X498309Y79862D01*
X498391Y79888D01*
X498438Y79920D01*
X498490Y79943D01*
X498556Y79998D01*
X498627Y80046D01*
X498664Y80090D01*
X498707Y80126D01*
X498755Y80198D01*
X498810Y80264D01*
X498833Y80316D01*
X498865Y80363D01*
X498891Y80445D01*
X498926Y80524D01*
X498933Y80580D01*
X498951Y80634D01*
X498953Y80720D01*
X498965Y80805D01*
X498956Y80861D01*
X498958Y80918D01*
X498936Y81001D01*
X498924Y81087D01*
X498900Y81138D01*
X498886Y81193D01*
X498842Y81267D01*
X498807Y81346D01*
X498770Y81389D01*
X498741Y81438D01*
X498678Y81497D01*
X498622Y81562D01*
X498580Y81588D01*
X498533Y81632D01*
X498404Y81698D01*
X498338Y81740D01*
X496283Y82591D01*
X493941Y84933D01*
X492673Y87994D01*
X492673Y91306D01*
X493941Y94367D01*
X496283Y96709D01*
X499344Y97977D01*
X502656Y97977D01*
X505717Y96709D01*
X508059Y94367D01*
X509327Y91306D01*
X509327Y87994D01*
X508059Y84933D01*
X505717Y82591D01*
X503662Y81740D01*
X503588Y81696D01*
X503510Y81661D01*
X503466Y81624D01*
X503417Y81595D01*
X503358Y81533D01*
X503293Y81477D01*
X503261Y81430D01*
X503222Y81389D01*
X503183Y81312D01*
X503135Y81241D01*
X503118Y81187D01*
X503092Y81136D01*
X503075Y81052D01*
X503049Y80970D01*
X503048Y80913D01*
X503037Y80857D01*
X503044Y80772D01*
X503042Y80686D01*
X503057Y80631D01*
X503061Y80574D01*
X503092Y80493D01*
X503114Y80411D01*
X503143Y80362D01*
X503163Y80309D01*
X503215Y80240D01*
X503259Y80166D01*
X503301Y80127D01*
X503335Y80082D01*
X503404Y80030D01*
X503467Y79972D01*
X503517Y79946D01*
X503563Y79912D01*
X503643Y79881D01*
X503720Y79842D01*
X503768Y79834D01*
X503829Y79811D01*
X503973Y79800D01*
X504051Y79787D01*
X523349Y79787D01*
X523434Y79799D01*
X523520Y79801D01*
X523574Y79819D01*
X523631Y79827D01*
X523709Y79862D01*
X523791Y79888D01*
X523838Y79920D01*
X523890Y79943D01*
X523956Y79998D01*
X524027Y80046D01*
X524064Y80090D01*
X524107Y80126D01*
X524155Y80198D01*
X524210Y80264D01*
X524233Y80316D01*
X524265Y80363D01*
X524291Y80445D01*
X524326Y80524D01*
X524333Y80580D01*
X524351Y80634D01*
X524353Y80720D01*
X524365Y80805D01*
X524356Y80861D01*
X524358Y80918D01*
X524336Y81001D01*
X524324Y81087D01*
X524300Y81138D01*
X524286Y81193D01*
X524242Y81267D01*
X524207Y81346D01*
X524170Y81389D01*
X524141Y81438D01*
X524078Y81497D01*
X524022Y81562D01*
X523980Y81588D01*
X523933Y81632D01*
X523804Y81698D01*
X523738Y81740D01*
X521683Y82591D01*
X519341Y84933D01*
X518073Y87994D01*
X518073Y91306D01*
X519341Y94367D01*
X521683Y96709D01*
X524744Y97977D01*
X528056Y97977D01*
X531117Y96709D01*
X533459Y94367D01*
X534727Y91306D01*
X534727Y87994D01*
X533459Y84933D01*
X531117Y82591D01*
X529062Y81740D01*
X528988Y81696D01*
X528910Y81661D01*
X528866Y81624D01*
X528817Y81595D01*
X528758Y81533D01*
X528693Y81477D01*
X528661Y81430D01*
X528622Y81389D01*
X528583Y81312D01*
X528535Y81241D01*
X528518Y81187D01*
X528492Y81136D01*
X528475Y81052D01*
X528449Y80970D01*
X528448Y80913D01*
X528437Y80857D01*
X528444Y80772D01*
X528442Y80686D01*
X528457Y80631D01*
X528461Y80574D01*
X528492Y80493D01*
X528514Y80411D01*
X528543Y80362D01*
X528563Y80309D01*
X528615Y80240D01*
X528659Y80166D01*
X528701Y80127D01*
X528735Y80082D01*
X528804Y80030D01*
X528867Y79972D01*
X528917Y79946D01*
X528963Y79912D01*
X529043Y79881D01*
X529120Y79842D01*
X529168Y79834D01*
X529229Y79811D01*
X529373Y79800D01*
X529451Y79787D01*
X538282Y79787D01*
X538369Y79799D01*
X538456Y79802D01*
X538509Y79819D01*
X538564Y79827D01*
X538644Y79862D01*
X538727Y79889D01*
X538766Y79917D01*
X538823Y79943D01*
X538936Y80039D01*
X539000Y80084D01*
X544000Y85084D01*
X544001Y85085D01*
X544002Y85086D01*
X544085Y85196D01*
X544171Y85311D01*
X544172Y85313D01*
X544173Y85314D01*
X544222Y85446D01*
X544272Y85577D01*
X544272Y85578D01*
X544273Y85580D01*
X544285Y85724D01*
X544296Y85860D01*
X544296Y85862D01*
X544296Y85863D01*
X544292Y85879D01*
X544240Y86139D01*
X544226Y86166D01*
X544220Y86190D01*
X543473Y87994D01*
X543473Y91306D01*
X544220Y93110D01*
X544221Y93111D01*
X544221Y93112D01*
X544256Y93247D01*
X544291Y93385D01*
X544291Y93386D01*
X544291Y93388D01*
X544287Y93529D01*
X544283Y93669D01*
X544283Y93671D01*
X544282Y93672D01*
X544240Y93805D01*
X544196Y93940D01*
X544195Y93941D01*
X544195Y93943D01*
X544186Y93955D01*
X544038Y94176D01*
X544015Y94196D01*
X544000Y94216D01*
X536850Y101366D01*
X535213Y103003D01*
X535213Y238536D01*
X535209Y238566D01*
X535212Y238595D01*
X535189Y238706D01*
X535173Y238818D01*
X535161Y238845D01*
X535156Y238873D01*
X535103Y238974D01*
X535057Y239077D01*
X535038Y239100D01*
X535025Y239126D01*
X534947Y239208D01*
X534874Y239294D01*
X534849Y239311D01*
X534829Y239332D01*
X534731Y239389D01*
X534637Y239452D01*
X534609Y239461D01*
X534584Y239476D01*
X534474Y239503D01*
X534366Y239538D01*
X534336Y239538D01*
X534308Y239546D01*
X534195Y239542D01*
X534082Y239545D01*
X534053Y239538D01*
X534024Y239537D01*
X533916Y239502D01*
X533807Y239473D01*
X533781Y239458D01*
X533753Y239449D01*
X533690Y239404D01*
X533562Y239328D01*
X533519Y239282D01*
X533480Y239254D01*
X531117Y236891D01*
X528056Y235623D01*
X524744Y235623D01*
X521683Y236891D01*
X519341Y239233D01*
X518073Y242294D01*
X518073Y245606D01*
X519341Y248667D01*
X521683Y251009D01*
X524744Y252277D01*
X528056Y252277D01*
X531117Y251009D01*
X533480Y248646D01*
X533504Y248628D01*
X533523Y248606D01*
X533617Y248543D01*
X533707Y248475D01*
X533735Y248464D01*
X533759Y248448D01*
X533867Y248414D01*
X533973Y248374D01*
X534002Y248371D01*
X534030Y248362D01*
X534144Y248359D01*
X534256Y248350D01*
X534285Y248356D01*
X534314Y248355D01*
X534424Y248384D01*
X534535Y248406D01*
X534561Y248419D01*
X534589Y248427D01*
X534687Y248485D01*
X534787Y248537D01*
X534809Y248557D01*
X534834Y248572D01*
X534911Y248655D01*
X534993Y248733D01*
X535008Y248758D01*
X535028Y248779D01*
X535080Y248880D01*
X535137Y248978D01*
X535144Y249006D01*
X535158Y249032D01*
X535171Y249110D01*
X535207Y249253D01*
X535205Y249316D01*
X535213Y249364D01*
X535213Y250632D01*
X535205Y250687D01*
X535207Y250731D01*
X535200Y250756D01*
X535198Y250806D01*
X535181Y250859D01*
X535173Y250914D01*
X535138Y250992D01*
X535135Y251006D01*
X535133Y251009D01*
X535111Y251077D01*
X535083Y251116D01*
X535057Y251173D01*
X534961Y251286D01*
X534916Y251350D01*
X513850Y272416D01*
X513780Y272468D01*
X513716Y272528D01*
X513667Y272554D01*
X513623Y272587D01*
X513541Y272618D01*
X513463Y272658D01*
X513416Y272666D01*
X513357Y272688D01*
X513210Y272700D01*
X513132Y272713D01*
X487587Y272713D01*
X487558Y272709D01*
X487529Y272712D01*
X487418Y272689D01*
X487306Y272673D01*
X487279Y272661D01*
X487250Y272656D01*
X487150Y272603D01*
X487046Y272557D01*
X487024Y272538D01*
X486998Y272525D01*
X486916Y272447D01*
X486829Y272374D01*
X486813Y272349D01*
X486792Y272329D01*
X486735Y272231D01*
X486672Y272137D01*
X486663Y272109D01*
X486648Y272084D01*
X486620Y271974D01*
X486586Y271866D01*
X486585Y271836D01*
X486578Y271808D01*
X486582Y271695D01*
X486579Y271582D01*
X486586Y271553D01*
X486587Y271524D01*
X486622Y271416D01*
X486651Y271307D01*
X486666Y271281D01*
X486675Y271253D01*
X486720Y271190D01*
X486796Y271062D01*
X486841Y271019D01*
X486869Y270980D01*
X488783Y269067D01*
X488783Y267372D01*
X488795Y267285D01*
X488798Y267198D01*
X488815Y267145D01*
X488823Y267090D01*
X488858Y267010D01*
X488885Y266927D01*
X488913Y266888D01*
X488939Y266831D01*
X489035Y266718D01*
X489080Y266654D01*
X493787Y261947D01*
X493787Y250964D01*
X493791Y250934D01*
X493788Y250905D01*
X493811Y250794D01*
X493827Y250682D01*
X493839Y250655D01*
X493844Y250627D01*
X493897Y250526D01*
X493943Y250423D01*
X493962Y250400D01*
X493975Y250374D01*
X494053Y250292D01*
X494126Y250206D01*
X494151Y250189D01*
X494171Y250168D01*
X494269Y250111D01*
X494363Y250048D01*
X494391Y250039D01*
X494416Y250024D01*
X494526Y249996D01*
X494634Y249962D01*
X494664Y249962D01*
X494692Y249954D01*
X494805Y249958D01*
X494918Y249955D01*
X494947Y249962D01*
X494976Y249963D01*
X495084Y249998D01*
X495193Y250027D01*
X495219Y250042D01*
X495247Y250051D01*
X495311Y250096D01*
X495438Y250172D01*
X495481Y250218D01*
X495520Y250246D01*
X496283Y251009D01*
X499344Y252277D01*
X502656Y252277D01*
X505717Y251009D01*
X508059Y248667D01*
X509327Y245606D01*
X509327Y242294D01*
X508059Y239233D01*
X505717Y236891D01*
X502656Y235623D01*
X500062Y235623D01*
X500033Y235619D01*
X500003Y235622D01*
X499892Y235599D01*
X499780Y235583D01*
X499753Y235571D01*
X499725Y235566D01*
X499624Y235513D01*
X499521Y235467D01*
X499498Y235448D01*
X499472Y235435D01*
X499390Y235357D01*
X499304Y235284D01*
X499288Y235259D01*
X499266Y235239D01*
X499209Y235141D01*
X499146Y235047D01*
X499137Y235019D01*
X499122Y234994D01*
X499095Y234884D01*
X499060Y234776D01*
X499060Y234746D01*
X499052Y234718D01*
X499056Y234605D01*
X499053Y234492D01*
X499061Y234463D01*
X499061Y234434D01*
X499096Y234326D01*
X499125Y234217D01*
X499140Y234191D01*
X499149Y234163D01*
X499195Y234099D01*
X499270Y233972D01*
X499316Y233929D01*
X499344Y233890D01*
X499787Y233447D01*
X499787Y180983D01*
X499799Y180897D01*
X499802Y180809D01*
X499819Y180757D01*
X499827Y180702D01*
X499862Y180622D01*
X499889Y180539D01*
X499917Y180500D01*
X499943Y180442D01*
X500039Y180329D01*
X500084Y180266D01*
X501283Y179067D01*
X501283Y175933D01*
X499067Y173717D01*
X495933Y173717D01*
X493717Y175933D01*
X493717Y179067D01*
X494916Y180266D01*
X494968Y180335D01*
X495028Y180399D01*
X495054Y180449D01*
X495087Y180493D01*
X495118Y180574D01*
X495158Y180652D01*
X495166Y180700D01*
X495188Y180758D01*
X495200Y180906D01*
X495213Y180983D01*
X495213Y231132D01*
X495201Y231219D01*
X495198Y231306D01*
X495181Y231359D01*
X495173Y231414D01*
X495138Y231494D01*
X495111Y231577D01*
X495083Y231616D01*
X495057Y231673D01*
X494961Y231786D01*
X494916Y231850D01*
X491520Y235246D01*
X491496Y235264D01*
X491477Y235286D01*
X491383Y235349D01*
X491293Y235417D01*
X491265Y235428D01*
X491241Y235444D01*
X491133Y235478D01*
X491027Y235518D01*
X490998Y235521D01*
X490970Y235530D01*
X490856Y235533D01*
X490744Y235542D01*
X490715Y235536D01*
X490686Y235537D01*
X490576Y235508D01*
X490465Y235486D01*
X490439Y235472D01*
X490411Y235465D01*
X490313Y235407D01*
X490213Y235355D01*
X490191Y235335D01*
X490166Y235320D01*
X490089Y235237D01*
X490007Y235159D01*
X489992Y235134D01*
X489972Y235113D01*
X489920Y235012D01*
X489863Y234914D01*
X489856Y234886D01*
X489842Y234859D01*
X489829Y234782D01*
X489793Y234638D01*
X489795Y234576D01*
X489787Y234528D01*
X489787Y180983D01*
X489799Y180897D01*
X489802Y180809D01*
X489819Y180757D01*
X489827Y180702D01*
X489862Y180622D01*
X489889Y180539D01*
X489917Y180500D01*
X489943Y180442D01*
X490039Y180329D01*
X490084Y180266D01*
X491283Y179067D01*
X491283Y175933D01*
X489067Y173717D01*
X485933Y173717D01*
X483717Y175933D01*
X483717Y179067D01*
X484916Y180266D01*
X484968Y180335D01*
X485028Y180399D01*
X485054Y180449D01*
X485087Y180493D01*
X485118Y180574D01*
X485158Y180652D01*
X485166Y180700D01*
X485188Y180758D01*
X485200Y180906D01*
X485213Y180983D01*
X485213Y240296D01*
X485201Y240381D01*
X485199Y240467D01*
X485181Y240521D01*
X485173Y240577D01*
X485138Y240656D01*
X485112Y240737D01*
X485080Y240785D01*
X485057Y240837D01*
X485002Y240902D01*
X484954Y240974D01*
X484910Y241010D01*
X484874Y241054D01*
X484802Y241101D01*
X484736Y241157D01*
X484684Y241180D01*
X484637Y241211D01*
X484555Y241237D01*
X484476Y241272D01*
X484420Y241280D01*
X484366Y241297D01*
X484280Y241299D01*
X484195Y241311D01*
X484139Y241303D01*
X484082Y241304D01*
X483999Y241283D01*
X483913Y241270D01*
X483862Y241247D01*
X483807Y241232D01*
X483733Y241189D01*
X483654Y241153D01*
X483611Y241116D01*
X483562Y241087D01*
X483503Y241025D01*
X483438Y240969D01*
X483412Y240927D01*
X483368Y240880D01*
X483302Y240751D01*
X483260Y240684D01*
X482659Y239233D01*
X480317Y236891D01*
X477913Y235895D01*
X477912Y235895D01*
X477911Y235894D01*
X477790Y235823D01*
X477669Y235751D01*
X477668Y235750D01*
X477666Y235749D01*
X477568Y235645D01*
X477473Y235544D01*
X477473Y235543D01*
X477472Y235542D01*
X477407Y235416D01*
X477343Y235292D01*
X477343Y235290D01*
X477342Y235289D01*
X477340Y235274D01*
X477288Y235013D01*
X477291Y234982D01*
X477287Y234958D01*
X477287Y180983D01*
X477299Y180897D01*
X477302Y180809D01*
X477319Y180757D01*
X477327Y180702D01*
X477362Y180622D01*
X477389Y180539D01*
X477417Y180500D01*
X477443Y180442D01*
X477539Y180329D01*
X477584Y180266D01*
X478783Y179067D01*
X478783Y175933D01*
X476567Y173717D01*
X473433Y173717D01*
X471217Y175933D01*
X471217Y179067D01*
X472416Y180266D01*
X472468Y180335D01*
X472528Y180399D01*
X472554Y180449D01*
X472587Y180493D01*
X472618Y180574D01*
X472658Y180652D01*
X472666Y180700D01*
X472688Y180758D01*
X472700Y180906D01*
X472713Y180983D01*
X472713Y235455D01*
X472713Y235456D01*
X472713Y235458D01*
X472693Y235598D01*
X472673Y235736D01*
X472673Y235737D01*
X472673Y235739D01*
X472616Y235865D01*
X472557Y235995D01*
X472556Y235997D01*
X472555Y235998D01*
X472464Y236105D01*
X472374Y236212D01*
X472372Y236213D01*
X472371Y236215D01*
X472358Y236223D01*
X472137Y236370D01*
X472108Y236379D01*
X472087Y236393D01*
X470883Y236891D01*
X468541Y239233D01*
X467273Y242294D01*
X467273Y245606D01*
X468541Y248667D01*
X470883Y251009D01*
X473944Y252277D01*
X477256Y252277D01*
X480317Y251009D01*
X482659Y248667D01*
X483260Y247216D01*
X483304Y247142D01*
X483339Y247063D01*
X483376Y247020D01*
X483405Y246971D01*
X483467Y246912D01*
X483523Y246846D01*
X483570Y246815D01*
X483611Y246776D01*
X483688Y246736D01*
X483759Y246689D01*
X483813Y246672D01*
X483864Y246646D01*
X483948Y246629D01*
X484030Y246603D01*
X484087Y246602D01*
X484143Y246591D01*
X484228Y246598D01*
X484314Y246596D01*
X484369Y246610D01*
X484426Y246615D01*
X484507Y246646D01*
X484589Y246668D01*
X484638Y246697D01*
X484691Y246717D01*
X484760Y246769D01*
X484834Y246813D01*
X484873Y246854D01*
X484918Y246889D01*
X484970Y246957D01*
X485028Y247020D01*
X485054Y247071D01*
X485088Y247116D01*
X485119Y247197D01*
X485158Y247273D01*
X485166Y247322D01*
X485189Y247382D01*
X485200Y247527D01*
X485213Y247604D01*
X485213Y251132D01*
X485201Y251219D01*
X485198Y251306D01*
X485181Y251359D01*
X485173Y251414D01*
X485138Y251494D01*
X485111Y251577D01*
X485083Y251616D01*
X485057Y251673D01*
X484961Y251786D01*
X484916Y251850D01*
X473346Y263420D01*
X473276Y263472D01*
X473212Y263532D01*
X473163Y263558D01*
X473119Y263591D01*
X473037Y263622D01*
X472959Y263662D01*
X472912Y263670D01*
X472853Y263692D01*
X472706Y263704D01*
X472628Y263717D01*
X470933Y263717D01*
X468717Y265933D01*
X468717Y269067D01*
X470933Y271283D01*
X474067Y271283D01*
X476283Y269067D01*
X476283Y267372D01*
X476295Y267285D01*
X476298Y267198D01*
X476315Y267145D01*
X476323Y267090D01*
X476358Y267010D01*
X476385Y266927D01*
X476413Y266888D01*
X476439Y266831D01*
X476535Y266718D01*
X476580Y266654D01*
X487480Y255754D01*
X487504Y255736D01*
X487523Y255714D01*
X487617Y255651D01*
X487707Y255583D01*
X487735Y255572D01*
X487759Y255556D01*
X487867Y255522D01*
X487973Y255482D01*
X488002Y255479D01*
X488030Y255470D01*
X488144Y255467D01*
X488256Y255458D01*
X488285Y255464D01*
X488314Y255463D01*
X488424Y255492D01*
X488535Y255514D01*
X488561Y255528D01*
X488589Y255535D01*
X488687Y255593D01*
X488787Y255645D01*
X488809Y255665D01*
X488834Y255680D01*
X488911Y255763D01*
X488993Y255841D01*
X489008Y255866D01*
X489028Y255887D01*
X489080Y255988D01*
X489137Y256086D01*
X489144Y256114D01*
X489158Y256141D01*
X489171Y256218D01*
X489207Y256362D01*
X489205Y256424D01*
X489213Y256472D01*
X489213Y259632D01*
X489201Y259719D01*
X489198Y259806D01*
X489181Y259859D01*
X489173Y259914D01*
X489138Y259994D01*
X489111Y260077D01*
X489083Y260116D01*
X489057Y260173D01*
X488961Y260286D01*
X488916Y260350D01*
X485846Y263420D01*
X485776Y263472D01*
X485712Y263532D01*
X485663Y263558D01*
X485619Y263591D01*
X485537Y263622D01*
X485459Y263662D01*
X485412Y263670D01*
X485353Y263692D01*
X485206Y263704D01*
X485128Y263717D01*
X483433Y263717D01*
X481217Y265933D01*
X481217Y269067D01*
X483131Y270980D01*
X483148Y271004D01*
X483171Y271023D01*
X483233Y271117D01*
X483301Y271207D01*
X483312Y271235D01*
X483328Y271259D01*
X483362Y271367D01*
X483403Y271473D01*
X483405Y271502D01*
X483414Y271530D01*
X483417Y271644D01*
X483426Y271756D01*
X483420Y271785D01*
X483421Y271814D01*
X483393Y271924D01*
X483370Y272035D01*
X483357Y272061D01*
X483349Y272089D01*
X483292Y272187D01*
X483239Y272287D01*
X483219Y272309D01*
X483204Y272334D01*
X483122Y272411D01*
X483044Y272493D01*
X483018Y272508D01*
X482997Y272528D01*
X482896Y272580D01*
X482798Y272637D01*
X482770Y272644D01*
X482744Y272658D01*
X482666Y272671D01*
X482523Y272707D01*
X482460Y272705D01*
X482413Y272713D01*
X476553Y272713D01*
X468713Y280553D01*
X468713Y286979D01*
X468705Y287037D01*
X468707Y287095D01*
X468685Y287177D01*
X468673Y287261D01*
X468650Y287314D01*
X468635Y287370D01*
X468592Y287443D01*
X468557Y287520D01*
X468519Y287565D01*
X468490Y287615D01*
X468428Y287673D01*
X468374Y287737D01*
X468325Y287769D01*
X468282Y287809D01*
X468207Y287848D01*
X468137Y287895D01*
X468081Y287912D01*
X468029Y287939D01*
X467961Y287950D01*
X467866Y287980D01*
X467766Y287983D01*
X467698Y287994D01*
X460949Y287994D01*
X460204Y288739D01*
X460204Y290000D01*
X460196Y290058D01*
X460198Y290116D01*
X460176Y290198D01*
X460164Y290282D01*
X460141Y290335D01*
X460126Y290391D01*
X460083Y290464D01*
X460048Y290541D01*
X460010Y290586D01*
X459981Y290636D01*
X459919Y290694D01*
X459865Y290758D01*
X459816Y290790D01*
X459773Y290830D01*
X459698Y290869D01*
X459628Y290916D01*
X459572Y290933D01*
X459520Y290960D01*
X459452Y290971D01*
X459357Y291001D01*
X459257Y291004D01*
X459189Y291015D01*
X443211Y291015D01*
X443153Y291007D01*
X443095Y291009D01*
X443013Y290987D01*
X442929Y290975D01*
X442876Y290952D01*
X442820Y290937D01*
X442747Y290894D01*
X442670Y290859D01*
X442625Y290821D01*
X442575Y290792D01*
X442517Y290730D01*
X442453Y290676D01*
X442421Y290627D01*
X442381Y290584D01*
X442342Y290509D01*
X442295Y290439D01*
X442278Y290383D01*
X442251Y290331D01*
X442240Y290263D01*
X442210Y290168D01*
X442207Y290068D01*
X442196Y290000D01*
X442196Y288739D01*
X441451Y287994D01*
X434702Y287994D01*
X434644Y287986D01*
X434586Y287988D01*
X434504Y287966D01*
X434420Y287954D01*
X434367Y287931D01*
X434311Y287916D01*
X434238Y287873D01*
X434161Y287838D01*
X434116Y287800D01*
X434066Y287771D01*
X434008Y287709D01*
X433944Y287655D01*
X433912Y287606D01*
X433872Y287563D01*
X433833Y287488D01*
X433786Y287418D01*
X433769Y287362D01*
X433742Y287310D01*
X433731Y287242D01*
X433701Y287147D01*
X433698Y287047D01*
X433687Y286979D01*
X433687Y277953D01*
X427584Y271850D01*
X427532Y271780D01*
X427472Y271716D01*
X427446Y271667D01*
X427413Y271623D01*
X427382Y271541D01*
X427342Y271463D01*
X427334Y271416D01*
X427312Y271357D01*
X427300Y271210D01*
X427287Y271132D01*
X427287Y270087D01*
X427291Y270058D01*
X427288Y270029D01*
X427311Y269918D01*
X427327Y269806D01*
X427339Y269779D01*
X427344Y269750D01*
X427397Y269650D01*
X427443Y269546D01*
X427462Y269524D01*
X427475Y269498D01*
X427553Y269416D01*
X427626Y269329D01*
X427651Y269313D01*
X427671Y269292D01*
X427769Y269235D01*
X427863Y269172D01*
X427891Y269163D01*
X427916Y269148D01*
X428026Y269120D01*
X428134Y269086D01*
X428164Y269085D01*
X428192Y269078D01*
X428305Y269082D01*
X428418Y269079D01*
X428447Y269086D01*
X428476Y269087D01*
X428584Y269122D01*
X428693Y269151D01*
X428719Y269166D01*
X428747Y269175D01*
X428810Y269220D01*
X428938Y269296D01*
X428981Y269341D01*
X429020Y269369D01*
X430933Y271283D01*
X434067Y271283D01*
X436283Y269067D01*
X436283Y267372D01*
X436295Y267285D01*
X436298Y267198D01*
X436315Y267145D01*
X436323Y267090D01*
X436358Y267010D01*
X436385Y266927D01*
X436413Y266888D01*
X436439Y266831D01*
X436535Y266718D01*
X436580Y266654D01*
X442287Y260947D01*
X442287Y250264D01*
X442291Y250234D01*
X442288Y250205D01*
X442311Y250094D01*
X442327Y249982D01*
X442339Y249955D01*
X442344Y249927D01*
X442397Y249826D01*
X442443Y249723D01*
X442462Y249700D01*
X442475Y249674D01*
X442553Y249592D01*
X442626Y249506D01*
X442651Y249489D01*
X442671Y249468D01*
X442769Y249411D01*
X442863Y249348D01*
X442891Y249339D01*
X442916Y249324D01*
X443026Y249297D01*
X443134Y249262D01*
X443164Y249262D01*
X443192Y249254D01*
X443305Y249258D01*
X443418Y249255D01*
X443447Y249262D01*
X443476Y249263D01*
X443584Y249298D01*
X443693Y249327D01*
X443719Y249342D01*
X443747Y249351D01*
X443811Y249396D01*
X443938Y249472D01*
X443981Y249518D01*
X444020Y249546D01*
X445483Y251009D01*
X448544Y252277D01*
X451856Y252277D01*
X454917Y251009D01*
X457259Y248667D01*
X458527Y245606D01*
X458527Y242294D01*
X457259Y239233D01*
X454917Y236891D01*
X452913Y236061D01*
X452912Y236060D01*
X452911Y236060D01*
X452790Y235988D01*
X452669Y235917D01*
X452668Y235916D01*
X452666Y235915D01*
X452569Y235811D01*
X452473Y235710D01*
X452473Y235709D01*
X452472Y235707D01*
X452407Y235582D01*
X452343Y235457D01*
X452343Y235456D01*
X452342Y235454D01*
X452340Y235439D01*
X452288Y235178D01*
X452291Y235148D01*
X452287Y235123D01*
X452287Y180983D01*
X452299Y180897D01*
X452302Y180809D01*
X452319Y180757D01*
X452327Y180702D01*
X452362Y180622D01*
X452389Y180539D01*
X452417Y180500D01*
X452443Y180442D01*
X452539Y180329D01*
X452584Y180266D01*
X453783Y179067D01*
X453783Y175933D01*
X451567Y173717D01*
X448433Y173717D01*
X446217Y175933D01*
X446217Y179067D01*
X447416Y180266D01*
X447468Y180335D01*
X447528Y180399D01*
X447554Y180449D01*
X447587Y180493D01*
X447618Y180574D01*
X447658Y180652D01*
X447666Y180700D01*
X447688Y180758D01*
X447700Y180906D01*
X447713Y180983D01*
X447713Y235289D01*
X447713Y235290D01*
X447713Y235292D01*
X447694Y235425D01*
X447673Y235570D01*
X447673Y235572D01*
X447673Y235573D01*
X447617Y235696D01*
X447557Y235830D01*
X447556Y235831D01*
X447555Y235832D01*
X447464Y235940D01*
X447374Y236047D01*
X447372Y236048D01*
X447371Y236049D01*
X447358Y236057D01*
X447137Y236204D01*
X447108Y236214D01*
X447087Y236227D01*
X445483Y236891D01*
X444020Y238354D01*
X443996Y238372D01*
X443977Y238394D01*
X443883Y238457D01*
X443793Y238525D01*
X443765Y238536D01*
X443741Y238552D01*
X443633Y238586D01*
X443527Y238626D01*
X443498Y238629D01*
X443470Y238638D01*
X443356Y238641D01*
X443244Y238650D01*
X443215Y238644D01*
X443186Y238645D01*
X443076Y238616D01*
X442965Y238594D01*
X442939Y238581D01*
X442911Y238573D01*
X442813Y238516D01*
X442713Y238463D01*
X442691Y238443D01*
X442666Y238428D01*
X442589Y238345D01*
X442507Y238267D01*
X442492Y238242D01*
X442472Y238221D01*
X442420Y238120D01*
X442363Y238022D01*
X442356Y237994D01*
X442342Y237968D01*
X442329Y237890D01*
X442293Y237747D01*
X442295Y237684D01*
X442287Y237636D01*
X442287Y128483D01*
X442299Y128397D01*
X442302Y128309D01*
X442319Y128257D01*
X442327Y128202D01*
X442362Y128122D01*
X442389Y128039D01*
X442417Y128000D01*
X442443Y127942D01*
X442539Y127829D01*
X442584Y127766D01*
X443783Y126567D01*
X443783Y123433D01*
X441567Y121217D01*
X438433Y121217D01*
X436217Y123433D01*
X436217Y126567D01*
X437416Y127766D01*
X437468Y127835D01*
X437528Y127899D01*
X437554Y127949D01*
X437587Y127993D01*
X437618Y128074D01*
X437658Y128152D01*
X437666Y128200D01*
X437688Y128258D01*
X437700Y128406D01*
X437713Y128483D01*
X437713Y159528D01*
X437709Y159557D01*
X437712Y159587D01*
X437689Y159698D01*
X437673Y159810D01*
X437661Y159837D01*
X437656Y159865D01*
X437604Y159966D01*
X437557Y160069D01*
X437538Y160092D01*
X437525Y160118D01*
X437447Y160200D01*
X437374Y160286D01*
X437349Y160302D01*
X437329Y160324D01*
X437231Y160381D01*
X437137Y160444D01*
X437109Y160453D01*
X437084Y160467D01*
X436974Y160495D01*
X436866Y160530D01*
X436836Y160530D01*
X436808Y160538D01*
X436695Y160534D01*
X436582Y160537D01*
X436553Y160529D01*
X436524Y160529D01*
X436416Y160494D01*
X436307Y160465D01*
X436281Y160450D01*
X436253Y160441D01*
X436190Y160396D01*
X436062Y160320D01*
X436019Y160274D01*
X435980Y160246D01*
X375355Y99621D01*
X375286Y99529D01*
X375212Y99441D01*
X375201Y99416D01*
X375184Y99394D01*
X375143Y99286D01*
X375096Y99182D01*
X375093Y99154D01*
X375083Y99128D01*
X375073Y99014D01*
X375058Y98900D01*
X375062Y98872D01*
X375059Y98845D01*
X375082Y98732D01*
X375098Y98619D01*
X375110Y98593D01*
X375115Y98566D01*
X375168Y98464D01*
X375215Y98360D01*
X375233Y98338D01*
X375246Y98314D01*
X375325Y98231D01*
X375400Y98143D01*
X375421Y98130D01*
X375442Y98108D01*
X375672Y97973D01*
X375684Y97965D01*
X378717Y96709D01*
X381059Y94367D01*
X382327Y91306D01*
X382327Y87994D01*
X381059Y84933D01*
X378717Y82591D01*
X376662Y81740D01*
X376588Y81696D01*
X376510Y81661D01*
X376466Y81624D01*
X376417Y81595D01*
X376358Y81533D01*
X376293Y81477D01*
X376261Y81430D01*
X376222Y81389D01*
X376183Y81312D01*
X376135Y81241D01*
X376118Y81187D01*
X376092Y81136D01*
X376075Y81052D01*
X376049Y80970D01*
X376048Y80913D01*
X376037Y80857D01*
X376044Y80772D01*
X376042Y80686D01*
X376057Y80631D01*
X376061Y80574D01*
X376092Y80493D01*
X376114Y80411D01*
X376143Y80362D01*
X376163Y80309D01*
X376215Y80240D01*
X376259Y80166D01*
X376301Y80127D01*
X376335Y80082D01*
X376404Y80030D01*
X376467Y79972D01*
X376517Y79946D01*
X376563Y79912D01*
X376643Y79881D01*
X376720Y79842D01*
X376768Y79834D01*
X376829Y79811D01*
X376973Y79800D01*
X377051Y79787D01*
X421749Y79787D01*
X421834Y79799D01*
X421920Y79801D01*
X421974Y79819D01*
X422031Y79827D01*
X422109Y79862D01*
X422191Y79888D01*
X422238Y79920D01*
X422290Y79943D01*
X422356Y79998D01*
X422427Y80046D01*
X422464Y80090D01*
X422503Y80123D01*
X422534Y80026D01*
X422563Y79917D01*
X422578Y79891D01*
X422587Y79863D01*
X422632Y79800D01*
X422708Y79672D01*
X422754Y79629D01*
X422782Y79590D01*
X428638Y73734D01*
X430275Y72097D01*
X430275Y55786D01*
X430283Y55728D01*
X430281Y55670D01*
X430303Y55588D01*
X430315Y55504D01*
X430338Y55451D01*
X430353Y55395D01*
X430396Y55322D01*
X430431Y55245D01*
X430469Y55200D01*
X430498Y55150D01*
X430560Y55092D01*
X430614Y55028D01*
X430663Y54996D01*
X430706Y54956D01*
X430781Y54917D01*
X430851Y54870D01*
X430907Y54853D01*
X430959Y54826D01*
X431027Y54815D01*
X431122Y54785D01*
X431222Y54782D01*
X431290Y54771D01*
X437889Y54771D01*
X439756Y53997D01*
X441185Y52568D01*
X441959Y50701D01*
X441959Y10000D01*
X441967Y9942D01*
X441965Y9884D01*
X441987Y9802D01*
X441999Y9719D01*
X442022Y9665D01*
X442037Y9609D01*
X442080Y9536D01*
X442115Y9459D01*
X442153Y9414D01*
X442182Y9364D01*
X442244Y9306D01*
X442298Y9242D01*
X442347Y9210D01*
X442390Y9170D01*
X442465Y9131D01*
X442535Y9085D01*
X442591Y9067D01*
X442643Y9040D01*
X442711Y9029D01*
X442806Y8999D01*
X442906Y8996D01*
X442974Y8985D01*
X452602Y8985D01*
X452660Y8993D01*
G37*
G36*
X189299Y94952D02*
X189299Y94952D01*
X189412Y94949D01*
X189441Y94956D01*
X189470Y94957D01*
X189578Y94992D01*
X189687Y95021D01*
X189713Y95036D01*
X189741Y95045D01*
X189805Y95090D01*
X189932Y95166D01*
X189975Y95212D01*
X190014Y95240D01*
X191483Y96709D01*
X194544Y97977D01*
X197856Y97977D01*
X199660Y97230D01*
X199661Y97229D01*
X199662Y97229D01*
X199797Y97194D01*
X199935Y97159D01*
X199936Y97159D01*
X199938Y97159D01*
X200079Y97163D01*
X200219Y97167D01*
X200221Y97167D01*
X200222Y97168D01*
X200355Y97210D01*
X200490Y97254D01*
X200491Y97255D01*
X200493Y97255D01*
X200505Y97264D01*
X200726Y97412D01*
X200746Y97435D01*
X200766Y97450D01*
X206966Y103650D01*
X208603Y105287D01*
X211913Y105287D01*
X211942Y105291D01*
X211971Y105288D01*
X212082Y105311D01*
X212194Y105327D01*
X212221Y105339D01*
X212250Y105344D01*
X212350Y105397D01*
X212454Y105443D01*
X212476Y105462D01*
X212502Y105475D01*
X212584Y105553D01*
X212671Y105626D01*
X212687Y105651D01*
X212708Y105671D01*
X212765Y105769D01*
X212828Y105863D01*
X212837Y105891D01*
X212852Y105916D01*
X212880Y106026D01*
X212914Y106134D01*
X212915Y106164D01*
X212922Y106192D01*
X212918Y106305D01*
X212921Y106418D01*
X212914Y106447D01*
X212913Y106476D01*
X212878Y106584D01*
X212849Y106693D01*
X212834Y106719D01*
X212825Y106747D01*
X212780Y106811D01*
X212704Y106938D01*
X212659Y106981D01*
X212631Y107020D01*
X212217Y107433D01*
X212217Y110567D01*
X214433Y112783D01*
X216128Y112783D01*
X216215Y112795D01*
X216302Y112798D01*
X216355Y112815D01*
X216410Y112823D01*
X216490Y112858D01*
X216573Y112885D01*
X216612Y112913D01*
X216669Y112939D01*
X216782Y113035D01*
X216846Y113080D01*
X218053Y114287D01*
X315632Y114287D01*
X315719Y114299D01*
X315806Y114302D01*
X315859Y114319D01*
X315914Y114327D01*
X315994Y114362D01*
X316077Y114389D01*
X316116Y114417D01*
X316173Y114443D01*
X316286Y114539D01*
X316350Y114584D01*
X343416Y141650D01*
X343468Y141720D01*
X343528Y141784D01*
X343554Y141833D01*
X343587Y141877D01*
X343618Y141959D01*
X343658Y142037D01*
X343666Y142084D01*
X343688Y142143D01*
X343700Y142290D01*
X343713Y142368D01*
X343713Y225446D01*
X343701Y225533D01*
X343698Y225620D01*
X343681Y225673D01*
X343673Y225728D01*
X343638Y225808D01*
X343611Y225891D01*
X343583Y225930D01*
X343557Y225987D01*
X343461Y226100D01*
X343416Y226164D01*
X332186Y237394D01*
X332186Y238782D01*
X332174Y238867D01*
X332172Y238953D01*
X332154Y239007D01*
X332146Y239063D01*
X332111Y239142D01*
X332085Y239224D01*
X332053Y239271D01*
X332030Y239323D01*
X331975Y239388D01*
X331927Y239460D01*
X331883Y239497D01*
X331847Y239540D01*
X331775Y239588D01*
X331709Y239643D01*
X331657Y239666D01*
X331610Y239697D01*
X331528Y239723D01*
X331449Y239758D01*
X331393Y239766D01*
X331339Y239783D01*
X331253Y239785D01*
X331168Y239797D01*
X331111Y239789D01*
X331055Y239791D01*
X330971Y239769D01*
X330886Y239756D01*
X330834Y239733D01*
X330780Y239719D01*
X330706Y239675D01*
X330627Y239639D01*
X330584Y239602D01*
X330535Y239573D01*
X330476Y239511D01*
X330411Y239455D01*
X330385Y239413D01*
X330341Y239366D01*
X330287Y239261D01*
X327917Y236891D01*
X324856Y235623D01*
X321544Y235623D01*
X318483Y236891D01*
X316141Y239233D01*
X314873Y242294D01*
X314873Y245606D01*
X316141Y248667D01*
X318483Y251009D01*
X321544Y252277D01*
X324038Y252277D01*
X324067Y252281D01*
X324097Y252278D01*
X324208Y252301D01*
X324320Y252317D01*
X324347Y252329D01*
X324375Y252334D01*
X324476Y252386D01*
X324579Y252433D01*
X324602Y252452D01*
X324628Y252465D01*
X324710Y252543D01*
X324796Y252616D01*
X324813Y252641D01*
X324834Y252661D01*
X324891Y252759D01*
X324954Y252853D01*
X324963Y252881D01*
X324977Y252906D01*
X325005Y253016D01*
X325040Y253124D01*
X325040Y253154D01*
X325048Y253182D01*
X325044Y253295D01*
X325047Y253408D01*
X325039Y253437D01*
X325039Y253466D01*
X325004Y253574D01*
X324975Y253683D01*
X324960Y253709D01*
X324951Y253737D01*
X324906Y253800D01*
X324830Y253928D01*
X324784Y253971D01*
X324756Y254010D01*
X302350Y276416D01*
X302280Y276468D01*
X302216Y276528D01*
X302167Y276554D01*
X302123Y276587D01*
X302041Y276618D01*
X301963Y276658D01*
X301916Y276666D01*
X301857Y276688D01*
X301710Y276700D01*
X301632Y276713D01*
X276053Y276713D01*
X270713Y282053D01*
X270713Y286979D01*
X270705Y287037D01*
X270707Y287095D01*
X270685Y287177D01*
X270673Y287261D01*
X270650Y287314D01*
X270635Y287370D01*
X270592Y287443D01*
X270557Y287520D01*
X270519Y287565D01*
X270490Y287615D01*
X270428Y287673D01*
X270374Y287737D01*
X270325Y287769D01*
X270282Y287809D01*
X270207Y287848D01*
X270137Y287895D01*
X270081Y287912D01*
X270029Y287939D01*
X269961Y287950D01*
X269866Y287980D01*
X269766Y287983D01*
X269698Y287994D01*
X262949Y287994D01*
X262204Y288739D01*
X262204Y290000D01*
X262196Y290058D01*
X262198Y290116D01*
X262176Y290198D01*
X262164Y290282D01*
X262141Y290335D01*
X262126Y290391D01*
X262083Y290464D01*
X262048Y290541D01*
X262010Y290586D01*
X261981Y290636D01*
X261919Y290694D01*
X261865Y290758D01*
X261816Y290790D01*
X261773Y290830D01*
X261698Y290869D01*
X261628Y290916D01*
X261572Y290933D01*
X261520Y290960D01*
X261452Y290971D01*
X261357Y291001D01*
X261257Y291004D01*
X261189Y291015D01*
X245211Y291015D01*
X245153Y291007D01*
X245095Y291009D01*
X245013Y290987D01*
X244929Y290975D01*
X244876Y290952D01*
X244820Y290937D01*
X244747Y290894D01*
X244670Y290859D01*
X244625Y290821D01*
X244575Y290792D01*
X244517Y290730D01*
X244453Y290676D01*
X244421Y290627D01*
X244381Y290584D01*
X244342Y290509D01*
X244295Y290439D01*
X244278Y290383D01*
X244251Y290331D01*
X244240Y290263D01*
X244210Y290168D01*
X244207Y290068D01*
X244196Y290000D01*
X244196Y288739D01*
X243451Y287994D01*
X237302Y287994D01*
X237244Y287986D01*
X237186Y287988D01*
X237104Y287966D01*
X237020Y287954D01*
X236967Y287931D01*
X236911Y287916D01*
X236838Y287873D01*
X236761Y287838D01*
X236716Y287800D01*
X236666Y287771D01*
X236608Y287709D01*
X236544Y287655D01*
X236512Y287606D01*
X236472Y287563D01*
X236433Y287488D01*
X236386Y287418D01*
X236369Y287362D01*
X236342Y287310D01*
X236331Y287242D01*
X236301Y287147D01*
X236298Y287047D01*
X236287Y286979D01*
X236287Y252483D01*
X236299Y252397D01*
X236302Y252309D01*
X236319Y252257D01*
X236327Y252202D01*
X236362Y252122D01*
X236389Y252039D01*
X236417Y252000D01*
X236443Y251942D01*
X236539Y251829D01*
X236584Y251766D01*
X237783Y250567D01*
X237783Y248560D01*
X237790Y248506D01*
X237789Y248467D01*
X237796Y248443D01*
X237797Y248389D01*
X237815Y248335D01*
X237823Y248279D01*
X237858Y248201D01*
X237884Y248119D01*
X237916Y248071D01*
X237939Y248019D01*
X237994Y247954D01*
X238042Y247882D01*
X238086Y247846D01*
X238122Y247802D01*
X238194Y247755D01*
X238260Y247700D01*
X238312Y247676D01*
X238359Y247645D01*
X238441Y247619D01*
X238520Y247584D01*
X238576Y247576D01*
X238630Y247559D01*
X238716Y247557D01*
X238801Y247545D01*
X238857Y247553D01*
X238914Y247552D01*
X238997Y247573D01*
X239083Y247586D01*
X239134Y247609D01*
X239189Y247624D01*
X239263Y247667D01*
X239342Y247703D01*
X239385Y247740D01*
X239434Y247769D01*
X239493Y247831D01*
X239558Y247887D01*
X239584Y247929D01*
X239628Y247976D01*
X239686Y248089D01*
X239723Y248145D01*
X239727Y248158D01*
X239736Y248172D01*
X239941Y248667D01*
X242283Y251009D01*
X245344Y252277D01*
X248656Y252277D01*
X251717Y251009D01*
X254059Y248667D01*
X255327Y245606D01*
X255327Y242294D01*
X254059Y239233D01*
X251717Y236891D01*
X248656Y235623D01*
X245344Y235623D01*
X242283Y236891D01*
X239941Y239233D01*
X238673Y242294D01*
X238673Y245640D01*
X238694Y245693D01*
X238698Y245750D01*
X238712Y245805D01*
X238710Y245891D01*
X238717Y245977D01*
X238706Y246032D01*
X238704Y246089D01*
X238678Y246171D01*
X238661Y246255D01*
X238635Y246306D01*
X238618Y246360D01*
X238570Y246431D01*
X238530Y246508D01*
X238491Y246549D01*
X238459Y246596D01*
X238394Y246651D01*
X238334Y246714D01*
X238285Y246742D01*
X238242Y246779D01*
X238163Y246814D01*
X238089Y246857D01*
X238034Y246871D01*
X237982Y246895D01*
X237897Y246906D01*
X237814Y246927D01*
X237757Y246926D01*
X237700Y246933D01*
X237615Y246921D01*
X237530Y246918D01*
X237475Y246901D01*
X237419Y246893D01*
X237341Y246857D01*
X237259Y246831D01*
X237219Y246802D01*
X237160Y246776D01*
X237050Y246682D01*
X236986Y246636D01*
X235567Y245217D01*
X232433Y245217D01*
X231660Y245991D01*
X231636Y246008D01*
X231617Y246031D01*
X231523Y246093D01*
X231433Y246161D01*
X231405Y246172D01*
X231381Y246188D01*
X231273Y246222D01*
X231167Y246263D01*
X231138Y246265D01*
X231110Y246274D01*
X230996Y246277D01*
X230884Y246286D01*
X230855Y246280D01*
X230826Y246281D01*
X230716Y246253D01*
X230605Y246230D01*
X230579Y246217D01*
X230551Y246209D01*
X230453Y246152D01*
X230353Y246099D01*
X230331Y246079D01*
X230306Y246064D01*
X230229Y245982D01*
X230147Y245904D01*
X230132Y245878D01*
X230112Y245857D01*
X230060Y245756D01*
X230003Y245658D01*
X229996Y245630D01*
X229982Y245604D01*
X229969Y245526D01*
X229933Y245383D01*
X229935Y245320D01*
X229927Y245273D01*
X229927Y242294D01*
X228659Y239233D01*
X226317Y236891D01*
X223256Y235623D01*
X219944Y235623D01*
X216883Y236891D01*
X214541Y239233D01*
X213859Y240880D01*
X213815Y240954D01*
X213780Y241032D01*
X213743Y241076D01*
X213714Y241125D01*
X213652Y241184D01*
X213596Y241249D01*
X213549Y241281D01*
X213508Y241320D01*
X213431Y241359D01*
X213360Y241407D01*
X213306Y241424D01*
X213255Y241450D01*
X213171Y241467D01*
X213089Y241493D01*
X213032Y241494D01*
X212976Y241505D01*
X212891Y241498D01*
X212805Y241500D01*
X212750Y241485D01*
X212693Y241481D01*
X212612Y241450D01*
X212530Y241428D01*
X212481Y241399D01*
X212428Y241379D01*
X212359Y241327D01*
X212285Y241283D01*
X212246Y241241D01*
X212201Y241207D01*
X212149Y241138D01*
X212091Y241075D01*
X212065Y241025D01*
X212031Y240979D01*
X212000Y240899D01*
X211961Y240822D01*
X211953Y240774D01*
X211930Y240713D01*
X211925Y240646D01*
X211920Y240630D01*
X211918Y240565D01*
X211906Y240491D01*
X211906Y238710D01*
X211918Y238623D01*
X211921Y238536D01*
X211938Y238483D01*
X211946Y238428D01*
X211981Y238349D01*
X212008Y238265D01*
X212036Y238226D01*
X212062Y238169D01*
X212158Y238056D01*
X212203Y237992D01*
X220492Y229703D01*
X220562Y229651D01*
X220626Y229591D01*
X220675Y229565D01*
X220719Y229532D01*
X220801Y229501D01*
X220879Y229461D01*
X220926Y229453D01*
X220985Y229431D01*
X221133Y229419D01*
X221210Y229406D01*
X280789Y229406D01*
X304406Y205789D01*
X304406Y198710D01*
X304418Y198623D01*
X304421Y198536D01*
X304438Y198483D01*
X304446Y198428D01*
X304481Y198349D01*
X304508Y198266D01*
X304536Y198226D01*
X304562Y198169D01*
X304657Y198056D01*
X304703Y197992D01*
X304821Y197874D01*
X304845Y197856D01*
X304864Y197834D01*
X304958Y197771D01*
X305048Y197703D01*
X305076Y197693D01*
X305100Y197676D01*
X305208Y197642D01*
X305314Y197602D01*
X305343Y197599D01*
X305371Y197591D01*
X305484Y197588D01*
X305597Y197578D01*
X305626Y197584D01*
X305655Y197583D01*
X305765Y197612D01*
X305876Y197634D01*
X305902Y197648D01*
X305930Y197655D01*
X306028Y197713D01*
X306128Y197765D01*
X306150Y197785D01*
X306175Y197800D01*
X306252Y197883D01*
X306334Y197961D01*
X306349Y197986D01*
X306369Y198008D01*
X306421Y198108D01*
X306478Y198206D01*
X306485Y198235D01*
X306499Y198261D01*
X306512Y198338D01*
X306548Y198482D01*
X306546Y198544D01*
X306554Y198592D01*
X306554Y209305D01*
X306542Y209392D01*
X306539Y209479D01*
X306522Y209532D01*
X306514Y209587D01*
X306479Y209666D01*
X306452Y209750D01*
X306424Y209789D01*
X306398Y209846D01*
X306302Y209959D01*
X306257Y210023D01*
X278971Y237309D01*
X278924Y237344D01*
X278884Y237387D01*
X278811Y237429D01*
X278744Y237480D01*
X278689Y237501D01*
X278638Y237530D01*
X278557Y237551D01*
X278478Y237581D01*
X278420Y237586D01*
X278363Y237601D01*
X278279Y237598D01*
X278195Y237605D01*
X278137Y237593D01*
X278079Y237591D01*
X277999Y237566D01*
X277916Y237549D01*
X277864Y237522D01*
X277808Y237504D01*
X277752Y237464D01*
X277664Y237418D01*
X277591Y237349D01*
X277535Y237309D01*
X277117Y236891D01*
X274056Y235623D01*
X270744Y235623D01*
X267683Y236891D01*
X265341Y239233D01*
X264073Y242294D01*
X264073Y245606D01*
X265341Y248667D01*
X267683Y251009D01*
X270744Y252277D01*
X274056Y252277D01*
X277117Y251009D01*
X279459Y248667D01*
X280727Y245606D01*
X280727Y242294D01*
X280591Y241966D01*
X280590Y241964D01*
X280590Y241963D01*
X280556Y241830D01*
X280520Y241690D01*
X280520Y241689D01*
X280520Y241687D01*
X280524Y241546D01*
X280528Y241406D01*
X280529Y241405D01*
X280529Y241403D01*
X280572Y241269D01*
X280615Y241135D01*
X280616Y241134D01*
X280616Y241133D01*
X280625Y241120D01*
X280773Y240899D01*
X280796Y240880D01*
X280811Y240859D01*
X308952Y212718D01*
X309022Y212666D01*
X309086Y212606D01*
X309135Y212580D01*
X309179Y212547D01*
X309261Y212516D01*
X309339Y212476D01*
X309386Y212468D01*
X309445Y212446D01*
X309593Y212434D01*
X309670Y212421D01*
X322751Y212421D01*
X323496Y211676D01*
X323496Y196224D01*
X323201Y195929D01*
X323166Y195883D01*
X323124Y195842D01*
X323081Y195770D01*
X323031Y195702D01*
X323010Y195647D01*
X322980Y195597D01*
X322959Y195516D01*
X322929Y195437D01*
X322925Y195378D01*
X322910Y195322D01*
X322913Y195237D01*
X322906Y195153D01*
X322917Y195096D01*
X322919Y195037D01*
X322945Y194957D01*
X322962Y194875D01*
X322989Y194823D01*
X323007Y194767D01*
X323047Y194711D01*
X323093Y194622D01*
X323161Y194550D01*
X323201Y194494D01*
X324703Y192992D01*
X331782Y185913D01*
X331806Y185895D01*
X331825Y185873D01*
X331878Y185837D01*
X331893Y185823D01*
X331919Y185810D01*
X332009Y185742D01*
X332037Y185732D01*
X332061Y185715D01*
X332169Y185681D01*
X332275Y185641D01*
X332304Y185638D01*
X332332Y185630D01*
X332446Y185627D01*
X332558Y185617D01*
X332587Y185623D01*
X332616Y185622D01*
X332726Y185651D01*
X332837Y185673D01*
X332863Y185687D01*
X332891Y185694D01*
X332989Y185752D01*
X333089Y185804D01*
X333111Y185824D01*
X333136Y185839D01*
X333213Y185922D01*
X333295Y186000D01*
X333310Y186025D01*
X333330Y186047D01*
X333382Y186148D01*
X333439Y186245D01*
X333446Y186274D01*
X333460Y186300D01*
X333473Y186377D01*
X333496Y186470D01*
X333501Y186486D01*
X333501Y186490D01*
X333509Y186521D01*
X333507Y186583D01*
X333515Y186631D01*
X333515Y205869D01*
X333503Y205956D01*
X333500Y206043D01*
X333483Y206096D01*
X333475Y206151D01*
X333440Y206230D01*
X333413Y206314D01*
X333385Y206353D01*
X333359Y206410D01*
X333263Y206523D01*
X333218Y206587D01*
X303277Y236528D01*
X303276Y236529D01*
X303275Y236530D01*
X303157Y236618D01*
X303050Y236698D01*
X303049Y236699D01*
X303047Y236700D01*
X302914Y236750D01*
X302784Y236800D01*
X302783Y236800D01*
X302781Y236800D01*
X302637Y236812D01*
X302501Y236823D01*
X302500Y236823D01*
X302498Y236823D01*
X302482Y236820D01*
X302222Y236767D01*
X302195Y236753D01*
X302171Y236748D01*
X299456Y235623D01*
X296144Y235623D01*
X293083Y236891D01*
X290741Y239233D01*
X289473Y242294D01*
X289473Y245606D01*
X290741Y248667D01*
X293083Y251009D01*
X296144Y252277D01*
X299456Y252277D01*
X302517Y251009D01*
X304859Y248667D01*
X306127Y245606D01*
X306127Y242294D01*
X305442Y240640D01*
X305441Y240638D01*
X305440Y240637D01*
X305406Y240502D01*
X305371Y240364D01*
X305371Y240363D01*
X305370Y240361D01*
X305375Y240221D01*
X305379Y240080D01*
X305379Y240079D01*
X305379Y240077D01*
X305422Y239944D01*
X305465Y239810D01*
X305466Y239808D01*
X305467Y239807D01*
X305475Y239795D01*
X305624Y239573D01*
X305647Y239554D01*
X305662Y239533D01*
X335913Y209282D01*
X337327Y207868D01*
X337327Y157132D01*
X318289Y138094D01*
X303085Y138094D01*
X302998Y138082D01*
X302911Y138079D01*
X302858Y138062D01*
X302803Y138054D01*
X302724Y138019D01*
X302640Y137992D01*
X302601Y137964D01*
X302544Y137938D01*
X302431Y137842D01*
X302367Y137797D01*
X297377Y132807D01*
X297376Y132806D01*
X297375Y132805D01*
X297289Y132690D01*
X297206Y132580D01*
X297206Y132579D01*
X297205Y132577D01*
X297152Y132438D01*
X297105Y132314D01*
X297105Y132313D01*
X297104Y132311D01*
X297093Y132166D01*
X297082Y132031D01*
X297082Y132030D01*
X297082Y132028D01*
X297085Y132012D01*
X297137Y131752D01*
X297152Y131725D01*
X297157Y131701D01*
X298096Y129435D01*
X298096Y126065D01*
X296806Y122952D01*
X294423Y120569D01*
X291310Y119279D01*
X287940Y119279D01*
X284827Y120569D01*
X282444Y122952D01*
X281154Y126065D01*
X281154Y129435D01*
X282444Y132548D01*
X284827Y134931D01*
X287940Y136221D01*
X291310Y136221D01*
X293576Y135282D01*
X293577Y135282D01*
X293579Y135281D01*
X293713Y135247D01*
X293851Y135211D01*
X293853Y135211D01*
X293854Y135211D01*
X293995Y135215D01*
X294135Y135219D01*
X294137Y135220D01*
X294138Y135220D01*
X294271Y135263D01*
X294406Y135306D01*
X294407Y135307D01*
X294409Y135307D01*
X294421Y135316D01*
X294642Y135464D01*
X294662Y135488D01*
X294682Y135502D01*
X301086Y141906D01*
X316290Y141906D01*
X316377Y141918D01*
X316464Y141921D01*
X316517Y141938D01*
X316572Y141946D01*
X316651Y141981D01*
X316735Y142008D01*
X316774Y142036D01*
X316831Y142062D01*
X316944Y142158D01*
X317008Y142203D01*
X317837Y143032D01*
X317888Y143100D01*
X317947Y143163D01*
X317973Y143214D01*
X318008Y143259D01*
X318038Y143339D01*
X318078Y143416D01*
X318089Y143471D01*
X318109Y143525D01*
X318116Y143610D01*
X318133Y143695D01*
X318128Y143751D01*
X318132Y143808D01*
X318116Y143892D01*
X318108Y143978D01*
X318088Y144031D01*
X318077Y144087D01*
X318037Y144163D01*
X318006Y144243D01*
X317972Y144289D01*
X317946Y144339D01*
X317886Y144401D01*
X317835Y144470D01*
X317789Y144504D01*
X317750Y144545D01*
X317676Y144589D01*
X317607Y144640D01*
X317554Y144660D01*
X317505Y144689D01*
X317421Y144710D01*
X317341Y144740D01*
X317284Y144745D01*
X317229Y144759D01*
X317143Y144756D01*
X317057Y144763D01*
X317009Y144752D01*
X316945Y144750D01*
X316807Y144705D01*
X316730Y144688D01*
X316710Y144679D01*
X313340Y144679D01*
X310227Y145969D01*
X307844Y148352D01*
X306554Y151465D01*
X306554Y153908D01*
X306550Y153937D01*
X306553Y153966D01*
X306530Y154077D01*
X306514Y154190D01*
X306502Y154216D01*
X306497Y154245D01*
X306444Y154346D01*
X306398Y154449D01*
X306379Y154471D01*
X306366Y154497D01*
X306288Y154580D01*
X306215Y154666D01*
X306190Y154682D01*
X306170Y154704D01*
X306072Y154761D01*
X305978Y154824D01*
X305950Y154833D01*
X305925Y154847D01*
X305815Y154875D01*
X305707Y154909D01*
X305677Y154910D01*
X305649Y154917D01*
X305536Y154914D01*
X305423Y154917D01*
X305394Y154909D01*
X305365Y154908D01*
X305257Y154873D01*
X305148Y154845D01*
X305122Y154830D01*
X305094Y154821D01*
X305031Y154775D01*
X304903Y154700D01*
X304860Y154654D01*
X304821Y154626D01*
X302853Y152658D01*
X301439Y151244D01*
X298683Y151244D01*
X298681Y151244D01*
X298679Y151244D01*
X298539Y151224D01*
X298401Y151204D01*
X298400Y151204D01*
X298398Y151204D01*
X298272Y151147D01*
X298142Y151088D01*
X298140Y151087D01*
X298139Y151086D01*
X298032Y150995D01*
X297925Y150905D01*
X297924Y150903D01*
X297923Y150902D01*
X297914Y150889D01*
X297767Y150668D01*
X297758Y150639D01*
X297745Y150618D01*
X296806Y148352D01*
X294423Y145969D01*
X291310Y144679D01*
X287940Y144679D01*
X284827Y145969D01*
X282444Y148352D01*
X281154Y151465D01*
X281154Y154835D01*
X282444Y157948D01*
X284827Y160331D01*
X285862Y160760D01*
X285936Y160804D01*
X286015Y160839D01*
X286058Y160876D01*
X286107Y160905D01*
X286166Y160967D01*
X286232Y161023D01*
X286263Y161070D01*
X286302Y161111D01*
X286342Y161188D01*
X286389Y161259D01*
X286406Y161313D01*
X286432Y161364D01*
X286449Y161448D01*
X286475Y161530D01*
X286476Y161587D01*
X286487Y161643D01*
X286480Y161728D01*
X286482Y161814D01*
X286468Y161869D01*
X286463Y161926D01*
X286432Y162007D01*
X286410Y162089D01*
X286381Y162138D01*
X286361Y162191D01*
X286309Y162260D01*
X286265Y162334D01*
X286224Y162373D01*
X286189Y162418D01*
X286121Y162470D01*
X286058Y162528D01*
X286007Y162554D01*
X285962Y162588D01*
X285881Y162619D01*
X285805Y162658D01*
X285756Y162666D01*
X285696Y162689D01*
X285551Y162700D01*
X285474Y162713D01*
X222118Y162713D01*
X222031Y162701D01*
X221944Y162698D01*
X221891Y162681D01*
X221836Y162673D01*
X221756Y162638D01*
X221673Y162611D01*
X221634Y162583D01*
X221577Y162557D01*
X221464Y162461D01*
X221400Y162416D01*
X213385Y154401D01*
X213349Y154354D01*
X213307Y154314D01*
X213264Y154241D01*
X213214Y154174D01*
X213193Y154119D01*
X213163Y154068D01*
X213143Y153987D01*
X213113Y153908D01*
X213108Y153850D01*
X213093Y153793D01*
X213096Y153709D01*
X213089Y153625D01*
X213100Y153567D01*
X213102Y153509D01*
X213128Y153429D01*
X213145Y153346D01*
X213172Y153294D01*
X213190Y153238D01*
X213230Y153182D01*
X213276Y153094D01*
X213345Y153021D01*
X213385Y152965D01*
X215783Y150567D01*
X215783Y147433D01*
X213567Y145217D01*
X211872Y145217D01*
X211785Y145205D01*
X211698Y145202D01*
X211645Y145185D01*
X211590Y145177D01*
X211510Y145142D01*
X211427Y145115D01*
X211388Y145087D01*
X211331Y145061D01*
X211218Y144965D01*
X211154Y144920D01*
X188578Y122344D01*
X188526Y122274D01*
X188466Y122210D01*
X188440Y122161D01*
X188407Y122117D01*
X188376Y122035D01*
X188336Y121957D01*
X188328Y121910D01*
X188306Y121851D01*
X188294Y121703D01*
X188281Y121626D01*
X188281Y95958D01*
X188285Y95928D01*
X188282Y95899D01*
X188305Y95788D01*
X188321Y95676D01*
X188333Y95649D01*
X188338Y95621D01*
X188391Y95520D01*
X188437Y95417D01*
X188456Y95394D01*
X188469Y95368D01*
X188547Y95286D01*
X188620Y95200D01*
X188645Y95183D01*
X188665Y95162D01*
X188763Y95105D01*
X188857Y95042D01*
X188885Y95033D01*
X188910Y95018D01*
X189020Y94991D01*
X189128Y94956D01*
X189158Y94956D01*
X189186Y94948D01*
X189299Y94952D01*
G37*
G36*
X215060Y8993D02*
X215060Y8993D01*
X215118Y8991D01*
X215200Y9013D01*
X215284Y9025D01*
X215337Y9048D01*
X215393Y9063D01*
X215466Y9106D01*
X215543Y9141D01*
X215588Y9179D01*
X215638Y9208D01*
X215696Y9270D01*
X215760Y9324D01*
X215792Y9373D01*
X215832Y9416D01*
X215871Y9491D01*
X215918Y9561D01*
X215935Y9617D01*
X215962Y9669D01*
X215973Y9737D01*
X216003Y9832D01*
X216006Y9932D01*
X216017Y10000D01*
X216017Y50701D01*
X216065Y50815D01*
X216065Y50817D01*
X216066Y50818D01*
X216099Y50950D01*
X216136Y51090D01*
X216136Y51092D01*
X216136Y51093D01*
X216131Y51234D01*
X216127Y51374D01*
X216127Y51376D01*
X216127Y51378D01*
X216083Y51513D01*
X216041Y51645D01*
X216040Y51647D01*
X216039Y51648D01*
X216031Y51660D01*
X215883Y51881D01*
X215859Y51901D01*
X215845Y51921D01*
X183707Y84059D01*
X183707Y122272D01*
X183703Y122301D01*
X183706Y122331D01*
X183683Y122442D01*
X183667Y122554D01*
X183655Y122581D01*
X183650Y122609D01*
X183598Y122710D01*
X183551Y122813D01*
X183532Y122836D01*
X183519Y122862D01*
X183441Y122944D01*
X183368Y123030D01*
X183343Y123046D01*
X183323Y123068D01*
X183225Y123125D01*
X183131Y123188D01*
X183103Y123197D01*
X183078Y123211D01*
X182968Y123239D01*
X182860Y123274D01*
X182830Y123274D01*
X182802Y123282D01*
X182689Y123278D01*
X182576Y123281D01*
X182547Y123273D01*
X182518Y123273D01*
X182410Y123238D01*
X182301Y123209D01*
X182275Y123194D01*
X182247Y123185D01*
X182184Y123140D01*
X182056Y123064D01*
X182013Y123018D01*
X181974Y122990D01*
X153200Y94216D01*
X153199Y94215D01*
X153198Y94214D01*
X153111Y94098D01*
X153029Y93989D01*
X153028Y93987D01*
X153027Y93986D01*
X152977Y93852D01*
X152928Y93723D01*
X152928Y93722D01*
X152927Y93720D01*
X152915Y93576D01*
X152904Y93440D01*
X152904Y93438D01*
X152904Y93437D01*
X152908Y93421D01*
X152960Y93161D01*
X152974Y93134D01*
X152980Y93110D01*
X153727Y91306D01*
X153727Y87994D01*
X152459Y84933D01*
X150117Y82591D01*
X147056Y81323D01*
X143744Y81323D01*
X140683Y82591D01*
X138341Y84933D01*
X137073Y87994D01*
X137073Y91306D01*
X138341Y94367D01*
X140683Y96709D01*
X143744Y97977D01*
X147056Y97977D01*
X148860Y97230D01*
X148861Y97229D01*
X148862Y97229D01*
X148997Y97194D01*
X149135Y97159D01*
X149136Y97159D01*
X149138Y97159D01*
X149279Y97163D01*
X149419Y97167D01*
X149421Y97167D01*
X149422Y97168D01*
X149555Y97210D01*
X149690Y97254D01*
X149691Y97255D01*
X149693Y97255D01*
X149705Y97264D01*
X149926Y97412D01*
X149946Y97435D01*
X149966Y97450D01*
X211000Y158484D01*
X211018Y158508D01*
X211040Y158527D01*
X211103Y158621D01*
X211171Y158711D01*
X211182Y158739D01*
X211198Y158763D01*
X211232Y158871D01*
X211272Y158977D01*
X211275Y159006D01*
X211284Y159034D01*
X211287Y159148D01*
X211296Y159260D01*
X211290Y159289D01*
X211291Y159318D01*
X211262Y159428D01*
X211240Y159539D01*
X211226Y159565D01*
X211219Y159593D01*
X211161Y159691D01*
X211109Y159791D01*
X211089Y159813D01*
X211074Y159838D01*
X210991Y159915D01*
X210913Y159997D01*
X210888Y160012D01*
X210867Y160032D01*
X210766Y160084D01*
X210668Y160141D01*
X210640Y160148D01*
X210613Y160162D01*
X210536Y160175D01*
X210455Y160195D01*
X208217Y162433D01*
X208217Y165567D01*
X209416Y166766D01*
X209468Y166835D01*
X209528Y166899D01*
X209554Y166949D01*
X209587Y166993D01*
X209618Y167074D01*
X209658Y167152D01*
X209666Y167200D01*
X209688Y167258D01*
X209700Y167406D01*
X209713Y167483D01*
X209713Y203947D01*
X219920Y214154D01*
X219972Y214224D01*
X220032Y214288D01*
X220058Y214337D01*
X220091Y214381D01*
X220122Y214463D01*
X220162Y214541D01*
X220170Y214588D01*
X220192Y214647D01*
X220204Y214794D01*
X220217Y214872D01*
X220217Y216567D01*
X221670Y218019D01*
X221687Y218043D01*
X221710Y218062D01*
X221772Y218156D01*
X221840Y218246D01*
X221851Y218274D01*
X221867Y218298D01*
X221901Y218406D01*
X221942Y218512D01*
X221944Y218541D01*
X221953Y218569D01*
X221956Y218683D01*
X221965Y218795D01*
X221959Y218824D01*
X221960Y218853D01*
X221932Y218963D01*
X221909Y219074D01*
X221896Y219100D01*
X221888Y219128D01*
X221831Y219226D01*
X221778Y219326D01*
X221758Y219348D01*
X221743Y219373D01*
X221661Y219450D01*
X221583Y219532D01*
X221557Y219547D01*
X221536Y219567D01*
X221435Y219619D01*
X221337Y219676D01*
X221309Y219683D01*
X221283Y219697D01*
X221205Y219710D01*
X221062Y219746D01*
X220999Y219744D01*
X220952Y219752D01*
X192303Y219752D01*
X175747Y236308D01*
X175746Y236309D01*
X175745Y236310D01*
X175635Y236393D01*
X175520Y236479D01*
X175518Y236479D01*
X175517Y236480D01*
X175386Y236530D01*
X175254Y236580D01*
X175253Y236580D01*
X175251Y236581D01*
X175107Y236592D01*
X174971Y236604D01*
X174969Y236603D01*
X174968Y236603D01*
X174952Y236600D01*
X174692Y236548D01*
X174665Y236534D01*
X174641Y236528D01*
X172456Y235623D01*
X169144Y235623D01*
X166083Y236891D01*
X163741Y239233D01*
X162473Y242294D01*
X162473Y245606D01*
X163741Y248667D01*
X166083Y251009D01*
X166402Y251141D01*
X166476Y251185D01*
X166554Y251220D01*
X166598Y251257D01*
X166647Y251286D01*
X166706Y251348D01*
X166771Y251404D01*
X166803Y251451D01*
X166842Y251492D01*
X166881Y251569D01*
X166929Y251640D01*
X166946Y251694D01*
X166972Y251745D01*
X166989Y251829D01*
X167015Y251911D01*
X167016Y251968D01*
X167027Y252024D01*
X167020Y252109D01*
X167022Y252195D01*
X167008Y252250D01*
X167003Y252307D01*
X166972Y252387D01*
X166950Y252470D01*
X166921Y252519D01*
X166901Y252572D01*
X166849Y252641D01*
X166805Y252715D01*
X166763Y252754D01*
X166729Y252799D01*
X166660Y252851D01*
X166598Y252909D01*
X166547Y252935D01*
X166501Y252969D01*
X166421Y253000D01*
X166344Y253039D01*
X166296Y253047D01*
X166235Y253070D01*
X166091Y253081D01*
X166013Y253094D01*
X157660Y253094D01*
X157573Y253082D01*
X157486Y253079D01*
X157433Y253062D01*
X157378Y253054D01*
X157299Y253019D01*
X157215Y252992D01*
X157176Y252964D01*
X157119Y252938D01*
X157006Y252842D01*
X156942Y252797D01*
X153042Y248897D01*
X153041Y248896D01*
X153040Y248895D01*
X152957Y248785D01*
X152871Y248670D01*
X152871Y248668D01*
X152870Y248667D01*
X152818Y248530D01*
X152770Y248404D01*
X152770Y248403D01*
X152769Y248401D01*
X152757Y248252D01*
X152746Y248121D01*
X152747Y248119D01*
X152747Y248118D01*
X152750Y248102D01*
X152802Y247842D01*
X152816Y247815D01*
X152822Y247791D01*
X153727Y245606D01*
X153727Y242294D01*
X152459Y239233D01*
X150117Y236891D01*
X147056Y235623D01*
X143744Y235623D01*
X140683Y236891D01*
X138341Y239233D01*
X137073Y242294D01*
X137073Y245606D01*
X137406Y246410D01*
X137428Y246493D01*
X137458Y246573D01*
X137463Y246630D01*
X137477Y246685D01*
X137475Y246771D01*
X137482Y246857D01*
X137471Y246913D01*
X137469Y246969D01*
X137443Y247051D01*
X137426Y247136D01*
X137400Y247186D01*
X137382Y247240D01*
X137334Y247312D01*
X137295Y247388D01*
X137256Y247429D01*
X137224Y247476D01*
X137158Y247532D01*
X137099Y247594D01*
X137050Y247623D01*
X137006Y247659D01*
X136928Y247694D01*
X136854Y247738D01*
X136799Y247752D01*
X136747Y247775D01*
X136661Y247787D01*
X136578Y247808D01*
X136521Y247806D01*
X136465Y247814D01*
X136380Y247801D01*
X136294Y247799D01*
X136240Y247781D01*
X136184Y247773D01*
X136105Y247738D01*
X136024Y247711D01*
X135983Y247683D01*
X135925Y247656D01*
X135814Y247562D01*
X135750Y247516D01*
X133584Y245350D01*
X133532Y245280D01*
X133472Y245216D01*
X133446Y245167D01*
X133413Y245123D01*
X133382Y245041D01*
X133342Y244963D01*
X133334Y244916D01*
X133312Y244857D01*
X133300Y244710D01*
X133287Y244632D01*
X133287Y85368D01*
X133299Y85281D01*
X133302Y85194D01*
X133319Y85141D01*
X133327Y85086D01*
X133362Y85006D01*
X133389Y84923D01*
X133417Y84884D01*
X133443Y84827D01*
X133539Y84714D01*
X133584Y84650D01*
X141650Y76584D01*
X141720Y76532D01*
X141784Y76472D01*
X141833Y76446D01*
X141877Y76413D01*
X141959Y76382D01*
X142037Y76342D01*
X142084Y76334D01*
X142143Y76312D01*
X142290Y76300D01*
X142368Y76287D01*
X153782Y76287D01*
X153869Y76299D01*
X153956Y76302D01*
X154009Y76319D01*
X154064Y76327D01*
X154144Y76362D01*
X154227Y76389D01*
X154266Y76417D01*
X154323Y76443D01*
X154436Y76539D01*
X154500Y76584D01*
X163000Y85084D01*
X163001Y85085D01*
X163002Y85086D01*
X163085Y85196D01*
X163171Y85311D01*
X163172Y85313D01*
X163173Y85314D01*
X163222Y85446D01*
X163272Y85577D01*
X163272Y85578D01*
X163273Y85580D01*
X163285Y85724D01*
X163296Y85860D01*
X163296Y85862D01*
X163296Y85863D01*
X163292Y85879D01*
X163240Y86139D01*
X163226Y86166D01*
X163220Y86190D01*
X162473Y87994D01*
X162473Y91306D01*
X163741Y94367D01*
X166083Y96709D01*
X169144Y97977D01*
X172456Y97977D01*
X175517Y96709D01*
X177859Y94367D01*
X179127Y91306D01*
X179127Y87994D01*
X178380Y86190D01*
X178379Y86189D01*
X178379Y86188D01*
X178344Y86053D01*
X178309Y85915D01*
X178309Y85914D01*
X178309Y85912D01*
X178313Y85764D01*
X178317Y85631D01*
X178317Y85629D01*
X178318Y85628D01*
X178360Y85495D01*
X178404Y85360D01*
X178405Y85359D01*
X178405Y85357D01*
X178414Y85345D01*
X178562Y85124D01*
X178585Y85104D01*
X178600Y85084D01*
X191038Y72646D01*
X192675Y71009D01*
X192675Y55786D01*
X192683Y55728D01*
X192681Y55670D01*
X192703Y55588D01*
X192715Y55504D01*
X192738Y55451D01*
X192753Y55395D01*
X192796Y55322D01*
X192831Y55245D01*
X192869Y55200D01*
X192898Y55150D01*
X192960Y55092D01*
X193014Y55028D01*
X193063Y54996D01*
X193106Y54956D01*
X193181Y54917D01*
X193251Y54870D01*
X193307Y54853D01*
X193359Y54826D01*
X193427Y54815D01*
X193522Y54785D01*
X193622Y54782D01*
X193690Y54771D01*
X200289Y54771D01*
X202156Y53997D01*
X203585Y52568D01*
X204359Y50701D01*
X204359Y10000D01*
X204367Y9942D01*
X204365Y9884D01*
X204387Y9802D01*
X204399Y9718D01*
X204422Y9665D01*
X204437Y9609D01*
X204480Y9536D01*
X204515Y9459D01*
X204553Y9414D01*
X204582Y9364D01*
X204644Y9306D01*
X204698Y9242D01*
X204747Y9210D01*
X204790Y9170D01*
X204865Y9131D01*
X204935Y9084D01*
X204991Y9067D01*
X205043Y9040D01*
X205111Y9029D01*
X205206Y8999D01*
X205306Y8996D01*
X205374Y8985D01*
X215002Y8985D01*
X215060Y8993D01*
G37*
G36*
X370456Y101536D02*
X370456Y101536D01*
X370543Y101539D01*
X370596Y101556D01*
X370651Y101564D01*
X370731Y101599D01*
X370814Y101626D01*
X370853Y101654D01*
X370910Y101680D01*
X371023Y101776D01*
X371087Y101821D01*
X432416Y163150D01*
X432468Y163220D01*
X432528Y163284D01*
X432554Y163333D01*
X432587Y163377D01*
X432618Y163459D01*
X432658Y163537D01*
X432666Y163584D01*
X432688Y163643D01*
X432700Y163790D01*
X432713Y163868D01*
X432713Y237636D01*
X432709Y237666D01*
X432712Y237695D01*
X432689Y237806D01*
X432673Y237918D01*
X432661Y237945D01*
X432656Y237973D01*
X432603Y238074D01*
X432557Y238177D01*
X432538Y238200D01*
X432525Y238226D01*
X432447Y238308D01*
X432374Y238394D01*
X432349Y238411D01*
X432329Y238432D01*
X432231Y238489D01*
X432137Y238552D01*
X432109Y238561D01*
X432084Y238576D01*
X431974Y238603D01*
X431866Y238638D01*
X431836Y238638D01*
X431808Y238646D01*
X431695Y238642D01*
X431582Y238645D01*
X431553Y238638D01*
X431524Y238637D01*
X431416Y238602D01*
X431307Y238573D01*
X431281Y238558D01*
X431253Y238549D01*
X431189Y238504D01*
X431062Y238428D01*
X431019Y238382D01*
X430980Y238354D01*
X429517Y236891D01*
X426456Y235623D01*
X423144Y235623D01*
X420083Y236891D01*
X417741Y239233D01*
X416473Y242294D01*
X416473Y245606D01*
X417741Y248667D01*
X419894Y250820D01*
X419930Y250867D01*
X419972Y250907D01*
X420015Y250980D01*
X420065Y251047D01*
X420086Y251102D01*
X420116Y251153D01*
X420137Y251234D01*
X420167Y251313D01*
X420171Y251371D01*
X420186Y251428D01*
X420183Y251513D01*
X420190Y251596D01*
X420179Y251654D01*
X420177Y251712D01*
X420151Y251793D01*
X420134Y251875D01*
X420107Y251927D01*
X420089Y251983D01*
X420049Y252039D01*
X420003Y252127D01*
X419934Y252200D01*
X419894Y252256D01*
X419734Y252416D01*
X419665Y252469D01*
X419601Y252528D01*
X419552Y252554D01*
X419507Y252587D01*
X419425Y252618D01*
X419348Y252658D01*
X419300Y252666D01*
X419242Y252688D01*
X419094Y252700D01*
X419017Y252713D01*
X405983Y252713D01*
X405897Y252701D01*
X405809Y252698D01*
X405757Y252681D01*
X405702Y252673D01*
X405622Y252638D01*
X405539Y252611D01*
X405500Y252583D01*
X405442Y252557D01*
X405329Y252461D01*
X405265Y252416D01*
X404706Y251856D01*
X404670Y251809D01*
X404628Y251769D01*
X404585Y251696D01*
X404535Y251629D01*
X404514Y251574D01*
X404484Y251524D01*
X404464Y251442D01*
X404433Y251363D01*
X404429Y251305D01*
X404414Y251248D01*
X404417Y251164D01*
X404410Y251080D01*
X404421Y251023D01*
X404423Y250964D01*
X404449Y250884D01*
X404466Y250801D01*
X404493Y250749D01*
X404511Y250694D01*
X404551Y250637D01*
X404597Y250549D01*
X404665Y250476D01*
X404706Y250420D01*
X406459Y248667D01*
X407727Y245606D01*
X407727Y242294D01*
X406459Y239233D01*
X404117Y236891D01*
X401056Y235623D01*
X397744Y235623D01*
X394683Y236891D01*
X392214Y239360D01*
X392190Y239378D01*
X392171Y239400D01*
X392077Y239463D01*
X391987Y239531D01*
X391959Y239542D01*
X391935Y239558D01*
X391827Y239592D01*
X391721Y239632D01*
X391692Y239635D01*
X391664Y239644D01*
X391550Y239647D01*
X391438Y239656D01*
X391409Y239650D01*
X391380Y239651D01*
X391270Y239622D01*
X391159Y239600D01*
X391133Y239587D01*
X391105Y239579D01*
X391007Y239521D01*
X390907Y239469D01*
X390885Y239449D01*
X390860Y239434D01*
X390783Y239351D01*
X390701Y239273D01*
X390686Y239248D01*
X390666Y239227D01*
X390614Y239126D01*
X390557Y239028D01*
X390550Y239000D01*
X390536Y238974D01*
X390523Y238896D01*
X390487Y238753D01*
X390489Y238690D01*
X390481Y238642D01*
X390481Y129747D01*
X365941Y105207D01*
X365897Y105201D01*
X365809Y105198D01*
X365757Y105181D01*
X365702Y105173D01*
X365622Y105138D01*
X365539Y105111D01*
X365500Y105083D01*
X365442Y105057D01*
X365329Y104961D01*
X365266Y104916D01*
X364067Y103717D01*
X360933Y103717D01*
X358717Y105933D01*
X358717Y109067D01*
X360933Y111283D01*
X364067Y111283D01*
X364090Y111260D01*
X364137Y111224D01*
X364177Y111182D01*
X364250Y111139D01*
X364317Y111089D01*
X364372Y111068D01*
X364422Y111038D01*
X364504Y111018D01*
X364583Y110988D01*
X364641Y110983D01*
X364698Y110968D01*
X364782Y110971D01*
X364866Y110964D01*
X364923Y110975D01*
X364982Y110977D01*
X365062Y111003D01*
X365145Y111020D01*
X365197Y111047D01*
X365252Y111065D01*
X365309Y111105D01*
X365397Y111151D01*
X365469Y111220D01*
X365526Y111260D01*
X385610Y131344D01*
X385662Y131414D01*
X385722Y131478D01*
X385748Y131527D01*
X385781Y131571D01*
X385812Y131653D01*
X385852Y131731D01*
X385860Y131778D01*
X385882Y131837D01*
X385894Y131984D01*
X385907Y132062D01*
X385907Y249296D01*
X389216Y252605D01*
X389268Y252675D01*
X389328Y252739D01*
X389354Y252788D01*
X389387Y252832D01*
X389418Y252914D01*
X389458Y252992D01*
X389466Y253039D01*
X389488Y253098D01*
X389500Y253245D01*
X389513Y253323D01*
X389513Y286979D01*
X389505Y287037D01*
X389507Y287095D01*
X389485Y287177D01*
X389473Y287261D01*
X389450Y287314D01*
X389435Y287370D01*
X389392Y287443D01*
X389357Y287520D01*
X389319Y287565D01*
X389290Y287615D01*
X389228Y287673D01*
X389174Y287737D01*
X389125Y287769D01*
X389082Y287809D01*
X389007Y287848D01*
X388937Y287895D01*
X388881Y287912D01*
X388829Y287939D01*
X388761Y287950D01*
X388666Y287980D01*
X388566Y287983D01*
X388498Y287994D01*
X381749Y287994D01*
X381004Y288739D01*
X381004Y290000D01*
X380996Y290058D01*
X380998Y290116D01*
X380976Y290198D01*
X380964Y290282D01*
X380941Y290335D01*
X380926Y290391D01*
X380883Y290464D01*
X380848Y290541D01*
X380810Y290586D01*
X380781Y290636D01*
X380719Y290694D01*
X380665Y290758D01*
X380616Y290790D01*
X380573Y290830D01*
X380498Y290869D01*
X380428Y290916D01*
X380372Y290933D01*
X380320Y290960D01*
X380252Y290971D01*
X380157Y291001D01*
X380057Y291004D01*
X379989Y291015D01*
X364011Y291015D01*
X363953Y291007D01*
X363895Y291009D01*
X363813Y290987D01*
X363729Y290975D01*
X363676Y290952D01*
X363620Y290937D01*
X363547Y290894D01*
X363470Y290859D01*
X363425Y290821D01*
X363375Y290792D01*
X363317Y290730D01*
X363253Y290676D01*
X363221Y290627D01*
X363181Y290584D01*
X363142Y290509D01*
X363095Y290439D01*
X363078Y290383D01*
X363051Y290331D01*
X363040Y290263D01*
X363010Y290168D01*
X363007Y290068D01*
X362996Y290000D01*
X362996Y288739D01*
X362251Y287994D01*
X355502Y287994D01*
X355444Y287986D01*
X355386Y287988D01*
X355304Y287966D01*
X355220Y287954D01*
X355167Y287931D01*
X355111Y287916D01*
X355038Y287873D01*
X354961Y287838D01*
X354916Y287800D01*
X354866Y287771D01*
X354808Y287709D01*
X354744Y287655D01*
X354712Y287606D01*
X354672Y287563D01*
X354633Y287488D01*
X354586Y287418D01*
X354569Y287362D01*
X354542Y287310D01*
X354531Y287242D01*
X354501Y287147D01*
X354498Y287047D01*
X354487Y286979D01*
X354487Y276668D01*
X354499Y276581D01*
X354502Y276494D01*
X354519Y276441D01*
X354527Y276386D01*
X354562Y276306D01*
X354589Y276223D01*
X354617Y276184D01*
X354643Y276127D01*
X354739Y276014D01*
X354784Y275950D01*
X362287Y268447D01*
X362287Y129053D01*
X336742Y103508D01*
X336491Y103257D01*
X336473Y103233D01*
X336451Y103214D01*
X336388Y103120D01*
X336320Y103030D01*
X336309Y103002D01*
X336293Y102978D01*
X336259Y102870D01*
X336219Y102764D01*
X336216Y102735D01*
X336207Y102707D01*
X336204Y102594D01*
X336195Y102481D01*
X336201Y102452D01*
X336200Y102423D01*
X336229Y102313D01*
X336251Y102202D01*
X336265Y102176D01*
X336272Y102148D01*
X336330Y102051D01*
X336382Y101950D01*
X336402Y101928D01*
X336417Y101903D01*
X336500Y101826D01*
X336578Y101744D01*
X336603Y101729D01*
X336624Y101709D01*
X336725Y101657D01*
X336823Y101600D01*
X336852Y101593D01*
X336878Y101579D01*
X336955Y101566D01*
X337099Y101530D01*
X337161Y101532D01*
X337209Y101524D01*
X370369Y101524D01*
X370456Y101536D01*
G37*
G36*
X579169Y69799D02*
X579169Y69799D01*
X579256Y69802D01*
X579309Y69819D01*
X579364Y69827D01*
X579444Y69862D01*
X579527Y69889D01*
X579566Y69917D01*
X579623Y69943D01*
X579736Y70039D01*
X579800Y70084D01*
X594800Y85084D01*
X594801Y85085D01*
X594802Y85086D01*
X594885Y85196D01*
X594971Y85311D01*
X594972Y85313D01*
X594973Y85314D01*
X595022Y85446D01*
X595072Y85577D01*
X595072Y85578D01*
X595073Y85580D01*
X595085Y85724D01*
X595096Y85860D01*
X595096Y85862D01*
X595096Y85863D01*
X595092Y85879D01*
X595040Y86139D01*
X595026Y86166D01*
X595020Y86190D01*
X594273Y87994D01*
X594273Y91306D01*
X595020Y93110D01*
X595021Y93111D01*
X595021Y93112D01*
X595056Y93247D01*
X595091Y93385D01*
X595091Y93386D01*
X595091Y93388D01*
X595087Y93529D01*
X595083Y93669D01*
X595083Y93671D01*
X595082Y93672D01*
X595040Y93805D01*
X594996Y93940D01*
X594995Y93941D01*
X594995Y93943D01*
X594986Y93955D01*
X594838Y94176D01*
X594815Y94196D01*
X594800Y94216D01*
X586850Y102166D01*
X585213Y103803D01*
X585213Y237736D01*
X585209Y237766D01*
X585212Y237795D01*
X585189Y237906D01*
X585173Y238018D01*
X585161Y238045D01*
X585156Y238073D01*
X585103Y238174D01*
X585057Y238277D01*
X585038Y238300D01*
X585025Y238326D01*
X584947Y238408D01*
X584874Y238494D01*
X584849Y238511D01*
X584829Y238532D01*
X584731Y238589D01*
X584637Y238652D01*
X584609Y238661D01*
X584584Y238676D01*
X584474Y238703D01*
X584366Y238738D01*
X584336Y238738D01*
X584308Y238746D01*
X584195Y238742D01*
X584082Y238745D01*
X584053Y238738D01*
X584024Y238737D01*
X583916Y238702D01*
X583807Y238673D01*
X583781Y238658D01*
X583753Y238649D01*
X583689Y238604D01*
X583562Y238528D01*
X583519Y238482D01*
X583480Y238454D01*
X581917Y236891D01*
X578856Y235623D01*
X575544Y235623D01*
X572483Y236891D01*
X570141Y239233D01*
X568873Y242294D01*
X568873Y245606D01*
X570141Y248667D01*
X572483Y251009D01*
X575544Y252277D01*
X578856Y252277D01*
X581917Y251009D01*
X583480Y249446D01*
X583504Y249428D01*
X583523Y249406D01*
X583617Y249343D01*
X583707Y249275D01*
X583735Y249264D01*
X583759Y249248D01*
X583867Y249214D01*
X583973Y249174D01*
X584002Y249171D01*
X584030Y249162D01*
X584144Y249159D01*
X584256Y249150D01*
X584285Y249156D01*
X584314Y249155D01*
X584424Y249184D01*
X584535Y249206D01*
X584561Y249219D01*
X584589Y249227D01*
X584687Y249284D01*
X584787Y249337D01*
X584809Y249357D01*
X584834Y249372D01*
X584911Y249455D01*
X584993Y249533D01*
X585008Y249558D01*
X585028Y249579D01*
X585080Y249680D01*
X585137Y249778D01*
X585144Y249806D01*
X585158Y249832D01*
X585171Y249910D01*
X585207Y250053D01*
X585205Y250116D01*
X585213Y250164D01*
X585213Y266132D01*
X585201Y266219D01*
X585198Y266306D01*
X585181Y266359D01*
X585173Y266414D01*
X585138Y266494D01*
X585111Y266577D01*
X585083Y266616D01*
X585057Y266673D01*
X584961Y266786D01*
X584916Y266850D01*
X579350Y272416D01*
X579280Y272468D01*
X579216Y272528D01*
X579167Y272554D01*
X579123Y272587D01*
X579041Y272618D01*
X578963Y272658D01*
X578916Y272666D01*
X578857Y272688D01*
X578710Y272700D01*
X578632Y272713D01*
X556553Y272713D01*
X547713Y281553D01*
X547713Y286979D01*
X547705Y287037D01*
X547707Y287095D01*
X547685Y287177D01*
X547673Y287261D01*
X547650Y287314D01*
X547635Y287370D01*
X547592Y287443D01*
X547557Y287520D01*
X547519Y287565D01*
X547490Y287615D01*
X547428Y287673D01*
X547374Y287737D01*
X547325Y287769D01*
X547282Y287809D01*
X547207Y287848D01*
X547137Y287895D01*
X547081Y287912D01*
X547029Y287939D01*
X546961Y287950D01*
X546866Y287980D01*
X546766Y287983D01*
X546698Y287994D01*
X540149Y287994D01*
X539404Y288739D01*
X539404Y290000D01*
X539396Y290058D01*
X539398Y290116D01*
X539376Y290198D01*
X539364Y290282D01*
X539341Y290335D01*
X539326Y290391D01*
X539283Y290464D01*
X539248Y290541D01*
X539210Y290586D01*
X539181Y290636D01*
X539119Y290694D01*
X539065Y290758D01*
X539016Y290790D01*
X538973Y290830D01*
X538898Y290869D01*
X538828Y290916D01*
X538772Y290933D01*
X538720Y290960D01*
X538652Y290971D01*
X538557Y291001D01*
X538457Y291004D01*
X538389Y291015D01*
X522411Y291015D01*
X522353Y291007D01*
X522295Y291009D01*
X522213Y290987D01*
X522129Y290975D01*
X522076Y290952D01*
X522020Y290937D01*
X521947Y290894D01*
X521870Y290859D01*
X521825Y290821D01*
X521775Y290792D01*
X521717Y290730D01*
X521653Y290676D01*
X521621Y290627D01*
X521581Y290584D01*
X521542Y290509D01*
X521495Y290439D01*
X521478Y290383D01*
X521451Y290331D01*
X521440Y290263D01*
X521410Y290168D01*
X521407Y290068D01*
X521396Y290000D01*
X521396Y288739D01*
X520651Y287994D01*
X515191Y287994D01*
X515162Y287990D01*
X515132Y287993D01*
X515021Y287970D01*
X514909Y287954D01*
X514882Y287942D01*
X514854Y287937D01*
X514753Y287885D01*
X514650Y287838D01*
X514627Y287819D01*
X514601Y287806D01*
X514519Y287728D01*
X514433Y287655D01*
X514416Y287630D01*
X514395Y287610D01*
X514338Y287512D01*
X514275Y287418D01*
X514266Y287390D01*
X514252Y287365D01*
X514224Y287255D01*
X514189Y287147D01*
X514189Y287117D01*
X514181Y287089D01*
X514185Y286976D01*
X514182Y286863D01*
X514190Y286834D01*
X514190Y286805D01*
X514225Y286697D01*
X514254Y286588D01*
X514269Y286562D01*
X514278Y286534D01*
X514323Y286471D01*
X514399Y286343D01*
X514445Y286300D01*
X514473Y286261D01*
X543787Y256947D01*
X543787Y250164D01*
X543791Y250134D01*
X543788Y250105D01*
X543811Y249994D01*
X543827Y249882D01*
X543839Y249855D01*
X543844Y249827D01*
X543897Y249726D01*
X543943Y249623D01*
X543962Y249600D01*
X543975Y249574D01*
X544053Y249492D01*
X544126Y249406D01*
X544151Y249389D01*
X544171Y249368D01*
X544269Y249311D01*
X544363Y249248D01*
X544391Y249239D01*
X544416Y249224D01*
X544526Y249197D01*
X544634Y249162D01*
X544664Y249162D01*
X544692Y249154D01*
X544805Y249158D01*
X544918Y249155D01*
X544947Y249162D01*
X544976Y249163D01*
X545084Y249198D01*
X545193Y249227D01*
X545219Y249242D01*
X545247Y249251D01*
X545311Y249296D01*
X545438Y249372D01*
X545481Y249418D01*
X545520Y249446D01*
X547083Y251009D01*
X550144Y252277D01*
X553456Y252277D01*
X556517Y251009D01*
X558859Y248667D01*
X560127Y245606D01*
X560127Y242294D01*
X558859Y239233D01*
X556517Y236891D01*
X553456Y235623D01*
X550144Y235623D01*
X547083Y236891D01*
X545520Y238454D01*
X545496Y238472D01*
X545477Y238494D01*
X545383Y238557D01*
X545293Y238625D01*
X545265Y238636D01*
X545241Y238652D01*
X545133Y238686D01*
X545027Y238726D01*
X544998Y238729D01*
X544970Y238738D01*
X544856Y238741D01*
X544744Y238750D01*
X544715Y238744D01*
X544686Y238745D01*
X544576Y238716D01*
X544465Y238694D01*
X544439Y238681D01*
X544411Y238673D01*
X544313Y238616D01*
X544213Y238563D01*
X544191Y238543D01*
X544166Y238528D01*
X544089Y238445D01*
X544007Y238367D01*
X543992Y238342D01*
X543972Y238321D01*
X543920Y238220D01*
X543863Y238122D01*
X543856Y238094D01*
X543842Y238068D01*
X543829Y237990D01*
X543793Y237847D01*
X543795Y237784D01*
X543787Y237736D01*
X543787Y126718D01*
X543794Y126665D01*
X543793Y126637D01*
X543800Y126614D01*
X543802Y126544D01*
X543819Y126491D01*
X543827Y126436D01*
X543862Y126356D01*
X543889Y126273D01*
X543917Y126234D01*
X543943Y126177D01*
X544039Y126064D01*
X544084Y126000D01*
X572634Y97450D01*
X572635Y97449D01*
X572636Y97448D01*
X572749Y97363D01*
X572861Y97279D01*
X572863Y97278D01*
X572864Y97277D01*
X572996Y97228D01*
X573127Y97178D01*
X573128Y97178D01*
X573130Y97177D01*
X573274Y97165D01*
X573410Y97154D01*
X573412Y97154D01*
X573413Y97154D01*
X573429Y97158D01*
X573689Y97210D01*
X573716Y97224D01*
X573740Y97230D01*
X575544Y97977D01*
X578856Y97977D01*
X581917Y96709D01*
X584259Y94367D01*
X585527Y91306D01*
X585527Y87994D01*
X584259Y84933D01*
X581917Y82591D01*
X578856Y81323D01*
X575544Y81323D01*
X573740Y82070D01*
X573739Y82071D01*
X573738Y82071D01*
X573603Y82106D01*
X573465Y82141D01*
X573464Y82141D01*
X573462Y82141D01*
X573321Y82137D01*
X573181Y82133D01*
X573180Y82133D01*
X573178Y82132D01*
X573045Y82090D01*
X572910Y82046D01*
X572909Y82045D01*
X572907Y82045D01*
X572895Y82036D01*
X572674Y81888D01*
X572654Y81865D01*
X572634Y81850D01*
X562304Y71520D01*
X562286Y71496D01*
X562264Y71477D01*
X562201Y71383D01*
X562133Y71293D01*
X562122Y71265D01*
X562106Y71241D01*
X562072Y71133D01*
X562032Y71027D01*
X562029Y70998D01*
X562020Y70970D01*
X562017Y70856D01*
X562008Y70744D01*
X562014Y70715D01*
X562013Y70686D01*
X562042Y70576D01*
X562064Y70465D01*
X562078Y70439D01*
X562085Y70411D01*
X562143Y70313D01*
X562195Y70213D01*
X562215Y70191D01*
X562230Y70166D01*
X562313Y70089D01*
X562391Y70007D01*
X562416Y69992D01*
X562437Y69972D01*
X562538Y69920D01*
X562636Y69863D01*
X562664Y69856D01*
X562691Y69842D01*
X562768Y69829D01*
X562912Y69793D01*
X562974Y69795D01*
X563022Y69787D01*
X579082Y69787D01*
X579169Y69799D01*
G37*
%LPC*%
G36*
X45581Y26631D02*
X45581Y26631D01*
X39331Y32881D01*
X39331Y41719D01*
X45581Y47969D01*
X54419Y47969D01*
X55209Y47179D01*
X55256Y47144D01*
X55296Y47101D01*
X55369Y47059D01*
X55436Y47008D01*
X55491Y46987D01*
X55541Y46958D01*
X55623Y46937D01*
X55702Y46907D01*
X55760Y46902D01*
X55817Y46887D01*
X55901Y46890D01*
X55985Y46883D01*
X56042Y46895D01*
X56101Y46896D01*
X56181Y46922D01*
X56264Y46939D01*
X56316Y46966D01*
X56371Y46984D01*
X56428Y47024D01*
X56516Y47070D01*
X56589Y47139D01*
X56645Y47179D01*
X59916Y50450D01*
X59968Y50520D01*
X60028Y50584D01*
X60054Y50633D01*
X60087Y50677D01*
X60118Y50759D01*
X60158Y50837D01*
X60166Y50884D01*
X60188Y50943D01*
X60200Y51090D01*
X60213Y51168D01*
X60213Y55374D01*
X60209Y55403D01*
X60212Y55433D01*
X60189Y55544D01*
X60173Y55656D01*
X60161Y55683D01*
X60156Y55711D01*
X60104Y55812D01*
X60057Y55915D01*
X60038Y55938D01*
X60025Y55964D01*
X59947Y56046D01*
X59874Y56132D01*
X59849Y56149D01*
X59829Y56170D01*
X59731Y56227D01*
X59637Y56290D01*
X59609Y56299D01*
X59584Y56314D01*
X59474Y56341D01*
X59366Y56376D01*
X59336Y56376D01*
X59308Y56384D01*
X59195Y56380D01*
X59082Y56383D01*
X59053Y56376D01*
X59024Y56375D01*
X58916Y56340D01*
X58807Y56311D01*
X58781Y56296D01*
X58753Y56287D01*
X58690Y56242D01*
X58562Y56166D01*
X58519Y56120D01*
X58480Y56092D01*
X54419Y52031D01*
X45581Y52031D01*
X39331Y58281D01*
X39331Y67119D01*
X45581Y73369D01*
X46698Y73369D01*
X46756Y73377D01*
X46814Y73375D01*
X46896Y73397D01*
X46980Y73409D01*
X47033Y73432D01*
X47089Y73447D01*
X47162Y73490D01*
X47239Y73525D01*
X47284Y73563D01*
X47334Y73592D01*
X47392Y73654D01*
X47456Y73708D01*
X47488Y73757D01*
X47528Y73800D01*
X47567Y73875D01*
X47614Y73945D01*
X47631Y74001D01*
X47658Y74053D01*
X47669Y74121D01*
X47699Y74216D01*
X47702Y74316D01*
X47713Y74384D01*
X47713Y80128D01*
X47709Y80157D01*
X47712Y80187D01*
X47689Y80298D01*
X47673Y80410D01*
X47661Y80437D01*
X47656Y80465D01*
X47604Y80566D01*
X47557Y80669D01*
X47538Y80692D01*
X47525Y80718D01*
X47447Y80800D01*
X47374Y80886D01*
X47349Y80902D01*
X47329Y80924D01*
X47231Y80981D01*
X47137Y81044D01*
X47109Y81053D01*
X47084Y81068D01*
X46974Y81095D01*
X46866Y81130D01*
X46837Y81130D01*
X46808Y81138D01*
X46695Y81134D01*
X46582Y81137D01*
X46553Y81129D01*
X46524Y81129D01*
X46416Y81094D01*
X46307Y81065D01*
X46281Y81050D01*
X46253Y81041D01*
X46190Y80996D01*
X46062Y80920D01*
X46019Y80874D01*
X45980Y80846D01*
X45650Y80516D01*
X34479Y69345D01*
X34444Y69298D01*
X34401Y69258D01*
X34359Y69185D01*
X34308Y69118D01*
X34287Y69063D01*
X34258Y69013D01*
X34237Y68931D01*
X34207Y68852D01*
X34202Y68794D01*
X34187Y68737D01*
X34190Y68653D01*
X34183Y68569D01*
X34195Y68511D01*
X34196Y68453D01*
X34222Y68373D01*
X34239Y68290D01*
X34266Y68238D01*
X34284Y68182D01*
X34324Y68126D01*
X34370Y68038D01*
X34439Y67965D01*
X34479Y67909D01*
X35269Y67119D01*
X35269Y58281D01*
X29019Y52031D01*
X20181Y52031D01*
X13931Y58281D01*
X13931Y67119D01*
X20181Y73369D01*
X29019Y73369D01*
X29809Y72579D01*
X29856Y72544D01*
X29896Y72501D01*
X29969Y72459D01*
X30036Y72408D01*
X30091Y72387D01*
X30141Y72358D01*
X30223Y72337D01*
X30302Y72307D01*
X30360Y72302D01*
X30417Y72287D01*
X30501Y72290D01*
X30585Y72283D01*
X30642Y72295D01*
X30701Y72296D01*
X30781Y72322D01*
X30864Y72339D01*
X30916Y72366D01*
X30971Y72384D01*
X31028Y72424D01*
X31116Y72470D01*
X31189Y72539D01*
X31245Y72579D01*
X42416Y83750D01*
X42468Y83820D01*
X42528Y83884D01*
X42554Y83933D01*
X42587Y83977D01*
X42618Y84059D01*
X42658Y84137D01*
X42666Y84184D01*
X42688Y84243D01*
X42700Y84390D01*
X42713Y84468D01*
X42713Y115947D01*
X45920Y119154D01*
X45972Y119224D01*
X46032Y119288D01*
X46058Y119337D01*
X46091Y119381D01*
X46122Y119463D01*
X46162Y119541D01*
X46170Y119588D01*
X46192Y119647D01*
X46204Y119794D01*
X46217Y119872D01*
X46217Y121567D01*
X48433Y123783D01*
X51567Y123783D01*
X53783Y121567D01*
X53783Y118433D01*
X51567Y116217D01*
X49872Y116217D01*
X49785Y116205D01*
X49698Y116202D01*
X49645Y116185D01*
X49590Y116177D01*
X49510Y116142D01*
X49427Y116115D01*
X49388Y116087D01*
X49331Y116061D01*
X49218Y115965D01*
X49154Y115920D01*
X47584Y114350D01*
X47532Y114280D01*
X47472Y114216D01*
X47446Y114167D01*
X47413Y114123D01*
X47382Y114041D01*
X47342Y113963D01*
X47334Y113916D01*
X47312Y113857D01*
X47301Y113724D01*
X47301Y113723D01*
X47301Y113721D01*
X47300Y113710D01*
X47287Y113632D01*
X47287Y110472D01*
X47291Y110443D01*
X47288Y110413D01*
X47311Y110302D01*
X47327Y110190D01*
X47339Y110163D01*
X47344Y110135D01*
X47396Y110034D01*
X47443Y109931D01*
X47462Y109908D01*
X47475Y109882D01*
X47553Y109800D01*
X47626Y109714D01*
X47651Y109697D01*
X47671Y109676D01*
X47769Y109619D01*
X47863Y109556D01*
X47891Y109547D01*
X47916Y109533D01*
X48026Y109505D01*
X48134Y109470D01*
X48164Y109470D01*
X48192Y109462D01*
X48305Y109466D01*
X48418Y109463D01*
X48447Y109471D01*
X48476Y109471D01*
X48584Y109506D01*
X48693Y109535D01*
X48719Y109550D01*
X48747Y109559D01*
X48810Y109604D01*
X48938Y109680D01*
X48981Y109726D01*
X49020Y109754D01*
X90920Y151654D01*
X90972Y151724D01*
X91032Y151788D01*
X91058Y151837D01*
X91091Y151881D01*
X91122Y151963D01*
X91162Y152041D01*
X91170Y152088D01*
X91192Y152147D01*
X91204Y152294D01*
X91217Y152372D01*
X91217Y154067D01*
X93433Y156283D01*
X96567Y156283D01*
X98480Y154369D01*
X98504Y154352D01*
X98523Y154329D01*
X98617Y154267D01*
X98707Y154199D01*
X98735Y154188D01*
X98759Y154172D01*
X98867Y154138D01*
X98973Y154097D01*
X99002Y154095D01*
X99030Y154086D01*
X99144Y154083D01*
X99256Y154074D01*
X99285Y154080D01*
X99314Y154079D01*
X99424Y154107D01*
X99535Y154130D01*
X99561Y154143D01*
X99589Y154151D01*
X99687Y154208D01*
X99787Y154261D01*
X99809Y154281D01*
X99834Y154296D01*
X99911Y154378D01*
X99993Y154456D01*
X100008Y154482D01*
X100028Y154503D01*
X100080Y154604D01*
X100137Y154702D01*
X100144Y154730D01*
X100158Y154756D01*
X100171Y154834D01*
X100207Y154977D01*
X100205Y155040D01*
X100213Y155087D01*
X100213Y171517D01*
X100201Y171603D01*
X100198Y171691D01*
X100181Y171743D01*
X100173Y171798D01*
X100138Y171878D01*
X100111Y171961D01*
X100083Y172000D01*
X100057Y172058D01*
X99961Y172171D01*
X99916Y172234D01*
X98717Y173433D01*
X98717Y176567D01*
X100933Y178783D01*
X104067Y178783D01*
X106283Y176567D01*
X106283Y173433D01*
X105084Y172234D01*
X105032Y172165D01*
X104972Y172101D01*
X104946Y172051D01*
X104913Y172007D01*
X104882Y171926D01*
X104842Y171848D01*
X104834Y171800D01*
X104812Y171742D01*
X104800Y171594D01*
X104787Y171517D01*
X104787Y165087D01*
X104791Y165058D01*
X104788Y165029D01*
X104811Y164918D01*
X104827Y164806D01*
X104839Y164779D01*
X104844Y164750D01*
X104897Y164650D01*
X104943Y164546D01*
X104962Y164524D01*
X104975Y164498D01*
X105053Y164416D01*
X105126Y164329D01*
X105151Y164313D01*
X105171Y164292D01*
X105269Y164235D01*
X105363Y164172D01*
X105391Y164163D01*
X105416Y164148D01*
X105526Y164120D01*
X105634Y164086D01*
X105664Y164085D01*
X105692Y164078D01*
X105805Y164082D01*
X105918Y164079D01*
X105947Y164086D01*
X105976Y164087D01*
X106084Y164122D01*
X106193Y164151D01*
X106219Y164166D01*
X106247Y164175D01*
X106310Y164220D01*
X106438Y164296D01*
X106481Y164341D01*
X106520Y164369D01*
X108433Y166283D01*
X111567Y166283D01*
X113783Y164067D01*
X113783Y160933D01*
X112584Y159734D01*
X112532Y159665D01*
X112472Y159601D01*
X112446Y159551D01*
X112413Y159507D01*
X112382Y159426D01*
X112342Y159348D01*
X112334Y159300D01*
X112312Y159242D01*
X112300Y159094D01*
X112287Y159017D01*
X112287Y146553D01*
X107584Y141850D01*
X107532Y141780D01*
X107472Y141716D01*
X107446Y141667D01*
X107413Y141623D01*
X107382Y141541D01*
X107342Y141463D01*
X107334Y141416D01*
X107312Y141357D01*
X107300Y141210D01*
X107287Y141132D01*
X107287Y120983D01*
X107299Y120897D01*
X107302Y120809D01*
X107319Y120757D01*
X107327Y120702D01*
X107362Y120622D01*
X107389Y120539D01*
X107417Y120500D01*
X107443Y120442D01*
X107539Y120329D01*
X107584Y120266D01*
X108783Y119067D01*
X108783Y115933D01*
X106567Y113717D01*
X103433Y113717D01*
X101217Y115933D01*
X101217Y119067D01*
X102416Y120266D01*
X102468Y120335D01*
X102528Y120399D01*
X102554Y120449D01*
X102587Y120493D01*
X102618Y120574D01*
X102658Y120652D01*
X102666Y120700D01*
X102688Y120758D01*
X102700Y120906D01*
X102713Y120983D01*
X102713Y143447D01*
X107416Y148150D01*
X107468Y148220D01*
X107528Y148284D01*
X107554Y148333D01*
X107587Y148377D01*
X107618Y148459D01*
X107658Y148537D01*
X107666Y148584D01*
X107688Y148643D01*
X107700Y148790D01*
X107713Y148868D01*
X107713Y159017D01*
X107701Y159103D01*
X107698Y159191D01*
X107681Y159243D01*
X107673Y159298D01*
X107638Y159378D01*
X107611Y159461D01*
X107583Y159500D01*
X107557Y159558D01*
X107461Y159671D01*
X107416Y159734D01*
X106520Y160631D01*
X106496Y160648D01*
X106477Y160671D01*
X106383Y160733D01*
X106293Y160801D01*
X106265Y160812D01*
X106241Y160828D01*
X106133Y160862D01*
X106027Y160903D01*
X105998Y160905D01*
X105970Y160914D01*
X105856Y160917D01*
X105744Y160926D01*
X105715Y160920D01*
X105686Y160921D01*
X105576Y160893D01*
X105465Y160870D01*
X105439Y160857D01*
X105411Y160849D01*
X105313Y160792D01*
X105213Y160739D01*
X105191Y160719D01*
X105166Y160704D01*
X105089Y160622D01*
X105007Y160544D01*
X104992Y160518D01*
X104972Y160497D01*
X104920Y160396D01*
X104863Y160298D01*
X104856Y160270D01*
X104842Y160244D01*
X104829Y160166D01*
X104793Y160023D01*
X104795Y159960D01*
X104787Y159913D01*
X104787Y149053D01*
X65084Y109350D01*
X65032Y109280D01*
X64972Y109216D01*
X64946Y109167D01*
X64913Y109123D01*
X64882Y109041D01*
X64842Y108963D01*
X64834Y108916D01*
X64812Y108857D01*
X64800Y108710D01*
X64787Y108632D01*
X64787Y69626D01*
X64791Y69597D01*
X64788Y69567D01*
X64811Y69456D01*
X64827Y69344D01*
X64839Y69317D01*
X64844Y69289D01*
X64896Y69188D01*
X64943Y69085D01*
X64962Y69062D01*
X64975Y69036D01*
X65053Y68954D01*
X65126Y68868D01*
X65151Y68851D01*
X65171Y68830D01*
X65269Y68773D01*
X65363Y68710D01*
X65391Y68701D01*
X65416Y68686D01*
X65526Y68659D01*
X65634Y68624D01*
X65664Y68624D01*
X65692Y68616D01*
X65805Y68620D01*
X65918Y68617D01*
X65947Y68624D01*
X65976Y68625D01*
X66084Y68660D01*
X66193Y68689D01*
X66219Y68704D01*
X66247Y68713D01*
X66310Y68758D01*
X66438Y68834D01*
X66481Y68880D01*
X66520Y68908D01*
X70981Y73369D01*
X79819Y73369D01*
X86069Y67119D01*
X86069Y58281D01*
X79819Y52031D01*
X70981Y52031D01*
X66520Y56492D01*
X66496Y56510D01*
X66477Y56532D01*
X66383Y56595D01*
X66293Y56663D01*
X66265Y56674D01*
X66241Y56690D01*
X66133Y56724D01*
X66027Y56764D01*
X65998Y56767D01*
X65970Y56776D01*
X65856Y56779D01*
X65744Y56788D01*
X65715Y56782D01*
X65686Y56783D01*
X65576Y56754D01*
X65465Y56732D01*
X65439Y56719D01*
X65411Y56711D01*
X65313Y56653D01*
X65213Y56601D01*
X65191Y56581D01*
X65166Y56566D01*
X65089Y56483D01*
X65007Y56405D01*
X64992Y56380D01*
X64972Y56359D01*
X64920Y56258D01*
X64863Y56160D01*
X64856Y56132D01*
X64842Y56105D01*
X64829Y56028D01*
X64793Y55884D01*
X64795Y55822D01*
X64787Y55774D01*
X64787Y48853D01*
X59879Y43945D01*
X59844Y43898D01*
X59801Y43858D01*
X59759Y43785D01*
X59708Y43718D01*
X59687Y43663D01*
X59658Y43613D01*
X59637Y43531D01*
X59607Y43452D01*
X59602Y43394D01*
X59587Y43337D01*
X59590Y43253D01*
X59583Y43169D01*
X59595Y43111D01*
X59596Y43053D01*
X59622Y42973D01*
X59639Y42890D01*
X59666Y42838D01*
X59684Y42782D01*
X59724Y42726D01*
X59770Y42638D01*
X59839Y42565D01*
X59879Y42509D01*
X60669Y41719D01*
X60669Y32881D01*
X54419Y26631D01*
X45581Y26631D01*
G37*
%LPD*%
G36*
X216801Y164712D02*
X216801Y164712D01*
X216914Y164709D01*
X216943Y164717D01*
X216972Y164717D01*
X217080Y164752D01*
X217189Y164781D01*
X217215Y164796D01*
X217243Y164805D01*
X217307Y164851D01*
X217434Y164926D01*
X217477Y164972D01*
X217516Y165000D01*
X218166Y165650D01*
X219803Y167287D01*
X300107Y167287D01*
X300194Y167299D01*
X300281Y167302D01*
X300334Y167319D01*
X300389Y167327D01*
X300469Y167362D01*
X300552Y167389D01*
X300591Y167417D01*
X300648Y167443D01*
X300761Y167539D01*
X300825Y167584D01*
X307115Y173874D01*
X307116Y173875D01*
X307117Y173876D01*
X307206Y173994D01*
X307286Y174101D01*
X307286Y174102D01*
X307287Y174104D01*
X307338Y174237D01*
X307387Y174367D01*
X307387Y174368D01*
X307388Y174370D01*
X307399Y174511D01*
X307411Y174650D01*
X307410Y174651D01*
X307410Y174653D01*
X307407Y174669D01*
X307355Y174929D01*
X307341Y174956D01*
X307335Y174980D01*
X306554Y176865D01*
X306554Y180235D01*
X307844Y183348D01*
X308936Y184440D01*
X308953Y184464D01*
X308976Y184483D01*
X309039Y184577D01*
X309107Y184667D01*
X309117Y184695D01*
X309133Y184719D01*
X309168Y184827D01*
X309208Y184933D01*
X309210Y184962D01*
X309219Y184990D01*
X309222Y185104D01*
X309231Y185216D01*
X309226Y185245D01*
X309226Y185274D01*
X309198Y185384D01*
X309176Y185495D01*
X309162Y185521D01*
X309155Y185549D01*
X309097Y185647D01*
X309045Y185747D01*
X309024Y185769D01*
X309009Y185794D01*
X308927Y185871D01*
X308849Y185953D01*
X308823Y185968D01*
X308802Y185988D01*
X308701Y186040D01*
X308603Y186097D01*
X308575Y186104D01*
X308549Y186118D01*
X308472Y186131D01*
X308328Y186167D01*
X308265Y186165D01*
X308218Y186173D01*
X296432Y186173D01*
X296403Y186169D01*
X296374Y186172D01*
X296263Y186149D01*
X296151Y186133D01*
X296124Y186121D01*
X296095Y186116D01*
X295994Y186063D01*
X295891Y186017D01*
X295869Y185998D01*
X295843Y185985D01*
X295761Y185907D01*
X295674Y185834D01*
X295658Y185809D01*
X295637Y185789D01*
X295580Y185691D01*
X295517Y185597D01*
X295508Y185569D01*
X295493Y185544D01*
X295465Y185434D01*
X295431Y185326D01*
X295430Y185296D01*
X295423Y185268D01*
X295427Y185155D01*
X295424Y185042D01*
X295431Y185013D01*
X295432Y184984D01*
X295467Y184876D01*
X295495Y184767D01*
X295510Y184741D01*
X295519Y184713D01*
X295565Y184649D01*
X295641Y184522D01*
X295686Y184479D01*
X295714Y184440D01*
X296806Y183348D01*
X298096Y180235D01*
X298096Y176865D01*
X296806Y173752D01*
X294423Y171369D01*
X291310Y170079D01*
X287940Y170079D01*
X284827Y171369D01*
X282444Y173752D01*
X281154Y176865D01*
X281154Y180235D01*
X282444Y183348D01*
X282570Y183474D01*
X282605Y183521D01*
X282647Y183561D01*
X282690Y183634D01*
X282741Y183701D01*
X282762Y183756D01*
X282791Y183807D01*
X282812Y183888D01*
X282842Y183967D01*
X282847Y184025D01*
X282861Y184082D01*
X282859Y184166D01*
X282866Y184250D01*
X282854Y184308D01*
X282852Y184366D01*
X282826Y184446D01*
X282810Y184529D01*
X282783Y184581D01*
X282765Y184637D01*
X282725Y184693D01*
X282679Y184781D01*
X282610Y184854D01*
X282570Y184910D01*
X267008Y200472D01*
X265594Y201886D01*
X265594Y217440D01*
X265582Y217527D01*
X265579Y217614D01*
X265562Y217667D01*
X265554Y217722D01*
X265519Y217801D01*
X265492Y217885D01*
X265464Y217924D01*
X265438Y217981D01*
X265342Y218094D01*
X265297Y218158D01*
X264000Y219455D01*
X263930Y219507D01*
X263866Y219567D01*
X263817Y219593D01*
X263773Y219626D01*
X263691Y219657D01*
X263613Y219697D01*
X263566Y219705D01*
X263507Y219727D01*
X263359Y219739D01*
X263282Y219752D01*
X227048Y219752D01*
X227019Y219748D01*
X226990Y219751D01*
X226879Y219728D01*
X226767Y219712D01*
X226740Y219700D01*
X226711Y219695D01*
X226611Y219642D01*
X226507Y219596D01*
X226485Y219577D01*
X226459Y219564D01*
X226377Y219486D01*
X226290Y219413D01*
X226274Y219388D01*
X226253Y219368D01*
X226196Y219270D01*
X226133Y219176D01*
X226124Y219148D01*
X226109Y219123D01*
X226081Y219013D01*
X226047Y218905D01*
X226046Y218875D01*
X226039Y218847D01*
X226043Y218734D01*
X226040Y218621D01*
X226047Y218592D01*
X226048Y218563D01*
X226083Y218455D01*
X226112Y218346D01*
X226127Y218320D01*
X226136Y218292D01*
X226181Y218228D01*
X226257Y218101D01*
X226302Y218058D01*
X226330Y218019D01*
X227783Y216567D01*
X227783Y213433D01*
X225567Y211217D01*
X223872Y211217D01*
X223785Y211205D01*
X223698Y211202D01*
X223645Y211185D01*
X223590Y211177D01*
X223510Y211142D01*
X223427Y211115D01*
X223388Y211087D01*
X223331Y211061D01*
X223218Y210965D01*
X223154Y210920D01*
X214584Y202350D01*
X214532Y202280D01*
X214472Y202216D01*
X214446Y202167D01*
X214413Y202123D01*
X214382Y202041D01*
X214342Y201963D01*
X214334Y201916D01*
X214312Y201857D01*
X214300Y201710D01*
X214287Y201632D01*
X214287Y167483D01*
X214299Y167397D01*
X214302Y167309D01*
X214319Y167257D01*
X214327Y167202D01*
X214362Y167122D01*
X214389Y167039D01*
X214417Y167000D01*
X214443Y166942D01*
X214539Y166829D01*
X214584Y166766D01*
X215808Y165542D01*
X215823Y165436D01*
X215835Y165409D01*
X215840Y165381D01*
X215893Y165280D01*
X215939Y165177D01*
X215958Y165154D01*
X215971Y165128D01*
X216049Y165046D01*
X216122Y164960D01*
X216147Y164944D01*
X216167Y164922D01*
X216265Y164865D01*
X216359Y164802D01*
X216387Y164793D01*
X216412Y164778D01*
X216522Y164751D01*
X216630Y164716D01*
X216660Y164716D01*
X216688Y164708D01*
X216801Y164712D01*
G37*
G36*
X212980Y246402D02*
X212980Y246402D01*
X213037Y246400D01*
X213120Y246422D01*
X213206Y246434D01*
X213257Y246458D01*
X213312Y246472D01*
X213386Y246516D01*
X213465Y246551D01*
X213508Y246588D01*
X213557Y246617D01*
X213616Y246680D01*
X213681Y246736D01*
X213707Y246778D01*
X213751Y246825D01*
X213817Y246954D01*
X213859Y247020D01*
X214541Y248667D01*
X216883Y251009D01*
X219944Y252277D01*
X223256Y252277D01*
X226317Y251009D01*
X228484Y248842D01*
X228508Y248824D01*
X228527Y248802D01*
X228621Y248739D01*
X228711Y248671D01*
X228739Y248660D01*
X228763Y248644D01*
X228871Y248610D01*
X228977Y248570D01*
X229006Y248567D01*
X229034Y248558D01*
X229148Y248555D01*
X229260Y248546D01*
X229289Y248552D01*
X229318Y248551D01*
X229428Y248580D01*
X229539Y248602D01*
X229565Y248615D01*
X229593Y248623D01*
X229691Y248681D01*
X229791Y248733D01*
X229813Y248753D01*
X229838Y248768D01*
X229915Y248851D01*
X229997Y248929D01*
X230012Y248954D01*
X230032Y248975D01*
X230084Y249076D01*
X230141Y249174D01*
X230148Y249202D01*
X230162Y249228D01*
X230175Y249306D01*
X230211Y249449D01*
X230209Y249512D01*
X230217Y249560D01*
X230217Y250567D01*
X231416Y251766D01*
X231468Y251835D01*
X231528Y251899D01*
X231554Y251949D01*
X231587Y251993D01*
X231618Y252074D01*
X231658Y252152D01*
X231666Y252200D01*
X231688Y252258D01*
X231700Y252406D01*
X231713Y252483D01*
X231713Y286979D01*
X231705Y287037D01*
X231707Y287095D01*
X231685Y287177D01*
X231673Y287261D01*
X231650Y287314D01*
X231635Y287370D01*
X231592Y287443D01*
X231557Y287520D01*
X231519Y287565D01*
X231490Y287615D01*
X231428Y287673D01*
X231374Y287737D01*
X231325Y287769D01*
X231282Y287809D01*
X231207Y287848D01*
X231137Y287895D01*
X231081Y287912D01*
X231029Y287939D01*
X230961Y287950D01*
X230866Y287980D01*
X230766Y287983D01*
X230698Y287994D01*
X223349Y287994D01*
X222604Y288739D01*
X222604Y290000D01*
X222596Y290058D01*
X222598Y290116D01*
X222576Y290198D01*
X222564Y290282D01*
X222541Y290335D01*
X222526Y290391D01*
X222483Y290464D01*
X222448Y290541D01*
X222410Y290586D01*
X222381Y290636D01*
X222319Y290694D01*
X222265Y290758D01*
X222216Y290790D01*
X222173Y290830D01*
X222098Y290869D01*
X222028Y290916D01*
X221972Y290933D01*
X221920Y290960D01*
X221852Y290971D01*
X221757Y291001D01*
X221657Y291004D01*
X221589Y291015D01*
X205611Y291015D01*
X205553Y291007D01*
X205495Y291009D01*
X205413Y290987D01*
X205329Y290975D01*
X205276Y290952D01*
X205220Y290937D01*
X205147Y290894D01*
X205070Y290859D01*
X205025Y290821D01*
X204975Y290792D01*
X204917Y290730D01*
X204853Y290676D01*
X204821Y290627D01*
X204781Y290584D01*
X204742Y290509D01*
X204695Y290439D01*
X204678Y290383D01*
X204651Y290331D01*
X204640Y290263D01*
X204610Y290168D01*
X204607Y290068D01*
X204596Y290000D01*
X204596Y288739D01*
X203851Y287994D01*
X197102Y287994D01*
X197044Y287986D01*
X196986Y287988D01*
X196904Y287966D01*
X196820Y287954D01*
X196767Y287931D01*
X196711Y287916D01*
X196638Y287873D01*
X196561Y287838D01*
X196516Y287800D01*
X196466Y287771D01*
X196408Y287709D01*
X196344Y287655D01*
X196312Y287606D01*
X196272Y287563D01*
X196233Y287488D01*
X196186Y287418D01*
X196169Y287362D01*
X196142Y287310D01*
X196131Y287242D01*
X196101Y287147D01*
X196098Y287047D01*
X196087Y286979D01*
X196087Y281853D01*
X187947Y273713D01*
X162368Y273713D01*
X162281Y273701D01*
X162194Y273698D01*
X162141Y273681D01*
X162086Y273673D01*
X162006Y273638D01*
X161923Y273611D01*
X161884Y273583D01*
X161827Y273557D01*
X161714Y273461D01*
X161650Y273416D01*
X141834Y253600D01*
X141782Y253531D01*
X141723Y253469D01*
X141697Y253418D01*
X141663Y253372D01*
X141632Y253292D01*
X141593Y253216D01*
X141582Y253160D01*
X141561Y253107D01*
X141554Y253021D01*
X141538Y252937D01*
X141543Y252880D01*
X141538Y252824D01*
X141555Y252739D01*
X141562Y252654D01*
X141583Y252601D01*
X141594Y252545D01*
X141633Y252468D01*
X141664Y252388D01*
X141699Y252343D01*
X141725Y252292D01*
X141784Y252230D01*
X141836Y252162D01*
X141881Y252128D01*
X141921Y252086D01*
X141995Y252043D01*
X142064Y251991D01*
X142117Y251971D01*
X142166Y251943D01*
X142249Y251921D01*
X142330Y251891D01*
X142386Y251887D01*
X142441Y251873D01*
X142527Y251875D01*
X142613Y251868D01*
X142661Y251880D01*
X142726Y251882D01*
X142863Y251926D01*
X142940Y251944D01*
X143744Y252277D01*
X147056Y252277D01*
X149241Y251372D01*
X149242Y251372D01*
X149243Y251371D01*
X149378Y251337D01*
X149516Y251301D01*
X149517Y251301D01*
X149519Y251301D01*
X149660Y251305D01*
X149800Y251309D01*
X149802Y251310D01*
X149803Y251310D01*
X149936Y251353D01*
X150071Y251396D01*
X150072Y251397D01*
X150074Y251397D01*
X150086Y251406D01*
X150307Y251554D01*
X150327Y251578D01*
X150347Y251592D01*
X155661Y256906D01*
X203289Y256906D01*
X211906Y248289D01*
X211906Y247409D01*
X211918Y247324D01*
X211920Y247238D01*
X211938Y247184D01*
X211946Y247127D01*
X211981Y247049D01*
X212007Y246967D01*
X212039Y246920D01*
X212062Y246868D01*
X212117Y246802D01*
X212165Y246731D01*
X212209Y246694D01*
X212245Y246651D01*
X212317Y246603D01*
X212383Y246548D01*
X212435Y246525D01*
X212482Y246493D01*
X212564Y246467D01*
X212643Y246432D01*
X212699Y246425D01*
X212753Y246407D01*
X212839Y246405D01*
X212924Y246394D01*
X212980Y246402D01*
G37*
G36*
X571460Y8993D02*
X571460Y8993D01*
X571518Y8991D01*
X571600Y9013D01*
X571684Y9025D01*
X571737Y9049D01*
X571793Y9063D01*
X571866Y9106D01*
X571943Y9141D01*
X571988Y9179D01*
X572038Y9209D01*
X572096Y9270D01*
X572160Y9325D01*
X572192Y9373D01*
X572232Y9416D01*
X572271Y9491D01*
X572318Y9561D01*
X572335Y9617D01*
X572362Y9669D01*
X572373Y9737D01*
X572403Y9832D01*
X572406Y9932D01*
X572417Y10000D01*
X572417Y50701D01*
X573191Y52568D01*
X574620Y53997D01*
X576487Y54771D01*
X583086Y54771D01*
X583144Y54779D01*
X583202Y54777D01*
X583284Y54799D01*
X583368Y54811D01*
X583421Y54834D01*
X583477Y54849D01*
X583550Y54892D01*
X583627Y54927D01*
X583672Y54965D01*
X583722Y54994D01*
X583780Y55056D01*
X583844Y55110D01*
X583876Y55159D01*
X583916Y55202D01*
X583955Y55277D01*
X584002Y55347D01*
X584019Y55403D01*
X584046Y55455D01*
X584057Y55523D01*
X584087Y55618D01*
X584090Y55718D01*
X584101Y55786D01*
X584101Y62097D01*
X591791Y69787D01*
X604482Y69787D01*
X604569Y69799D01*
X604656Y69802D01*
X604709Y69819D01*
X604764Y69827D01*
X604844Y69862D01*
X604927Y69889D01*
X604966Y69917D01*
X605023Y69943D01*
X605136Y70039D01*
X605200Y70084D01*
X620200Y85084D01*
X620201Y85085D01*
X620202Y85086D01*
X620285Y85196D01*
X620371Y85311D01*
X620372Y85313D01*
X620373Y85314D01*
X620422Y85446D01*
X620472Y85577D01*
X620472Y85578D01*
X620473Y85580D01*
X620485Y85724D01*
X620496Y85860D01*
X620496Y85862D01*
X620496Y85863D01*
X620492Y85879D01*
X620440Y86139D01*
X620426Y86166D01*
X620420Y86190D01*
X619673Y87994D01*
X619673Y91306D01*
X620420Y93110D01*
X620421Y93111D01*
X620421Y93112D01*
X620456Y93247D01*
X620491Y93385D01*
X620491Y93386D01*
X620491Y93388D01*
X620487Y93529D01*
X620483Y93669D01*
X620483Y93671D01*
X620482Y93672D01*
X620440Y93805D01*
X620396Y93940D01*
X620395Y93941D01*
X620395Y93943D01*
X620386Y93955D01*
X620238Y94176D01*
X620215Y94196D01*
X620200Y94216D01*
X591850Y122566D01*
X591520Y122896D01*
X591496Y122914D01*
X591477Y122936D01*
X591383Y122999D01*
X591293Y123067D01*
X591265Y123078D01*
X591241Y123094D01*
X591133Y123128D01*
X591027Y123168D01*
X590998Y123171D01*
X590970Y123180D01*
X590857Y123183D01*
X590744Y123192D01*
X590715Y123186D01*
X590686Y123187D01*
X590576Y123158D01*
X590465Y123136D01*
X590439Y123122D01*
X590411Y123115D01*
X590313Y123057D01*
X590213Y123005D01*
X590191Y122985D01*
X590166Y122970D01*
X590089Y122887D01*
X590007Y122809D01*
X589992Y122784D01*
X589972Y122763D01*
X589920Y122662D01*
X589863Y122564D01*
X589856Y122535D01*
X589842Y122509D01*
X589829Y122432D01*
X589793Y122288D01*
X589795Y122226D01*
X589787Y122178D01*
X589787Y106118D01*
X589799Y106031D01*
X589802Y105944D01*
X589819Y105891D01*
X589827Y105836D01*
X589862Y105756D01*
X589889Y105673D01*
X589917Y105634D01*
X589943Y105577D01*
X590039Y105464D01*
X590084Y105400D01*
X598034Y97450D01*
X598035Y97449D01*
X598036Y97448D01*
X598146Y97365D01*
X598261Y97279D01*
X598263Y97278D01*
X598264Y97277D01*
X598396Y97228D01*
X598527Y97178D01*
X598528Y97178D01*
X598530Y97177D01*
X598674Y97165D01*
X598810Y97154D01*
X598812Y97154D01*
X598813Y97154D01*
X598829Y97158D01*
X599089Y97210D01*
X599116Y97224D01*
X599140Y97230D01*
X600944Y97977D01*
X604256Y97977D01*
X607317Y96709D01*
X609659Y94367D01*
X610927Y91306D01*
X610927Y87994D01*
X609659Y84933D01*
X607317Y82591D01*
X604256Y81323D01*
X600944Y81323D01*
X599140Y82070D01*
X599139Y82071D01*
X599138Y82071D01*
X599003Y82106D01*
X598865Y82141D01*
X598864Y82141D01*
X598862Y82141D01*
X598721Y82137D01*
X598581Y82133D01*
X598579Y82133D01*
X598578Y82132D01*
X598445Y82090D01*
X598310Y82046D01*
X598309Y82045D01*
X598307Y82045D01*
X598295Y82036D01*
X598074Y81888D01*
X598054Y81865D01*
X598034Y81850D01*
X583034Y66850D01*
X581397Y65213D01*
X554506Y65213D01*
X554419Y65201D01*
X554332Y65198D01*
X554279Y65181D01*
X554224Y65173D01*
X554144Y65138D01*
X554061Y65111D01*
X554022Y65083D01*
X553965Y65057D01*
X553852Y64961D01*
X553788Y64916D01*
X549372Y60500D01*
X549320Y60430D01*
X549260Y60366D01*
X549234Y60317D01*
X549201Y60273D01*
X549170Y60191D01*
X549130Y60113D01*
X549122Y60066D01*
X549100Y60007D01*
X549094Y59931D01*
X549089Y59915D01*
X549087Y59857D01*
X549075Y59782D01*
X549075Y55786D01*
X549083Y55728D01*
X549081Y55670D01*
X549103Y55588D01*
X549115Y55504D01*
X549138Y55451D01*
X549153Y55395D01*
X549196Y55322D01*
X549231Y55245D01*
X549269Y55200D01*
X549298Y55150D01*
X549360Y55092D01*
X549414Y55028D01*
X549463Y54996D01*
X549506Y54956D01*
X549581Y54917D01*
X549651Y54870D01*
X549707Y54853D01*
X549759Y54826D01*
X549827Y54815D01*
X549922Y54785D01*
X550022Y54782D01*
X550090Y54771D01*
X556689Y54771D01*
X558556Y53997D01*
X559985Y52568D01*
X560759Y50701D01*
X560759Y10000D01*
X560767Y9942D01*
X560765Y9884D01*
X560787Y9802D01*
X560799Y9719D01*
X560822Y9665D01*
X560837Y9609D01*
X560880Y9536D01*
X560915Y9459D01*
X560953Y9414D01*
X560982Y9364D01*
X561044Y9306D01*
X561098Y9242D01*
X561147Y9210D01*
X561190Y9170D01*
X561265Y9131D01*
X561335Y9085D01*
X561391Y9067D01*
X561443Y9040D01*
X561511Y9029D01*
X561606Y8999D01*
X561706Y8996D01*
X561774Y8985D01*
X571402Y8985D01*
X571460Y8993D01*
G37*
G36*
X492260Y8993D02*
X492260Y8993D01*
X492318Y8991D01*
X492400Y9013D01*
X492484Y9025D01*
X492537Y9049D01*
X492593Y9063D01*
X492666Y9106D01*
X492743Y9141D01*
X492788Y9179D01*
X492838Y9209D01*
X492896Y9270D01*
X492960Y9325D01*
X492992Y9373D01*
X493032Y9416D01*
X493071Y9491D01*
X493118Y9561D01*
X493135Y9617D01*
X493162Y9669D01*
X493173Y9737D01*
X493203Y9832D01*
X493206Y9932D01*
X493217Y10000D01*
X493217Y50701D01*
X493991Y52568D01*
X495420Y53997D01*
X497287Y54771D01*
X503886Y54771D01*
X503944Y54779D01*
X504002Y54777D01*
X504084Y54799D01*
X504168Y54811D01*
X504221Y54834D01*
X504277Y54849D01*
X504350Y54892D01*
X504427Y54927D01*
X504472Y54965D01*
X504522Y54994D01*
X504580Y55056D01*
X504644Y55110D01*
X504676Y55159D01*
X504716Y55202D01*
X504755Y55277D01*
X504802Y55347D01*
X504819Y55403D01*
X504846Y55455D01*
X504857Y55523D01*
X504887Y55618D01*
X504890Y55718D01*
X504901Y55786D01*
X504901Y67097D01*
X506538Y68734D01*
X511284Y73480D01*
X511302Y73504D01*
X511324Y73523D01*
X511387Y73617D01*
X511455Y73707D01*
X511466Y73735D01*
X511482Y73759D01*
X511516Y73867D01*
X511556Y73973D01*
X511559Y74002D01*
X511568Y74030D01*
X511571Y74144D01*
X511580Y74256D01*
X511574Y74285D01*
X511575Y74314D01*
X511546Y74424D01*
X511524Y74535D01*
X511510Y74561D01*
X511503Y74589D01*
X511445Y74687D01*
X511393Y74787D01*
X511373Y74809D01*
X511358Y74834D01*
X511275Y74911D01*
X511197Y74993D01*
X511172Y75008D01*
X511151Y75028D01*
X511050Y75080D01*
X510952Y75137D01*
X510924Y75144D01*
X510897Y75158D01*
X510820Y75171D01*
X510676Y75207D01*
X510614Y75205D01*
X510566Y75213D01*
X475218Y75213D01*
X475131Y75201D01*
X475044Y75198D01*
X474991Y75181D01*
X474936Y75173D01*
X474856Y75138D01*
X474773Y75111D01*
X474734Y75083D01*
X474677Y75057D01*
X474564Y74961D01*
X474500Y74916D01*
X470084Y70500D01*
X470032Y70430D01*
X469972Y70366D01*
X469946Y70317D01*
X469913Y70273D01*
X469882Y70191D01*
X469842Y70113D01*
X469834Y70066D01*
X469812Y70007D01*
X469800Y69860D01*
X469787Y69782D01*
X469787Y55786D01*
X469795Y55728D01*
X469793Y55670D01*
X469815Y55588D01*
X469827Y55504D01*
X469850Y55451D01*
X469865Y55395D01*
X469908Y55322D01*
X469943Y55245D01*
X469981Y55200D01*
X470010Y55150D01*
X470072Y55092D01*
X470126Y55028D01*
X470175Y54996D01*
X470218Y54956D01*
X470293Y54917D01*
X470363Y54870D01*
X470419Y54853D01*
X470471Y54826D01*
X470539Y54815D01*
X470634Y54785D01*
X470734Y54782D01*
X470802Y54771D01*
X477489Y54771D01*
X479356Y53997D01*
X480785Y52568D01*
X481559Y50701D01*
X481559Y10000D01*
X481567Y9942D01*
X481565Y9884D01*
X481587Y9802D01*
X481599Y9719D01*
X481622Y9665D01*
X481637Y9609D01*
X481680Y9536D01*
X481715Y9459D01*
X481753Y9414D01*
X481782Y9364D01*
X481844Y9306D01*
X481898Y9242D01*
X481947Y9210D01*
X481990Y9170D01*
X482065Y9131D01*
X482135Y9085D01*
X482191Y9067D01*
X482243Y9040D01*
X482311Y9029D01*
X482406Y8999D01*
X482506Y8996D01*
X482574Y8985D01*
X492202Y8985D01*
X492260Y8993D01*
G37*
G36*
X413060Y8993D02*
X413060Y8993D01*
X413118Y8991D01*
X413200Y9013D01*
X413284Y9025D01*
X413337Y9049D01*
X413393Y9063D01*
X413466Y9106D01*
X413543Y9141D01*
X413588Y9179D01*
X413638Y9209D01*
X413696Y9270D01*
X413760Y9325D01*
X413792Y9373D01*
X413832Y9416D01*
X413871Y9491D01*
X413918Y9561D01*
X413935Y9617D01*
X413962Y9669D01*
X413973Y9737D01*
X414003Y9832D01*
X414006Y9932D01*
X414017Y10000D01*
X414017Y50701D01*
X414791Y52568D01*
X416220Y53997D01*
X418087Y54771D01*
X424686Y54771D01*
X424744Y54779D01*
X424802Y54777D01*
X424884Y54799D01*
X424968Y54811D01*
X425021Y54834D01*
X425077Y54849D01*
X425150Y54892D01*
X425227Y54927D01*
X425272Y54965D01*
X425322Y54994D01*
X425380Y55056D01*
X425444Y55110D01*
X425476Y55159D01*
X425516Y55202D01*
X425555Y55277D01*
X425602Y55347D01*
X425619Y55403D01*
X425646Y55455D01*
X425657Y55523D01*
X425687Y55618D01*
X425690Y55718D01*
X425701Y55786D01*
X425701Y69782D01*
X425689Y69869D01*
X425686Y69956D01*
X425669Y70009D01*
X425661Y70064D01*
X425626Y70144D01*
X425599Y70227D01*
X425571Y70266D01*
X425545Y70323D01*
X425449Y70436D01*
X425404Y70500D01*
X420988Y74916D01*
X420918Y74968D01*
X420854Y75028D01*
X420805Y75054D01*
X420761Y75087D01*
X420679Y75118D01*
X420601Y75158D01*
X420554Y75166D01*
X420495Y75188D01*
X420348Y75200D01*
X420270Y75213D01*
X385010Y75213D01*
X384981Y75209D01*
X384951Y75212D01*
X384840Y75189D01*
X384728Y75173D01*
X384701Y75161D01*
X384673Y75156D01*
X384572Y75104D01*
X384469Y75057D01*
X384446Y75038D01*
X384420Y75025D01*
X384338Y74947D01*
X384252Y74874D01*
X384235Y74849D01*
X384214Y74829D01*
X384157Y74731D01*
X384094Y74637D01*
X384085Y74609D01*
X384071Y74584D01*
X384043Y74474D01*
X384008Y74366D01*
X384008Y74336D01*
X384000Y74308D01*
X384004Y74195D01*
X384001Y74082D01*
X384009Y74053D01*
X384009Y74024D01*
X384044Y73916D01*
X384073Y73807D01*
X384088Y73781D01*
X384097Y73753D01*
X384142Y73690D01*
X384218Y73562D01*
X384264Y73519D01*
X384292Y73480D01*
X389038Y68734D01*
X390675Y67097D01*
X390675Y55786D01*
X390683Y55728D01*
X390681Y55670D01*
X390703Y55588D01*
X390715Y55504D01*
X390738Y55451D01*
X390753Y55395D01*
X390796Y55322D01*
X390831Y55245D01*
X390869Y55200D01*
X390898Y55150D01*
X390960Y55092D01*
X391014Y55028D01*
X391063Y54996D01*
X391106Y54956D01*
X391181Y54917D01*
X391251Y54870D01*
X391307Y54853D01*
X391359Y54826D01*
X391427Y54815D01*
X391522Y54785D01*
X391622Y54782D01*
X391690Y54771D01*
X398289Y54771D01*
X400156Y53997D01*
X401585Y52568D01*
X402359Y50701D01*
X402359Y10000D01*
X402367Y9942D01*
X402365Y9884D01*
X402387Y9802D01*
X402399Y9719D01*
X402422Y9665D01*
X402437Y9609D01*
X402480Y9536D01*
X402515Y9459D01*
X402553Y9414D01*
X402582Y9364D01*
X402644Y9306D01*
X402698Y9242D01*
X402747Y9210D01*
X402790Y9170D01*
X402865Y9131D01*
X402935Y9085D01*
X402991Y9067D01*
X403043Y9040D01*
X403111Y9029D01*
X403206Y8999D01*
X403306Y8996D01*
X403374Y8985D01*
X413002Y8985D01*
X413060Y8993D01*
G37*
G36*
X356728Y247805D02*
X356728Y247805D01*
X356814Y247803D01*
X356869Y247817D01*
X356926Y247822D01*
X357006Y247853D01*
X357089Y247875D01*
X357138Y247904D01*
X357191Y247924D01*
X357260Y247976D01*
X357334Y248020D01*
X357373Y248061D01*
X357418Y248096D01*
X357470Y248165D01*
X357528Y248227D01*
X357554Y248278D01*
X357588Y248323D01*
X357619Y248404D01*
X357658Y248480D01*
X357666Y248529D01*
X357689Y248589D01*
X357700Y248734D01*
X357713Y248811D01*
X357713Y266132D01*
X357701Y266219D01*
X357698Y266306D01*
X357681Y266359D01*
X357673Y266414D01*
X357638Y266494D01*
X357611Y266577D01*
X357583Y266616D01*
X357557Y266673D01*
X357461Y266786D01*
X357416Y266850D01*
X349913Y274353D01*
X349913Y286979D01*
X349905Y287037D01*
X349907Y287095D01*
X349885Y287177D01*
X349873Y287261D01*
X349850Y287314D01*
X349835Y287370D01*
X349792Y287443D01*
X349757Y287520D01*
X349719Y287565D01*
X349690Y287615D01*
X349628Y287673D01*
X349574Y287737D01*
X349525Y287769D01*
X349482Y287809D01*
X349407Y287848D01*
X349337Y287895D01*
X349281Y287912D01*
X349229Y287939D01*
X349161Y287950D01*
X349066Y287980D01*
X348966Y287983D01*
X348898Y287994D01*
X342149Y287994D01*
X341404Y288739D01*
X341404Y290000D01*
X341396Y290058D01*
X341398Y290116D01*
X341376Y290198D01*
X341364Y290282D01*
X341341Y290335D01*
X341326Y290391D01*
X341283Y290464D01*
X341248Y290541D01*
X341210Y290586D01*
X341181Y290636D01*
X341119Y290694D01*
X341065Y290758D01*
X341016Y290790D01*
X340973Y290830D01*
X340898Y290869D01*
X340828Y290916D01*
X340772Y290933D01*
X340720Y290960D01*
X340652Y290971D01*
X340557Y291001D01*
X340457Y291004D01*
X340389Y291015D01*
X324411Y291015D01*
X324353Y291007D01*
X324295Y291009D01*
X324213Y290987D01*
X324129Y290975D01*
X324076Y290952D01*
X324020Y290937D01*
X323947Y290894D01*
X323870Y290859D01*
X323825Y290821D01*
X323775Y290792D01*
X323717Y290730D01*
X323653Y290676D01*
X323621Y290627D01*
X323581Y290584D01*
X323542Y290509D01*
X323495Y290439D01*
X323478Y290383D01*
X323451Y290331D01*
X323440Y290263D01*
X323410Y290168D01*
X323407Y290068D01*
X323396Y290000D01*
X323396Y288739D01*
X322651Y287994D01*
X315902Y287994D01*
X315844Y287986D01*
X315786Y287988D01*
X315704Y287966D01*
X315620Y287954D01*
X315567Y287931D01*
X315511Y287916D01*
X315438Y287873D01*
X315361Y287838D01*
X315316Y287800D01*
X315266Y287771D01*
X315208Y287709D01*
X315144Y287655D01*
X315112Y287606D01*
X315072Y287563D01*
X315033Y287488D01*
X314986Y287418D01*
X314969Y287362D01*
X314942Y287310D01*
X314931Y287242D01*
X314901Y287147D01*
X314898Y287047D01*
X314887Y286979D01*
X314887Y276268D01*
X314899Y276181D01*
X314902Y276094D01*
X314919Y276041D01*
X314927Y275986D01*
X314962Y275906D01*
X314989Y275823D01*
X315017Y275784D01*
X315043Y275727D01*
X315139Y275614D01*
X315184Y275550D01*
X340714Y250020D01*
X340721Y249976D01*
X340733Y249949D01*
X340738Y249921D01*
X340791Y249820D01*
X340837Y249717D01*
X340856Y249694D01*
X340869Y249668D01*
X340947Y249586D01*
X341020Y249500D01*
X341045Y249483D01*
X341065Y249462D01*
X341163Y249405D01*
X341257Y249342D01*
X341285Y249333D01*
X341310Y249318D01*
X341420Y249291D01*
X341528Y249256D01*
X341558Y249256D01*
X341586Y249248D01*
X341699Y249252D01*
X341812Y249249D01*
X341841Y249256D01*
X341870Y249257D01*
X341978Y249292D01*
X342087Y249321D01*
X342113Y249336D01*
X342141Y249345D01*
X342205Y249390D01*
X342332Y249466D01*
X342375Y249512D01*
X342414Y249540D01*
X343883Y251009D01*
X346944Y252277D01*
X350256Y252277D01*
X353317Y251009D01*
X355659Y248667D01*
X355760Y248423D01*
X355804Y248349D01*
X355839Y248271D01*
X355876Y248227D01*
X355905Y248178D01*
X355967Y248119D01*
X356023Y248054D01*
X356070Y248022D01*
X356111Y247983D01*
X356187Y247944D01*
X356259Y247896D01*
X356313Y247879D01*
X356364Y247853D01*
X356448Y247836D01*
X356530Y247810D01*
X356587Y247809D01*
X356643Y247798D01*
X356728Y247805D01*
G37*
G36*
X373460Y8993D02*
X373460Y8993D01*
X373518Y8991D01*
X373600Y9013D01*
X373684Y9025D01*
X373737Y9049D01*
X373793Y9063D01*
X373866Y9106D01*
X373943Y9141D01*
X373988Y9179D01*
X374038Y9209D01*
X374096Y9270D01*
X374160Y9325D01*
X374192Y9373D01*
X374232Y9416D01*
X374271Y9491D01*
X374318Y9561D01*
X374335Y9617D01*
X374362Y9669D01*
X374373Y9737D01*
X374403Y9832D01*
X374406Y9932D01*
X374417Y10000D01*
X374417Y50701D01*
X375191Y52568D01*
X376620Y53997D01*
X378487Y54771D01*
X385086Y54771D01*
X385144Y54779D01*
X385202Y54777D01*
X385284Y54799D01*
X385368Y54811D01*
X385421Y54834D01*
X385477Y54849D01*
X385550Y54892D01*
X385627Y54927D01*
X385672Y54965D01*
X385722Y54994D01*
X385780Y55056D01*
X385844Y55110D01*
X385876Y55159D01*
X385916Y55202D01*
X385955Y55277D01*
X386002Y55347D01*
X386019Y55403D01*
X386046Y55455D01*
X386057Y55523D01*
X386087Y55618D01*
X386090Y55718D01*
X386101Y55786D01*
X386101Y64782D01*
X386089Y64869D01*
X386086Y64956D01*
X386069Y65009D01*
X386061Y65064D01*
X386026Y65144D01*
X385999Y65227D01*
X385971Y65266D01*
X385945Y65323D01*
X385851Y65434D01*
X385836Y65459D01*
X385826Y65469D01*
X385804Y65500D01*
X380888Y70416D01*
X380818Y70468D01*
X380754Y70528D01*
X380705Y70554D01*
X380661Y70587D01*
X380579Y70618D01*
X380501Y70658D01*
X380454Y70666D01*
X380395Y70688D01*
X380248Y70700D01*
X380170Y70713D01*
X344910Y70713D01*
X344881Y70709D01*
X344851Y70712D01*
X344740Y70689D01*
X344628Y70673D01*
X344601Y70661D01*
X344573Y70656D01*
X344472Y70604D01*
X344369Y70557D01*
X344346Y70538D01*
X344320Y70525D01*
X344238Y70447D01*
X344152Y70374D01*
X344135Y70349D01*
X344114Y70329D01*
X344057Y70231D01*
X343994Y70137D01*
X343985Y70109D01*
X343971Y70084D01*
X343943Y69974D01*
X343908Y69866D01*
X343908Y69836D01*
X343900Y69808D01*
X343904Y69695D01*
X343901Y69582D01*
X343909Y69553D01*
X343909Y69524D01*
X343944Y69416D01*
X343973Y69307D01*
X343988Y69281D01*
X343997Y69253D01*
X344042Y69190D01*
X344118Y69062D01*
X344164Y69019D01*
X344192Y68980D01*
X349438Y63734D01*
X351075Y62097D01*
X351075Y55786D01*
X351083Y55728D01*
X351081Y55670D01*
X351103Y55588D01*
X351115Y55504D01*
X351138Y55451D01*
X351153Y55395D01*
X351196Y55322D01*
X351231Y55245D01*
X351269Y55200D01*
X351298Y55150D01*
X351360Y55092D01*
X351414Y55028D01*
X351463Y54996D01*
X351506Y54956D01*
X351581Y54917D01*
X351651Y54870D01*
X351707Y54853D01*
X351759Y54826D01*
X351827Y54815D01*
X351922Y54785D01*
X352022Y54782D01*
X352090Y54771D01*
X358689Y54771D01*
X360556Y53997D01*
X361985Y52568D01*
X362759Y50701D01*
X362759Y10000D01*
X362767Y9942D01*
X362765Y9884D01*
X362787Y9802D01*
X362799Y9719D01*
X362822Y9665D01*
X362837Y9609D01*
X362880Y9536D01*
X362915Y9459D01*
X362953Y9414D01*
X362982Y9364D01*
X363044Y9306D01*
X363098Y9242D01*
X363147Y9210D01*
X363190Y9170D01*
X363265Y9131D01*
X363335Y9085D01*
X363391Y9067D01*
X363443Y9040D01*
X363511Y9029D01*
X363606Y8999D01*
X363706Y8996D01*
X363774Y8985D01*
X373402Y8985D01*
X373460Y8993D01*
G37*
G36*
X531860Y8993D02*
X531860Y8993D01*
X531918Y8991D01*
X532000Y9013D01*
X532084Y9025D01*
X532137Y9049D01*
X532193Y9063D01*
X532266Y9106D01*
X532343Y9141D01*
X532388Y9179D01*
X532438Y9209D01*
X532496Y9270D01*
X532560Y9325D01*
X532592Y9373D01*
X532632Y9416D01*
X532671Y9491D01*
X532718Y9561D01*
X532735Y9617D01*
X532762Y9669D01*
X532773Y9737D01*
X532803Y9832D01*
X532806Y9932D01*
X532817Y10000D01*
X532817Y50701D01*
X533591Y52568D01*
X535020Y53997D01*
X536887Y54771D01*
X543486Y54771D01*
X543544Y54779D01*
X543602Y54777D01*
X543684Y54799D01*
X543768Y54811D01*
X543821Y54834D01*
X543877Y54849D01*
X543950Y54892D01*
X544027Y54927D01*
X544072Y54965D01*
X544122Y54994D01*
X544180Y55056D01*
X544244Y55110D01*
X544276Y55159D01*
X544316Y55202D01*
X544355Y55277D01*
X544402Y55347D01*
X544419Y55403D01*
X544446Y55455D01*
X544457Y55523D01*
X544487Y55618D01*
X544490Y55718D01*
X544501Y55786D01*
X544501Y62097D01*
X546138Y63734D01*
X550884Y68480D01*
X550902Y68504D01*
X550924Y68523D01*
X550987Y68617D01*
X551055Y68707D01*
X551066Y68735D01*
X551082Y68759D01*
X551116Y68867D01*
X551156Y68973D01*
X551159Y69002D01*
X551168Y69030D01*
X551171Y69144D01*
X551180Y69256D01*
X551174Y69285D01*
X551175Y69314D01*
X551146Y69424D01*
X551124Y69535D01*
X551110Y69561D01*
X551103Y69589D01*
X551045Y69687D01*
X550993Y69787D01*
X550973Y69809D01*
X550958Y69834D01*
X550875Y69911D01*
X550797Y69993D01*
X550772Y70008D01*
X550751Y70028D01*
X550650Y70080D01*
X550552Y70137D01*
X550524Y70144D01*
X550497Y70158D01*
X550420Y70171D01*
X550276Y70207D01*
X550214Y70205D01*
X550166Y70213D01*
X514906Y70213D01*
X514819Y70201D01*
X514732Y70198D01*
X514679Y70181D01*
X514624Y70173D01*
X514544Y70138D01*
X514461Y70111D01*
X514422Y70083D01*
X514365Y70057D01*
X514252Y69961D01*
X514188Y69916D01*
X509772Y65500D01*
X509720Y65430D01*
X509660Y65366D01*
X509634Y65317D01*
X509601Y65273D01*
X509570Y65191D01*
X509530Y65113D01*
X509522Y65066D01*
X509500Y65007D01*
X509488Y64860D01*
X509475Y64782D01*
X509475Y55786D01*
X509483Y55728D01*
X509481Y55670D01*
X509503Y55588D01*
X509515Y55504D01*
X509538Y55451D01*
X509553Y55395D01*
X509596Y55322D01*
X509631Y55245D01*
X509669Y55200D01*
X509698Y55150D01*
X509760Y55092D01*
X509814Y55028D01*
X509863Y54996D01*
X509906Y54956D01*
X509981Y54917D01*
X510051Y54870D01*
X510107Y54853D01*
X510159Y54826D01*
X510227Y54815D01*
X510322Y54785D01*
X510422Y54782D01*
X510490Y54771D01*
X517089Y54771D01*
X518956Y53997D01*
X520385Y52568D01*
X521159Y50701D01*
X521159Y10000D01*
X521167Y9942D01*
X521165Y9884D01*
X521187Y9802D01*
X521199Y9719D01*
X521222Y9665D01*
X521237Y9609D01*
X521280Y9536D01*
X521315Y9459D01*
X521353Y9414D01*
X521382Y9364D01*
X521444Y9306D01*
X521498Y9242D01*
X521547Y9210D01*
X521590Y9170D01*
X521665Y9131D01*
X521735Y9085D01*
X521791Y9067D01*
X521843Y9040D01*
X521911Y9029D01*
X522006Y8999D01*
X522106Y8996D01*
X522174Y8985D01*
X531802Y8985D01*
X531860Y8993D01*
G37*
G36*
X431785Y249256D02*
X431785Y249256D01*
X431814Y249255D01*
X431924Y249284D01*
X432035Y249306D01*
X432061Y249319D01*
X432089Y249327D01*
X432187Y249384D01*
X432287Y249437D01*
X432309Y249457D01*
X432334Y249472D01*
X432411Y249555D01*
X432493Y249633D01*
X432508Y249658D01*
X432528Y249679D01*
X432580Y249780D01*
X432637Y249878D01*
X432644Y249906D01*
X432658Y249932D01*
X432671Y250010D01*
X432707Y250153D01*
X432705Y250216D01*
X432713Y250264D01*
X432713Y256132D01*
X432701Y256219D01*
X432698Y256306D01*
X432681Y256359D01*
X432673Y256414D01*
X432638Y256494D01*
X432611Y256577D01*
X432583Y256616D01*
X432557Y256673D01*
X432461Y256786D01*
X432416Y256850D01*
X422713Y266553D01*
X422713Y273447D01*
X428816Y279550D01*
X428868Y279620D01*
X428928Y279684D01*
X428954Y279733D01*
X428987Y279777D01*
X429018Y279859D01*
X429058Y279937D01*
X429066Y279984D01*
X429088Y280043D01*
X429100Y280190D01*
X429113Y280268D01*
X429113Y286979D01*
X429105Y287037D01*
X429107Y287095D01*
X429085Y287177D01*
X429073Y287261D01*
X429050Y287314D01*
X429035Y287370D01*
X428992Y287443D01*
X428957Y287520D01*
X428919Y287565D01*
X428890Y287615D01*
X428828Y287673D01*
X428774Y287737D01*
X428725Y287769D01*
X428682Y287809D01*
X428607Y287848D01*
X428537Y287895D01*
X428481Y287912D01*
X428429Y287939D01*
X428361Y287950D01*
X428266Y287980D01*
X428166Y287983D01*
X428098Y287994D01*
X421349Y287994D01*
X420604Y288739D01*
X420604Y290000D01*
X420596Y290058D01*
X420598Y290116D01*
X420576Y290198D01*
X420564Y290282D01*
X420541Y290335D01*
X420526Y290391D01*
X420483Y290464D01*
X420448Y290541D01*
X420410Y290586D01*
X420381Y290636D01*
X420319Y290694D01*
X420265Y290758D01*
X420216Y290790D01*
X420173Y290830D01*
X420098Y290869D01*
X420028Y290916D01*
X419972Y290933D01*
X419920Y290960D01*
X419852Y290971D01*
X419757Y291001D01*
X419657Y291004D01*
X419589Y291015D01*
X403611Y291015D01*
X403553Y291007D01*
X403495Y291009D01*
X403413Y290987D01*
X403329Y290975D01*
X403276Y290952D01*
X403220Y290937D01*
X403147Y290894D01*
X403070Y290859D01*
X403025Y290821D01*
X402975Y290792D01*
X402917Y290730D01*
X402853Y290676D01*
X402821Y290627D01*
X402781Y290584D01*
X402742Y290509D01*
X402695Y290439D01*
X402678Y290383D01*
X402651Y290331D01*
X402640Y290263D01*
X402610Y290168D01*
X402607Y290068D01*
X402596Y290000D01*
X402596Y288739D01*
X401851Y287994D01*
X395102Y287994D01*
X395044Y287986D01*
X394986Y287988D01*
X394904Y287966D01*
X394820Y287954D01*
X394767Y287931D01*
X394711Y287916D01*
X394638Y287873D01*
X394561Y287838D01*
X394516Y287800D01*
X394466Y287771D01*
X394408Y287709D01*
X394344Y287655D01*
X394312Y287606D01*
X394272Y287563D01*
X394233Y287488D01*
X394186Y287418D01*
X394169Y287362D01*
X394142Y287310D01*
X394131Y287242D01*
X394101Y287147D01*
X394098Y287047D01*
X394087Y286979D01*
X394087Y252281D01*
X394103Y252168D01*
X394113Y252053D01*
X394123Y252027D01*
X394127Y252000D01*
X394174Y251895D01*
X394215Y251788D01*
X394231Y251766D01*
X394243Y251740D01*
X394317Y251653D01*
X394386Y251561D01*
X394409Y251545D01*
X394426Y251523D01*
X394522Y251460D01*
X394614Y251391D01*
X394640Y251381D01*
X394663Y251366D01*
X394773Y251331D01*
X394880Y251291D01*
X394908Y251288D01*
X394934Y251280D01*
X395049Y251277D01*
X395163Y251268D01*
X395188Y251274D01*
X395218Y251273D01*
X395475Y251340D01*
X395491Y251343D01*
X397763Y252285D01*
X397818Y252283D01*
X397900Y252305D01*
X397984Y252317D01*
X398037Y252340D01*
X398093Y252355D01*
X398166Y252398D01*
X398243Y252433D01*
X398288Y252471D01*
X398338Y252500D01*
X398396Y252562D01*
X398460Y252616D01*
X398492Y252665D01*
X398532Y252708D01*
X398571Y252783D01*
X398618Y252853D01*
X398635Y252909D01*
X398662Y252961D01*
X398673Y253029D01*
X398703Y253124D01*
X398706Y253224D01*
X398717Y253292D01*
X398717Y256567D01*
X400933Y258783D01*
X404067Y258783D01*
X405265Y257584D01*
X405335Y257532D01*
X405399Y257472D01*
X405448Y257446D01*
X405493Y257413D01*
X405574Y257382D01*
X405652Y257342D01*
X405700Y257334D01*
X405758Y257312D01*
X405906Y257300D01*
X405983Y257287D01*
X419017Y257287D01*
X419103Y257299D01*
X419191Y257302D01*
X419243Y257319D01*
X419298Y257327D01*
X419378Y257362D01*
X419461Y257389D01*
X419500Y257417D01*
X419558Y257443D01*
X419671Y257539D01*
X419734Y257584D01*
X420933Y258783D01*
X424067Y258783D01*
X426283Y256567D01*
X426283Y253027D01*
X426283Y253025D01*
X426283Y253024D01*
X426304Y252879D01*
X426323Y252745D01*
X426323Y252744D01*
X426323Y252742D01*
X426381Y252615D01*
X426439Y252486D01*
X426440Y252485D01*
X426441Y252483D01*
X426534Y252374D01*
X426622Y252269D01*
X426624Y252268D01*
X426625Y252267D01*
X426638Y252259D01*
X426859Y252111D01*
X426888Y252102D01*
X426909Y252089D01*
X429517Y251009D01*
X430980Y249546D01*
X431004Y249528D01*
X431023Y249506D01*
X431117Y249443D01*
X431207Y249375D01*
X431235Y249364D01*
X431259Y249348D01*
X431367Y249314D01*
X431473Y249274D01*
X431502Y249271D01*
X431530Y249262D01*
X431644Y249259D01*
X431756Y249250D01*
X431785Y249256D01*
G37*
G36*
X254660Y8993D02*
X254660Y8993D01*
X254718Y8991D01*
X254800Y9013D01*
X254884Y9025D01*
X254937Y9048D01*
X254993Y9063D01*
X255066Y9106D01*
X255143Y9141D01*
X255188Y9179D01*
X255238Y9208D01*
X255296Y9270D01*
X255360Y9324D01*
X255392Y9373D01*
X255432Y9416D01*
X255471Y9491D01*
X255518Y9561D01*
X255535Y9617D01*
X255562Y9669D01*
X255573Y9737D01*
X255603Y9832D01*
X255606Y9932D01*
X255617Y10000D01*
X255617Y50701D01*
X256391Y52568D01*
X257820Y53997D01*
X259687Y54771D01*
X265698Y54771D01*
X265756Y54779D01*
X265814Y54777D01*
X265896Y54799D01*
X265980Y54811D01*
X266033Y54834D01*
X266089Y54849D01*
X266162Y54892D01*
X266239Y54927D01*
X266284Y54965D01*
X266334Y54994D01*
X266392Y55056D01*
X266456Y55110D01*
X266488Y55159D01*
X266528Y55202D01*
X266567Y55277D01*
X266614Y55347D01*
X266631Y55403D01*
X266658Y55455D01*
X266669Y55523D01*
X266699Y55618D01*
X266702Y55718D01*
X266713Y55786D01*
X266713Y56053D01*
X266701Y56139D01*
X266698Y56227D01*
X266681Y56279D01*
X266673Y56334D01*
X266638Y56414D01*
X266611Y56497D01*
X266583Y56536D01*
X266557Y56594D01*
X266461Y56707D01*
X266416Y56770D01*
X265217Y57969D01*
X265217Y61143D01*
X265265Y61207D01*
X265276Y61235D01*
X265292Y61259D01*
X265326Y61367D01*
X265367Y61473D01*
X265369Y61502D01*
X265378Y61530D01*
X265381Y61643D01*
X265390Y61756D01*
X265384Y61785D01*
X265385Y61814D01*
X265357Y61924D01*
X265334Y62035D01*
X265321Y62061D01*
X265313Y62089D01*
X265256Y62187D01*
X265203Y62287D01*
X265183Y62309D01*
X265168Y62334D01*
X265086Y62411D01*
X265008Y62493D01*
X264982Y62508D01*
X264961Y62528D01*
X264860Y62580D01*
X264762Y62637D01*
X264734Y62644D01*
X264708Y62658D01*
X264630Y62671D01*
X264487Y62707D01*
X264424Y62705D01*
X264377Y62713D01*
X219053Y62713D01*
X217416Y64350D01*
X200165Y81601D01*
X200164Y81602D01*
X200163Y81603D01*
X200051Y81687D01*
X199938Y81772D01*
X199936Y81773D01*
X199935Y81774D01*
X199801Y81824D01*
X199672Y81873D01*
X199670Y81873D01*
X199669Y81874D01*
X199525Y81886D01*
X199389Y81897D01*
X199387Y81897D01*
X199386Y81897D01*
X199370Y81893D01*
X199110Y81841D01*
X199083Y81827D01*
X199058Y81821D01*
X197856Y81323D01*
X195362Y81323D01*
X195333Y81319D01*
X195303Y81322D01*
X195192Y81299D01*
X195080Y81283D01*
X195053Y81271D01*
X195025Y81266D01*
X194924Y81214D01*
X194821Y81167D01*
X194798Y81148D01*
X194772Y81135D01*
X194690Y81057D01*
X194604Y80984D01*
X194587Y80959D01*
X194566Y80939D01*
X194509Y80841D01*
X194446Y80747D01*
X194437Y80719D01*
X194423Y80694D01*
X194395Y80584D01*
X194360Y80476D01*
X194360Y80446D01*
X194352Y80418D01*
X194356Y80305D01*
X194353Y80192D01*
X194361Y80163D01*
X194361Y80134D01*
X194396Y80026D01*
X194425Y79917D01*
X194440Y79891D01*
X194449Y79863D01*
X194494Y79800D01*
X194570Y79672D01*
X194616Y79629D01*
X194644Y79590D01*
X219166Y55068D01*
X219170Y55065D01*
X219173Y55061D01*
X219248Y55006D01*
X219301Y54956D01*
X219345Y54933D01*
X219394Y54897D01*
X219398Y54895D01*
X219401Y54892D01*
X219487Y54861D01*
X219554Y54826D01*
X219597Y54819D01*
X219659Y54795D01*
X219664Y54795D01*
X219668Y54794D01*
X219807Y54783D01*
X219815Y54783D01*
X219885Y54771D01*
X239889Y54771D01*
X241756Y53997D01*
X243185Y52568D01*
X243959Y50701D01*
X243959Y10000D01*
X243967Y9942D01*
X243965Y9884D01*
X243987Y9802D01*
X243999Y9718D01*
X244022Y9665D01*
X244037Y9609D01*
X244080Y9536D01*
X244115Y9459D01*
X244153Y9414D01*
X244182Y9364D01*
X244244Y9306D01*
X244298Y9242D01*
X244347Y9210D01*
X244390Y9170D01*
X244465Y9131D01*
X244535Y9084D01*
X244591Y9067D01*
X244643Y9040D01*
X244711Y9029D01*
X244806Y8999D01*
X244906Y8996D01*
X244974Y8985D01*
X254602Y8985D01*
X254660Y8993D01*
G37*
G36*
X263707Y67291D02*
X263707Y67291D01*
X263737Y67288D01*
X263848Y67311D01*
X263960Y67327D01*
X263987Y67339D01*
X264015Y67344D01*
X264116Y67396D01*
X264219Y67443D01*
X264242Y67462D01*
X264268Y67475D01*
X264350Y67553D01*
X264436Y67626D01*
X264452Y67651D01*
X264474Y67671D01*
X264531Y67769D01*
X264594Y67863D01*
X264603Y67891D01*
X264617Y67916D01*
X264645Y68026D01*
X264680Y68134D01*
X264680Y68164D01*
X264688Y68192D01*
X264684Y68305D01*
X264687Y68418D01*
X264679Y68447D01*
X264679Y68476D01*
X264644Y68584D01*
X264615Y68693D01*
X264600Y68719D01*
X264591Y68747D01*
X264546Y68810D01*
X264470Y68938D01*
X264424Y68981D01*
X264396Y69020D01*
X251566Y81850D01*
X251565Y81851D01*
X251564Y81852D01*
X251449Y81938D01*
X251339Y82021D01*
X251337Y82022D01*
X251336Y82023D01*
X251202Y82073D01*
X251073Y82122D01*
X251072Y82122D01*
X251070Y82123D01*
X250926Y82135D01*
X250790Y82146D01*
X250788Y82146D01*
X250787Y82146D01*
X250771Y82142D01*
X250511Y82090D01*
X250484Y82076D01*
X250460Y82070D01*
X248656Y81323D01*
X245344Y81323D01*
X242283Y82591D01*
X239941Y84933D01*
X238673Y87994D01*
X238673Y91306D01*
X239941Y94367D01*
X240554Y94980D01*
X240572Y95004D01*
X240594Y95023D01*
X240657Y95117D01*
X240725Y95207D01*
X240736Y95235D01*
X240752Y95259D01*
X240786Y95367D01*
X240826Y95473D01*
X240829Y95502D01*
X240838Y95530D01*
X240841Y95644D01*
X240850Y95756D01*
X240844Y95785D01*
X240845Y95814D01*
X240816Y95924D01*
X240794Y96035D01*
X240781Y96061D01*
X240773Y96089D01*
X240716Y96187D01*
X240663Y96287D01*
X240643Y96309D01*
X240628Y96334D01*
X240545Y96411D01*
X240467Y96493D01*
X240442Y96508D01*
X240421Y96528D01*
X240320Y96580D01*
X240222Y96637D01*
X240194Y96644D01*
X240168Y96658D01*
X240090Y96671D01*
X239947Y96707D01*
X239884Y96705D01*
X239836Y96713D01*
X230368Y96713D01*
X230281Y96701D01*
X230194Y96698D01*
X230141Y96681D01*
X230086Y96673D01*
X230006Y96638D01*
X229923Y96611D01*
X229884Y96583D01*
X229827Y96557D01*
X229714Y96461D01*
X229650Y96416D01*
X228829Y95595D01*
X228828Y95594D01*
X228827Y95593D01*
X228737Y95473D01*
X228658Y95368D01*
X228657Y95366D01*
X228656Y95365D01*
X228605Y95230D01*
X228557Y95102D01*
X228557Y95100D01*
X228556Y95099D01*
X228544Y94949D01*
X228533Y94819D01*
X228533Y94817D01*
X228533Y94816D01*
X228537Y94800D01*
X228589Y94540D01*
X228603Y94513D01*
X228609Y94488D01*
X229927Y91306D01*
X229927Y87994D01*
X228659Y84933D01*
X226317Y82591D01*
X223256Y81323D01*
X219944Y81323D01*
X216883Y82591D01*
X214541Y84933D01*
X213273Y87994D01*
X213273Y91306D01*
X214541Y94367D01*
X216883Y96709D01*
X219944Y97977D01*
X223256Y97977D01*
X223681Y97801D01*
X223682Y97801D01*
X223684Y97800D01*
X223820Y97765D01*
X223956Y97730D01*
X223958Y97730D01*
X223959Y97730D01*
X224099Y97734D01*
X224240Y97738D01*
X224242Y97739D01*
X224243Y97739D01*
X224375Y97781D01*
X224511Y97825D01*
X224512Y97826D01*
X224514Y97826D01*
X224526Y97835D01*
X224747Y97983D01*
X224767Y98007D01*
X224787Y98021D01*
X225746Y98980D01*
X225764Y99004D01*
X225786Y99023D01*
X225849Y99117D01*
X225917Y99207D01*
X225928Y99235D01*
X225944Y99259D01*
X225978Y99367D01*
X226018Y99473D01*
X226021Y99502D01*
X226030Y99530D01*
X226033Y99644D01*
X226042Y99756D01*
X226036Y99785D01*
X226037Y99814D01*
X226008Y99924D01*
X225986Y100035D01*
X225972Y100061D01*
X225965Y100089D01*
X225907Y100187D01*
X225855Y100287D01*
X225835Y100309D01*
X225820Y100334D01*
X225737Y100411D01*
X225659Y100493D01*
X225634Y100508D01*
X225613Y100528D01*
X225512Y100580D01*
X225414Y100637D01*
X225386Y100644D01*
X225359Y100658D01*
X225282Y100671D01*
X225138Y100707D01*
X225076Y100705D01*
X225028Y100713D01*
X210918Y100713D01*
X210831Y100701D01*
X210744Y100698D01*
X210691Y100681D01*
X210636Y100673D01*
X210556Y100638D01*
X210473Y100611D01*
X210434Y100583D01*
X210377Y100557D01*
X210264Y100461D01*
X210200Y100416D01*
X204000Y94216D01*
X203999Y94215D01*
X203998Y94214D01*
X203915Y94104D01*
X203829Y93989D01*
X203828Y93987D01*
X203827Y93986D01*
X203778Y93854D01*
X203728Y93723D01*
X203728Y93722D01*
X203727Y93720D01*
X203715Y93576D01*
X203704Y93440D01*
X203704Y93438D01*
X203704Y93437D01*
X203708Y93421D01*
X203760Y93161D01*
X203774Y93134D01*
X203780Y93110D01*
X204527Y91306D01*
X204527Y87994D01*
X203531Y85589D01*
X203530Y85588D01*
X203530Y85587D01*
X203495Y85451D01*
X203460Y85314D01*
X203460Y85313D01*
X203460Y85311D01*
X203464Y85168D01*
X203468Y85030D01*
X203469Y85028D01*
X203469Y85027D01*
X203512Y84894D01*
X203555Y84759D01*
X203556Y84758D01*
X203556Y84756D01*
X203565Y84744D01*
X203713Y84523D01*
X203736Y84503D01*
X203751Y84483D01*
X220650Y67584D01*
X220720Y67532D01*
X220784Y67472D01*
X220833Y67446D01*
X220877Y67413D01*
X220959Y67382D01*
X221037Y67342D01*
X221084Y67334D01*
X221143Y67312D01*
X221290Y67300D01*
X221368Y67287D01*
X263678Y67287D01*
X263707Y67291D01*
G37*
G36*
X333860Y8993D02*
X333860Y8993D01*
X333918Y8991D01*
X334000Y9013D01*
X334084Y9025D01*
X334137Y9048D01*
X334193Y9063D01*
X334266Y9106D01*
X334343Y9141D01*
X334388Y9179D01*
X334438Y9208D01*
X334496Y9270D01*
X334560Y9324D01*
X334592Y9373D01*
X334632Y9416D01*
X334671Y9491D01*
X334718Y9561D01*
X334735Y9617D01*
X334762Y9669D01*
X334773Y9737D01*
X334803Y9832D01*
X334806Y9932D01*
X334817Y10000D01*
X334817Y50701D01*
X335591Y52568D01*
X337020Y53997D01*
X338887Y54771D01*
X345486Y54771D01*
X345544Y54779D01*
X345602Y54777D01*
X345684Y54799D01*
X345768Y54811D01*
X345821Y54834D01*
X345877Y54849D01*
X345950Y54892D01*
X346027Y54927D01*
X346072Y54965D01*
X346122Y54994D01*
X346180Y55056D01*
X346244Y55110D01*
X346276Y55159D01*
X346316Y55202D01*
X346355Y55277D01*
X346402Y55347D01*
X346419Y55403D01*
X346446Y55455D01*
X346457Y55523D01*
X346487Y55618D01*
X346490Y55718D01*
X346501Y55786D01*
X346501Y59782D01*
X346494Y59835D01*
X346495Y59864D01*
X346488Y59887D01*
X346486Y59956D01*
X346469Y60009D01*
X346461Y60064D01*
X346426Y60144D01*
X346399Y60227D01*
X346371Y60266D01*
X346345Y60323D01*
X346249Y60436D01*
X346204Y60500D01*
X340288Y66416D01*
X340218Y66468D01*
X340154Y66528D01*
X340105Y66554D01*
X340061Y66587D01*
X339979Y66618D01*
X339901Y66658D01*
X339854Y66666D01*
X339795Y66688D01*
X339648Y66700D01*
X339570Y66713D01*
X304701Y66713D01*
X304672Y66709D01*
X304642Y66712D01*
X304531Y66689D01*
X304419Y66673D01*
X304392Y66661D01*
X304364Y66656D01*
X304263Y66604D01*
X304160Y66557D01*
X304137Y66538D01*
X304111Y66525D01*
X304029Y66447D01*
X303943Y66374D01*
X303926Y66349D01*
X303905Y66329D01*
X303848Y66231D01*
X303785Y66137D01*
X303776Y66109D01*
X303762Y66084D01*
X303734Y65974D01*
X303699Y65866D01*
X303699Y65836D01*
X303691Y65808D01*
X303695Y65695D01*
X303692Y65582D01*
X303700Y65553D01*
X303700Y65524D01*
X303735Y65416D01*
X303764Y65307D01*
X303779Y65281D01*
X303788Y65253D01*
X303833Y65190D01*
X303909Y65062D01*
X303955Y65019D01*
X303983Y64980D01*
X312287Y56676D01*
X312287Y55786D01*
X312295Y55728D01*
X312293Y55670D01*
X312315Y55588D01*
X312327Y55504D01*
X312350Y55451D01*
X312365Y55395D01*
X312408Y55322D01*
X312443Y55245D01*
X312481Y55200D01*
X312510Y55150D01*
X312572Y55092D01*
X312626Y55028D01*
X312675Y54996D01*
X312718Y54956D01*
X312793Y54917D01*
X312863Y54870D01*
X312919Y54853D01*
X312971Y54826D01*
X313039Y54815D01*
X313134Y54785D01*
X313234Y54782D01*
X313302Y54771D01*
X319089Y54771D01*
X320956Y53997D01*
X322385Y52568D01*
X323159Y50701D01*
X323159Y10000D01*
X323167Y9942D01*
X323165Y9884D01*
X323187Y9802D01*
X323199Y9718D01*
X323222Y9665D01*
X323237Y9609D01*
X323280Y9536D01*
X323315Y9459D01*
X323353Y9414D01*
X323382Y9364D01*
X323444Y9306D01*
X323498Y9242D01*
X323547Y9210D01*
X323590Y9170D01*
X323665Y9131D01*
X323735Y9084D01*
X323791Y9067D01*
X323843Y9040D01*
X323911Y9029D01*
X324006Y8999D01*
X324106Y8996D01*
X324174Y8985D01*
X333802Y8985D01*
X333860Y8993D01*
G37*
G36*
X294260Y8993D02*
X294260Y8993D01*
X294318Y8991D01*
X294400Y9013D01*
X294484Y9025D01*
X294537Y9048D01*
X294593Y9063D01*
X294666Y9106D01*
X294743Y9141D01*
X294788Y9179D01*
X294838Y9208D01*
X294896Y9270D01*
X294960Y9324D01*
X294992Y9373D01*
X295032Y9416D01*
X295071Y9491D01*
X295118Y9561D01*
X295135Y9617D01*
X295162Y9669D01*
X295173Y9737D01*
X295203Y9832D01*
X295206Y9932D01*
X295217Y10000D01*
X295217Y50701D01*
X295991Y52568D01*
X297420Y53997D01*
X299287Y54771D01*
X305273Y54771D01*
X305302Y54775D01*
X305332Y54772D01*
X305443Y54795D01*
X305555Y54811D01*
X305582Y54823D01*
X305610Y54828D01*
X305711Y54880D01*
X305814Y54927D01*
X305837Y54946D01*
X305863Y54959D01*
X305945Y55037D01*
X306031Y55110D01*
X306048Y55135D01*
X306069Y55155D01*
X306126Y55253D01*
X306189Y55347D01*
X306198Y55375D01*
X306212Y55400D01*
X306240Y55510D01*
X306275Y55618D01*
X306275Y55648D01*
X306283Y55676D01*
X306279Y55789D01*
X306282Y55902D01*
X306274Y55931D01*
X306274Y55960D01*
X306239Y56068D01*
X306210Y56177D01*
X306195Y56203D01*
X306186Y56231D01*
X306141Y56294D01*
X306065Y56422D01*
X306019Y56465D01*
X305991Y56504D01*
X300079Y62416D01*
X300009Y62468D01*
X299945Y62528D01*
X299896Y62554D01*
X299852Y62587D01*
X299770Y62618D01*
X299692Y62658D01*
X299645Y62666D01*
X299586Y62688D01*
X299439Y62700D01*
X299361Y62713D01*
X273623Y62713D01*
X273594Y62709D01*
X273565Y62712D01*
X273454Y62689D01*
X273342Y62673D01*
X273315Y62661D01*
X273286Y62656D01*
X273186Y62603D01*
X273082Y62557D01*
X273060Y62538D01*
X273034Y62525D01*
X272952Y62447D01*
X272865Y62374D01*
X272849Y62349D01*
X272828Y62329D01*
X272771Y62231D01*
X272708Y62137D01*
X272699Y62109D01*
X272684Y62084D01*
X272656Y61974D01*
X272622Y61866D01*
X272621Y61837D01*
X272614Y61808D01*
X272618Y61695D01*
X272615Y61582D01*
X272622Y61553D01*
X272623Y61524D01*
X272658Y61416D01*
X272687Y61307D01*
X272702Y61281D01*
X272711Y61253D01*
X272756Y61189D01*
X272783Y61145D01*
X272783Y57969D01*
X271584Y56770D01*
X271532Y56701D01*
X271472Y56637D01*
X271446Y56587D01*
X271413Y56543D01*
X271382Y56462D01*
X271342Y56384D01*
X271334Y56336D01*
X271312Y56278D01*
X271300Y56130D01*
X271287Y56053D01*
X271287Y55786D01*
X271295Y55728D01*
X271293Y55670D01*
X271315Y55588D01*
X271327Y55504D01*
X271350Y55451D01*
X271365Y55395D01*
X271408Y55322D01*
X271443Y55245D01*
X271481Y55200D01*
X271510Y55150D01*
X271572Y55092D01*
X271626Y55028D01*
X271675Y54996D01*
X271718Y54956D01*
X271793Y54917D01*
X271863Y54870D01*
X271919Y54853D01*
X271971Y54826D01*
X272039Y54815D01*
X272134Y54785D01*
X272234Y54782D01*
X272302Y54771D01*
X279489Y54771D01*
X281356Y53997D01*
X282785Y52568D01*
X283559Y50701D01*
X283559Y10000D01*
X283567Y9942D01*
X283565Y9884D01*
X283587Y9802D01*
X283599Y9718D01*
X283622Y9665D01*
X283637Y9609D01*
X283680Y9536D01*
X283715Y9459D01*
X283753Y9414D01*
X283782Y9364D01*
X283844Y9306D01*
X283898Y9242D01*
X283947Y9210D01*
X283990Y9170D01*
X284065Y9131D01*
X284135Y9084D01*
X284191Y9067D01*
X284243Y9040D01*
X284311Y9029D01*
X284406Y8999D01*
X284506Y8996D01*
X284574Y8985D01*
X294202Y8985D01*
X294260Y8993D01*
G37*
G36*
X558769Y74799D02*
X558769Y74799D01*
X558856Y74802D01*
X558909Y74819D01*
X558964Y74827D01*
X559044Y74862D01*
X559127Y74889D01*
X559166Y74917D01*
X559223Y74943D01*
X559336Y75039D01*
X559400Y75084D01*
X569400Y85084D01*
X569401Y85085D01*
X569402Y85086D01*
X569491Y85205D01*
X569571Y85311D01*
X569572Y85313D01*
X569573Y85314D01*
X569623Y85448D01*
X569672Y85577D01*
X569672Y85579D01*
X569673Y85580D01*
X569685Y85724D01*
X569696Y85860D01*
X569696Y85862D01*
X569696Y85863D01*
X569692Y85879D01*
X569640Y86139D01*
X569626Y86166D01*
X569620Y86190D01*
X568873Y87994D01*
X568873Y91306D01*
X569620Y93110D01*
X569621Y93111D01*
X569621Y93112D01*
X569656Y93247D01*
X569691Y93385D01*
X569691Y93386D01*
X569691Y93388D01*
X569687Y93529D01*
X569683Y93669D01*
X569683Y93671D01*
X569682Y93672D01*
X569640Y93805D01*
X569596Y93940D01*
X569595Y93941D01*
X569595Y93943D01*
X569586Y93955D01*
X569438Y94176D01*
X569415Y94196D01*
X569400Y94216D01*
X541520Y122096D01*
X541496Y122114D01*
X541477Y122136D01*
X541383Y122199D01*
X541293Y122267D01*
X541265Y122278D01*
X541241Y122294D01*
X541133Y122328D01*
X541027Y122368D01*
X540998Y122371D01*
X540970Y122380D01*
X540856Y122383D01*
X540744Y122392D01*
X540715Y122386D01*
X540686Y122387D01*
X540576Y122358D01*
X540465Y122336D01*
X540439Y122322D01*
X540411Y122315D01*
X540313Y122257D01*
X540213Y122205D01*
X540191Y122185D01*
X540166Y122170D01*
X540089Y122087D01*
X540007Y122009D01*
X539992Y121984D01*
X539972Y121963D01*
X539920Y121862D01*
X539863Y121764D01*
X539856Y121736D01*
X539842Y121709D01*
X539829Y121632D01*
X539793Y121488D01*
X539795Y121426D01*
X539787Y121378D01*
X539787Y105318D01*
X539799Y105231D01*
X539802Y105144D01*
X539819Y105091D01*
X539827Y105036D01*
X539862Y104956D01*
X539889Y104873D01*
X539917Y104834D01*
X539943Y104777D01*
X540039Y104664D01*
X540084Y104600D01*
X547234Y97450D01*
X547235Y97449D01*
X547236Y97448D01*
X547346Y97365D01*
X547461Y97279D01*
X547463Y97278D01*
X547464Y97277D01*
X547596Y97228D01*
X547727Y97178D01*
X547728Y97178D01*
X547730Y97177D01*
X547874Y97165D01*
X548010Y97154D01*
X548012Y97154D01*
X548013Y97154D01*
X548029Y97158D01*
X548289Y97210D01*
X548316Y97224D01*
X548340Y97230D01*
X550144Y97977D01*
X553456Y97977D01*
X556517Y96709D01*
X558859Y94367D01*
X560127Y91306D01*
X560127Y87994D01*
X558859Y84933D01*
X556517Y82591D01*
X553456Y81323D01*
X550144Y81323D01*
X548340Y82070D01*
X548339Y82071D01*
X548338Y82071D01*
X548203Y82106D01*
X548065Y82141D01*
X548064Y82141D01*
X548062Y82141D01*
X547921Y82137D01*
X547781Y82133D01*
X547779Y82133D01*
X547778Y82132D01*
X547645Y82090D01*
X547510Y82046D01*
X547509Y82045D01*
X547507Y82045D01*
X547495Y82036D01*
X547274Y81888D01*
X547254Y81865D01*
X547234Y81850D01*
X542234Y76850D01*
X541904Y76520D01*
X541886Y76496D01*
X541864Y76477D01*
X541801Y76383D01*
X541733Y76293D01*
X541722Y76265D01*
X541706Y76241D01*
X541672Y76133D01*
X541632Y76027D01*
X541629Y75998D01*
X541620Y75970D01*
X541617Y75857D01*
X541608Y75744D01*
X541614Y75715D01*
X541613Y75686D01*
X541642Y75576D01*
X541664Y75465D01*
X541678Y75439D01*
X541685Y75411D01*
X541743Y75313D01*
X541795Y75213D01*
X541815Y75191D01*
X541830Y75166D01*
X541913Y75089D01*
X541991Y75007D01*
X542016Y74992D01*
X542037Y74972D01*
X542138Y74920D01*
X542236Y74863D01*
X542265Y74856D01*
X542291Y74842D01*
X542368Y74829D01*
X542512Y74793D01*
X542574Y74795D01*
X542622Y74787D01*
X558682Y74787D01*
X558769Y74799D01*
G37*
%LPC*%
G36*
X688030Y79385D02*
X688030Y79385D01*
X687285Y80130D01*
X687285Y99470D01*
X688030Y100215D01*
X707370Y100215D01*
X708115Y99470D01*
X708115Y80130D01*
X707370Y79385D01*
X688030Y79385D01*
G37*
%LPD*%
%LPC*%
G36*
X20181Y26631D02*
X20181Y26631D01*
X13931Y32881D01*
X13931Y41719D01*
X20181Y47969D01*
X29019Y47969D01*
X35269Y41719D01*
X35269Y32881D01*
X29019Y26631D01*
X20181Y26631D01*
G37*
%LPD*%
%LPC*%
G36*
X693386Y28585D02*
X693386Y28585D01*
X687285Y34686D01*
X687285Y43314D01*
X693386Y49415D01*
X702014Y49415D01*
X708115Y43314D01*
X708115Y34686D01*
X702014Y28585D01*
X693386Y28585D01*
G37*
%LPD*%
%LPC*%
G36*
X693386Y53985D02*
X693386Y53985D01*
X687285Y60086D01*
X687285Y68714D01*
X693386Y74815D01*
X702014Y74815D01*
X708115Y68714D01*
X708115Y60086D01*
X702014Y53985D01*
X693386Y53985D01*
G37*
%LPD*%
%LPC*%
G36*
X422736Y81001D02*
X422736Y81001D01*
X422724Y81087D01*
X422700Y81138D01*
X422686Y81193D01*
X422642Y81267D01*
X422607Y81346D01*
X422570Y81389D01*
X422541Y81438D01*
X422478Y81497D01*
X422422Y81562D01*
X422380Y81588D01*
X422333Y81632D01*
X422204Y81698D01*
X422138Y81740D01*
X420083Y82591D01*
X417741Y84933D01*
X416473Y87994D01*
X416473Y91306D01*
X417741Y94367D01*
X420083Y96709D01*
X423144Y97977D01*
X426456Y97977D01*
X429517Y96709D01*
X431859Y94367D01*
X433127Y91306D01*
X433127Y87994D01*
X431859Y84933D01*
X429517Y82591D01*
X426456Y81323D01*
X423500Y81323D01*
X423471Y81319D01*
X423441Y81322D01*
X423330Y81299D01*
X423218Y81283D01*
X423191Y81271D01*
X423163Y81266D01*
X423062Y81214D01*
X422959Y81167D01*
X422936Y81148D01*
X422910Y81135D01*
X422828Y81057D01*
X422742Y80984D01*
X422741Y80982D01*
X422736Y81001D01*
G37*
%LPD*%
%LPC*%
G36*
X448544Y81323D02*
X448544Y81323D01*
X445483Y82591D01*
X443141Y84933D01*
X441873Y87994D01*
X441873Y91306D01*
X443141Y94367D01*
X445483Y96709D01*
X448544Y97977D01*
X451856Y97977D01*
X454917Y96709D01*
X457259Y94367D01*
X458527Y91306D01*
X458527Y87994D01*
X457259Y84933D01*
X454917Y82591D01*
X451856Y81323D01*
X448544Y81323D01*
G37*
%LPD*%
%LPC*%
G36*
X16306Y119499D02*
X16306Y119499D01*
X14101Y120413D01*
X12413Y122101D01*
X11499Y124306D01*
X11499Y126694D01*
X12413Y128899D01*
X14101Y130587D01*
X16306Y131501D01*
X18694Y131501D01*
X20899Y130587D01*
X22587Y128899D01*
X23501Y126694D01*
X23501Y124306D01*
X22587Y122101D01*
X20899Y120413D01*
X18694Y119499D01*
X16306Y119499D01*
G37*
%LPD*%
%LPC*%
G36*
X16306Y199499D02*
X16306Y199499D01*
X14101Y200413D01*
X12413Y202101D01*
X11499Y204306D01*
X11499Y206694D01*
X12413Y208899D01*
X14101Y210587D01*
X16306Y211501D01*
X18694Y211501D01*
X20899Y210587D01*
X22587Y208899D01*
X23501Y206694D01*
X23501Y204306D01*
X22587Y202101D01*
X20899Y200413D01*
X18694Y199499D01*
X16306Y199499D01*
G37*
%LPD*%
%LPC*%
G36*
X573446Y261249D02*
X573446Y261249D01*
X571249Y263446D01*
X571249Y266554D01*
X573446Y268751D01*
X576554Y268751D01*
X578751Y266554D01*
X578751Y263446D01*
X576554Y261249D01*
X573446Y261249D01*
G37*
%LPD*%
%LPC*%
G36*
X608446Y261249D02*
X608446Y261249D01*
X606249Y263446D01*
X606249Y266554D01*
X608446Y268751D01*
X611554Y268751D01*
X613751Y266554D01*
X613751Y263446D01*
X611554Y261249D01*
X608446Y261249D01*
G37*
%LPD*%
D10*
X628000Y243950D03*
D11*
X602600Y243950D03*
X577200Y243950D03*
X551800Y243950D03*
X526400Y243950D03*
X501000Y243950D03*
X475600Y243950D03*
X450200Y243950D03*
X424800Y243950D03*
X399400Y243950D03*
X374000Y243950D03*
X348600Y243950D03*
X323200Y243950D03*
X297800Y243950D03*
X272400Y243950D03*
X247000Y243950D03*
X221600Y243950D03*
X196200Y243950D03*
X170800Y243950D03*
X145400Y243950D03*
X145400Y89650D03*
X170800Y89650D03*
X196200Y89650D03*
X221600Y89650D03*
X247000Y89650D03*
X272400Y89650D03*
X297800Y89650D03*
X323200Y89650D03*
X348600Y89650D03*
X374000Y89650D03*
X399400Y89650D03*
X424800Y89650D03*
X450200Y89650D03*
X475600Y89650D03*
X501000Y89650D03*
X526400Y89650D03*
X551800Y89650D03*
X577200Y89650D03*
X602600Y89650D03*
X628000Y89650D03*
D12*
X595278Y49690D02*
X577498Y49690D01*
X595278Y49690D02*
X595278Y6510D01*
X577498Y6510D01*
X577498Y49690D01*
X577498Y13749D02*
X595278Y13749D01*
X595278Y20988D02*
X577498Y20988D01*
X577498Y28227D02*
X595278Y28227D01*
X595278Y35466D02*
X577498Y35466D01*
X577498Y42705D02*
X595278Y42705D01*
X555678Y49690D02*
X537898Y49690D01*
X555678Y49690D02*
X555678Y6510D01*
X537898Y6510D01*
X537898Y49690D01*
X537898Y13749D02*
X555678Y13749D01*
X555678Y20988D02*
X537898Y20988D01*
X537898Y28227D02*
X555678Y28227D01*
X555678Y35466D02*
X537898Y35466D01*
X537898Y42705D02*
X555678Y42705D01*
X516078Y49690D02*
X498298Y49690D01*
X516078Y49690D02*
X516078Y6510D01*
X498298Y6510D01*
X498298Y49690D01*
X498298Y13749D02*
X516078Y13749D01*
X516078Y20988D02*
X498298Y20988D01*
X498298Y28227D02*
X516078Y28227D01*
X516078Y35466D02*
X498298Y35466D01*
X498298Y42705D02*
X516078Y42705D01*
X476478Y49690D02*
X458698Y49690D01*
X476478Y49690D02*
X476478Y6510D01*
X458698Y6510D01*
X458698Y49690D01*
X458698Y13749D02*
X476478Y13749D01*
X476478Y20988D02*
X458698Y20988D01*
X458698Y28227D02*
X476478Y28227D01*
X476478Y35466D02*
X458698Y35466D01*
X458698Y42705D02*
X476478Y42705D01*
X436878Y49690D02*
X419098Y49690D01*
X436878Y49690D02*
X436878Y6510D01*
X419098Y6510D01*
X419098Y49690D01*
X419098Y13749D02*
X436878Y13749D01*
X436878Y20988D02*
X419098Y20988D01*
X419098Y28227D02*
X436878Y28227D01*
X436878Y35466D02*
X419098Y35466D01*
X419098Y42705D02*
X436878Y42705D01*
X397278Y49690D02*
X379498Y49690D01*
X397278Y49690D02*
X397278Y6510D01*
X379498Y6510D01*
X379498Y49690D01*
X379498Y13749D02*
X397278Y13749D01*
X397278Y20988D02*
X379498Y20988D01*
X379498Y28227D02*
X397278Y28227D01*
X397278Y35466D02*
X379498Y35466D01*
X379498Y42705D02*
X397278Y42705D01*
X357678Y49690D02*
X339898Y49690D01*
X357678Y49690D02*
X357678Y6510D01*
X339898Y6510D01*
X339898Y49690D01*
X339898Y13749D02*
X357678Y13749D01*
X357678Y20988D02*
X339898Y20988D01*
X339898Y28227D02*
X357678Y28227D01*
X357678Y35466D02*
X339898Y35466D01*
X339898Y42705D02*
X357678Y42705D01*
X318078Y49690D02*
X300298Y49690D01*
X318078Y49690D02*
X318078Y6510D01*
X300298Y6510D01*
X300298Y49690D01*
X300298Y13749D02*
X318078Y13749D01*
X318078Y20988D02*
X300298Y20988D01*
X300298Y28227D02*
X318078Y28227D01*
X318078Y35466D02*
X300298Y35466D01*
X300298Y42705D02*
X318078Y42705D01*
X278478Y49690D02*
X260698Y49690D01*
X278478Y49690D02*
X278478Y6510D01*
X260698Y6510D01*
X260698Y49690D01*
X260698Y13749D02*
X278478Y13749D01*
X278478Y20988D02*
X260698Y20988D01*
X260698Y28227D02*
X278478Y28227D01*
X278478Y35466D02*
X260698Y35466D01*
X260698Y42705D02*
X278478Y42705D01*
X238878Y49690D02*
X221098Y49690D01*
X238878Y49690D02*
X238878Y6510D01*
X221098Y6510D01*
X221098Y49690D01*
X221098Y13749D02*
X238878Y13749D01*
X238878Y20988D02*
X221098Y20988D01*
X221098Y28227D02*
X238878Y28227D01*
X238878Y35466D02*
X221098Y35466D01*
X221098Y42705D02*
X238878Y42705D01*
X199278Y49690D02*
X181498Y49690D01*
X199278Y49690D02*
X199278Y6510D01*
X181498Y6510D01*
X181498Y49690D01*
X181498Y13749D02*
X199278Y13749D01*
X199278Y20988D02*
X181498Y20988D01*
X181498Y28227D02*
X199278Y28227D01*
X199278Y35466D02*
X181498Y35466D01*
X181498Y42705D02*
X199278Y42705D01*
X159678Y49690D02*
X141898Y49690D01*
X159678Y49690D02*
X159678Y6510D01*
X141898Y6510D01*
X141898Y49690D01*
X141898Y13749D02*
X159678Y13749D01*
X159678Y20988D02*
X141898Y20988D01*
X141898Y28227D02*
X159678Y28227D01*
X159678Y35466D02*
X141898Y35466D01*
X141898Y42705D02*
X159678Y42705D01*
D13*
X697700Y89800D03*
D14*
X723100Y89800D03*
X697700Y64400D03*
X723100Y64400D03*
X697700Y39000D03*
X723100Y39000D03*
D15*
X315025Y127750D03*
X315025Y203950D03*
D16*
X315025Y153150D03*
X315025Y178550D03*
X289625Y178550D03*
X289625Y153150D03*
X289625Y127750D03*
X289625Y203950D03*
D17*
X24600Y62700D03*
X24600Y37300D03*
X50000Y62700D03*
X50000Y37300D03*
X75400Y62700D03*
X75400Y37300D03*
D18*
X193800Y330540D03*
X233400Y330540D03*
X273000Y330540D03*
X312600Y330540D03*
X352200Y330540D03*
X391800Y330540D03*
X431400Y330540D03*
X471000Y330540D03*
X510600Y330540D03*
X550200Y330540D03*
X589800Y330540D03*
X154200Y330540D03*
D19*
X605850Y67500D02*
X628000Y89650D01*
X605850Y67500D02*
X592738Y67500D01*
X586388Y61150D01*
X586388Y28100D01*
X628000Y89650D02*
X592500Y125150D01*
X592500Y327840D02*
X589800Y330540D01*
X592500Y327840D02*
X592500Y125150D01*
X602600Y89650D02*
X580450Y67500D01*
X553138Y67500D01*
X546788Y61150D01*
X546788Y28100D01*
X602600Y89650D02*
X587500Y104750D01*
X580000Y275000D02*
X557500Y275000D01*
X550000Y282500D01*
X550000Y330340D02*
X550200Y330540D01*
X587500Y267500D02*
X587500Y104750D01*
X587500Y267500D02*
X580000Y275000D01*
X550000Y282500D02*
X550000Y330340D01*
X577200Y89650D02*
X560050Y72500D01*
X513538Y72500D01*
X507188Y66150D01*
X507188Y28100D01*
X577200Y89650D02*
X541500Y125350D01*
X541500Y256000D01*
X510600Y286900D01*
X510600Y330540D01*
X551800Y89650D02*
X539650Y77500D01*
X473850Y77500D01*
X467500Y71150D01*
X467500Y28188D01*
X467588Y28100D01*
X537500Y103950D02*
X551800Y89650D01*
X537500Y103950D02*
X537500Y252000D01*
X514500Y275000D01*
X477500Y275000D01*
X471000Y281500D01*
X471000Y330540D01*
X272400Y89650D02*
X284550Y77500D01*
X421638Y77500D01*
X427988Y71150D01*
X427988Y28100D01*
X435000Y162500D02*
X435000Y257500D01*
X425000Y267500D01*
X425000Y272500D01*
X431400Y278900D02*
X431400Y330540D01*
X431400Y278900D02*
X425000Y272500D01*
X435000Y162500D02*
X371737Y99237D01*
X281987Y99237D02*
X272400Y89650D01*
X281987Y99237D02*
X371737Y99237D01*
X381538Y73000D02*
X272000Y73000D01*
X381538Y73000D02*
X388388Y66150D01*
X388388Y28100D01*
X221600Y89650D02*
X221600Y91600D01*
X229000Y99000D01*
X253500Y99000D01*
X260000Y92500D01*
X260000Y85000D01*
X272000Y73000D01*
X391800Y251955D02*
X391800Y330540D01*
X391800Y251955D02*
X388194Y248349D01*
X388194Y130694D01*
X365000Y107500D02*
X362500Y107500D01*
D20*
X362500Y107500D03*
D19*
X365000Y107500D02*
X388194Y130694D01*
X267650Y69000D02*
X247000Y89650D01*
X267650Y69000D02*
X340938Y69000D01*
X348788Y61150D01*
X348788Y28100D01*
D20*
X262500Y100000D03*
D19*
X334158Y104158D02*
X360000Y130000D01*
X360000Y267500D01*
X352200Y275300D02*
X352200Y330540D01*
X352200Y275300D02*
X360000Y267500D01*
X266658Y104158D02*
X262500Y100000D01*
X266658Y104158D02*
X334158Y104158D01*
X196200Y89650D02*
X196200Y88800D01*
X310000Y55729D02*
X310000Y28912D01*
X309188Y28100D01*
X220000Y65000D02*
X196200Y88800D01*
X312600Y274900D02*
X312600Y330540D01*
X209550Y103000D02*
X196200Y89650D01*
X338394Y249106D02*
X312600Y274900D01*
X350000Y228945D02*
X350000Y137869D01*
X320210Y108079D01*
X253000Y103000D02*
X209550Y103000D01*
X338394Y240551D02*
X338394Y249106D01*
X338394Y240551D02*
X350000Y228945D01*
X258079Y108079D02*
X253000Y103000D01*
X258079Y108079D02*
X320210Y108079D01*
X300729Y65000D02*
X220000Y65000D01*
X300729Y65000D02*
X310000Y55729D01*
X273000Y327000D02*
X273000Y330540D01*
X273000Y327000D02*
X273000Y309000D01*
X334473Y247527D02*
X334473Y238341D01*
X346000Y226814D01*
X346000Y141000D01*
X219000Y112000D02*
X216000Y109000D01*
D20*
X216000Y109000D03*
D19*
X317000Y112000D02*
X346000Y141000D01*
X317000Y112000D02*
X219000Y112000D01*
D20*
X269000Y59536D03*
D19*
X269000Y28688D01*
X269588Y28100D01*
X334473Y247527D02*
X303000Y279000D01*
X273000Y283000D02*
X273000Y309000D01*
X277000Y279000D02*
X303000Y279000D01*
X277000Y279000D02*
X273000Y283000D01*
X229988Y41012D02*
X229988Y28100D01*
X185994Y122994D02*
X212000Y149000D01*
D20*
X212000Y149000D03*
X212000Y164000D03*
D19*
X212000Y203000D01*
X224000Y215000D01*
D20*
X224000Y215000D03*
X234000Y249000D03*
D19*
X234000Y329940D01*
X233400Y330540D01*
X185994Y85006D02*
X229988Y41012D01*
X185994Y85006D02*
X185994Y122994D01*
X170800Y89650D02*
X190388Y70062D01*
X190388Y28100D01*
X155150Y74000D02*
X170800Y89650D01*
X155150Y74000D02*
X141000Y74000D01*
X131000Y84000D01*
X161000Y276000D02*
X187000Y276000D01*
X193800Y282800D01*
X193800Y330540D01*
X131000Y246000D02*
X131000Y84000D01*
X131000Y246000D02*
X161000Y276000D01*
D20*
X645000Y140000D03*
D19*
X645000Y257500D01*
X622500Y280000D01*
D20*
X622500Y280000D03*
X635000Y140000D03*
D19*
X640000Y145000D01*
X620964Y274036D02*
X600000Y274036D01*
D20*
X600000Y274036D03*
D19*
X640000Y255000D02*
X640000Y145000D01*
X640000Y255000D02*
X620964Y274036D01*
D20*
X497500Y177500D03*
D19*
X497500Y232500D01*
X491500Y238500D01*
X491500Y261000D02*
X485000Y267500D01*
D20*
X485000Y267500D03*
D19*
X491500Y261000D02*
X491500Y238500D01*
D20*
X487500Y177500D03*
D19*
X487500Y252500D01*
X472500Y267500D01*
D20*
X472500Y267500D03*
X440000Y125000D03*
D19*
X440000Y260000D01*
X432500Y267500D01*
D20*
X432500Y267500D03*
X200000Y270000D03*
X250000Y270000D03*
X295000Y270000D03*
X335000Y270000D03*
X375000Y270000D03*
X410000Y270000D03*
X410000Y185000D03*
X375000Y185000D03*
X375000Y220000D03*
X335000Y220000D03*
X260000Y235000D03*
X260000Y215000D03*
X225000Y195000D03*
X205000Y195000D03*
X225000Y155000D03*
X200000Y160000D03*
X260000Y140000D03*
X235000Y140000D03*
X455000Y270000D03*
X460000Y220000D03*
X460000Y175000D03*
X460000Y135000D03*
X475000Y135000D03*
X515000Y135000D03*
X515000Y170000D03*
X515000Y220000D03*
X550000Y220000D03*
X575000Y220000D03*
X575000Y170000D03*
X550000Y170000D03*
X575000Y115000D03*
X575000Y75000D03*
X553000Y104000D03*
X240000Y75000D03*
X140000Y270000D03*
X410000Y65000D03*
X367500Y62500D03*
X327500Y57500D03*
X290000Y55000D03*
X250000Y50000D03*
X567500Y57500D03*
X527500Y50000D03*
X485000Y62500D03*
X537500Y65000D03*
X452500Y65000D03*
X105000Y117500D03*
D19*
X105000Y142500D01*
X110000Y147500D02*
X110000Y162500D01*
D20*
X110000Y162500D03*
D19*
X110000Y147500D02*
X105000Y142500D01*
X62500Y49800D02*
X50000Y37300D01*
X102500Y150000D02*
X102500Y175000D01*
D20*
X102500Y175000D03*
D19*
X62500Y110000D02*
X62500Y49800D01*
X62500Y110000D02*
X102500Y150000D01*
D20*
X402500Y255000D03*
D19*
X422500Y255000D01*
D20*
X422500Y255000D03*
D19*
X45000Y83100D02*
X24600Y62700D01*
X45000Y83100D02*
X45000Y115000D01*
X50000Y120000D01*
D20*
X50000Y120000D03*
X475000Y177500D03*
D19*
X475000Y243350D01*
X475600Y243950D01*
X50000Y107500D02*
X50000Y62700D01*
X50000Y107500D02*
X95000Y152500D01*
D20*
X95000Y152500D03*
X450000Y177500D03*
D19*
X450000Y243750D01*
X450200Y243950D01*
D21*
X301875Y140000D02*
X289625Y127750D01*
X301875Y140000D02*
X317500Y140000D01*
D19*
X298550Y243950D02*
X297800Y243950D01*
D21*
X298550Y243950D02*
X335421Y207079D01*
X335421Y157921D01*
X317500Y140000D01*
D19*
X275025Y243950D02*
X272400Y243950D01*
D21*
X275025Y243950D02*
X315025Y203950D01*
X315000Y167500D02*
X300650Y153150D01*
X289625Y153150D01*
X315000Y167500D02*
X320000Y167500D01*
X289771Y188079D02*
X272500Y205350D01*
X272500Y218650D01*
D19*
X196200Y243800D02*
X196200Y243950D01*
D21*
X196200Y243800D02*
X215421Y224579D01*
X320000Y167500D02*
X324579Y172079D01*
X324579Y182921D01*
X319421Y188079D01*
X289771Y188079D01*
X272500Y218650D02*
X266571Y224579D01*
X215421Y224579D01*
X289625Y180550D02*
X289625Y178550D01*
X289625Y180550D02*
X267500Y202675D01*
X267500Y218650D01*
X264492Y221658D01*
X193092Y221658D01*
X170800Y243950D01*
X315025Y153150D02*
X330000Y168125D01*
X330000Y185000D01*
X322500Y192500D01*
X307500Y192500D01*
X302500Y197500D01*
X302500Y205000D01*
X280000Y227500D02*
X220000Y227500D01*
X210000Y237500D01*
X210000Y247500D02*
X202500Y255000D01*
X156450Y255000D01*
X145400Y243950D01*
X280000Y227500D02*
X302500Y205000D01*
X210000Y237500D02*
X210000Y247500D01*
D19*
X220750Y165000D02*
X145400Y89650D01*
X301475Y165000D02*
X315025Y178550D01*
X301475Y165000D02*
X220750Y165000D01*
M02*
