G04 EAGLE Gerber RS-274X export*
G75*
%MOMM*%
%FSLAX34Y34*%
%LPD*%
%INBottom Soldermask*%
%IPPOS*%
%AMOC8*
5,1,8,0,0,1.08239X$1,22.5*%
G01*
%ADD10C,0.553200*%
%ADD11R,1.614400X1.614400*%
%ADD12C,1.614400*%
%ADD13C,0.960119*%
%ADD14R,1.553200X1.703200*%
%ADD15R,1.703200X1.503200*%
%ADD16R,1.803200X0.703200*%
%ADD17R,1.603200X1.203200*%
%ADD18R,1.703200X1.703200*%
%ADD19C,1.003200*%
%ADD20C,0.505344*%
%ADD21R,1.153200X1.453200*%
%ADD22R,3.403200X1.453200*%
%ADD23R,2.003200X1.803200*%
%ADD24R,1.203200X1.303200*%
%ADD25R,1.303200X1.203200*%
%ADD26R,2.032000X2.032000*%
%ADD27P,2.199416X8X292.500000*%
%ADD28R,1.643200X1.643200*%
%ADD29C,1.643200*%
%ADD30P,2.254402X8X22.500000*%
%ADD31R,2.108200X8.458200*%
%ADD32C,0.705600*%


D10*
X575000Y265000D03*
X610000Y265000D03*
D11*
X628000Y243950D03*
D12*
X602600Y243950D03*
X577200Y243950D03*
X551800Y243950D03*
X526400Y243950D03*
X501000Y243950D03*
X475600Y243950D03*
X450200Y243950D03*
X424800Y243950D03*
X399400Y243950D03*
X374000Y243950D03*
X348600Y243950D03*
X323200Y243950D03*
X297800Y243950D03*
X272400Y243950D03*
X247000Y243950D03*
X221600Y243950D03*
X196200Y243950D03*
X170800Y243950D03*
X145400Y243950D03*
X145400Y89650D03*
X170800Y89650D03*
X196200Y89650D03*
X221600Y89650D03*
X247000Y89650D03*
X272400Y89650D03*
X297800Y89650D03*
X323200Y89650D03*
X348600Y89650D03*
X374000Y89650D03*
X399400Y89650D03*
X424800Y89650D03*
X450200Y89650D03*
X475600Y89650D03*
X501000Y89650D03*
X526400Y89650D03*
X551800Y89650D03*
X577200Y89650D03*
X602600Y89650D03*
X628000Y89650D03*
D13*
X595304Y49716D02*
X577472Y49716D01*
X595304Y49716D02*
X595304Y6484D01*
X577472Y6484D01*
X577472Y49716D01*
X577472Y15605D02*
X595304Y15605D01*
X595304Y24726D02*
X577472Y24726D01*
X577472Y33847D02*
X595304Y33847D01*
X595304Y42968D02*
X577472Y42968D01*
X555704Y49716D02*
X537872Y49716D01*
X555704Y49716D02*
X555704Y6484D01*
X537872Y6484D01*
X537872Y49716D01*
X537872Y15605D02*
X555704Y15605D01*
X555704Y24726D02*
X537872Y24726D01*
X537872Y33847D02*
X555704Y33847D01*
X555704Y42968D02*
X537872Y42968D01*
X516104Y49716D02*
X498272Y49716D01*
X516104Y49716D02*
X516104Y6484D01*
X498272Y6484D01*
X498272Y49716D01*
X498272Y15605D02*
X516104Y15605D01*
X516104Y24726D02*
X498272Y24726D01*
X498272Y33847D02*
X516104Y33847D01*
X516104Y42968D02*
X498272Y42968D01*
X476504Y49716D02*
X458672Y49716D01*
X476504Y49716D02*
X476504Y6484D01*
X458672Y6484D01*
X458672Y49716D01*
X458672Y15605D02*
X476504Y15605D01*
X476504Y24726D02*
X458672Y24726D01*
X458672Y33847D02*
X476504Y33847D01*
X476504Y42968D02*
X458672Y42968D01*
X436904Y49716D02*
X419072Y49716D01*
X436904Y49716D02*
X436904Y6484D01*
X419072Y6484D01*
X419072Y49716D01*
X419072Y15605D02*
X436904Y15605D01*
X436904Y24726D02*
X419072Y24726D01*
X419072Y33847D02*
X436904Y33847D01*
X436904Y42968D02*
X419072Y42968D01*
X397304Y49716D02*
X379472Y49716D01*
X397304Y49716D02*
X397304Y6484D01*
X379472Y6484D01*
X379472Y49716D01*
X379472Y15605D02*
X397304Y15605D01*
X397304Y24726D02*
X379472Y24726D01*
X379472Y33847D02*
X397304Y33847D01*
X397304Y42968D02*
X379472Y42968D01*
X357704Y49716D02*
X339872Y49716D01*
X357704Y49716D02*
X357704Y6484D01*
X339872Y6484D01*
X339872Y49716D01*
X339872Y15605D02*
X357704Y15605D01*
X357704Y24726D02*
X339872Y24726D01*
X339872Y33847D02*
X357704Y33847D01*
X357704Y42968D02*
X339872Y42968D01*
X318104Y49716D02*
X300272Y49716D01*
X318104Y49716D02*
X318104Y6484D01*
X300272Y6484D01*
X300272Y49716D01*
X300272Y15605D02*
X318104Y15605D01*
X318104Y24726D02*
X300272Y24726D01*
X300272Y33847D02*
X318104Y33847D01*
X318104Y42968D02*
X300272Y42968D01*
X278504Y49716D02*
X260672Y49716D01*
X278504Y49716D02*
X278504Y6484D01*
X260672Y6484D01*
X260672Y49716D01*
X260672Y15605D02*
X278504Y15605D01*
X278504Y24726D02*
X260672Y24726D01*
X260672Y33847D02*
X278504Y33847D01*
X278504Y42968D02*
X260672Y42968D01*
X238904Y49716D02*
X221072Y49716D01*
X238904Y49716D02*
X238904Y6484D01*
X221072Y6484D01*
X221072Y49716D01*
X221072Y15605D02*
X238904Y15605D01*
X238904Y24726D02*
X221072Y24726D01*
X221072Y33847D02*
X238904Y33847D01*
X238904Y42968D02*
X221072Y42968D01*
X199304Y49716D02*
X181472Y49716D01*
X199304Y49716D02*
X199304Y6484D01*
X181472Y6484D01*
X181472Y49716D01*
X181472Y15605D02*
X199304Y15605D01*
X199304Y24726D02*
X181472Y24726D01*
X181472Y33847D02*
X199304Y33847D01*
X199304Y42968D02*
X181472Y42968D01*
X159704Y49716D02*
X141872Y49716D01*
X159704Y49716D02*
X159704Y6484D01*
X141872Y6484D01*
X141872Y49716D01*
X141872Y15605D02*
X159704Y15605D01*
X159704Y24726D02*
X141872Y24726D01*
X141872Y33847D02*
X159704Y33847D01*
X159704Y42968D02*
X141872Y42968D01*
D14*
X21500Y96000D03*
D15*
X21500Y254000D03*
D16*
X123000Y109000D03*
X123000Y120000D03*
X123000Y131000D03*
X123000Y142000D03*
X123000Y153000D03*
X123000Y164000D03*
X123000Y175000D03*
X123000Y186000D03*
X123000Y197000D03*
D17*
X117500Y96000D03*
D18*
X117500Y240000D03*
D19*
X17500Y125500D03*
X17500Y205500D03*
D20*
X597740Y261510D02*
X597740Y268490D01*
X604720Y268490D01*
X604720Y261510D01*
X597740Y261510D01*
X597740Y266310D02*
X604720Y266310D01*
X615280Y268490D02*
X615280Y261510D01*
X615280Y268490D02*
X622260Y268490D01*
X622260Y261510D01*
X615280Y261510D01*
X615280Y266310D02*
X622260Y266310D01*
X562740Y268490D02*
X562740Y261510D01*
X562740Y268490D02*
X569720Y268490D01*
X569720Y261510D01*
X562740Y261510D01*
X562740Y266310D02*
X569720Y266310D01*
X580280Y268490D02*
X580280Y261510D01*
X580280Y268490D02*
X587260Y268490D01*
X587260Y261510D01*
X580280Y261510D01*
X580280Y266310D02*
X587260Y266310D01*
D21*
X652000Y209000D03*
X675000Y209000D03*
X698000Y209000D03*
D22*
X675000Y141000D03*
D23*
X725000Y161000D03*
X725000Y189000D03*
X625000Y189000D03*
X625000Y161000D03*
D24*
X393000Y198500D03*
X393000Y215500D03*
X260000Y174500D03*
X260000Y191500D03*
D25*
X414500Y215000D03*
X431500Y215000D03*
X531500Y265000D03*
X548500Y265000D03*
X496500Y265000D03*
X513500Y265000D03*
D23*
X162000Y171000D03*
X162000Y199000D03*
D24*
X185500Y171000D03*
X185500Y188000D03*
D23*
X239000Y171000D03*
X239000Y199000D03*
X600000Y189000D03*
X600000Y161000D03*
D26*
X697700Y89800D03*
D27*
X723100Y89800D03*
X697700Y64400D03*
X723100Y64400D03*
X697700Y39000D03*
X723100Y39000D03*
D28*
X315025Y127750D03*
X315025Y203950D03*
D29*
X315025Y153150D03*
X315025Y178550D03*
X289625Y178550D03*
X289625Y153150D03*
X289625Y127750D03*
X289625Y203950D03*
D30*
X24600Y62700D03*
X24600Y37300D03*
X50000Y62700D03*
X50000Y37300D03*
X75400Y62700D03*
X75400Y37300D03*
D31*
X589800Y330540D03*
X550200Y330540D03*
X510600Y330540D03*
X471000Y330540D03*
X431400Y330540D03*
X391800Y330540D03*
X352200Y330540D03*
X312600Y330540D03*
X273000Y330540D03*
X233400Y330540D03*
X193800Y330540D03*
X154200Y330540D03*
D32*
X362500Y107500D03*
X262500Y100000D03*
X216000Y109000D03*
X269000Y59536D03*
X212000Y149000D03*
X212000Y164000D03*
X224000Y215000D03*
X234000Y249000D03*
X645000Y140000D03*
X622500Y280000D03*
X635000Y140000D03*
X600000Y274036D03*
X497500Y177500D03*
X485000Y267500D03*
X487500Y177500D03*
X472500Y267500D03*
X440000Y125000D03*
X432500Y267500D03*
X200000Y270000D03*
X250000Y270000D03*
X295000Y270000D03*
X335000Y270000D03*
X375000Y270000D03*
X410000Y270000D03*
X410000Y185000D03*
X375000Y185000D03*
X375000Y220000D03*
X335000Y220000D03*
X260000Y235000D03*
X260000Y215000D03*
X225000Y195000D03*
X205000Y195000D03*
X225000Y155000D03*
X200000Y160000D03*
X260000Y140000D03*
X235000Y140000D03*
X455000Y270000D03*
X460000Y220000D03*
X460000Y175000D03*
X460000Y135000D03*
X475000Y135000D03*
X515000Y135000D03*
X515000Y170000D03*
X515000Y220000D03*
X550000Y220000D03*
X575000Y220000D03*
X575000Y170000D03*
X550000Y170000D03*
X575000Y115000D03*
X575000Y75000D03*
X553000Y104000D03*
X240000Y75000D03*
X140000Y270000D03*
X410000Y65000D03*
X367500Y62500D03*
X327500Y57500D03*
X290000Y55000D03*
X250000Y50000D03*
X567500Y57500D03*
X527500Y50000D03*
X485000Y62500D03*
X537500Y65000D03*
X452500Y65000D03*
X105000Y117500D03*
X110000Y162500D03*
X102500Y175000D03*
X402500Y255000D03*
X422500Y255000D03*
X50000Y120000D03*
X475000Y177500D03*
X95000Y152500D03*
X450000Y177500D03*
M02*
