G04 EAGLE Gerber RS-274X export*
G75*
%MOMM*%
%FSLAX34Y34*%
%LPD*%
%INTop Solder Paste*%
%IPPOS*%
%AMOC8*
5,1,8,0,0,1.08239X$1,22.5*%
G01*
%ADD10C,0.762000*%
%ADD11R,1.905000X8.255000*%


D10*
X577498Y49690D02*
X595278Y49690D01*
X595278Y6510D01*
X577498Y6510D01*
X577498Y49690D01*
X577498Y13749D02*
X595278Y13749D01*
X595278Y20988D02*
X577498Y20988D01*
X577498Y28227D02*
X595278Y28227D01*
X595278Y35466D02*
X577498Y35466D01*
X577498Y42705D02*
X595278Y42705D01*
X555678Y49690D02*
X537898Y49690D01*
X555678Y49690D02*
X555678Y6510D01*
X537898Y6510D01*
X537898Y49690D01*
X537898Y13749D02*
X555678Y13749D01*
X555678Y20988D02*
X537898Y20988D01*
X537898Y28227D02*
X555678Y28227D01*
X555678Y35466D02*
X537898Y35466D01*
X537898Y42705D02*
X555678Y42705D01*
X516078Y49690D02*
X498298Y49690D01*
X516078Y49690D02*
X516078Y6510D01*
X498298Y6510D01*
X498298Y49690D01*
X498298Y13749D02*
X516078Y13749D01*
X516078Y20988D02*
X498298Y20988D01*
X498298Y28227D02*
X516078Y28227D01*
X516078Y35466D02*
X498298Y35466D01*
X498298Y42705D02*
X516078Y42705D01*
X476478Y49690D02*
X458698Y49690D01*
X476478Y49690D02*
X476478Y6510D01*
X458698Y6510D01*
X458698Y49690D01*
X458698Y13749D02*
X476478Y13749D01*
X476478Y20988D02*
X458698Y20988D01*
X458698Y28227D02*
X476478Y28227D01*
X476478Y35466D02*
X458698Y35466D01*
X458698Y42705D02*
X476478Y42705D01*
X436878Y49690D02*
X419098Y49690D01*
X436878Y49690D02*
X436878Y6510D01*
X419098Y6510D01*
X419098Y49690D01*
X419098Y13749D02*
X436878Y13749D01*
X436878Y20988D02*
X419098Y20988D01*
X419098Y28227D02*
X436878Y28227D01*
X436878Y35466D02*
X419098Y35466D01*
X419098Y42705D02*
X436878Y42705D01*
X397278Y49690D02*
X379498Y49690D01*
X397278Y49690D02*
X397278Y6510D01*
X379498Y6510D01*
X379498Y49690D01*
X379498Y13749D02*
X397278Y13749D01*
X397278Y20988D02*
X379498Y20988D01*
X379498Y28227D02*
X397278Y28227D01*
X397278Y35466D02*
X379498Y35466D01*
X379498Y42705D02*
X397278Y42705D01*
X357678Y49690D02*
X339898Y49690D01*
X357678Y49690D02*
X357678Y6510D01*
X339898Y6510D01*
X339898Y49690D01*
X339898Y13749D02*
X357678Y13749D01*
X357678Y20988D02*
X339898Y20988D01*
X339898Y28227D02*
X357678Y28227D01*
X357678Y35466D02*
X339898Y35466D01*
X339898Y42705D02*
X357678Y42705D01*
X318078Y49690D02*
X300298Y49690D01*
X318078Y49690D02*
X318078Y6510D01*
X300298Y6510D01*
X300298Y49690D01*
X300298Y13749D02*
X318078Y13749D01*
X318078Y20988D02*
X300298Y20988D01*
X300298Y28227D02*
X318078Y28227D01*
X318078Y35466D02*
X300298Y35466D01*
X300298Y42705D02*
X318078Y42705D01*
X278478Y49690D02*
X260698Y49690D01*
X278478Y49690D02*
X278478Y6510D01*
X260698Y6510D01*
X260698Y49690D01*
X260698Y13749D02*
X278478Y13749D01*
X278478Y20988D02*
X260698Y20988D01*
X260698Y28227D02*
X278478Y28227D01*
X278478Y35466D02*
X260698Y35466D01*
X260698Y42705D02*
X278478Y42705D01*
X238878Y49690D02*
X221098Y49690D01*
X238878Y49690D02*
X238878Y6510D01*
X221098Y6510D01*
X221098Y49690D01*
X221098Y13749D02*
X238878Y13749D01*
X238878Y20988D02*
X221098Y20988D01*
X221098Y28227D02*
X238878Y28227D01*
X238878Y35466D02*
X221098Y35466D01*
X221098Y42705D02*
X238878Y42705D01*
X199278Y49690D02*
X181498Y49690D01*
X199278Y49690D02*
X199278Y6510D01*
X181498Y6510D01*
X181498Y49690D01*
X181498Y13749D02*
X199278Y13749D01*
X199278Y20988D02*
X181498Y20988D01*
X181498Y28227D02*
X199278Y28227D01*
X199278Y35466D02*
X181498Y35466D01*
X181498Y42705D02*
X199278Y42705D01*
X159678Y49690D02*
X141898Y49690D01*
X159678Y49690D02*
X159678Y6510D01*
X141898Y6510D01*
X141898Y49690D01*
X141898Y13749D02*
X159678Y13749D01*
X159678Y20988D02*
X141898Y20988D01*
X141898Y28227D02*
X159678Y28227D01*
X159678Y35466D02*
X141898Y35466D01*
X141898Y42705D02*
X159678Y42705D01*
D11*
X193800Y330540D03*
X233400Y330540D03*
X273000Y330540D03*
X312600Y330540D03*
X352200Y330540D03*
X391800Y330540D03*
X431400Y330540D03*
X471000Y330540D03*
X510600Y330540D03*
X550200Y330540D03*
X589800Y330540D03*
X154200Y330540D03*
M02*
