G04 EAGLE Gerber RS-274X export*
G75*
%MOMM*%
%FSLAX34Y34*%
%LPD*%
%INTop Silkscreen*%
%IPPOS*%
%AMOC8*
5,1,8,0,0,1.08239X$1,22.5*%
G01*
%ADD10C,0.203200*%
%ADD11C,0.200000*%
%ADD12C,0.254000*%
%ADD13C,0.127000*%
%ADD14C,0.152400*%


D10*
X-8984Y276516D02*
X-8984Y287184D01*
X-6021Y287184D01*
X-5914Y287182D01*
X-5807Y287176D01*
X-5701Y287167D01*
X-5595Y287153D01*
X-5489Y287136D01*
X-5384Y287115D01*
X-5280Y287090D01*
X-5177Y287061D01*
X-5075Y287029D01*
X-4974Y286993D01*
X-4875Y286953D01*
X-4777Y286910D01*
X-4681Y286863D01*
X-4586Y286813D01*
X-4493Y286760D01*
X-4403Y286703D01*
X-4314Y286643D01*
X-4228Y286580D01*
X-4144Y286514D01*
X-4062Y286444D01*
X-3983Y286372D01*
X-3907Y286297D01*
X-3833Y286219D01*
X-3763Y286139D01*
X-3695Y286056D01*
X-3630Y285971D01*
X-3569Y285884D01*
X-3510Y285794D01*
X-3455Y285703D01*
X-3403Y285609D01*
X-3355Y285513D01*
X-3310Y285416D01*
X-3268Y285318D01*
X-3231Y285218D01*
X-3196Y285116D01*
X-3166Y285014D01*
X-3139Y284910D01*
X-3116Y284806D01*
X-3097Y284700D01*
X-3082Y284594D01*
X-3070Y284488D01*
X-3062Y284381D01*
X-3058Y284274D01*
X-3058Y284168D01*
X-3062Y284061D01*
X-3070Y283954D01*
X-3082Y283848D01*
X-3097Y283742D01*
X-3116Y283636D01*
X-3139Y283532D01*
X-3166Y283428D01*
X-3196Y283326D01*
X-3231Y283224D01*
X-3268Y283124D01*
X-3310Y283026D01*
X-3355Y282929D01*
X-3403Y282833D01*
X-3455Y282740D01*
X-3510Y282648D01*
X-3569Y282558D01*
X-3630Y282471D01*
X-3695Y282386D01*
X-3763Y282303D01*
X-3833Y282223D01*
X-3907Y282145D01*
X-3983Y282070D01*
X-4062Y281998D01*
X-4144Y281928D01*
X-4228Y281862D01*
X-4314Y281799D01*
X-4403Y281739D01*
X-4493Y281682D01*
X-4586Y281629D01*
X-4681Y281579D01*
X-4777Y281532D01*
X-4875Y281489D01*
X-4974Y281449D01*
X-5075Y281413D01*
X-5177Y281381D01*
X-5280Y281352D01*
X-5384Y281327D01*
X-5489Y281306D01*
X-5595Y281289D01*
X-5701Y281275D01*
X-5807Y281266D01*
X-5914Y281260D01*
X-6021Y281258D01*
X-6021Y281257D02*
X-8984Y281257D01*
X2226Y276516D02*
X6967Y276516D01*
X2226Y276516D02*
X2226Y287184D01*
X6967Y287184D01*
X5782Y282443D02*
X2226Y282443D01*
X13918Y287184D02*
X13918Y276516D01*
X10955Y287184D02*
X16882Y287184D01*
X26107Y287184D02*
X26107Y276516D01*
X23143Y276516D01*
X23061Y276518D01*
X22979Y276524D01*
X22897Y276533D01*
X22816Y276546D01*
X22736Y276563D01*
X22656Y276584D01*
X22578Y276608D01*
X22501Y276636D01*
X22425Y276667D01*
X22350Y276702D01*
X22278Y276741D01*
X22207Y276782D01*
X22138Y276827D01*
X22072Y276875D01*
X22007Y276926D01*
X21945Y276980D01*
X21886Y277037D01*
X21829Y277096D01*
X21775Y277158D01*
X21724Y277223D01*
X21676Y277289D01*
X21631Y277358D01*
X21590Y277429D01*
X21551Y277501D01*
X21516Y277576D01*
X21485Y277652D01*
X21457Y277729D01*
X21433Y277807D01*
X21412Y277887D01*
X21395Y277967D01*
X21382Y278048D01*
X21373Y278130D01*
X21367Y278212D01*
X21365Y278294D01*
X21365Y281850D01*
X21367Y281932D01*
X21373Y282014D01*
X21382Y282096D01*
X21395Y282177D01*
X21412Y282257D01*
X21433Y282337D01*
X21457Y282415D01*
X21485Y282492D01*
X21516Y282568D01*
X21551Y282643D01*
X21590Y282715D01*
X21631Y282786D01*
X21676Y282855D01*
X21724Y282921D01*
X21775Y282986D01*
X21829Y283048D01*
X21886Y283107D01*
X21945Y283164D01*
X22007Y283218D01*
X22072Y283269D01*
X22138Y283317D01*
X22207Y283362D01*
X22278Y283403D01*
X22350Y283442D01*
X22425Y283477D01*
X22501Y283508D01*
X22578Y283536D01*
X22656Y283560D01*
X22736Y283581D01*
X22816Y283598D01*
X22897Y283611D01*
X22979Y283620D01*
X23061Y283626D01*
X23143Y283628D01*
X26107Y283628D01*
X31444Y283628D02*
X31444Y276516D01*
X31148Y286591D02*
X31148Y287184D01*
X31741Y287184D01*
X31741Y286591D01*
X31148Y286591D01*
X37202Y280665D02*
X40165Y279479D01*
X37201Y280664D02*
X37130Y280695D01*
X37060Y280729D01*
X36992Y280766D01*
X36927Y280807D01*
X36863Y280852D01*
X36802Y280899D01*
X36743Y280950D01*
X36686Y281003D01*
X36633Y281059D01*
X36582Y281118D01*
X36535Y281179D01*
X36490Y281243D01*
X36449Y281308D01*
X36411Y281376D01*
X36377Y281446D01*
X36346Y281517D01*
X36319Y281589D01*
X36296Y281663D01*
X36276Y281738D01*
X36260Y281814D01*
X36248Y281891D01*
X36240Y281968D01*
X36236Y282045D01*
X36235Y282123D01*
X36239Y282200D01*
X36246Y282278D01*
X36258Y282354D01*
X36273Y282430D01*
X36292Y282506D01*
X36315Y282580D01*
X36341Y282653D01*
X36371Y282724D01*
X36405Y282794D01*
X36442Y282862D01*
X36483Y282928D01*
X36527Y282992D01*
X36574Y283054D01*
X36624Y283113D01*
X36677Y283169D01*
X36733Y283223D01*
X36791Y283274D01*
X36852Y283322D01*
X36915Y283367D01*
X36981Y283409D01*
X37048Y283447D01*
X37118Y283482D01*
X37189Y283513D01*
X37261Y283541D01*
X37335Y283564D01*
X37410Y283585D01*
X37485Y283601D01*
X37562Y283614D01*
X37639Y283622D01*
X37716Y283627D01*
X37794Y283628D01*
X37956Y283624D01*
X38118Y283616D01*
X38279Y283604D01*
X38440Y283588D01*
X38601Y283568D01*
X38761Y283545D01*
X38920Y283517D01*
X39079Y283486D01*
X39237Y283451D01*
X39394Y283412D01*
X39550Y283369D01*
X39705Y283323D01*
X39859Y283273D01*
X40012Y283219D01*
X40163Y283161D01*
X40313Y283100D01*
X40461Y283036D01*
X40165Y279480D02*
X40236Y279449D01*
X40306Y279415D01*
X40374Y279378D01*
X40439Y279337D01*
X40503Y279292D01*
X40564Y279245D01*
X40623Y279194D01*
X40680Y279141D01*
X40733Y279085D01*
X40784Y279026D01*
X40831Y278965D01*
X40876Y278901D01*
X40917Y278836D01*
X40955Y278768D01*
X40989Y278698D01*
X41020Y278627D01*
X41047Y278555D01*
X41070Y278481D01*
X41090Y278406D01*
X41106Y278330D01*
X41118Y278253D01*
X41126Y278176D01*
X41130Y278099D01*
X41131Y278021D01*
X41127Y277944D01*
X41120Y277866D01*
X41108Y277790D01*
X41093Y277714D01*
X41074Y277638D01*
X41051Y277564D01*
X41025Y277491D01*
X40995Y277420D01*
X40961Y277350D01*
X40924Y277282D01*
X40883Y277216D01*
X40839Y277152D01*
X40792Y277090D01*
X40742Y277031D01*
X40689Y276975D01*
X40633Y276921D01*
X40575Y276870D01*
X40514Y276822D01*
X40451Y276777D01*
X40385Y276735D01*
X40318Y276697D01*
X40248Y276662D01*
X40178Y276631D01*
X40105Y276603D01*
X40031Y276580D01*
X39956Y276559D01*
X39881Y276543D01*
X39804Y276530D01*
X39727Y276522D01*
X39650Y276517D01*
X39572Y276516D01*
X39335Y276522D01*
X39097Y276534D01*
X38860Y276551D01*
X38624Y276575D01*
X38388Y276603D01*
X38152Y276637D01*
X37918Y276677D01*
X37685Y276722D01*
X37452Y276773D01*
X37221Y276829D01*
X36992Y276891D01*
X36764Y276958D01*
X36537Y277031D01*
X36313Y277109D01*
X46803Y276516D02*
X46803Y287184D01*
X51544Y283628D02*
X46803Y280072D01*
X48877Y281554D02*
X51544Y276516D01*
X-8984Y268134D02*
X-8984Y257466D01*
X-5428Y262207D02*
X-8984Y268134D01*
X-5428Y262207D02*
X-1872Y268134D01*
X-1872Y257466D01*
X3589Y257466D02*
X7145Y268134D01*
X10701Y257466D01*
X9812Y260133D02*
X4478Y260133D01*
X15019Y257466D02*
X22131Y268134D01*
X15019Y268134D02*
X22131Y257466D01*
X-6613Y250269D02*
X-6768Y250080D01*
X-6918Y249887D01*
X-7063Y249691D01*
X-7204Y249492D01*
X-7339Y249289D01*
X-7470Y249083D01*
X-7596Y248873D01*
X-7717Y248661D01*
X-7832Y248446D01*
X-7942Y248228D01*
X-8048Y248008D01*
X-8147Y247785D01*
X-8242Y247560D01*
X-8331Y247333D01*
X-8414Y247103D01*
X-8492Y246872D01*
X-8564Y246639D01*
X-8631Y246404D01*
X-8692Y246168D01*
X-8747Y245930D01*
X-8797Y245691D01*
X-8840Y245451D01*
X-8878Y245210D01*
X-8911Y244968D01*
X-8937Y244725D01*
X-8958Y244482D01*
X-8972Y244238D01*
X-8981Y243994D01*
X-8984Y243750D01*
X-8981Y243506D01*
X-8972Y243262D01*
X-8958Y243018D01*
X-8937Y242775D01*
X-8911Y242532D01*
X-8878Y242290D01*
X-8840Y242049D01*
X-8797Y241809D01*
X-8747Y241570D01*
X-8692Y241332D01*
X-8631Y241096D01*
X-8564Y240861D01*
X-8492Y240628D01*
X-8414Y240397D01*
X-8331Y240167D01*
X-8242Y239940D01*
X-8147Y239715D01*
X-8048Y239492D01*
X-7942Y239272D01*
X-7832Y239054D01*
X-7717Y238839D01*
X-7596Y238627D01*
X-7470Y238417D01*
X-7339Y238211D01*
X-7204Y238008D01*
X-7063Y237809D01*
X-6918Y237613D01*
X-6768Y237420D01*
X-6613Y237231D01*
X659Y238416D02*
X3029Y238416D01*
X659Y238416D02*
X564Y238418D01*
X468Y238424D01*
X373Y238433D01*
X279Y238447D01*
X185Y238464D01*
X92Y238485D01*
X-1Y238510D01*
X-92Y238538D01*
X-182Y238570D01*
X-270Y238606D01*
X-357Y238645D01*
X-443Y238688D01*
X-527Y238734D01*
X-608Y238783D01*
X-688Y238836D01*
X-765Y238892D01*
X-841Y238950D01*
X-913Y239012D01*
X-983Y239077D01*
X-1051Y239145D01*
X-1116Y239215D01*
X-1178Y239287D01*
X-1236Y239363D01*
X-1292Y239440D01*
X-1345Y239520D01*
X-1394Y239602D01*
X-1440Y239685D01*
X-1483Y239771D01*
X-1522Y239858D01*
X-1558Y239946D01*
X-1590Y240036D01*
X-1618Y240127D01*
X-1643Y240220D01*
X-1664Y240313D01*
X-1681Y240407D01*
X-1695Y240501D01*
X-1704Y240596D01*
X-1710Y240692D01*
X-1712Y240787D01*
X-1712Y246713D01*
X-1710Y246808D01*
X-1704Y246904D01*
X-1695Y246999D01*
X-1681Y247093D01*
X-1664Y247187D01*
X-1643Y247280D01*
X-1618Y247373D01*
X-1590Y247464D01*
X-1558Y247554D01*
X-1522Y247642D01*
X-1483Y247729D01*
X-1440Y247815D01*
X-1394Y247898D01*
X-1345Y247980D01*
X-1292Y248060D01*
X-1236Y248137D01*
X-1178Y248213D01*
X-1116Y248285D01*
X-1051Y248355D01*
X-983Y248423D01*
X-913Y248488D01*
X-841Y248550D01*
X-765Y248608D01*
X-688Y248664D01*
X-608Y248717D01*
X-527Y248766D01*
X-443Y248812D01*
X-357Y248855D01*
X-270Y248894D01*
X-182Y248930D01*
X-92Y248962D01*
X-1Y248990D01*
X92Y249015D01*
X185Y249036D01*
X279Y249053D01*
X373Y249067D01*
X468Y249076D01*
X563Y249082D01*
X659Y249084D01*
X3029Y249084D01*
X9681Y243750D02*
X9678Y243506D01*
X9669Y243262D01*
X9655Y243018D01*
X9634Y242775D01*
X9608Y242532D01*
X9575Y242290D01*
X9537Y242049D01*
X9494Y241809D01*
X9444Y241570D01*
X9389Y241332D01*
X9328Y241096D01*
X9261Y240861D01*
X9189Y240628D01*
X9111Y240397D01*
X9028Y240167D01*
X8939Y239940D01*
X8844Y239715D01*
X8745Y239492D01*
X8639Y239272D01*
X8529Y239054D01*
X8414Y238839D01*
X8293Y238627D01*
X8167Y238417D01*
X8036Y238211D01*
X7901Y238008D01*
X7760Y237809D01*
X7615Y237613D01*
X7465Y237420D01*
X7310Y237231D01*
X9681Y243750D02*
X9678Y243994D01*
X9669Y244238D01*
X9655Y244482D01*
X9634Y244725D01*
X9608Y244968D01*
X9575Y245210D01*
X9537Y245451D01*
X9494Y245691D01*
X9444Y245930D01*
X9389Y246168D01*
X9328Y246404D01*
X9261Y246639D01*
X9189Y246872D01*
X9111Y247103D01*
X9028Y247333D01*
X8939Y247560D01*
X8844Y247785D01*
X8745Y248008D01*
X8639Y248228D01*
X8529Y248446D01*
X8414Y248661D01*
X8293Y248873D01*
X8167Y249083D01*
X8036Y249289D01*
X7901Y249492D01*
X7760Y249691D01*
X7615Y249887D01*
X7465Y250080D01*
X7310Y250269D01*
X24457Y249084D02*
X24559Y249082D01*
X24661Y249076D01*
X24763Y249066D01*
X24864Y249053D01*
X24965Y249035D01*
X25065Y249014D01*
X25164Y248989D01*
X25262Y248960D01*
X25358Y248927D01*
X25454Y248891D01*
X25548Y248851D01*
X25640Y248807D01*
X25731Y248760D01*
X25820Y248709D01*
X25907Y248656D01*
X25991Y248598D01*
X26074Y248538D01*
X26154Y248475D01*
X26231Y248408D01*
X26306Y248339D01*
X26379Y248266D01*
X26448Y248191D01*
X26515Y248114D01*
X26578Y248034D01*
X26638Y247951D01*
X26696Y247867D01*
X26749Y247780D01*
X26800Y247691D01*
X26847Y247600D01*
X26891Y247508D01*
X26931Y247414D01*
X26967Y247318D01*
X27000Y247222D01*
X27029Y247124D01*
X27054Y247025D01*
X27075Y246925D01*
X27093Y246824D01*
X27106Y246723D01*
X27116Y246621D01*
X27122Y246519D01*
X27124Y246417D01*
X24457Y249084D02*
X24341Y249082D01*
X24224Y249076D01*
X24108Y249066D01*
X23993Y249052D01*
X23878Y249035D01*
X23763Y249013D01*
X23650Y248987D01*
X23537Y248958D01*
X23425Y248925D01*
X23315Y248888D01*
X23206Y248847D01*
X23098Y248803D01*
X22992Y248755D01*
X22888Y248703D01*
X22785Y248648D01*
X22684Y248590D01*
X22586Y248528D01*
X22489Y248463D01*
X22395Y248394D01*
X22303Y248322D01*
X22214Y248248D01*
X22127Y248170D01*
X22043Y248089D01*
X21962Y248006D01*
X21884Y247920D01*
X21808Y247831D01*
X21736Y247740D01*
X21667Y247646D01*
X21601Y247550D01*
X21538Y247452D01*
X21479Y247352D01*
X21423Y247250D01*
X21371Y247146D01*
X21322Y247040D01*
X21277Y246933D01*
X21235Y246824D01*
X21198Y246714D01*
X26236Y244342D02*
X26311Y244416D01*
X26383Y244493D01*
X26452Y244573D01*
X26519Y244655D01*
X26582Y244739D01*
X26642Y244826D01*
X26699Y244914D01*
X26753Y245005D01*
X26803Y245098D01*
X26850Y245192D01*
X26893Y245288D01*
X26933Y245386D01*
X26969Y245485D01*
X27002Y245585D01*
X27030Y245687D01*
X27055Y245789D01*
X27077Y245893D01*
X27094Y245997D01*
X27108Y246101D01*
X27117Y246206D01*
X27123Y246312D01*
X27125Y246417D01*
X26235Y244343D02*
X21198Y238416D01*
X27124Y238416D01*
X32628Y243750D02*
X32631Y243960D01*
X32638Y244170D01*
X32651Y244379D01*
X32668Y244588D01*
X32691Y244797D01*
X32718Y245005D01*
X32750Y245212D01*
X32788Y245419D01*
X32830Y245624D01*
X32877Y245829D01*
X32929Y246032D01*
X32986Y246234D01*
X33048Y246435D01*
X33114Y246634D01*
X33186Y246831D01*
X33262Y247027D01*
X33342Y247221D01*
X33427Y247413D01*
X33517Y247602D01*
X33548Y247687D01*
X33582Y247771D01*
X33620Y247853D01*
X33662Y247934D01*
X33707Y248013D01*
X33755Y248090D01*
X33806Y248165D01*
X33860Y248237D01*
X33917Y248308D01*
X33977Y248376D01*
X34040Y248441D01*
X34105Y248504D01*
X34173Y248564D01*
X34244Y248621D01*
X34316Y248675D01*
X34391Y248727D01*
X34468Y248775D01*
X34547Y248820D01*
X34628Y248861D01*
X34710Y248899D01*
X34794Y248934D01*
X34879Y248965D01*
X34965Y248993D01*
X35052Y249017D01*
X35141Y249037D01*
X35230Y249054D01*
X35320Y249067D01*
X35410Y249077D01*
X35500Y249082D01*
X35591Y249084D01*
X35682Y249082D01*
X35772Y249077D01*
X35862Y249067D01*
X35952Y249054D01*
X36041Y249037D01*
X36130Y249017D01*
X36217Y248993D01*
X36303Y248965D01*
X36388Y248934D01*
X36472Y248899D01*
X36554Y248861D01*
X36635Y248820D01*
X36714Y248775D01*
X36791Y248727D01*
X36866Y248676D01*
X36938Y248621D01*
X37009Y248564D01*
X37077Y248504D01*
X37142Y248441D01*
X37205Y248376D01*
X37265Y248308D01*
X37322Y248237D01*
X37376Y248165D01*
X37427Y248090D01*
X37475Y248013D01*
X37520Y247934D01*
X37562Y247853D01*
X37600Y247771D01*
X37634Y247687D01*
X37665Y247602D01*
X37755Y247413D01*
X37840Y247221D01*
X37920Y247027D01*
X37996Y246831D01*
X38068Y246634D01*
X38134Y246435D01*
X38196Y246234D01*
X38253Y246032D01*
X38305Y245829D01*
X38352Y245624D01*
X38394Y245419D01*
X38432Y245212D01*
X38464Y245005D01*
X38491Y244797D01*
X38514Y244588D01*
X38531Y244379D01*
X38544Y244170D01*
X38551Y243960D01*
X38554Y243750D01*
X32628Y243750D02*
X32631Y243540D01*
X32638Y243330D01*
X32651Y243121D01*
X32668Y242912D01*
X32691Y242703D01*
X32718Y242495D01*
X32750Y242288D01*
X32788Y242081D01*
X32830Y241876D01*
X32877Y241671D01*
X32929Y241468D01*
X32986Y241266D01*
X33048Y241065D01*
X33114Y240866D01*
X33186Y240669D01*
X33262Y240473D01*
X33342Y240279D01*
X33427Y240088D01*
X33517Y239898D01*
X33548Y239813D01*
X33582Y239729D01*
X33620Y239647D01*
X33662Y239566D01*
X33707Y239487D01*
X33755Y239410D01*
X33806Y239335D01*
X33860Y239263D01*
X33917Y239192D01*
X33977Y239124D01*
X34040Y239059D01*
X34105Y238996D01*
X34173Y238936D01*
X34244Y238879D01*
X34316Y238824D01*
X34391Y238773D01*
X34468Y238725D01*
X34547Y238680D01*
X34628Y238639D01*
X34710Y238601D01*
X34794Y238566D01*
X34879Y238535D01*
X34965Y238507D01*
X35052Y238483D01*
X35141Y238463D01*
X35230Y238446D01*
X35320Y238433D01*
X35410Y238423D01*
X35500Y238418D01*
X35591Y238416D01*
X37665Y239898D02*
X37755Y240088D01*
X37840Y240279D01*
X37920Y240473D01*
X37996Y240669D01*
X38068Y240866D01*
X38134Y241065D01*
X38196Y241266D01*
X38253Y241468D01*
X38305Y241671D01*
X38352Y241876D01*
X38394Y242081D01*
X38432Y242288D01*
X38464Y242495D01*
X38491Y242703D01*
X38514Y242912D01*
X38531Y243121D01*
X38544Y243330D01*
X38551Y243540D01*
X38554Y243750D01*
X37665Y239898D02*
X37634Y239813D01*
X37600Y239729D01*
X37562Y239647D01*
X37520Y239566D01*
X37475Y239487D01*
X37427Y239410D01*
X37376Y239335D01*
X37322Y239263D01*
X37265Y239192D01*
X37205Y239124D01*
X37142Y239059D01*
X37077Y238996D01*
X37009Y238936D01*
X36938Y238879D01*
X36866Y238824D01*
X36791Y238773D01*
X36714Y238725D01*
X36635Y238680D01*
X36554Y238639D01*
X36472Y238601D01*
X36388Y238566D01*
X36303Y238535D01*
X36217Y238507D01*
X36130Y238483D01*
X36041Y238463D01*
X35952Y238446D01*
X35862Y238433D01*
X35772Y238423D01*
X35682Y238418D01*
X35591Y238416D01*
X33220Y240787D02*
X37962Y246713D01*
X47317Y249084D02*
X47419Y249082D01*
X47521Y249076D01*
X47623Y249066D01*
X47724Y249053D01*
X47825Y249035D01*
X47925Y249014D01*
X48024Y248989D01*
X48122Y248960D01*
X48218Y248927D01*
X48314Y248891D01*
X48408Y248851D01*
X48500Y248807D01*
X48591Y248760D01*
X48680Y248709D01*
X48767Y248656D01*
X48851Y248598D01*
X48934Y248538D01*
X49014Y248475D01*
X49091Y248408D01*
X49166Y248339D01*
X49239Y248266D01*
X49308Y248191D01*
X49375Y248114D01*
X49438Y248034D01*
X49498Y247951D01*
X49556Y247867D01*
X49609Y247780D01*
X49660Y247691D01*
X49707Y247600D01*
X49751Y247508D01*
X49791Y247414D01*
X49827Y247318D01*
X49860Y247222D01*
X49889Y247124D01*
X49914Y247025D01*
X49935Y246925D01*
X49953Y246824D01*
X49966Y246723D01*
X49976Y246621D01*
X49982Y246519D01*
X49984Y246417D01*
X47317Y249084D02*
X47201Y249082D01*
X47084Y249076D01*
X46968Y249066D01*
X46853Y249052D01*
X46738Y249035D01*
X46623Y249013D01*
X46510Y248987D01*
X46397Y248958D01*
X46285Y248925D01*
X46175Y248888D01*
X46066Y248847D01*
X45958Y248803D01*
X45852Y248755D01*
X45748Y248703D01*
X45645Y248648D01*
X45544Y248590D01*
X45446Y248528D01*
X45349Y248463D01*
X45255Y248394D01*
X45163Y248322D01*
X45074Y248248D01*
X44987Y248170D01*
X44903Y248089D01*
X44822Y248006D01*
X44744Y247920D01*
X44668Y247831D01*
X44596Y247740D01*
X44527Y247646D01*
X44461Y247550D01*
X44398Y247452D01*
X44339Y247352D01*
X44283Y247250D01*
X44231Y247146D01*
X44182Y247040D01*
X44137Y246933D01*
X44095Y246824D01*
X44058Y246714D01*
X49096Y244342D02*
X49171Y244416D01*
X49243Y244493D01*
X49312Y244573D01*
X49379Y244655D01*
X49442Y244739D01*
X49502Y244826D01*
X49559Y244914D01*
X49613Y245005D01*
X49663Y245098D01*
X49710Y245192D01*
X49753Y245288D01*
X49793Y245386D01*
X49829Y245485D01*
X49862Y245585D01*
X49890Y245687D01*
X49915Y245789D01*
X49937Y245893D01*
X49954Y245997D01*
X49968Y246101D01*
X49977Y246206D01*
X49983Y246312D01*
X49985Y246417D01*
X49095Y244343D02*
X44058Y238416D01*
X49984Y238416D01*
X55488Y246713D02*
X58451Y249084D01*
X58451Y238416D01*
X55488Y238416D02*
X61414Y238416D01*
X-8984Y230034D02*
X-8984Y219366D01*
X-5428Y224107D02*
X-8984Y230034D01*
X-5428Y224107D02*
X-1872Y230034D01*
X-1872Y219366D01*
X3716Y219366D02*
X3716Y226478D01*
X3420Y229441D02*
X3420Y230034D01*
X4012Y230034D01*
X4012Y229441D01*
X3420Y229441D01*
X10382Y219366D02*
X12753Y219366D01*
X10382Y219366D02*
X10300Y219368D01*
X10218Y219374D01*
X10136Y219383D01*
X10055Y219396D01*
X9975Y219413D01*
X9895Y219434D01*
X9817Y219458D01*
X9740Y219486D01*
X9664Y219517D01*
X9589Y219552D01*
X9517Y219591D01*
X9446Y219632D01*
X9377Y219677D01*
X9311Y219725D01*
X9246Y219776D01*
X9184Y219830D01*
X9125Y219887D01*
X9068Y219946D01*
X9014Y220008D01*
X8963Y220073D01*
X8915Y220139D01*
X8870Y220208D01*
X8829Y220279D01*
X8790Y220351D01*
X8755Y220426D01*
X8724Y220502D01*
X8696Y220579D01*
X8672Y220657D01*
X8651Y220737D01*
X8634Y220817D01*
X8621Y220898D01*
X8612Y220980D01*
X8606Y221062D01*
X8604Y221144D01*
X8604Y224700D01*
X8606Y224782D01*
X8612Y224864D01*
X8621Y224946D01*
X8634Y225027D01*
X8651Y225107D01*
X8672Y225187D01*
X8696Y225265D01*
X8724Y225342D01*
X8755Y225418D01*
X8790Y225493D01*
X8829Y225565D01*
X8870Y225636D01*
X8915Y225705D01*
X8963Y225771D01*
X9014Y225836D01*
X9068Y225898D01*
X9125Y225957D01*
X9184Y226014D01*
X9246Y226068D01*
X9311Y226119D01*
X9377Y226167D01*
X9446Y226212D01*
X9517Y226253D01*
X9589Y226292D01*
X9664Y226327D01*
X9740Y226358D01*
X9817Y226386D01*
X9895Y226410D01*
X9975Y226431D01*
X10055Y226448D01*
X10136Y226461D01*
X10218Y226470D01*
X10300Y226476D01*
X10382Y226478D01*
X12753Y226478D01*
X17728Y230034D02*
X17728Y219366D01*
X17728Y226478D02*
X20692Y226478D01*
X20774Y226476D01*
X20856Y226470D01*
X20938Y226461D01*
X21019Y226448D01*
X21099Y226431D01*
X21179Y226410D01*
X21257Y226386D01*
X21334Y226358D01*
X21410Y226327D01*
X21485Y226292D01*
X21557Y226253D01*
X21628Y226212D01*
X21697Y226167D01*
X21763Y226119D01*
X21828Y226068D01*
X21890Y226014D01*
X21949Y225957D01*
X22006Y225898D01*
X22060Y225836D01*
X22111Y225771D01*
X22159Y225705D01*
X22204Y225636D01*
X22245Y225565D01*
X22284Y225493D01*
X22319Y225418D01*
X22350Y225342D01*
X22378Y225265D01*
X22402Y225187D01*
X22423Y225107D01*
X22440Y225027D01*
X22453Y224946D01*
X22462Y224864D01*
X22468Y224782D01*
X22470Y224700D01*
X22470Y219366D01*
X30001Y223515D02*
X32668Y223515D01*
X30001Y223514D02*
X29912Y223512D01*
X29823Y223506D01*
X29734Y223497D01*
X29646Y223483D01*
X29558Y223466D01*
X29471Y223445D01*
X29386Y223421D01*
X29301Y223392D01*
X29218Y223360D01*
X29136Y223325D01*
X29055Y223286D01*
X28977Y223244D01*
X28900Y223198D01*
X28826Y223149D01*
X28753Y223097D01*
X28683Y223041D01*
X28615Y222983D01*
X28550Y222922D01*
X28488Y222858D01*
X28428Y222792D01*
X28372Y222723D01*
X28318Y222652D01*
X28267Y222578D01*
X28220Y222503D01*
X28176Y222425D01*
X28135Y222346D01*
X28098Y222265D01*
X28064Y222182D01*
X28034Y222098D01*
X28008Y222013D01*
X27985Y221926D01*
X27966Y221839D01*
X27950Y221751D01*
X27939Y221663D01*
X27931Y221574D01*
X27927Y221485D01*
X27927Y221395D01*
X27931Y221306D01*
X27939Y221217D01*
X27950Y221129D01*
X27966Y221041D01*
X27985Y220954D01*
X28008Y220867D01*
X28034Y220782D01*
X28064Y220698D01*
X28098Y220615D01*
X28135Y220534D01*
X28176Y220455D01*
X28220Y220377D01*
X28267Y220302D01*
X28318Y220228D01*
X28372Y220157D01*
X28428Y220088D01*
X28488Y220022D01*
X28550Y219958D01*
X28615Y219897D01*
X28683Y219839D01*
X28753Y219783D01*
X28826Y219731D01*
X28900Y219682D01*
X28977Y219636D01*
X29055Y219594D01*
X29136Y219555D01*
X29218Y219520D01*
X29301Y219488D01*
X29386Y219459D01*
X29471Y219435D01*
X29558Y219414D01*
X29646Y219397D01*
X29734Y219383D01*
X29823Y219374D01*
X29912Y219368D01*
X30001Y219366D01*
X32668Y219366D01*
X32668Y224700D01*
X32666Y224782D01*
X32660Y224864D01*
X32651Y224946D01*
X32638Y225027D01*
X32621Y225107D01*
X32600Y225187D01*
X32576Y225265D01*
X32548Y225342D01*
X32517Y225418D01*
X32482Y225493D01*
X32443Y225565D01*
X32402Y225636D01*
X32357Y225705D01*
X32309Y225771D01*
X32258Y225836D01*
X32204Y225898D01*
X32147Y225957D01*
X32088Y226014D01*
X32026Y226068D01*
X31961Y226119D01*
X31895Y226167D01*
X31826Y226212D01*
X31755Y226253D01*
X31683Y226292D01*
X31608Y226327D01*
X31532Y226358D01*
X31455Y226386D01*
X31377Y226410D01*
X31297Y226431D01*
X31217Y226448D01*
X31136Y226461D01*
X31054Y226470D01*
X30972Y226476D01*
X30890Y226478D01*
X28520Y226478D01*
X40080Y219366D02*
X43044Y219366D01*
X40080Y219366D02*
X39998Y219368D01*
X39916Y219374D01*
X39834Y219383D01*
X39753Y219396D01*
X39673Y219413D01*
X39593Y219434D01*
X39515Y219458D01*
X39438Y219486D01*
X39362Y219517D01*
X39287Y219552D01*
X39215Y219591D01*
X39144Y219632D01*
X39075Y219677D01*
X39009Y219725D01*
X38944Y219776D01*
X38882Y219830D01*
X38823Y219887D01*
X38766Y219946D01*
X38712Y220008D01*
X38661Y220073D01*
X38613Y220139D01*
X38568Y220208D01*
X38527Y220279D01*
X38488Y220351D01*
X38453Y220426D01*
X38422Y220502D01*
X38394Y220579D01*
X38370Y220657D01*
X38349Y220737D01*
X38332Y220817D01*
X38319Y220898D01*
X38310Y220980D01*
X38304Y221062D01*
X38302Y221144D01*
X38302Y224107D01*
X38304Y224204D01*
X38310Y224300D01*
X38320Y224396D01*
X38334Y224492D01*
X38351Y224587D01*
X38373Y224682D01*
X38398Y224775D01*
X38427Y224867D01*
X38460Y224958D01*
X38497Y225048D01*
X38537Y225136D01*
X38581Y225222D01*
X38628Y225306D01*
X38678Y225389D01*
X38732Y225469D01*
X38790Y225547D01*
X38850Y225623D01*
X38913Y225696D01*
X38979Y225766D01*
X39049Y225834D01*
X39120Y225899D01*
X39195Y225961D01*
X39272Y226019D01*
X39351Y226075D01*
X39432Y226127D01*
X39516Y226176D01*
X39601Y226222D01*
X39688Y226264D01*
X39777Y226302D01*
X39867Y226337D01*
X39959Y226368D01*
X40052Y226395D01*
X40145Y226419D01*
X40240Y226438D01*
X40336Y226454D01*
X40432Y226466D01*
X40528Y226474D01*
X40625Y226478D01*
X40721Y226478D01*
X40818Y226474D01*
X40914Y226466D01*
X41010Y226454D01*
X41106Y226438D01*
X41201Y226419D01*
X41294Y226395D01*
X41387Y226368D01*
X41479Y226337D01*
X41569Y226302D01*
X41658Y226264D01*
X41745Y226222D01*
X41830Y226176D01*
X41914Y226127D01*
X41995Y226075D01*
X42074Y226019D01*
X42151Y225961D01*
X42226Y225899D01*
X42297Y225834D01*
X42367Y225766D01*
X42433Y225696D01*
X42496Y225623D01*
X42556Y225547D01*
X42614Y225469D01*
X42668Y225389D01*
X42718Y225306D01*
X42765Y225222D01*
X42809Y225136D01*
X42849Y225048D01*
X42886Y224958D01*
X42919Y224867D01*
X42948Y224775D01*
X42973Y224682D01*
X42995Y224587D01*
X43012Y224492D01*
X43026Y224396D01*
X43036Y224300D01*
X43042Y224204D01*
X43044Y224107D01*
X43044Y222922D01*
X38302Y222922D01*
X48242Y221144D02*
X48242Y230034D01*
X48242Y221144D02*
X48244Y221062D01*
X48250Y220980D01*
X48259Y220898D01*
X48272Y220817D01*
X48289Y220737D01*
X48310Y220657D01*
X48334Y220579D01*
X48362Y220502D01*
X48393Y220426D01*
X48428Y220351D01*
X48467Y220279D01*
X48508Y220208D01*
X48553Y220139D01*
X48601Y220073D01*
X48652Y220008D01*
X48706Y219946D01*
X48763Y219887D01*
X48822Y219830D01*
X48884Y219776D01*
X48949Y219725D01*
X49015Y219677D01*
X49084Y219632D01*
X49155Y219591D01*
X49227Y219552D01*
X49302Y219517D01*
X49378Y219486D01*
X49455Y219458D01*
X49533Y219434D01*
X49613Y219413D01*
X49693Y219396D01*
X49774Y219383D01*
X49856Y219374D01*
X49938Y219368D01*
X50020Y219366D01*
X60951Y219366D02*
X60951Y230034D01*
X60951Y225293D02*
X66877Y225293D01*
X66877Y230034D02*
X66877Y219366D01*
X72296Y219366D02*
X72296Y226478D01*
X72000Y229441D02*
X72000Y230034D01*
X72592Y230034D01*
X72592Y229441D01*
X72000Y229441D01*
X77198Y230034D02*
X77198Y221144D01*
X77200Y221062D01*
X77206Y220980D01*
X77215Y220898D01*
X77228Y220817D01*
X77245Y220737D01*
X77266Y220657D01*
X77290Y220579D01*
X77318Y220502D01*
X77349Y220426D01*
X77384Y220351D01*
X77423Y220279D01*
X77464Y220208D01*
X77509Y220139D01*
X77557Y220073D01*
X77608Y220008D01*
X77662Y219946D01*
X77719Y219887D01*
X77778Y219830D01*
X77840Y219776D01*
X77905Y219725D01*
X77971Y219677D01*
X78040Y219632D01*
X78111Y219591D01*
X78183Y219552D01*
X78258Y219517D01*
X78334Y219486D01*
X78411Y219458D01*
X78489Y219434D01*
X78569Y219413D01*
X78649Y219396D01*
X78730Y219383D01*
X78812Y219374D01*
X78894Y219368D01*
X78976Y219366D01*
X83294Y221144D02*
X83294Y230034D01*
X83294Y221144D02*
X83296Y221062D01*
X83302Y220980D01*
X83311Y220898D01*
X83324Y220817D01*
X83341Y220737D01*
X83362Y220657D01*
X83386Y220579D01*
X83414Y220502D01*
X83445Y220426D01*
X83480Y220351D01*
X83519Y220279D01*
X83560Y220208D01*
X83605Y220139D01*
X83653Y220073D01*
X83704Y220008D01*
X83758Y219946D01*
X83815Y219887D01*
X83874Y219830D01*
X83936Y219776D01*
X84001Y219725D01*
X84067Y219677D01*
X84136Y219632D01*
X84207Y219591D01*
X84279Y219552D01*
X84354Y219517D01*
X84430Y219486D01*
X84507Y219458D01*
X84585Y219434D01*
X84665Y219413D01*
X84745Y219396D01*
X84826Y219383D01*
X84908Y219374D01*
X84990Y219368D01*
X85072Y219366D01*
X-8984Y172884D02*
X-8984Y162216D01*
X-8984Y172884D02*
X-6021Y172884D01*
X-5913Y172882D01*
X-5805Y172876D01*
X-5697Y172866D01*
X-5590Y172852D01*
X-5483Y172835D01*
X-5377Y172813D01*
X-5272Y172788D01*
X-5167Y172758D01*
X-5064Y172725D01*
X-4963Y172688D01*
X-4862Y172648D01*
X-4763Y172604D01*
X-4666Y172556D01*
X-4571Y172505D01*
X-4477Y172450D01*
X-4386Y172392D01*
X-4297Y172331D01*
X-4210Y172266D01*
X-4126Y172199D01*
X-4044Y172128D01*
X-3964Y172054D01*
X-3888Y171978D01*
X-3814Y171898D01*
X-3744Y171816D01*
X-3676Y171732D01*
X-3611Y171645D01*
X-3550Y171556D01*
X-3492Y171465D01*
X-3437Y171371D01*
X-3386Y171276D01*
X-3338Y171179D01*
X-3294Y171080D01*
X-3254Y170979D01*
X-3217Y170878D01*
X-3184Y170775D01*
X-3154Y170670D01*
X-3129Y170565D01*
X-3107Y170459D01*
X-3090Y170352D01*
X-3076Y170245D01*
X-3066Y170137D01*
X-3060Y170029D01*
X-3058Y169921D01*
X-3057Y169921D02*
X-3057Y165179D01*
X-3058Y165179D02*
X-3060Y165073D01*
X-3066Y164968D01*
X-3075Y164862D01*
X-3088Y164757D01*
X-3105Y164653D01*
X-3126Y164549D01*
X-3150Y164446D01*
X-3178Y164344D01*
X-3210Y164243D01*
X-3245Y164144D01*
X-3284Y164045D01*
X-3326Y163948D01*
X-3371Y163853D01*
X-3420Y163759D01*
X-3473Y163667D01*
X-3528Y163577D01*
X-3587Y163489D01*
X-3649Y163403D01*
X-3714Y163320D01*
X-3782Y163239D01*
X-3852Y163160D01*
X-3926Y163084D01*
X-4002Y163010D01*
X-4081Y162940D01*
X-4162Y162872D01*
X-4245Y162807D01*
X-4331Y162745D01*
X-4419Y162686D01*
X-4509Y162631D01*
X-4601Y162578D01*
X-4695Y162529D01*
X-4790Y162484D01*
X-4887Y162442D01*
X-4986Y162403D01*
X-5085Y162368D01*
X-5186Y162336D01*
X-5288Y162308D01*
X-5391Y162284D01*
X-5495Y162263D01*
X-5599Y162246D01*
X-5704Y162233D01*
X-5810Y162224D01*
X-5915Y162218D01*
X-6021Y162216D01*
X-8984Y162216D01*
X3504Y162216D02*
X3504Y172884D01*
X2319Y162216D02*
X4690Y162216D01*
X4690Y172884D02*
X2319Y172884D01*
X10320Y172884D02*
X10320Y162216D01*
X10320Y172884D02*
X13283Y172884D01*
X13390Y172882D01*
X13497Y172876D01*
X13603Y172867D01*
X13709Y172853D01*
X13815Y172836D01*
X13920Y172815D01*
X14024Y172790D01*
X14127Y172761D01*
X14229Y172729D01*
X14330Y172693D01*
X14429Y172653D01*
X14527Y172610D01*
X14623Y172563D01*
X14718Y172513D01*
X14811Y172460D01*
X14901Y172403D01*
X14990Y172343D01*
X15076Y172280D01*
X15160Y172214D01*
X15242Y172144D01*
X15321Y172072D01*
X15397Y171997D01*
X15471Y171919D01*
X15541Y171839D01*
X15609Y171756D01*
X15674Y171671D01*
X15735Y171584D01*
X15794Y171494D01*
X15849Y171402D01*
X15901Y171309D01*
X15949Y171213D01*
X15994Y171116D01*
X16036Y171018D01*
X16073Y170918D01*
X16108Y170816D01*
X16138Y170714D01*
X16165Y170610D01*
X16188Y170506D01*
X16207Y170400D01*
X16222Y170294D01*
X16234Y170188D01*
X16242Y170081D01*
X16246Y169974D01*
X16246Y169868D01*
X16242Y169761D01*
X16234Y169654D01*
X16222Y169548D01*
X16207Y169442D01*
X16188Y169336D01*
X16165Y169232D01*
X16138Y169128D01*
X16108Y169026D01*
X16073Y168924D01*
X16036Y168824D01*
X15994Y168726D01*
X15949Y168629D01*
X15901Y168533D01*
X15849Y168440D01*
X15794Y168348D01*
X15735Y168258D01*
X15674Y168171D01*
X15609Y168086D01*
X15541Y168003D01*
X15471Y167923D01*
X15397Y167845D01*
X15321Y167770D01*
X15242Y167698D01*
X15160Y167628D01*
X15076Y167562D01*
X14990Y167499D01*
X14901Y167439D01*
X14811Y167382D01*
X14718Y167329D01*
X14623Y167279D01*
X14527Y167232D01*
X14429Y167189D01*
X14330Y167149D01*
X14229Y167113D01*
X14127Y167081D01*
X14024Y167052D01*
X13920Y167027D01*
X13815Y167006D01*
X13709Y166989D01*
X13603Y166975D01*
X13497Y166966D01*
X13390Y166960D01*
X13283Y166958D01*
X13283Y166957D02*
X10320Y166957D01*
X26661Y169328D02*
X29031Y162216D01*
X31402Y169328D01*
X37964Y162216D02*
X40927Y162216D01*
X37964Y162216D02*
X37882Y162218D01*
X37800Y162224D01*
X37718Y162233D01*
X37637Y162246D01*
X37557Y162263D01*
X37477Y162284D01*
X37399Y162308D01*
X37322Y162336D01*
X37246Y162367D01*
X37171Y162402D01*
X37099Y162441D01*
X37028Y162482D01*
X36959Y162527D01*
X36893Y162575D01*
X36828Y162626D01*
X36766Y162680D01*
X36707Y162737D01*
X36650Y162796D01*
X36596Y162858D01*
X36545Y162923D01*
X36497Y162989D01*
X36452Y163058D01*
X36411Y163129D01*
X36372Y163201D01*
X36337Y163276D01*
X36306Y163352D01*
X36278Y163429D01*
X36254Y163507D01*
X36233Y163587D01*
X36216Y163667D01*
X36203Y163748D01*
X36194Y163830D01*
X36188Y163912D01*
X36186Y163994D01*
X36186Y166957D01*
X36185Y166957D02*
X36187Y167054D01*
X36193Y167150D01*
X36203Y167246D01*
X36217Y167342D01*
X36234Y167437D01*
X36256Y167532D01*
X36281Y167625D01*
X36310Y167717D01*
X36343Y167808D01*
X36380Y167898D01*
X36420Y167986D01*
X36464Y168072D01*
X36511Y168156D01*
X36561Y168239D01*
X36615Y168319D01*
X36673Y168397D01*
X36733Y168473D01*
X36796Y168546D01*
X36862Y168616D01*
X36932Y168684D01*
X37003Y168749D01*
X37078Y168811D01*
X37155Y168869D01*
X37234Y168925D01*
X37315Y168977D01*
X37399Y169026D01*
X37484Y169072D01*
X37571Y169114D01*
X37660Y169152D01*
X37750Y169187D01*
X37842Y169218D01*
X37935Y169245D01*
X38028Y169269D01*
X38123Y169288D01*
X38219Y169304D01*
X38315Y169316D01*
X38411Y169324D01*
X38508Y169328D01*
X38604Y169328D01*
X38701Y169324D01*
X38797Y169316D01*
X38893Y169304D01*
X38989Y169288D01*
X39084Y169269D01*
X39177Y169245D01*
X39270Y169218D01*
X39362Y169187D01*
X39452Y169152D01*
X39541Y169114D01*
X39628Y169072D01*
X39713Y169026D01*
X39797Y168977D01*
X39878Y168925D01*
X39957Y168869D01*
X40034Y168811D01*
X40109Y168749D01*
X40180Y168684D01*
X40250Y168616D01*
X40316Y168546D01*
X40379Y168473D01*
X40439Y168397D01*
X40497Y168319D01*
X40551Y168239D01*
X40601Y168156D01*
X40648Y168072D01*
X40692Y167986D01*
X40732Y167898D01*
X40769Y167808D01*
X40802Y167717D01*
X40831Y167625D01*
X40856Y167532D01*
X40878Y167437D01*
X40895Y167342D01*
X40909Y167246D01*
X40919Y167150D01*
X40925Y167054D01*
X40927Y166957D01*
X40927Y165772D01*
X36186Y165772D01*
X46572Y162216D02*
X46572Y169328D01*
X50128Y169328D01*
X50128Y168143D01*
X54982Y166365D02*
X57945Y165179D01*
X54981Y166364D02*
X54910Y166395D01*
X54840Y166429D01*
X54772Y166466D01*
X54707Y166507D01*
X54643Y166552D01*
X54582Y166599D01*
X54523Y166650D01*
X54466Y166703D01*
X54413Y166759D01*
X54362Y166818D01*
X54315Y166879D01*
X54270Y166943D01*
X54229Y167008D01*
X54191Y167076D01*
X54157Y167146D01*
X54126Y167217D01*
X54099Y167289D01*
X54076Y167363D01*
X54056Y167438D01*
X54040Y167514D01*
X54028Y167591D01*
X54020Y167668D01*
X54016Y167745D01*
X54015Y167823D01*
X54019Y167900D01*
X54026Y167978D01*
X54038Y168054D01*
X54053Y168130D01*
X54072Y168206D01*
X54095Y168280D01*
X54121Y168353D01*
X54151Y168424D01*
X54185Y168494D01*
X54222Y168562D01*
X54263Y168628D01*
X54307Y168692D01*
X54354Y168754D01*
X54404Y168813D01*
X54457Y168869D01*
X54513Y168923D01*
X54571Y168974D01*
X54632Y169022D01*
X54695Y169067D01*
X54761Y169109D01*
X54828Y169147D01*
X54898Y169182D01*
X54969Y169213D01*
X55041Y169241D01*
X55115Y169264D01*
X55190Y169285D01*
X55265Y169301D01*
X55342Y169314D01*
X55419Y169322D01*
X55496Y169327D01*
X55574Y169328D01*
X55736Y169324D01*
X55898Y169316D01*
X56059Y169304D01*
X56220Y169288D01*
X56381Y169268D01*
X56541Y169245D01*
X56700Y169217D01*
X56859Y169186D01*
X57017Y169151D01*
X57174Y169112D01*
X57330Y169069D01*
X57485Y169023D01*
X57639Y168973D01*
X57792Y168919D01*
X57943Y168861D01*
X58093Y168800D01*
X58241Y168736D01*
X57945Y165180D02*
X58016Y165149D01*
X58086Y165115D01*
X58154Y165078D01*
X58219Y165037D01*
X58283Y164992D01*
X58344Y164945D01*
X58403Y164894D01*
X58460Y164841D01*
X58513Y164785D01*
X58564Y164726D01*
X58611Y164665D01*
X58656Y164601D01*
X58697Y164536D01*
X58735Y164468D01*
X58769Y164398D01*
X58800Y164327D01*
X58827Y164255D01*
X58850Y164181D01*
X58870Y164106D01*
X58886Y164030D01*
X58898Y163953D01*
X58906Y163876D01*
X58910Y163799D01*
X58911Y163721D01*
X58907Y163644D01*
X58900Y163566D01*
X58888Y163490D01*
X58873Y163414D01*
X58854Y163338D01*
X58831Y163264D01*
X58805Y163191D01*
X58775Y163120D01*
X58741Y163050D01*
X58704Y162982D01*
X58663Y162916D01*
X58619Y162852D01*
X58572Y162790D01*
X58522Y162731D01*
X58469Y162675D01*
X58413Y162621D01*
X58355Y162570D01*
X58294Y162522D01*
X58231Y162477D01*
X58165Y162435D01*
X58098Y162397D01*
X58028Y162362D01*
X57958Y162331D01*
X57885Y162303D01*
X57811Y162280D01*
X57736Y162259D01*
X57661Y162243D01*
X57584Y162230D01*
X57507Y162222D01*
X57430Y162217D01*
X57352Y162216D01*
X57115Y162222D01*
X56877Y162234D01*
X56640Y162251D01*
X56404Y162275D01*
X56168Y162303D01*
X55932Y162337D01*
X55698Y162377D01*
X55465Y162422D01*
X55232Y162473D01*
X55001Y162529D01*
X54772Y162591D01*
X54544Y162658D01*
X54317Y162731D01*
X54093Y162809D01*
X63702Y162216D02*
X63702Y169328D01*
X63406Y172291D02*
X63406Y172884D01*
X63999Y172884D01*
X63999Y172291D01*
X63406Y172291D01*
X68571Y166957D02*
X68571Y164587D01*
X68570Y166957D02*
X68572Y167054D01*
X68578Y167150D01*
X68588Y167246D01*
X68602Y167342D01*
X68619Y167437D01*
X68641Y167532D01*
X68666Y167625D01*
X68695Y167717D01*
X68728Y167808D01*
X68765Y167898D01*
X68805Y167986D01*
X68849Y168072D01*
X68896Y168156D01*
X68946Y168239D01*
X69000Y168319D01*
X69058Y168397D01*
X69118Y168473D01*
X69181Y168546D01*
X69247Y168616D01*
X69317Y168684D01*
X69388Y168749D01*
X69463Y168811D01*
X69540Y168869D01*
X69619Y168925D01*
X69700Y168977D01*
X69784Y169026D01*
X69869Y169072D01*
X69956Y169114D01*
X70045Y169152D01*
X70135Y169187D01*
X70227Y169218D01*
X70320Y169245D01*
X70413Y169269D01*
X70508Y169288D01*
X70604Y169304D01*
X70700Y169316D01*
X70796Y169324D01*
X70893Y169328D01*
X70989Y169328D01*
X71086Y169324D01*
X71182Y169316D01*
X71278Y169304D01*
X71374Y169288D01*
X71469Y169269D01*
X71562Y169245D01*
X71655Y169218D01*
X71747Y169187D01*
X71837Y169152D01*
X71926Y169114D01*
X72013Y169072D01*
X72098Y169026D01*
X72182Y168977D01*
X72263Y168925D01*
X72342Y168869D01*
X72419Y168811D01*
X72494Y168749D01*
X72565Y168684D01*
X72635Y168616D01*
X72701Y168546D01*
X72764Y168473D01*
X72824Y168397D01*
X72882Y168319D01*
X72936Y168239D01*
X72986Y168156D01*
X73033Y168072D01*
X73077Y167986D01*
X73117Y167898D01*
X73154Y167808D01*
X73187Y167717D01*
X73216Y167625D01*
X73241Y167532D01*
X73263Y167437D01*
X73280Y167342D01*
X73294Y167246D01*
X73304Y167150D01*
X73310Y167054D01*
X73312Y166957D01*
X73312Y164587D01*
X73310Y164490D01*
X73304Y164394D01*
X73294Y164298D01*
X73280Y164202D01*
X73263Y164107D01*
X73241Y164012D01*
X73216Y163919D01*
X73187Y163827D01*
X73154Y163736D01*
X73117Y163646D01*
X73077Y163558D01*
X73033Y163472D01*
X72986Y163388D01*
X72936Y163305D01*
X72882Y163225D01*
X72824Y163147D01*
X72764Y163071D01*
X72701Y162998D01*
X72635Y162928D01*
X72565Y162860D01*
X72494Y162795D01*
X72419Y162733D01*
X72342Y162675D01*
X72263Y162619D01*
X72182Y162567D01*
X72098Y162518D01*
X72013Y162472D01*
X71926Y162430D01*
X71837Y162392D01*
X71747Y162357D01*
X71655Y162326D01*
X71562Y162299D01*
X71469Y162275D01*
X71374Y162256D01*
X71278Y162240D01*
X71182Y162228D01*
X71086Y162220D01*
X70989Y162216D01*
X70893Y162216D01*
X70796Y162220D01*
X70700Y162228D01*
X70604Y162240D01*
X70508Y162256D01*
X70413Y162275D01*
X70320Y162299D01*
X70227Y162326D01*
X70135Y162357D01*
X70045Y162392D01*
X69956Y162430D01*
X69869Y162472D01*
X69784Y162518D01*
X69700Y162567D01*
X69619Y162619D01*
X69540Y162675D01*
X69463Y162733D01*
X69388Y162795D01*
X69317Y162860D01*
X69247Y162928D01*
X69181Y162998D01*
X69118Y163071D01*
X69058Y163147D01*
X69000Y163225D01*
X68946Y163305D01*
X68896Y163388D01*
X68849Y163472D01*
X68805Y163558D01*
X68765Y163646D01*
X68728Y163736D01*
X68695Y163827D01*
X68666Y163919D01*
X68641Y164012D01*
X68619Y164107D01*
X68602Y164202D01*
X68588Y164298D01*
X68578Y164394D01*
X68572Y164490D01*
X68570Y164587D01*
X78858Y162216D02*
X78858Y169328D01*
X81821Y169328D01*
X81903Y169326D01*
X81985Y169320D01*
X82067Y169311D01*
X82148Y169298D01*
X82228Y169281D01*
X82308Y169260D01*
X82386Y169236D01*
X82463Y169208D01*
X82539Y169177D01*
X82614Y169142D01*
X82686Y169103D01*
X82757Y169062D01*
X82826Y169017D01*
X82892Y168969D01*
X82957Y168918D01*
X83019Y168864D01*
X83078Y168807D01*
X83135Y168748D01*
X83189Y168686D01*
X83240Y168621D01*
X83288Y168555D01*
X83333Y168486D01*
X83374Y168415D01*
X83413Y168343D01*
X83448Y168268D01*
X83479Y168192D01*
X83507Y168115D01*
X83531Y168037D01*
X83552Y167957D01*
X83569Y167877D01*
X83582Y167796D01*
X83591Y167714D01*
X83597Y167632D01*
X83599Y167550D01*
X83599Y162216D01*
X-4243Y147315D02*
X-6910Y147315D01*
X-6910Y147314D02*
X-6999Y147312D01*
X-7088Y147306D01*
X-7177Y147297D01*
X-7265Y147283D01*
X-7353Y147266D01*
X-7440Y147245D01*
X-7525Y147221D01*
X-7610Y147192D01*
X-7693Y147160D01*
X-7775Y147125D01*
X-7856Y147086D01*
X-7934Y147044D01*
X-8011Y146998D01*
X-8085Y146949D01*
X-8158Y146897D01*
X-8228Y146841D01*
X-8296Y146783D01*
X-8361Y146722D01*
X-8423Y146658D01*
X-8483Y146592D01*
X-8539Y146523D01*
X-8593Y146452D01*
X-8644Y146378D01*
X-8691Y146303D01*
X-8735Y146225D01*
X-8776Y146146D01*
X-8813Y146065D01*
X-8847Y145982D01*
X-8877Y145898D01*
X-8903Y145813D01*
X-8926Y145726D01*
X-8945Y145639D01*
X-8961Y145551D01*
X-8972Y145463D01*
X-8980Y145374D01*
X-8984Y145285D01*
X-8984Y145195D01*
X-8980Y145106D01*
X-8972Y145017D01*
X-8961Y144929D01*
X-8945Y144841D01*
X-8926Y144754D01*
X-8903Y144667D01*
X-8877Y144582D01*
X-8847Y144498D01*
X-8813Y144415D01*
X-8776Y144334D01*
X-8735Y144255D01*
X-8691Y144177D01*
X-8644Y144102D01*
X-8593Y144028D01*
X-8539Y143957D01*
X-8483Y143888D01*
X-8423Y143822D01*
X-8361Y143758D01*
X-8296Y143697D01*
X-8228Y143639D01*
X-8158Y143583D01*
X-8085Y143531D01*
X-8011Y143482D01*
X-7934Y143436D01*
X-7856Y143394D01*
X-7775Y143355D01*
X-7693Y143320D01*
X-7610Y143288D01*
X-7525Y143259D01*
X-7440Y143235D01*
X-7353Y143214D01*
X-7265Y143197D01*
X-7177Y143183D01*
X-7088Y143174D01*
X-6999Y143168D01*
X-6910Y143166D01*
X-4243Y143166D01*
X-4243Y148500D01*
X-4245Y148582D01*
X-4251Y148664D01*
X-4260Y148746D01*
X-4273Y148827D01*
X-4290Y148907D01*
X-4311Y148987D01*
X-4335Y149065D01*
X-4363Y149142D01*
X-4394Y149218D01*
X-4429Y149293D01*
X-4468Y149365D01*
X-4509Y149436D01*
X-4554Y149505D01*
X-4602Y149571D01*
X-4653Y149636D01*
X-4707Y149698D01*
X-4764Y149757D01*
X-4823Y149814D01*
X-4885Y149868D01*
X-4950Y149919D01*
X-5016Y149967D01*
X-5085Y150012D01*
X-5156Y150053D01*
X-5228Y150092D01*
X-5303Y150127D01*
X-5379Y150158D01*
X-5456Y150186D01*
X-5534Y150210D01*
X-5614Y150231D01*
X-5694Y150248D01*
X-5775Y150261D01*
X-5857Y150270D01*
X-5939Y150276D01*
X-6021Y150278D01*
X-8391Y150278D01*
X6044Y153834D02*
X6044Y143166D01*
X3081Y143166D01*
X2999Y143168D01*
X2917Y143174D01*
X2835Y143183D01*
X2754Y143196D01*
X2674Y143213D01*
X2594Y143234D01*
X2516Y143258D01*
X2439Y143286D01*
X2363Y143317D01*
X2288Y143352D01*
X2216Y143391D01*
X2145Y143432D01*
X2076Y143477D01*
X2010Y143525D01*
X1945Y143576D01*
X1883Y143630D01*
X1824Y143687D01*
X1767Y143746D01*
X1713Y143808D01*
X1662Y143873D01*
X1614Y143939D01*
X1569Y144008D01*
X1528Y144079D01*
X1489Y144151D01*
X1454Y144226D01*
X1423Y144302D01*
X1395Y144379D01*
X1371Y144457D01*
X1350Y144537D01*
X1333Y144617D01*
X1320Y144698D01*
X1311Y144780D01*
X1305Y144862D01*
X1303Y144944D01*
X1303Y148500D01*
X1305Y148582D01*
X1311Y148664D01*
X1320Y148746D01*
X1333Y148827D01*
X1350Y148907D01*
X1371Y148987D01*
X1395Y149065D01*
X1423Y149142D01*
X1454Y149218D01*
X1489Y149293D01*
X1528Y149365D01*
X1569Y149436D01*
X1614Y149505D01*
X1662Y149571D01*
X1713Y149636D01*
X1767Y149698D01*
X1824Y149757D01*
X1883Y149814D01*
X1945Y149868D01*
X2010Y149919D01*
X2076Y149967D01*
X2145Y150012D01*
X2216Y150053D01*
X2288Y150092D01*
X2363Y150127D01*
X2439Y150158D01*
X2516Y150186D01*
X2594Y150210D01*
X2674Y150231D01*
X2754Y150248D01*
X2835Y150261D01*
X2917Y150270D01*
X2999Y150276D01*
X3081Y150278D01*
X6044Y150278D01*
X13664Y147315D02*
X16331Y147315D01*
X13664Y147314D02*
X13575Y147312D01*
X13486Y147306D01*
X13397Y147297D01*
X13309Y147283D01*
X13221Y147266D01*
X13134Y147245D01*
X13049Y147221D01*
X12964Y147192D01*
X12881Y147160D01*
X12799Y147125D01*
X12718Y147086D01*
X12640Y147044D01*
X12563Y146998D01*
X12489Y146949D01*
X12416Y146897D01*
X12346Y146841D01*
X12278Y146783D01*
X12213Y146722D01*
X12151Y146658D01*
X12091Y146592D01*
X12035Y146523D01*
X11981Y146452D01*
X11930Y146378D01*
X11883Y146303D01*
X11839Y146225D01*
X11798Y146146D01*
X11761Y146065D01*
X11727Y145982D01*
X11697Y145898D01*
X11671Y145813D01*
X11648Y145726D01*
X11629Y145639D01*
X11613Y145551D01*
X11602Y145463D01*
X11594Y145374D01*
X11590Y145285D01*
X11590Y145195D01*
X11594Y145106D01*
X11602Y145017D01*
X11613Y144929D01*
X11629Y144841D01*
X11648Y144754D01*
X11671Y144667D01*
X11697Y144582D01*
X11727Y144498D01*
X11761Y144415D01*
X11798Y144334D01*
X11839Y144255D01*
X11883Y144177D01*
X11930Y144102D01*
X11981Y144028D01*
X12035Y143957D01*
X12091Y143888D01*
X12151Y143822D01*
X12213Y143758D01*
X12278Y143697D01*
X12346Y143639D01*
X12416Y143583D01*
X12489Y143531D01*
X12563Y143482D01*
X12640Y143436D01*
X12718Y143394D01*
X12799Y143355D01*
X12881Y143320D01*
X12964Y143288D01*
X13049Y143259D01*
X13134Y143235D01*
X13221Y143214D01*
X13309Y143197D01*
X13397Y143183D01*
X13486Y143174D01*
X13575Y143168D01*
X13664Y143166D01*
X16331Y143166D01*
X16331Y148500D01*
X16329Y148582D01*
X16323Y148664D01*
X16314Y148746D01*
X16301Y148827D01*
X16284Y148907D01*
X16263Y148987D01*
X16239Y149065D01*
X16211Y149142D01*
X16180Y149218D01*
X16145Y149293D01*
X16106Y149365D01*
X16065Y149436D01*
X16020Y149505D01*
X15972Y149571D01*
X15921Y149636D01*
X15867Y149698D01*
X15810Y149757D01*
X15751Y149814D01*
X15689Y149868D01*
X15624Y149919D01*
X15558Y149967D01*
X15489Y150012D01*
X15418Y150053D01*
X15346Y150092D01*
X15271Y150127D01*
X15195Y150158D01*
X15118Y150186D01*
X15040Y150210D01*
X14960Y150231D01*
X14880Y150248D01*
X14799Y150261D01*
X14717Y150270D01*
X14635Y150276D01*
X14553Y150278D01*
X12183Y150278D01*
X22435Y150278D02*
X22435Y139610D01*
X22435Y150278D02*
X25398Y150278D01*
X25480Y150276D01*
X25562Y150270D01*
X25644Y150261D01*
X25725Y150248D01*
X25805Y150231D01*
X25885Y150210D01*
X25963Y150186D01*
X26040Y150158D01*
X26116Y150127D01*
X26191Y150092D01*
X26263Y150053D01*
X26334Y150012D01*
X26403Y149967D01*
X26469Y149919D01*
X26534Y149868D01*
X26596Y149814D01*
X26655Y149757D01*
X26712Y149698D01*
X26766Y149636D01*
X26817Y149571D01*
X26865Y149505D01*
X26910Y149436D01*
X26951Y149365D01*
X26990Y149293D01*
X27025Y149218D01*
X27056Y149142D01*
X27084Y149065D01*
X27108Y148987D01*
X27129Y148907D01*
X27146Y148827D01*
X27159Y148746D01*
X27168Y148664D01*
X27174Y148582D01*
X27176Y148500D01*
X27176Y144944D01*
X27174Y144862D01*
X27168Y144780D01*
X27159Y144698D01*
X27146Y144617D01*
X27129Y144537D01*
X27108Y144457D01*
X27084Y144379D01*
X27056Y144302D01*
X27025Y144226D01*
X26990Y144151D01*
X26951Y144079D01*
X26910Y144008D01*
X26865Y143939D01*
X26817Y143873D01*
X26766Y143808D01*
X26712Y143746D01*
X26655Y143687D01*
X26596Y143630D01*
X26534Y143576D01*
X26469Y143525D01*
X26403Y143477D01*
X26334Y143432D01*
X26263Y143391D01*
X26191Y143352D01*
X26116Y143317D01*
X26040Y143286D01*
X25963Y143258D01*
X25885Y143234D01*
X25805Y143213D01*
X25725Y143196D01*
X25644Y143183D01*
X25562Y143174D01*
X25480Y143168D01*
X25398Y143166D01*
X22435Y143166D01*
X31182Y150278D02*
X34738Y150278D01*
X32368Y153834D02*
X32368Y144944D01*
X32370Y144862D01*
X32376Y144780D01*
X32385Y144698D01*
X32398Y144617D01*
X32415Y144537D01*
X32436Y144457D01*
X32460Y144379D01*
X32488Y144302D01*
X32519Y144226D01*
X32554Y144151D01*
X32593Y144079D01*
X32634Y144008D01*
X32679Y143939D01*
X32727Y143873D01*
X32778Y143808D01*
X32832Y143746D01*
X32889Y143687D01*
X32948Y143630D01*
X33010Y143576D01*
X33075Y143525D01*
X33141Y143477D01*
X33210Y143432D01*
X33281Y143391D01*
X33353Y143352D01*
X33428Y143317D01*
X33504Y143286D01*
X33581Y143258D01*
X33659Y143234D01*
X33739Y143213D01*
X33819Y143196D01*
X33900Y143183D01*
X33982Y143174D01*
X34064Y143168D01*
X34146Y143166D01*
X34738Y143166D01*
X41269Y143166D02*
X44233Y143166D01*
X41269Y143166D02*
X41187Y143168D01*
X41105Y143174D01*
X41023Y143183D01*
X40942Y143196D01*
X40862Y143213D01*
X40782Y143234D01*
X40704Y143258D01*
X40627Y143286D01*
X40551Y143317D01*
X40476Y143352D01*
X40404Y143391D01*
X40333Y143432D01*
X40264Y143477D01*
X40198Y143525D01*
X40133Y143576D01*
X40071Y143630D01*
X40012Y143687D01*
X39955Y143746D01*
X39901Y143808D01*
X39850Y143873D01*
X39802Y143939D01*
X39757Y144008D01*
X39716Y144079D01*
X39677Y144151D01*
X39642Y144226D01*
X39611Y144302D01*
X39583Y144379D01*
X39559Y144457D01*
X39538Y144537D01*
X39521Y144617D01*
X39508Y144698D01*
X39499Y144780D01*
X39493Y144862D01*
X39491Y144944D01*
X39491Y147907D01*
X39493Y148004D01*
X39499Y148100D01*
X39509Y148196D01*
X39523Y148292D01*
X39540Y148387D01*
X39562Y148482D01*
X39587Y148575D01*
X39616Y148667D01*
X39649Y148758D01*
X39686Y148848D01*
X39726Y148936D01*
X39770Y149022D01*
X39817Y149106D01*
X39867Y149189D01*
X39921Y149269D01*
X39979Y149347D01*
X40039Y149423D01*
X40102Y149496D01*
X40168Y149566D01*
X40238Y149634D01*
X40309Y149699D01*
X40384Y149761D01*
X40461Y149819D01*
X40540Y149875D01*
X40621Y149927D01*
X40705Y149976D01*
X40790Y150022D01*
X40877Y150064D01*
X40966Y150102D01*
X41056Y150137D01*
X41148Y150168D01*
X41241Y150195D01*
X41334Y150219D01*
X41429Y150238D01*
X41525Y150254D01*
X41621Y150266D01*
X41717Y150274D01*
X41814Y150278D01*
X41910Y150278D01*
X42007Y150274D01*
X42103Y150266D01*
X42199Y150254D01*
X42295Y150238D01*
X42390Y150219D01*
X42483Y150195D01*
X42576Y150168D01*
X42668Y150137D01*
X42758Y150102D01*
X42847Y150064D01*
X42934Y150022D01*
X43019Y149976D01*
X43103Y149927D01*
X43184Y149875D01*
X43263Y149819D01*
X43340Y149761D01*
X43415Y149699D01*
X43486Y149634D01*
X43556Y149566D01*
X43622Y149496D01*
X43685Y149423D01*
X43745Y149347D01*
X43803Y149269D01*
X43857Y149189D01*
X43907Y149106D01*
X43954Y149022D01*
X43998Y148936D01*
X44038Y148848D01*
X44075Y148758D01*
X44108Y148667D01*
X44137Y148575D01*
X44162Y148482D01*
X44184Y148387D01*
X44201Y148292D01*
X44215Y148196D01*
X44225Y148100D01*
X44231Y148004D01*
X44233Y147907D01*
X44233Y146722D01*
X39491Y146722D01*
X54050Y143166D02*
X54050Y153834D01*
X54050Y143166D02*
X51087Y143166D01*
X51005Y143168D01*
X50923Y143174D01*
X50841Y143183D01*
X50760Y143196D01*
X50680Y143213D01*
X50600Y143234D01*
X50522Y143258D01*
X50445Y143286D01*
X50369Y143317D01*
X50294Y143352D01*
X50222Y143391D01*
X50151Y143432D01*
X50082Y143477D01*
X50016Y143525D01*
X49951Y143576D01*
X49889Y143630D01*
X49830Y143687D01*
X49773Y143746D01*
X49719Y143808D01*
X49668Y143873D01*
X49620Y143939D01*
X49575Y144008D01*
X49534Y144079D01*
X49495Y144151D01*
X49460Y144226D01*
X49429Y144302D01*
X49401Y144379D01*
X49377Y144457D01*
X49356Y144537D01*
X49339Y144617D01*
X49326Y144698D01*
X49317Y144780D01*
X49311Y144862D01*
X49309Y144944D01*
X49309Y148500D01*
X49311Y148582D01*
X49317Y148664D01*
X49326Y148746D01*
X49339Y148827D01*
X49356Y148907D01*
X49377Y148987D01*
X49401Y149065D01*
X49429Y149142D01*
X49460Y149218D01*
X49495Y149293D01*
X49534Y149365D01*
X49575Y149436D01*
X49620Y149505D01*
X49668Y149571D01*
X49719Y149636D01*
X49773Y149698D01*
X49830Y149757D01*
X49889Y149814D01*
X49951Y149868D01*
X50016Y149919D01*
X50082Y149967D01*
X50151Y150012D01*
X50222Y150053D01*
X50294Y150092D01*
X50369Y150127D01*
X50445Y150158D01*
X50522Y150186D01*
X50600Y150210D01*
X50680Y150231D01*
X50760Y150248D01*
X50841Y150261D01*
X50923Y150270D01*
X51005Y150276D01*
X51087Y150278D01*
X54050Y150278D01*
X-8688Y131228D02*
X-8688Y124116D01*
X-8984Y134191D02*
X-8984Y134784D01*
X-8391Y134784D01*
X-8391Y134191D01*
X-8984Y134191D01*
X-3438Y131228D02*
X-3438Y124116D01*
X-3438Y131228D02*
X-475Y131228D01*
X-393Y131226D01*
X-311Y131220D01*
X-229Y131211D01*
X-148Y131198D01*
X-68Y131181D01*
X12Y131160D01*
X90Y131136D01*
X167Y131108D01*
X243Y131077D01*
X318Y131042D01*
X390Y131003D01*
X461Y130962D01*
X530Y130917D01*
X596Y130869D01*
X661Y130818D01*
X723Y130764D01*
X782Y130707D01*
X839Y130648D01*
X893Y130586D01*
X944Y130521D01*
X992Y130455D01*
X1037Y130386D01*
X1078Y130315D01*
X1117Y130243D01*
X1152Y130168D01*
X1183Y130092D01*
X1211Y130015D01*
X1235Y129937D01*
X1256Y129857D01*
X1273Y129777D01*
X1286Y129696D01*
X1295Y129614D01*
X1301Y129532D01*
X1303Y129450D01*
X1303Y124116D01*
X34662Y134784D02*
X34764Y134782D01*
X34866Y134776D01*
X34968Y134766D01*
X35069Y134753D01*
X35170Y134735D01*
X35270Y134714D01*
X35369Y134689D01*
X35467Y134660D01*
X35563Y134627D01*
X35659Y134591D01*
X35753Y134551D01*
X35845Y134507D01*
X35936Y134460D01*
X36025Y134409D01*
X36112Y134356D01*
X36196Y134298D01*
X36279Y134238D01*
X36359Y134175D01*
X36436Y134108D01*
X36511Y134039D01*
X36584Y133966D01*
X36653Y133891D01*
X36720Y133814D01*
X36783Y133734D01*
X36843Y133651D01*
X36901Y133567D01*
X36954Y133480D01*
X37005Y133391D01*
X37052Y133300D01*
X37096Y133208D01*
X37136Y133114D01*
X37172Y133018D01*
X37205Y132922D01*
X37234Y132824D01*
X37259Y132725D01*
X37280Y132625D01*
X37298Y132524D01*
X37311Y132423D01*
X37321Y132321D01*
X37327Y132219D01*
X37329Y132117D01*
X34662Y134784D02*
X34546Y134782D01*
X34429Y134776D01*
X34313Y134766D01*
X34198Y134752D01*
X34083Y134735D01*
X33968Y134713D01*
X33855Y134687D01*
X33742Y134658D01*
X33630Y134625D01*
X33520Y134588D01*
X33411Y134547D01*
X33303Y134503D01*
X33197Y134455D01*
X33093Y134403D01*
X32990Y134348D01*
X32889Y134290D01*
X32791Y134228D01*
X32694Y134163D01*
X32600Y134094D01*
X32508Y134022D01*
X32419Y133948D01*
X32332Y133870D01*
X32248Y133789D01*
X32167Y133706D01*
X32089Y133620D01*
X32013Y133531D01*
X31941Y133440D01*
X31872Y133346D01*
X31806Y133250D01*
X31743Y133152D01*
X31684Y133052D01*
X31628Y132950D01*
X31576Y132846D01*
X31527Y132740D01*
X31482Y132633D01*
X31440Y132524D01*
X31403Y132414D01*
X36440Y130042D02*
X36515Y130116D01*
X36587Y130193D01*
X36656Y130273D01*
X36723Y130355D01*
X36786Y130439D01*
X36846Y130526D01*
X36903Y130614D01*
X36957Y130705D01*
X37007Y130798D01*
X37054Y130892D01*
X37097Y130988D01*
X37137Y131086D01*
X37173Y131185D01*
X37206Y131285D01*
X37234Y131387D01*
X37259Y131489D01*
X37281Y131593D01*
X37298Y131697D01*
X37312Y131801D01*
X37321Y131906D01*
X37327Y132012D01*
X37329Y132117D01*
X36440Y130043D02*
X31402Y124116D01*
X37329Y124116D01*
X42832Y129450D02*
X42835Y129660D01*
X42842Y129870D01*
X42855Y130079D01*
X42872Y130288D01*
X42895Y130497D01*
X42922Y130705D01*
X42954Y130912D01*
X42992Y131119D01*
X43034Y131324D01*
X43081Y131529D01*
X43133Y131732D01*
X43190Y131934D01*
X43252Y132135D01*
X43318Y132334D01*
X43390Y132531D01*
X43466Y132727D01*
X43546Y132921D01*
X43631Y133113D01*
X43721Y133302D01*
X43752Y133387D01*
X43786Y133471D01*
X43824Y133553D01*
X43866Y133634D01*
X43911Y133713D01*
X43959Y133790D01*
X44010Y133865D01*
X44064Y133937D01*
X44121Y134008D01*
X44181Y134076D01*
X44244Y134141D01*
X44309Y134204D01*
X44377Y134264D01*
X44448Y134321D01*
X44520Y134375D01*
X44595Y134427D01*
X44672Y134475D01*
X44751Y134520D01*
X44832Y134561D01*
X44914Y134599D01*
X44998Y134634D01*
X45083Y134665D01*
X45169Y134693D01*
X45256Y134717D01*
X45345Y134737D01*
X45434Y134754D01*
X45524Y134767D01*
X45614Y134777D01*
X45704Y134782D01*
X45795Y134784D01*
X45886Y134782D01*
X45976Y134777D01*
X46066Y134767D01*
X46156Y134754D01*
X46245Y134737D01*
X46334Y134717D01*
X46421Y134693D01*
X46507Y134665D01*
X46592Y134634D01*
X46676Y134599D01*
X46758Y134561D01*
X46839Y134520D01*
X46918Y134475D01*
X46995Y134427D01*
X47070Y134376D01*
X47142Y134321D01*
X47213Y134264D01*
X47281Y134204D01*
X47346Y134141D01*
X47409Y134076D01*
X47469Y134008D01*
X47526Y133937D01*
X47580Y133865D01*
X47631Y133790D01*
X47679Y133713D01*
X47724Y133634D01*
X47766Y133553D01*
X47804Y133471D01*
X47838Y133387D01*
X47869Y133302D01*
X47959Y133113D01*
X48044Y132921D01*
X48124Y132727D01*
X48200Y132531D01*
X48272Y132334D01*
X48338Y132135D01*
X48400Y131934D01*
X48457Y131732D01*
X48509Y131529D01*
X48556Y131324D01*
X48598Y131119D01*
X48636Y130912D01*
X48668Y130705D01*
X48695Y130497D01*
X48718Y130288D01*
X48735Y130079D01*
X48748Y129870D01*
X48755Y129660D01*
X48758Y129450D01*
X42832Y129450D02*
X42835Y129240D01*
X42842Y129030D01*
X42855Y128821D01*
X42872Y128612D01*
X42895Y128403D01*
X42922Y128195D01*
X42954Y127988D01*
X42992Y127781D01*
X43034Y127576D01*
X43081Y127371D01*
X43133Y127168D01*
X43190Y126966D01*
X43252Y126765D01*
X43318Y126566D01*
X43390Y126369D01*
X43466Y126173D01*
X43546Y125979D01*
X43631Y125788D01*
X43721Y125598D01*
X43752Y125513D01*
X43786Y125429D01*
X43824Y125347D01*
X43866Y125266D01*
X43911Y125187D01*
X43959Y125110D01*
X44010Y125035D01*
X44064Y124963D01*
X44121Y124892D01*
X44181Y124824D01*
X44244Y124759D01*
X44309Y124696D01*
X44377Y124636D01*
X44448Y124579D01*
X44520Y124524D01*
X44595Y124473D01*
X44672Y124425D01*
X44751Y124380D01*
X44832Y124339D01*
X44914Y124301D01*
X44998Y124266D01*
X45083Y124235D01*
X45169Y124207D01*
X45256Y124183D01*
X45345Y124163D01*
X45434Y124146D01*
X45524Y124133D01*
X45614Y124123D01*
X45704Y124118D01*
X45795Y124116D01*
X47869Y125598D02*
X47959Y125788D01*
X48044Y125979D01*
X48124Y126173D01*
X48200Y126369D01*
X48272Y126566D01*
X48338Y126765D01*
X48400Y126966D01*
X48457Y127168D01*
X48509Y127371D01*
X48556Y127576D01*
X48598Y127781D01*
X48636Y127988D01*
X48668Y128195D01*
X48695Y128403D01*
X48718Y128612D01*
X48735Y128821D01*
X48748Y129030D01*
X48755Y129240D01*
X48758Y129450D01*
X47869Y125598D02*
X47838Y125513D01*
X47804Y125429D01*
X47766Y125347D01*
X47724Y125266D01*
X47679Y125187D01*
X47631Y125110D01*
X47580Y125035D01*
X47526Y124963D01*
X47469Y124892D01*
X47409Y124824D01*
X47346Y124759D01*
X47281Y124696D01*
X47213Y124636D01*
X47142Y124579D01*
X47070Y124524D01*
X46995Y124473D01*
X46918Y124425D01*
X46839Y124380D01*
X46758Y124339D01*
X46676Y124301D01*
X46592Y124266D01*
X46507Y124235D01*
X46421Y124207D01*
X46334Y124183D01*
X46245Y124163D01*
X46156Y124146D01*
X46066Y124133D01*
X45976Y124123D01*
X45886Y124118D01*
X45795Y124116D01*
X43425Y126487D02*
X48166Y132413D01*
X57522Y134784D02*
X57624Y134782D01*
X57726Y134776D01*
X57828Y134766D01*
X57929Y134753D01*
X58030Y134735D01*
X58130Y134714D01*
X58229Y134689D01*
X58327Y134660D01*
X58423Y134627D01*
X58519Y134591D01*
X58613Y134551D01*
X58705Y134507D01*
X58796Y134460D01*
X58885Y134409D01*
X58972Y134356D01*
X59056Y134298D01*
X59139Y134238D01*
X59219Y134175D01*
X59296Y134108D01*
X59371Y134039D01*
X59444Y133966D01*
X59513Y133891D01*
X59580Y133814D01*
X59643Y133734D01*
X59703Y133651D01*
X59761Y133567D01*
X59814Y133480D01*
X59865Y133391D01*
X59912Y133300D01*
X59956Y133208D01*
X59996Y133114D01*
X60032Y133018D01*
X60065Y132922D01*
X60094Y132824D01*
X60119Y132725D01*
X60140Y132625D01*
X60158Y132524D01*
X60171Y132423D01*
X60181Y132321D01*
X60187Y132219D01*
X60189Y132117D01*
X57522Y134784D02*
X57406Y134782D01*
X57289Y134776D01*
X57173Y134766D01*
X57058Y134752D01*
X56943Y134735D01*
X56828Y134713D01*
X56715Y134687D01*
X56602Y134658D01*
X56490Y134625D01*
X56380Y134588D01*
X56271Y134547D01*
X56163Y134503D01*
X56057Y134455D01*
X55953Y134403D01*
X55850Y134348D01*
X55749Y134290D01*
X55651Y134228D01*
X55554Y134163D01*
X55460Y134094D01*
X55368Y134022D01*
X55279Y133948D01*
X55192Y133870D01*
X55108Y133789D01*
X55027Y133706D01*
X54949Y133620D01*
X54873Y133531D01*
X54801Y133440D01*
X54732Y133346D01*
X54666Y133250D01*
X54603Y133152D01*
X54544Y133052D01*
X54488Y132950D01*
X54436Y132846D01*
X54387Y132740D01*
X54342Y132633D01*
X54300Y132524D01*
X54263Y132414D01*
X59300Y130042D02*
X59375Y130116D01*
X59447Y130193D01*
X59516Y130273D01*
X59583Y130355D01*
X59646Y130439D01*
X59706Y130526D01*
X59763Y130614D01*
X59817Y130705D01*
X59867Y130798D01*
X59914Y130892D01*
X59957Y130988D01*
X59997Y131086D01*
X60033Y131185D01*
X60066Y131285D01*
X60094Y131387D01*
X60119Y131489D01*
X60141Y131593D01*
X60158Y131697D01*
X60172Y131801D01*
X60181Y131906D01*
X60187Y132012D01*
X60189Y132117D01*
X59300Y130043D02*
X54262Y124116D01*
X60189Y124116D01*
X68952Y134784D02*
X69054Y134782D01*
X69156Y134776D01*
X69258Y134766D01*
X69359Y134753D01*
X69460Y134735D01*
X69560Y134714D01*
X69659Y134689D01*
X69757Y134660D01*
X69853Y134627D01*
X69949Y134591D01*
X70043Y134551D01*
X70135Y134507D01*
X70226Y134460D01*
X70315Y134409D01*
X70402Y134356D01*
X70486Y134298D01*
X70569Y134238D01*
X70649Y134175D01*
X70726Y134108D01*
X70801Y134039D01*
X70874Y133966D01*
X70943Y133891D01*
X71010Y133814D01*
X71073Y133734D01*
X71133Y133651D01*
X71191Y133567D01*
X71244Y133480D01*
X71295Y133391D01*
X71342Y133300D01*
X71386Y133208D01*
X71426Y133114D01*
X71462Y133018D01*
X71495Y132922D01*
X71524Y132824D01*
X71549Y132725D01*
X71570Y132625D01*
X71588Y132524D01*
X71601Y132423D01*
X71611Y132321D01*
X71617Y132219D01*
X71619Y132117D01*
X68952Y134784D02*
X68836Y134782D01*
X68719Y134776D01*
X68603Y134766D01*
X68488Y134752D01*
X68373Y134735D01*
X68258Y134713D01*
X68145Y134687D01*
X68032Y134658D01*
X67920Y134625D01*
X67810Y134588D01*
X67701Y134547D01*
X67593Y134503D01*
X67487Y134455D01*
X67383Y134403D01*
X67280Y134348D01*
X67179Y134290D01*
X67081Y134228D01*
X66984Y134163D01*
X66890Y134094D01*
X66798Y134022D01*
X66709Y133948D01*
X66622Y133870D01*
X66538Y133789D01*
X66457Y133706D01*
X66379Y133620D01*
X66303Y133531D01*
X66231Y133440D01*
X66162Y133346D01*
X66096Y133250D01*
X66033Y133152D01*
X65974Y133052D01*
X65918Y132950D01*
X65866Y132846D01*
X65817Y132740D01*
X65772Y132633D01*
X65730Y132524D01*
X65693Y132414D01*
X70730Y130042D02*
X70805Y130116D01*
X70877Y130193D01*
X70946Y130273D01*
X71013Y130355D01*
X71076Y130439D01*
X71136Y130526D01*
X71193Y130614D01*
X71247Y130705D01*
X71297Y130798D01*
X71344Y130892D01*
X71387Y130988D01*
X71427Y131086D01*
X71463Y131185D01*
X71496Y131285D01*
X71524Y131387D01*
X71549Y131489D01*
X71571Y131593D01*
X71588Y131697D01*
X71602Y131801D01*
X71611Y131906D01*
X71617Y132012D01*
X71619Y132117D01*
X70730Y130043D02*
X65692Y124116D01*
X71619Y124116D01*
X83518Y124116D02*
X83518Y134784D01*
X83518Y124116D02*
X86481Y124116D01*
X86563Y124118D01*
X86645Y124124D01*
X86727Y124133D01*
X86808Y124146D01*
X86888Y124163D01*
X86968Y124184D01*
X87046Y124208D01*
X87123Y124236D01*
X87199Y124267D01*
X87274Y124302D01*
X87346Y124341D01*
X87417Y124382D01*
X87486Y124427D01*
X87552Y124475D01*
X87617Y124526D01*
X87679Y124580D01*
X87738Y124637D01*
X87795Y124696D01*
X87849Y124758D01*
X87900Y124823D01*
X87948Y124889D01*
X87993Y124958D01*
X88034Y125029D01*
X88073Y125101D01*
X88108Y125176D01*
X88139Y125252D01*
X88167Y125329D01*
X88191Y125407D01*
X88212Y125487D01*
X88229Y125567D01*
X88242Y125648D01*
X88251Y125730D01*
X88257Y125812D01*
X88259Y125894D01*
X88259Y129450D01*
X88257Y129532D01*
X88251Y129614D01*
X88242Y129696D01*
X88229Y129777D01*
X88212Y129857D01*
X88191Y129937D01*
X88167Y130015D01*
X88139Y130092D01*
X88108Y130168D01*
X88073Y130243D01*
X88034Y130315D01*
X87993Y130386D01*
X87948Y130455D01*
X87900Y130521D01*
X87849Y130586D01*
X87795Y130648D01*
X87738Y130707D01*
X87679Y130764D01*
X87617Y130818D01*
X87552Y130869D01*
X87486Y130917D01*
X87417Y130962D01*
X87346Y131003D01*
X87274Y131042D01*
X87199Y131077D01*
X87123Y131108D01*
X87046Y131136D01*
X86968Y131160D01*
X86888Y131181D01*
X86808Y131198D01*
X86727Y131211D01*
X86645Y131220D01*
X86563Y131226D01*
X86481Y131228D01*
X83518Y131228D01*
X92955Y120560D02*
X94140Y120560D01*
X97696Y131228D01*
X92955Y131228D02*
X95325Y124116D01*
X-5428Y115734D02*
X-5428Y107437D01*
X-5430Y107342D01*
X-5436Y107246D01*
X-5445Y107151D01*
X-5459Y107057D01*
X-5476Y106963D01*
X-5497Y106870D01*
X-5522Y106777D01*
X-5550Y106686D01*
X-5582Y106596D01*
X-5618Y106508D01*
X-5657Y106421D01*
X-5700Y106335D01*
X-5746Y106251D01*
X-5795Y106170D01*
X-5848Y106090D01*
X-5904Y106013D01*
X-5962Y105937D01*
X-6024Y105865D01*
X-6089Y105795D01*
X-6157Y105727D01*
X-6227Y105662D01*
X-6299Y105600D01*
X-6375Y105542D01*
X-6452Y105486D01*
X-6532Y105433D01*
X-6614Y105384D01*
X-6697Y105338D01*
X-6783Y105295D01*
X-6870Y105256D01*
X-6958Y105220D01*
X-7048Y105188D01*
X-7139Y105160D01*
X-7232Y105135D01*
X-7325Y105114D01*
X-7419Y105097D01*
X-7513Y105083D01*
X-7608Y105074D01*
X-7704Y105068D01*
X-7799Y105066D01*
X-8984Y105066D01*
X2203Y109215D02*
X4870Y109215D01*
X2203Y109214D02*
X2114Y109212D01*
X2025Y109206D01*
X1936Y109197D01*
X1848Y109183D01*
X1760Y109166D01*
X1673Y109145D01*
X1588Y109121D01*
X1503Y109092D01*
X1420Y109060D01*
X1338Y109025D01*
X1257Y108986D01*
X1179Y108944D01*
X1102Y108898D01*
X1028Y108849D01*
X955Y108797D01*
X885Y108741D01*
X817Y108683D01*
X752Y108622D01*
X690Y108558D01*
X630Y108492D01*
X574Y108423D01*
X520Y108352D01*
X469Y108278D01*
X422Y108203D01*
X378Y108125D01*
X337Y108046D01*
X300Y107965D01*
X266Y107882D01*
X236Y107798D01*
X210Y107713D01*
X187Y107626D01*
X168Y107539D01*
X152Y107451D01*
X141Y107363D01*
X133Y107274D01*
X129Y107185D01*
X129Y107095D01*
X133Y107006D01*
X141Y106917D01*
X152Y106829D01*
X168Y106741D01*
X187Y106654D01*
X210Y106567D01*
X236Y106482D01*
X266Y106398D01*
X300Y106315D01*
X337Y106234D01*
X378Y106155D01*
X422Y106077D01*
X469Y106002D01*
X520Y105928D01*
X574Y105857D01*
X630Y105788D01*
X690Y105722D01*
X752Y105658D01*
X817Y105597D01*
X885Y105539D01*
X955Y105483D01*
X1028Y105431D01*
X1102Y105382D01*
X1179Y105336D01*
X1257Y105294D01*
X1338Y105255D01*
X1420Y105220D01*
X1503Y105188D01*
X1588Y105159D01*
X1673Y105135D01*
X1760Y105114D01*
X1848Y105097D01*
X1936Y105083D01*
X2025Y105074D01*
X2114Y105068D01*
X2203Y105066D01*
X4870Y105066D01*
X4870Y110400D01*
X4868Y110482D01*
X4862Y110564D01*
X4853Y110646D01*
X4840Y110727D01*
X4823Y110807D01*
X4802Y110887D01*
X4778Y110965D01*
X4750Y111042D01*
X4719Y111118D01*
X4684Y111193D01*
X4645Y111265D01*
X4604Y111336D01*
X4559Y111405D01*
X4511Y111471D01*
X4460Y111536D01*
X4406Y111598D01*
X4349Y111657D01*
X4290Y111714D01*
X4228Y111768D01*
X4163Y111819D01*
X4097Y111867D01*
X4028Y111912D01*
X3957Y111953D01*
X3885Y111992D01*
X3810Y112027D01*
X3734Y112058D01*
X3657Y112086D01*
X3579Y112110D01*
X3499Y112131D01*
X3419Y112148D01*
X3338Y112161D01*
X3256Y112170D01*
X3174Y112176D01*
X3092Y112178D01*
X722Y112178D01*
X10985Y112178D02*
X10985Y105066D01*
X10985Y112178D02*
X14541Y112178D01*
X14541Y110993D01*
X18209Y112178D02*
X18209Y105066D01*
X17913Y115141D02*
X17913Y115734D01*
X18505Y115734D01*
X18505Y115141D01*
X17913Y115141D01*
X31544Y115734D02*
X31544Y105066D01*
X28581Y115734D02*
X34507Y115734D01*
X39460Y112178D02*
X39460Y106844D01*
X39462Y106762D01*
X39468Y106680D01*
X39477Y106598D01*
X39490Y106517D01*
X39507Y106437D01*
X39528Y106357D01*
X39552Y106279D01*
X39580Y106202D01*
X39611Y106126D01*
X39646Y106051D01*
X39685Y105979D01*
X39726Y105908D01*
X39771Y105839D01*
X39819Y105773D01*
X39870Y105708D01*
X39924Y105646D01*
X39981Y105587D01*
X40040Y105530D01*
X40102Y105476D01*
X40167Y105425D01*
X40233Y105377D01*
X40302Y105332D01*
X40373Y105291D01*
X40445Y105252D01*
X40520Y105217D01*
X40596Y105186D01*
X40673Y105158D01*
X40751Y105134D01*
X40831Y105113D01*
X40911Y105096D01*
X40992Y105083D01*
X41074Y105074D01*
X41156Y105068D01*
X41238Y105066D01*
X44201Y105066D01*
X44201Y112178D01*
X49781Y115734D02*
X49781Y106844D01*
X49783Y106762D01*
X49789Y106680D01*
X49798Y106598D01*
X49811Y106517D01*
X49828Y106437D01*
X49849Y106357D01*
X49873Y106279D01*
X49901Y106202D01*
X49932Y106126D01*
X49967Y106051D01*
X50006Y105979D01*
X50047Y105908D01*
X50092Y105839D01*
X50140Y105773D01*
X50191Y105708D01*
X50245Y105646D01*
X50302Y105587D01*
X50361Y105530D01*
X50423Y105476D01*
X50488Y105425D01*
X50554Y105377D01*
X50623Y105332D01*
X50694Y105291D01*
X50766Y105252D01*
X50841Y105217D01*
X50917Y105186D01*
X50994Y105158D01*
X51072Y105134D01*
X51152Y105113D01*
X51232Y105096D01*
X51313Y105083D01*
X51395Y105074D01*
X51477Y105068D01*
X51559Y105066D01*
X55547Y105066D02*
X55547Y112178D01*
X55250Y115141D02*
X55250Y115734D01*
X55843Y115734D01*
X55843Y115141D01*
X55250Y115141D01*
X60449Y115734D02*
X60449Y106844D01*
X60451Y106762D01*
X60457Y106680D01*
X60466Y106598D01*
X60479Y106517D01*
X60496Y106437D01*
X60517Y106357D01*
X60541Y106279D01*
X60569Y106202D01*
X60600Y106126D01*
X60635Y106051D01*
X60674Y105979D01*
X60715Y105908D01*
X60760Y105839D01*
X60808Y105773D01*
X60859Y105708D01*
X60913Y105646D01*
X60970Y105587D01*
X61029Y105530D01*
X61091Y105476D01*
X61156Y105425D01*
X61222Y105377D01*
X61291Y105332D01*
X61362Y105291D01*
X61434Y105252D01*
X61509Y105217D01*
X61585Y105186D01*
X61662Y105158D01*
X61740Y105134D01*
X61820Y105113D01*
X61900Y105096D01*
X61981Y105083D01*
X62063Y105074D01*
X62145Y105068D01*
X62227Y105066D01*
X68497Y109215D02*
X71164Y109215D01*
X68497Y109214D02*
X68408Y109212D01*
X68319Y109206D01*
X68230Y109197D01*
X68142Y109183D01*
X68054Y109166D01*
X67967Y109145D01*
X67882Y109121D01*
X67797Y109092D01*
X67714Y109060D01*
X67632Y109025D01*
X67551Y108986D01*
X67473Y108944D01*
X67396Y108898D01*
X67322Y108849D01*
X67249Y108797D01*
X67179Y108741D01*
X67111Y108683D01*
X67046Y108622D01*
X66984Y108558D01*
X66924Y108492D01*
X66868Y108423D01*
X66814Y108352D01*
X66763Y108278D01*
X66716Y108203D01*
X66672Y108125D01*
X66631Y108046D01*
X66594Y107965D01*
X66560Y107882D01*
X66530Y107798D01*
X66504Y107713D01*
X66481Y107626D01*
X66462Y107539D01*
X66446Y107451D01*
X66435Y107363D01*
X66427Y107274D01*
X66423Y107185D01*
X66423Y107095D01*
X66427Y107006D01*
X66435Y106917D01*
X66446Y106829D01*
X66462Y106741D01*
X66481Y106654D01*
X66504Y106567D01*
X66530Y106482D01*
X66560Y106398D01*
X66594Y106315D01*
X66631Y106234D01*
X66672Y106155D01*
X66716Y106077D01*
X66763Y106002D01*
X66814Y105928D01*
X66868Y105857D01*
X66924Y105788D01*
X66984Y105722D01*
X67046Y105658D01*
X67111Y105597D01*
X67179Y105539D01*
X67249Y105483D01*
X67322Y105431D01*
X67396Y105382D01*
X67473Y105336D01*
X67551Y105294D01*
X67632Y105255D01*
X67714Y105220D01*
X67797Y105188D01*
X67882Y105159D01*
X67967Y105135D01*
X68054Y105114D01*
X68142Y105097D01*
X68230Y105083D01*
X68319Y105074D01*
X68408Y105068D01*
X68497Y105066D01*
X71164Y105066D01*
X71164Y110400D01*
X71162Y110482D01*
X71156Y110564D01*
X71147Y110646D01*
X71134Y110727D01*
X71117Y110807D01*
X71096Y110887D01*
X71072Y110965D01*
X71044Y111042D01*
X71013Y111118D01*
X70978Y111193D01*
X70939Y111265D01*
X70898Y111336D01*
X70853Y111405D01*
X70805Y111471D01*
X70754Y111536D01*
X70700Y111598D01*
X70643Y111657D01*
X70584Y111714D01*
X70522Y111768D01*
X70457Y111819D01*
X70391Y111867D01*
X70322Y111912D01*
X70251Y111953D01*
X70179Y111992D01*
X70104Y112027D01*
X70028Y112058D01*
X69951Y112086D01*
X69873Y112110D01*
X69793Y112131D01*
X69713Y112148D01*
X69632Y112161D01*
X69550Y112170D01*
X69468Y112176D01*
X69386Y112178D01*
X67015Y112178D01*
X77179Y115734D02*
X77179Y105066D01*
X77179Y112178D02*
X80142Y112178D01*
X80224Y112176D01*
X80306Y112170D01*
X80388Y112161D01*
X80469Y112148D01*
X80549Y112131D01*
X80629Y112110D01*
X80707Y112086D01*
X80784Y112058D01*
X80860Y112027D01*
X80935Y111992D01*
X81007Y111953D01*
X81078Y111912D01*
X81147Y111867D01*
X81213Y111819D01*
X81278Y111768D01*
X81340Y111714D01*
X81399Y111657D01*
X81456Y111598D01*
X81510Y111536D01*
X81561Y111471D01*
X81609Y111405D01*
X81654Y111336D01*
X81695Y111265D01*
X81734Y111193D01*
X81769Y111118D01*
X81800Y111042D01*
X81828Y110965D01*
X81852Y110887D01*
X81873Y110807D01*
X81890Y110727D01*
X81903Y110646D01*
X81912Y110564D01*
X81918Y110482D01*
X81920Y110400D01*
X81920Y105066D01*
X86396Y112178D02*
X89952Y112178D01*
X87581Y115734D02*
X87581Y106844D01*
X87583Y106762D01*
X87589Y106680D01*
X87598Y106598D01*
X87611Y106517D01*
X87628Y106437D01*
X87649Y106357D01*
X87673Y106279D01*
X87701Y106202D01*
X87732Y106126D01*
X87767Y106051D01*
X87806Y105979D01*
X87847Y105908D01*
X87892Y105839D01*
X87940Y105773D01*
X87991Y105708D01*
X88045Y105646D01*
X88102Y105587D01*
X88161Y105530D01*
X88223Y105476D01*
X88288Y105425D01*
X88354Y105377D01*
X88423Y105332D01*
X88494Y105291D01*
X88566Y105252D01*
X88641Y105217D01*
X88717Y105186D01*
X88794Y105158D01*
X88872Y105134D01*
X88952Y105113D01*
X89032Y105096D01*
X89113Y105083D01*
X89195Y105074D01*
X89277Y105068D01*
X89359Y105066D01*
X89952Y105066D01*
X94409Y105066D02*
X94409Y112178D01*
X94112Y115141D02*
X94112Y115734D01*
X94705Y115734D01*
X94705Y115141D01*
X94112Y115141D01*
X-8984Y96684D02*
X-8984Y86016D01*
X-8984Y96684D02*
X-4243Y96684D01*
X-4243Y91943D02*
X-8984Y91943D01*
X41Y93128D02*
X41Y86016D01*
X-255Y96091D02*
X-255Y96684D01*
X338Y96684D01*
X338Y96091D01*
X-255Y96091D01*
X5390Y93128D02*
X5390Y86016D01*
X5390Y93128D02*
X8946Y93128D01*
X8946Y91943D01*
X14689Y86016D02*
X17652Y86016D01*
X14689Y86016D02*
X14607Y86018D01*
X14525Y86024D01*
X14443Y86033D01*
X14362Y86046D01*
X14282Y86063D01*
X14202Y86084D01*
X14124Y86108D01*
X14047Y86136D01*
X13971Y86167D01*
X13896Y86202D01*
X13824Y86241D01*
X13753Y86282D01*
X13684Y86327D01*
X13618Y86375D01*
X13553Y86426D01*
X13491Y86480D01*
X13432Y86537D01*
X13375Y86596D01*
X13321Y86658D01*
X13270Y86723D01*
X13222Y86789D01*
X13177Y86858D01*
X13136Y86929D01*
X13097Y87001D01*
X13062Y87076D01*
X13031Y87152D01*
X13003Y87229D01*
X12979Y87307D01*
X12958Y87387D01*
X12941Y87467D01*
X12928Y87548D01*
X12919Y87630D01*
X12913Y87712D01*
X12911Y87794D01*
X12911Y90757D01*
X12910Y90757D02*
X12912Y90854D01*
X12918Y90950D01*
X12928Y91046D01*
X12942Y91142D01*
X12959Y91237D01*
X12981Y91332D01*
X13006Y91425D01*
X13035Y91517D01*
X13068Y91608D01*
X13105Y91698D01*
X13145Y91786D01*
X13189Y91872D01*
X13236Y91956D01*
X13286Y92039D01*
X13340Y92119D01*
X13398Y92197D01*
X13458Y92273D01*
X13521Y92346D01*
X13587Y92416D01*
X13657Y92484D01*
X13728Y92549D01*
X13803Y92611D01*
X13880Y92669D01*
X13959Y92725D01*
X14040Y92777D01*
X14124Y92826D01*
X14209Y92872D01*
X14296Y92914D01*
X14385Y92952D01*
X14475Y92987D01*
X14567Y93018D01*
X14660Y93045D01*
X14753Y93069D01*
X14848Y93088D01*
X14944Y93104D01*
X15040Y93116D01*
X15136Y93124D01*
X15233Y93128D01*
X15329Y93128D01*
X15426Y93124D01*
X15522Y93116D01*
X15618Y93104D01*
X15714Y93088D01*
X15809Y93069D01*
X15902Y93045D01*
X15995Y93018D01*
X16087Y92987D01*
X16177Y92952D01*
X16266Y92914D01*
X16353Y92872D01*
X16438Y92826D01*
X16522Y92777D01*
X16603Y92725D01*
X16682Y92669D01*
X16759Y92611D01*
X16834Y92549D01*
X16905Y92484D01*
X16975Y92416D01*
X17041Y92346D01*
X17104Y92273D01*
X17164Y92197D01*
X17222Y92119D01*
X17276Y92039D01*
X17326Y91956D01*
X17373Y91872D01*
X17417Y91786D01*
X17457Y91698D01*
X17494Y91608D01*
X17527Y91517D01*
X17556Y91425D01*
X17581Y91332D01*
X17603Y91237D01*
X17620Y91142D01*
X17634Y91046D01*
X17644Y90950D01*
X17650Y90854D01*
X17652Y90757D01*
X17652Y89572D01*
X12911Y89572D01*
X23286Y86016D02*
X23286Y96684D01*
X23286Y86016D02*
X26249Y86016D01*
X26331Y86018D01*
X26413Y86024D01*
X26495Y86033D01*
X26576Y86046D01*
X26656Y86063D01*
X26736Y86084D01*
X26814Y86108D01*
X26891Y86136D01*
X26967Y86167D01*
X27042Y86202D01*
X27114Y86241D01*
X27185Y86282D01*
X27254Y86327D01*
X27320Y86375D01*
X27385Y86426D01*
X27447Y86480D01*
X27506Y86537D01*
X27563Y86596D01*
X27617Y86658D01*
X27668Y86723D01*
X27716Y86789D01*
X27761Y86858D01*
X27802Y86929D01*
X27841Y87001D01*
X27876Y87076D01*
X27907Y87152D01*
X27935Y87229D01*
X27959Y87307D01*
X27980Y87387D01*
X27997Y87467D01*
X28010Y87548D01*
X28019Y87630D01*
X28025Y87712D01*
X28027Y87794D01*
X28027Y91350D01*
X28025Y91432D01*
X28019Y91514D01*
X28010Y91596D01*
X27997Y91677D01*
X27980Y91757D01*
X27959Y91837D01*
X27935Y91915D01*
X27907Y91992D01*
X27876Y92068D01*
X27841Y92143D01*
X27802Y92215D01*
X27761Y92286D01*
X27716Y92355D01*
X27668Y92421D01*
X27617Y92486D01*
X27563Y92548D01*
X27506Y92607D01*
X27447Y92664D01*
X27385Y92718D01*
X27320Y92769D01*
X27254Y92817D01*
X27185Y92862D01*
X27114Y92903D01*
X27042Y92942D01*
X26967Y92977D01*
X26891Y93008D01*
X26814Y93036D01*
X26736Y93060D01*
X26656Y93081D01*
X26576Y93098D01*
X26495Y93111D01*
X26413Y93120D01*
X26331Y93126D01*
X26249Y93128D01*
X23286Y93128D01*
X35090Y90165D02*
X37757Y90165D01*
X35090Y90164D02*
X35001Y90162D01*
X34912Y90156D01*
X34823Y90147D01*
X34735Y90133D01*
X34647Y90116D01*
X34560Y90095D01*
X34475Y90071D01*
X34390Y90042D01*
X34307Y90010D01*
X34225Y89975D01*
X34144Y89936D01*
X34066Y89894D01*
X33989Y89848D01*
X33915Y89799D01*
X33842Y89747D01*
X33772Y89691D01*
X33704Y89633D01*
X33639Y89572D01*
X33577Y89508D01*
X33517Y89442D01*
X33461Y89373D01*
X33407Y89302D01*
X33356Y89228D01*
X33309Y89153D01*
X33265Y89075D01*
X33224Y88996D01*
X33187Y88915D01*
X33153Y88832D01*
X33123Y88748D01*
X33097Y88663D01*
X33074Y88576D01*
X33055Y88489D01*
X33039Y88401D01*
X33028Y88313D01*
X33020Y88224D01*
X33016Y88135D01*
X33016Y88045D01*
X33020Y87956D01*
X33028Y87867D01*
X33039Y87779D01*
X33055Y87691D01*
X33074Y87604D01*
X33097Y87517D01*
X33123Y87432D01*
X33153Y87348D01*
X33187Y87265D01*
X33224Y87184D01*
X33265Y87105D01*
X33309Y87027D01*
X33356Y86952D01*
X33407Y86878D01*
X33461Y86807D01*
X33517Y86738D01*
X33577Y86672D01*
X33639Y86608D01*
X33704Y86547D01*
X33772Y86489D01*
X33842Y86433D01*
X33915Y86381D01*
X33989Y86332D01*
X34066Y86286D01*
X34144Y86244D01*
X34225Y86205D01*
X34307Y86170D01*
X34390Y86138D01*
X34475Y86109D01*
X34560Y86085D01*
X34647Y86064D01*
X34735Y86047D01*
X34823Y86033D01*
X34912Y86024D01*
X35001Y86018D01*
X35090Y86016D01*
X37757Y86016D01*
X37757Y91350D01*
X37755Y91432D01*
X37749Y91514D01*
X37740Y91596D01*
X37727Y91677D01*
X37710Y91757D01*
X37689Y91837D01*
X37665Y91915D01*
X37637Y91992D01*
X37606Y92068D01*
X37571Y92143D01*
X37532Y92215D01*
X37491Y92286D01*
X37446Y92355D01*
X37398Y92421D01*
X37347Y92486D01*
X37293Y92548D01*
X37236Y92607D01*
X37177Y92664D01*
X37115Y92718D01*
X37050Y92769D01*
X36984Y92817D01*
X36915Y92862D01*
X36844Y92903D01*
X36772Y92942D01*
X36697Y92977D01*
X36621Y93008D01*
X36544Y93036D01*
X36466Y93060D01*
X36386Y93081D01*
X36306Y93098D01*
X36225Y93111D01*
X36143Y93120D01*
X36061Y93126D01*
X35979Y93128D01*
X33608Y93128D01*
X43010Y82460D02*
X44195Y82460D01*
X47751Y93128D01*
X43010Y93128D02*
X45380Y86016D01*
X59111Y86016D02*
X59111Y93128D01*
X62667Y93128D01*
X62667Y91943D01*
X68410Y86016D02*
X71373Y86016D01*
X68410Y86016D02*
X68328Y86018D01*
X68246Y86024D01*
X68164Y86033D01*
X68083Y86046D01*
X68003Y86063D01*
X67923Y86084D01*
X67845Y86108D01*
X67768Y86136D01*
X67692Y86167D01*
X67617Y86202D01*
X67545Y86241D01*
X67474Y86282D01*
X67405Y86327D01*
X67339Y86375D01*
X67274Y86426D01*
X67212Y86480D01*
X67153Y86537D01*
X67096Y86596D01*
X67042Y86658D01*
X66991Y86723D01*
X66943Y86789D01*
X66898Y86858D01*
X66857Y86929D01*
X66818Y87001D01*
X66783Y87076D01*
X66752Y87152D01*
X66724Y87229D01*
X66700Y87307D01*
X66679Y87387D01*
X66662Y87467D01*
X66649Y87548D01*
X66640Y87630D01*
X66634Y87712D01*
X66632Y87794D01*
X66632Y90757D01*
X66631Y90757D02*
X66633Y90854D01*
X66639Y90950D01*
X66649Y91046D01*
X66663Y91142D01*
X66680Y91237D01*
X66702Y91332D01*
X66727Y91425D01*
X66756Y91517D01*
X66789Y91608D01*
X66826Y91698D01*
X66866Y91786D01*
X66910Y91872D01*
X66957Y91956D01*
X67007Y92039D01*
X67061Y92119D01*
X67119Y92197D01*
X67179Y92273D01*
X67242Y92346D01*
X67308Y92416D01*
X67378Y92484D01*
X67449Y92549D01*
X67524Y92611D01*
X67601Y92669D01*
X67680Y92725D01*
X67761Y92777D01*
X67845Y92826D01*
X67930Y92872D01*
X68017Y92914D01*
X68106Y92952D01*
X68196Y92987D01*
X68288Y93018D01*
X68381Y93045D01*
X68474Y93069D01*
X68569Y93088D01*
X68665Y93104D01*
X68761Y93116D01*
X68857Y93124D01*
X68954Y93128D01*
X69050Y93128D01*
X69147Y93124D01*
X69243Y93116D01*
X69339Y93104D01*
X69435Y93088D01*
X69530Y93069D01*
X69623Y93045D01*
X69716Y93018D01*
X69808Y92987D01*
X69898Y92952D01*
X69987Y92914D01*
X70074Y92872D01*
X70159Y92826D01*
X70243Y92777D01*
X70324Y92725D01*
X70403Y92669D01*
X70480Y92611D01*
X70555Y92549D01*
X70626Y92484D01*
X70696Y92416D01*
X70762Y92346D01*
X70825Y92273D01*
X70885Y92197D01*
X70943Y92119D01*
X70997Y92039D01*
X71047Y91956D01*
X71094Y91872D01*
X71138Y91786D01*
X71178Y91698D01*
X71215Y91608D01*
X71248Y91517D01*
X71277Y91425D01*
X71302Y91332D01*
X71324Y91237D01*
X71341Y91142D01*
X71355Y91046D01*
X71365Y90950D01*
X71371Y90854D01*
X71373Y90757D01*
X71373Y89572D01*
X66632Y89572D01*
X77096Y86016D02*
X77096Y94906D01*
X77098Y94988D01*
X77104Y95070D01*
X77113Y95152D01*
X77126Y95233D01*
X77143Y95313D01*
X77164Y95393D01*
X77188Y95471D01*
X77216Y95548D01*
X77247Y95624D01*
X77282Y95699D01*
X77321Y95771D01*
X77362Y95842D01*
X77407Y95911D01*
X77455Y95977D01*
X77506Y96042D01*
X77560Y96104D01*
X77617Y96163D01*
X77676Y96220D01*
X77738Y96274D01*
X77803Y96325D01*
X77869Y96373D01*
X77938Y96418D01*
X78009Y96459D01*
X78081Y96498D01*
X78156Y96533D01*
X78232Y96564D01*
X78309Y96592D01*
X78387Y96616D01*
X78467Y96637D01*
X78547Y96654D01*
X78628Y96667D01*
X78710Y96676D01*
X78792Y96682D01*
X78874Y96684D01*
X79467Y96684D01*
X79467Y93128D02*
X75911Y93128D01*
X83396Y93128D02*
X83396Y87794D01*
X83398Y87712D01*
X83404Y87630D01*
X83413Y87548D01*
X83426Y87467D01*
X83443Y87387D01*
X83464Y87307D01*
X83488Y87229D01*
X83516Y87152D01*
X83547Y87076D01*
X83582Y87001D01*
X83621Y86929D01*
X83662Y86858D01*
X83707Y86789D01*
X83755Y86723D01*
X83806Y86658D01*
X83860Y86596D01*
X83917Y86537D01*
X83976Y86480D01*
X84038Y86426D01*
X84103Y86375D01*
X84169Y86327D01*
X84238Y86282D01*
X84309Y86241D01*
X84381Y86202D01*
X84456Y86167D01*
X84532Y86136D01*
X84609Y86108D01*
X84687Y86084D01*
X84767Y86063D01*
X84847Y86046D01*
X84928Y86033D01*
X85010Y86024D01*
X85092Y86018D01*
X85174Y86016D01*
X88137Y86016D01*
X88137Y93128D01*
X94163Y93128D02*
X94163Y86016D01*
X94163Y93128D02*
X97719Y93128D01*
X97719Y91943D01*
X102153Y96684D02*
X102153Y86016D01*
X105116Y86016D01*
X105198Y86018D01*
X105280Y86024D01*
X105362Y86033D01*
X105443Y86046D01*
X105523Y86063D01*
X105603Y86084D01*
X105681Y86108D01*
X105758Y86136D01*
X105834Y86167D01*
X105909Y86202D01*
X105981Y86241D01*
X106052Y86282D01*
X106121Y86327D01*
X106187Y86375D01*
X106252Y86426D01*
X106314Y86480D01*
X106373Y86537D01*
X106430Y86596D01*
X106484Y86658D01*
X106535Y86723D01*
X106583Y86789D01*
X106628Y86858D01*
X106669Y86929D01*
X106708Y87001D01*
X106743Y87076D01*
X106774Y87152D01*
X106802Y87229D01*
X106826Y87307D01*
X106847Y87387D01*
X106864Y87467D01*
X106877Y87548D01*
X106886Y87630D01*
X106892Y87712D01*
X106894Y87794D01*
X106894Y91350D01*
X106892Y91432D01*
X106886Y91514D01*
X106877Y91596D01*
X106864Y91677D01*
X106847Y91757D01*
X106826Y91837D01*
X106802Y91915D01*
X106774Y91992D01*
X106743Y92068D01*
X106708Y92143D01*
X106669Y92215D01*
X106628Y92286D01*
X106583Y92355D01*
X106535Y92421D01*
X106484Y92486D01*
X106430Y92548D01*
X106373Y92607D01*
X106314Y92664D01*
X106252Y92718D01*
X106187Y92769D01*
X106121Y92817D01*
X106052Y92862D01*
X105981Y92903D01*
X105909Y92942D01*
X105834Y92977D01*
X105758Y93008D01*
X105681Y93036D01*
X105603Y93060D01*
X105523Y93081D01*
X105443Y93098D01*
X105362Y93111D01*
X105280Y93120D01*
X105198Y93126D01*
X105116Y93128D01*
X102153Y93128D01*
D11*
X602929Y265000D02*
X602931Y265174D01*
X602938Y265347D01*
X602948Y265520D01*
X602963Y265693D01*
X602982Y265866D01*
X603006Y266038D01*
X603033Y266209D01*
X603065Y266379D01*
X603101Y266549D01*
X603141Y266718D01*
X603185Y266886D01*
X603233Y267053D01*
X603286Y267218D01*
X603342Y267382D01*
X603403Y267545D01*
X603467Y267706D01*
X603536Y267865D01*
X603608Y268023D01*
X603684Y268179D01*
X603764Y268333D01*
X603848Y268485D01*
X603935Y268635D01*
X604026Y268783D01*
X604121Y268928D01*
X604219Y269072D01*
X604321Y269212D01*
X604426Y269350D01*
X604534Y269486D01*
X604646Y269619D01*
X604761Y269749D01*
X604879Y269876D01*
X605000Y270000D01*
X605124Y270121D01*
X605251Y270239D01*
X605381Y270354D01*
X605514Y270466D01*
X605650Y270574D01*
X605788Y270679D01*
X605928Y270781D01*
X606072Y270879D01*
X606217Y270974D01*
X606365Y271065D01*
X606515Y271152D01*
X606667Y271236D01*
X606821Y271316D01*
X606977Y271392D01*
X607135Y271464D01*
X607294Y271533D01*
X607455Y271597D01*
X607618Y271658D01*
X607782Y271714D01*
X607947Y271767D01*
X608114Y271815D01*
X608282Y271859D01*
X608451Y271899D01*
X608621Y271935D01*
X608791Y271967D01*
X608962Y271994D01*
X609134Y272018D01*
X609307Y272037D01*
X609480Y272052D01*
X609653Y272062D01*
X609826Y272069D01*
X610000Y272071D01*
X610174Y272069D01*
X610347Y272062D01*
X610520Y272052D01*
X610693Y272037D01*
X610866Y272018D01*
X611038Y271994D01*
X611209Y271967D01*
X611379Y271935D01*
X611549Y271899D01*
X611718Y271859D01*
X611886Y271815D01*
X612053Y271767D01*
X612218Y271714D01*
X612382Y271658D01*
X612545Y271597D01*
X612706Y271533D01*
X612865Y271464D01*
X613023Y271392D01*
X613179Y271316D01*
X613333Y271236D01*
X613485Y271152D01*
X613635Y271065D01*
X613783Y270974D01*
X613928Y270879D01*
X614072Y270781D01*
X614212Y270679D01*
X614350Y270574D01*
X614486Y270466D01*
X614619Y270354D01*
X614749Y270239D01*
X614876Y270121D01*
X615000Y270000D01*
X615121Y269876D01*
X615239Y269749D01*
X615354Y269619D01*
X615466Y269486D01*
X615574Y269350D01*
X615679Y269212D01*
X615781Y269072D01*
X615879Y268928D01*
X615974Y268783D01*
X616065Y268635D01*
X616152Y268485D01*
X616236Y268333D01*
X616316Y268179D01*
X616392Y268023D01*
X616464Y267865D01*
X616533Y267706D01*
X616597Y267545D01*
X616658Y267382D01*
X616714Y267218D01*
X616767Y267053D01*
X616815Y266886D01*
X616859Y266718D01*
X616899Y266549D01*
X616935Y266379D01*
X616967Y266209D01*
X616994Y266038D01*
X617018Y265866D01*
X617037Y265693D01*
X617052Y265520D01*
X617062Y265347D01*
X617069Y265174D01*
X617071Y265000D01*
X617069Y264826D01*
X617062Y264653D01*
X617052Y264480D01*
X617037Y264307D01*
X617018Y264134D01*
X616994Y263962D01*
X616967Y263791D01*
X616935Y263621D01*
X616899Y263451D01*
X616859Y263282D01*
X616815Y263114D01*
X616767Y262947D01*
X616714Y262782D01*
X616658Y262618D01*
X616597Y262455D01*
X616533Y262294D01*
X616464Y262135D01*
X616392Y261977D01*
X616316Y261821D01*
X616236Y261667D01*
X616152Y261515D01*
X616065Y261365D01*
X615974Y261217D01*
X615879Y261072D01*
X615781Y260928D01*
X615679Y260788D01*
X615574Y260650D01*
X615466Y260514D01*
X615354Y260381D01*
X615239Y260251D01*
X615121Y260124D01*
X615000Y260000D01*
X614876Y259879D01*
X614749Y259761D01*
X614619Y259646D01*
X614486Y259534D01*
X614350Y259426D01*
X614212Y259321D01*
X614072Y259219D01*
X613928Y259121D01*
X613783Y259026D01*
X613635Y258935D01*
X613485Y258848D01*
X613333Y258764D01*
X613179Y258684D01*
X613023Y258608D01*
X612865Y258536D01*
X612706Y258467D01*
X612545Y258403D01*
X612382Y258342D01*
X612218Y258286D01*
X612053Y258233D01*
X611886Y258185D01*
X611718Y258141D01*
X611549Y258101D01*
X611379Y258065D01*
X611209Y258033D01*
X611038Y258006D01*
X610866Y257982D01*
X610693Y257963D01*
X610520Y257948D01*
X610347Y257938D01*
X610174Y257931D01*
X610000Y257929D01*
X609826Y257931D01*
X609653Y257938D01*
X609480Y257948D01*
X609307Y257963D01*
X609134Y257982D01*
X608962Y258006D01*
X608791Y258033D01*
X608621Y258065D01*
X608451Y258101D01*
X608282Y258141D01*
X608114Y258185D01*
X607947Y258233D01*
X607782Y258286D01*
X607618Y258342D01*
X607455Y258403D01*
X607294Y258467D01*
X607135Y258536D01*
X606977Y258608D01*
X606821Y258684D01*
X606667Y258764D01*
X606515Y258848D01*
X606365Y258935D01*
X606217Y259026D01*
X606072Y259121D01*
X605928Y259219D01*
X605788Y259321D01*
X605650Y259426D01*
X605514Y259534D01*
X605381Y259646D01*
X605251Y259761D01*
X605124Y259879D01*
X605000Y260000D01*
X604879Y260124D01*
X604761Y260251D01*
X604646Y260381D01*
X604534Y260514D01*
X604426Y260650D01*
X604321Y260788D01*
X604219Y260928D01*
X604121Y261072D01*
X604026Y261217D01*
X603935Y261365D01*
X603848Y261515D01*
X603764Y261667D01*
X603684Y261821D01*
X603608Y261977D01*
X603536Y262135D01*
X603467Y262294D01*
X603403Y262455D01*
X603342Y262618D01*
X603286Y262782D01*
X603233Y262947D01*
X603185Y263114D01*
X603141Y263282D01*
X603101Y263451D01*
X603065Y263621D01*
X603033Y263791D01*
X603006Y263962D01*
X602982Y264134D01*
X602963Y264307D01*
X602948Y264480D01*
X602938Y264653D01*
X602931Y264826D01*
X602929Y265000D01*
X567929Y265000D02*
X567931Y265174D01*
X567938Y265347D01*
X567948Y265520D01*
X567963Y265693D01*
X567982Y265866D01*
X568006Y266038D01*
X568033Y266209D01*
X568065Y266379D01*
X568101Y266549D01*
X568141Y266718D01*
X568185Y266886D01*
X568233Y267053D01*
X568286Y267218D01*
X568342Y267382D01*
X568403Y267545D01*
X568467Y267706D01*
X568536Y267865D01*
X568608Y268023D01*
X568684Y268179D01*
X568764Y268333D01*
X568848Y268485D01*
X568935Y268635D01*
X569026Y268783D01*
X569121Y268928D01*
X569219Y269072D01*
X569321Y269212D01*
X569426Y269350D01*
X569534Y269486D01*
X569646Y269619D01*
X569761Y269749D01*
X569879Y269876D01*
X570000Y270000D01*
X570124Y270121D01*
X570251Y270239D01*
X570381Y270354D01*
X570514Y270466D01*
X570650Y270574D01*
X570788Y270679D01*
X570928Y270781D01*
X571072Y270879D01*
X571217Y270974D01*
X571365Y271065D01*
X571515Y271152D01*
X571667Y271236D01*
X571821Y271316D01*
X571977Y271392D01*
X572135Y271464D01*
X572294Y271533D01*
X572455Y271597D01*
X572618Y271658D01*
X572782Y271714D01*
X572947Y271767D01*
X573114Y271815D01*
X573282Y271859D01*
X573451Y271899D01*
X573621Y271935D01*
X573791Y271967D01*
X573962Y271994D01*
X574134Y272018D01*
X574307Y272037D01*
X574480Y272052D01*
X574653Y272062D01*
X574826Y272069D01*
X575000Y272071D01*
X575174Y272069D01*
X575347Y272062D01*
X575520Y272052D01*
X575693Y272037D01*
X575866Y272018D01*
X576038Y271994D01*
X576209Y271967D01*
X576379Y271935D01*
X576549Y271899D01*
X576718Y271859D01*
X576886Y271815D01*
X577053Y271767D01*
X577218Y271714D01*
X577382Y271658D01*
X577545Y271597D01*
X577706Y271533D01*
X577865Y271464D01*
X578023Y271392D01*
X578179Y271316D01*
X578333Y271236D01*
X578485Y271152D01*
X578635Y271065D01*
X578783Y270974D01*
X578928Y270879D01*
X579072Y270781D01*
X579212Y270679D01*
X579350Y270574D01*
X579486Y270466D01*
X579619Y270354D01*
X579749Y270239D01*
X579876Y270121D01*
X580000Y270000D01*
X580121Y269876D01*
X580239Y269749D01*
X580354Y269619D01*
X580466Y269486D01*
X580574Y269350D01*
X580679Y269212D01*
X580781Y269072D01*
X580879Y268928D01*
X580974Y268783D01*
X581065Y268635D01*
X581152Y268485D01*
X581236Y268333D01*
X581316Y268179D01*
X581392Y268023D01*
X581464Y267865D01*
X581533Y267706D01*
X581597Y267545D01*
X581658Y267382D01*
X581714Y267218D01*
X581767Y267053D01*
X581815Y266886D01*
X581859Y266718D01*
X581899Y266549D01*
X581935Y266379D01*
X581967Y266209D01*
X581994Y266038D01*
X582018Y265866D01*
X582037Y265693D01*
X582052Y265520D01*
X582062Y265347D01*
X582069Y265174D01*
X582071Y265000D01*
X582069Y264826D01*
X582062Y264653D01*
X582052Y264480D01*
X582037Y264307D01*
X582018Y264134D01*
X581994Y263962D01*
X581967Y263791D01*
X581935Y263621D01*
X581899Y263451D01*
X581859Y263282D01*
X581815Y263114D01*
X581767Y262947D01*
X581714Y262782D01*
X581658Y262618D01*
X581597Y262455D01*
X581533Y262294D01*
X581464Y262135D01*
X581392Y261977D01*
X581316Y261821D01*
X581236Y261667D01*
X581152Y261515D01*
X581065Y261365D01*
X580974Y261217D01*
X580879Y261072D01*
X580781Y260928D01*
X580679Y260788D01*
X580574Y260650D01*
X580466Y260514D01*
X580354Y260381D01*
X580239Y260251D01*
X580121Y260124D01*
X580000Y260000D01*
X579876Y259879D01*
X579749Y259761D01*
X579619Y259646D01*
X579486Y259534D01*
X579350Y259426D01*
X579212Y259321D01*
X579072Y259219D01*
X578928Y259121D01*
X578783Y259026D01*
X578635Y258935D01*
X578485Y258848D01*
X578333Y258764D01*
X578179Y258684D01*
X578023Y258608D01*
X577865Y258536D01*
X577706Y258467D01*
X577545Y258403D01*
X577382Y258342D01*
X577218Y258286D01*
X577053Y258233D01*
X576886Y258185D01*
X576718Y258141D01*
X576549Y258101D01*
X576379Y258065D01*
X576209Y258033D01*
X576038Y258006D01*
X575866Y257982D01*
X575693Y257963D01*
X575520Y257948D01*
X575347Y257938D01*
X575174Y257931D01*
X575000Y257929D01*
X574826Y257931D01*
X574653Y257938D01*
X574480Y257948D01*
X574307Y257963D01*
X574134Y257982D01*
X573962Y258006D01*
X573791Y258033D01*
X573621Y258065D01*
X573451Y258101D01*
X573282Y258141D01*
X573114Y258185D01*
X572947Y258233D01*
X572782Y258286D01*
X572618Y258342D01*
X572455Y258403D01*
X572294Y258467D01*
X572135Y258536D01*
X571977Y258608D01*
X571821Y258684D01*
X571667Y258764D01*
X571515Y258848D01*
X571365Y258935D01*
X571217Y259026D01*
X571072Y259121D01*
X570928Y259219D01*
X570788Y259321D01*
X570650Y259426D01*
X570514Y259534D01*
X570381Y259646D01*
X570251Y259761D01*
X570124Y259879D01*
X570000Y260000D01*
X569879Y260124D01*
X569761Y260251D01*
X569646Y260381D01*
X569534Y260514D01*
X569426Y260650D01*
X569321Y260788D01*
X569219Y260928D01*
X569121Y261072D01*
X569026Y261217D01*
X568935Y261365D01*
X568848Y261515D01*
X568764Y261667D01*
X568684Y261821D01*
X568608Y261977D01*
X568536Y262135D01*
X568467Y262294D01*
X568403Y262455D01*
X568342Y262618D01*
X568286Y262782D01*
X568233Y262947D01*
X568185Y263114D01*
X568141Y263282D01*
X568101Y263451D01*
X568065Y263621D01*
X568033Y263791D01*
X568006Y263962D01*
X567982Y264134D01*
X567963Y264307D01*
X567948Y264480D01*
X567938Y264653D01*
X567931Y264826D01*
X567929Y265000D01*
D10*
X616016Y276016D02*
X616016Y286684D01*
X616016Y276016D02*
X620757Y276016D01*
X625922Y276016D02*
X630663Y276016D01*
X625922Y276016D02*
X625922Y286684D01*
X630663Y286684D01*
X629478Y281943D02*
X625922Y281943D01*
X635794Y286684D02*
X635794Y276016D01*
X635794Y286684D02*
X638757Y286684D01*
X638863Y286682D01*
X638968Y286676D01*
X639074Y286667D01*
X639179Y286654D01*
X639283Y286637D01*
X639387Y286616D01*
X639490Y286592D01*
X639592Y286564D01*
X639693Y286532D01*
X639792Y286497D01*
X639891Y286458D01*
X639988Y286416D01*
X640083Y286371D01*
X640177Y286322D01*
X640269Y286269D01*
X640359Y286214D01*
X640447Y286155D01*
X640533Y286093D01*
X640616Y286028D01*
X640697Y285960D01*
X640776Y285890D01*
X640852Y285816D01*
X640926Y285740D01*
X640996Y285661D01*
X641064Y285580D01*
X641129Y285497D01*
X641191Y285411D01*
X641250Y285323D01*
X641305Y285233D01*
X641358Y285141D01*
X641407Y285047D01*
X641452Y284952D01*
X641494Y284855D01*
X641533Y284756D01*
X641568Y284657D01*
X641600Y284556D01*
X641628Y284454D01*
X641652Y284351D01*
X641673Y284247D01*
X641690Y284143D01*
X641703Y284038D01*
X641712Y283932D01*
X641718Y283827D01*
X641720Y283721D01*
X641721Y283721D02*
X641721Y278979D01*
X641720Y278979D02*
X641718Y278873D01*
X641712Y278768D01*
X641703Y278662D01*
X641690Y278557D01*
X641673Y278453D01*
X641652Y278349D01*
X641628Y278246D01*
X641600Y278144D01*
X641568Y278043D01*
X641533Y277944D01*
X641494Y277845D01*
X641452Y277748D01*
X641407Y277653D01*
X641358Y277559D01*
X641305Y277467D01*
X641250Y277377D01*
X641191Y277289D01*
X641129Y277203D01*
X641064Y277120D01*
X640996Y277039D01*
X640926Y276960D01*
X640852Y276884D01*
X640776Y276810D01*
X640697Y276740D01*
X640616Y276672D01*
X640533Y276607D01*
X640447Y276545D01*
X640359Y276486D01*
X640269Y276431D01*
X640177Y276378D01*
X640083Y276329D01*
X639988Y276284D01*
X639891Y276242D01*
X639792Y276203D01*
X639693Y276168D01*
X639592Y276136D01*
X639490Y276108D01*
X639387Y276084D01*
X639283Y276063D01*
X639179Y276046D01*
X639074Y276033D01*
X638968Y276024D01*
X638863Y276018D01*
X638757Y276016D01*
X635794Y276016D01*
X647605Y284313D02*
X650568Y286684D01*
X650568Y276016D01*
X647605Y276016D02*
X653532Y276016D01*
X531468Y276016D02*
X531468Y286684D01*
X531468Y276016D02*
X536210Y276016D01*
X541374Y276016D02*
X546116Y276016D01*
X541374Y276016D02*
X541374Y286684D01*
X546116Y286684D01*
X544930Y281943D02*
X541374Y281943D01*
X551246Y286684D02*
X551246Y276016D01*
X551246Y286684D02*
X554210Y286684D01*
X554316Y286682D01*
X554421Y286676D01*
X554527Y286667D01*
X554632Y286654D01*
X554736Y286637D01*
X554840Y286616D01*
X554943Y286592D01*
X555045Y286564D01*
X555146Y286532D01*
X555245Y286497D01*
X555344Y286458D01*
X555441Y286416D01*
X555536Y286371D01*
X555630Y286322D01*
X555722Y286269D01*
X555812Y286214D01*
X555900Y286155D01*
X555986Y286093D01*
X556069Y286028D01*
X556150Y285960D01*
X556229Y285890D01*
X556305Y285816D01*
X556379Y285740D01*
X556449Y285661D01*
X556517Y285580D01*
X556582Y285497D01*
X556644Y285411D01*
X556703Y285323D01*
X556758Y285233D01*
X556811Y285141D01*
X556860Y285047D01*
X556905Y284952D01*
X556947Y284855D01*
X556986Y284756D01*
X557021Y284657D01*
X557053Y284556D01*
X557081Y284454D01*
X557105Y284351D01*
X557126Y284247D01*
X557143Y284143D01*
X557156Y284038D01*
X557165Y283932D01*
X557171Y283827D01*
X557173Y283721D01*
X557173Y278979D01*
X557171Y278873D01*
X557165Y278768D01*
X557156Y278662D01*
X557143Y278557D01*
X557126Y278453D01*
X557105Y278349D01*
X557081Y278246D01*
X557053Y278144D01*
X557021Y278043D01*
X556986Y277944D01*
X556947Y277845D01*
X556905Y277748D01*
X556860Y277653D01*
X556811Y277559D01*
X556758Y277467D01*
X556703Y277377D01*
X556644Y277289D01*
X556582Y277203D01*
X556517Y277120D01*
X556449Y277039D01*
X556379Y276960D01*
X556305Y276884D01*
X556229Y276810D01*
X556150Y276740D01*
X556069Y276672D01*
X555986Y276607D01*
X555900Y276545D01*
X555812Y276486D01*
X555722Y276431D01*
X555630Y276378D01*
X555536Y276329D01*
X555441Y276284D01*
X555344Y276242D01*
X555245Y276203D01*
X555146Y276168D01*
X555045Y276136D01*
X554943Y276108D01*
X554840Y276084D01*
X554736Y276063D01*
X554632Y276046D01*
X554527Y276033D01*
X554421Y276024D01*
X554316Y276018D01*
X554210Y276016D01*
X551246Y276016D01*
X566317Y286684D02*
X566419Y286682D01*
X566521Y286676D01*
X566623Y286666D01*
X566724Y286653D01*
X566825Y286635D01*
X566925Y286614D01*
X567024Y286589D01*
X567122Y286560D01*
X567218Y286527D01*
X567314Y286491D01*
X567408Y286451D01*
X567500Y286407D01*
X567591Y286360D01*
X567680Y286309D01*
X567767Y286256D01*
X567851Y286198D01*
X567934Y286138D01*
X568014Y286075D01*
X568091Y286008D01*
X568166Y285939D01*
X568239Y285866D01*
X568308Y285791D01*
X568375Y285714D01*
X568438Y285634D01*
X568498Y285551D01*
X568556Y285467D01*
X568609Y285380D01*
X568660Y285291D01*
X568707Y285200D01*
X568751Y285108D01*
X568791Y285014D01*
X568827Y284918D01*
X568860Y284822D01*
X568889Y284724D01*
X568914Y284625D01*
X568935Y284525D01*
X568953Y284424D01*
X568966Y284323D01*
X568976Y284221D01*
X568982Y284119D01*
X568984Y284017D01*
X566317Y286684D02*
X566201Y286682D01*
X566084Y286676D01*
X565968Y286666D01*
X565853Y286652D01*
X565738Y286635D01*
X565623Y286613D01*
X565510Y286587D01*
X565397Y286558D01*
X565285Y286525D01*
X565175Y286488D01*
X565066Y286447D01*
X564958Y286403D01*
X564852Y286355D01*
X564748Y286303D01*
X564645Y286248D01*
X564544Y286190D01*
X564446Y286128D01*
X564349Y286063D01*
X564255Y285994D01*
X564163Y285922D01*
X564074Y285848D01*
X563987Y285770D01*
X563903Y285689D01*
X563822Y285606D01*
X563744Y285520D01*
X563668Y285431D01*
X563596Y285340D01*
X563527Y285246D01*
X563461Y285150D01*
X563398Y285052D01*
X563339Y284952D01*
X563283Y284850D01*
X563231Y284746D01*
X563182Y284640D01*
X563137Y284533D01*
X563095Y284424D01*
X563058Y284314D01*
X568096Y281942D02*
X568171Y282016D01*
X568243Y282093D01*
X568312Y282173D01*
X568379Y282255D01*
X568442Y282339D01*
X568502Y282426D01*
X568559Y282514D01*
X568613Y282605D01*
X568663Y282698D01*
X568710Y282792D01*
X568753Y282888D01*
X568793Y282986D01*
X568829Y283085D01*
X568862Y283185D01*
X568890Y283287D01*
X568915Y283389D01*
X568937Y283493D01*
X568954Y283597D01*
X568968Y283701D01*
X568977Y283806D01*
X568983Y283912D01*
X568985Y284017D01*
X568095Y281943D02*
X563057Y276016D01*
X568984Y276016D01*
X703984Y114572D02*
X703984Y111016D01*
X703984Y114572D02*
X703982Y114667D01*
X703976Y114763D01*
X703967Y114858D01*
X703953Y114952D01*
X703936Y115046D01*
X703915Y115139D01*
X703890Y115232D01*
X703862Y115323D01*
X703830Y115413D01*
X703794Y115501D01*
X703755Y115588D01*
X703712Y115674D01*
X703666Y115758D01*
X703617Y115839D01*
X703564Y115919D01*
X703508Y115996D01*
X703450Y116072D01*
X703388Y116144D01*
X703323Y116214D01*
X703255Y116282D01*
X703185Y116347D01*
X703113Y116409D01*
X703037Y116467D01*
X702960Y116523D01*
X702880Y116576D01*
X702799Y116625D01*
X702715Y116671D01*
X702629Y116714D01*
X702542Y116753D01*
X702454Y116789D01*
X702364Y116821D01*
X702273Y116849D01*
X702180Y116874D01*
X702087Y116895D01*
X701993Y116912D01*
X701899Y116926D01*
X701804Y116935D01*
X701708Y116941D01*
X701613Y116943D01*
X700428Y116943D01*
X700333Y116941D01*
X700237Y116935D01*
X700142Y116926D01*
X700048Y116912D01*
X699954Y116895D01*
X699861Y116874D01*
X699768Y116849D01*
X699677Y116821D01*
X699587Y116789D01*
X699499Y116753D01*
X699412Y116714D01*
X699326Y116671D01*
X699243Y116625D01*
X699161Y116576D01*
X699081Y116523D01*
X699004Y116467D01*
X698928Y116409D01*
X698856Y116347D01*
X698786Y116282D01*
X698718Y116214D01*
X698653Y116144D01*
X698591Y116072D01*
X698533Y115996D01*
X698477Y115919D01*
X698424Y115839D01*
X698375Y115758D01*
X698329Y115674D01*
X698286Y115588D01*
X698247Y115501D01*
X698211Y115413D01*
X698179Y115323D01*
X698151Y115232D01*
X698126Y115139D01*
X698105Y115046D01*
X698088Y114952D01*
X698074Y114858D01*
X698065Y114763D01*
X698059Y114668D01*
X698057Y114572D01*
X698057Y111016D01*
X693316Y111016D01*
X693316Y116943D01*
X693316Y121853D02*
X703984Y125409D01*
X693316Y128965D01*
X723057Y116943D02*
X723057Y115165D01*
X723057Y116943D02*
X728984Y116943D01*
X728984Y113387D01*
X728982Y113292D01*
X728976Y113196D01*
X728967Y113101D01*
X728953Y113007D01*
X728936Y112913D01*
X728915Y112820D01*
X728890Y112727D01*
X728862Y112636D01*
X728830Y112546D01*
X728794Y112458D01*
X728755Y112371D01*
X728712Y112285D01*
X728666Y112202D01*
X728617Y112120D01*
X728564Y112040D01*
X728508Y111963D01*
X728450Y111887D01*
X728388Y111815D01*
X728323Y111745D01*
X728255Y111677D01*
X728185Y111612D01*
X728113Y111550D01*
X728037Y111492D01*
X727960Y111436D01*
X727880Y111383D01*
X727799Y111334D01*
X727715Y111288D01*
X727629Y111245D01*
X727542Y111206D01*
X727454Y111170D01*
X727364Y111138D01*
X727273Y111110D01*
X727180Y111085D01*
X727087Y111064D01*
X726993Y111047D01*
X726899Y111033D01*
X726804Y111024D01*
X726709Y111018D01*
X726613Y111016D01*
X720687Y111016D01*
X720592Y111018D01*
X720496Y111024D01*
X720401Y111033D01*
X720307Y111047D01*
X720213Y111064D01*
X720120Y111085D01*
X720027Y111110D01*
X719936Y111138D01*
X719846Y111170D01*
X719758Y111206D01*
X719671Y111245D01*
X719585Y111288D01*
X719502Y111334D01*
X719420Y111383D01*
X719340Y111436D01*
X719263Y111492D01*
X719187Y111550D01*
X719115Y111612D01*
X719045Y111677D01*
X718977Y111745D01*
X718912Y111815D01*
X718850Y111887D01*
X718792Y111963D01*
X718736Y112040D01*
X718683Y112120D01*
X718634Y112201D01*
X718588Y112285D01*
X718545Y112371D01*
X718506Y112458D01*
X718470Y112546D01*
X718438Y112636D01*
X718410Y112727D01*
X718385Y112820D01*
X718364Y112913D01*
X718347Y113007D01*
X718333Y113101D01*
X718324Y113196D01*
X718318Y113291D01*
X718316Y113387D01*
X718316Y116943D01*
X718316Y123208D02*
X728984Y123208D01*
X728984Y129135D02*
X718316Y123208D01*
X718316Y129135D02*
X728984Y129135D01*
X728984Y135400D02*
X718316Y135400D01*
X718316Y138363D01*
X718318Y138469D01*
X718324Y138574D01*
X718333Y138680D01*
X718346Y138785D01*
X718363Y138889D01*
X718384Y138993D01*
X718408Y139096D01*
X718436Y139198D01*
X718468Y139299D01*
X718503Y139398D01*
X718542Y139497D01*
X718584Y139594D01*
X718629Y139689D01*
X718678Y139783D01*
X718731Y139875D01*
X718786Y139965D01*
X718845Y140053D01*
X718907Y140139D01*
X718972Y140222D01*
X719040Y140303D01*
X719110Y140382D01*
X719184Y140458D01*
X719260Y140532D01*
X719339Y140602D01*
X719420Y140670D01*
X719503Y140735D01*
X719589Y140797D01*
X719677Y140856D01*
X719767Y140911D01*
X719859Y140964D01*
X719953Y141013D01*
X720048Y141058D01*
X720145Y141100D01*
X720244Y141139D01*
X720343Y141174D01*
X720444Y141206D01*
X720546Y141234D01*
X720649Y141258D01*
X720753Y141279D01*
X720857Y141296D01*
X720962Y141309D01*
X721068Y141318D01*
X721173Y141324D01*
X721279Y141326D01*
X721279Y141327D02*
X726021Y141327D01*
X726021Y141326D02*
X726127Y141324D01*
X726232Y141318D01*
X726338Y141309D01*
X726443Y141296D01*
X726547Y141279D01*
X726651Y141258D01*
X726754Y141234D01*
X726856Y141206D01*
X726957Y141174D01*
X727056Y141139D01*
X727155Y141100D01*
X727252Y141058D01*
X727347Y141013D01*
X727441Y140964D01*
X727533Y140911D01*
X727623Y140856D01*
X727711Y140797D01*
X727797Y140735D01*
X727880Y140670D01*
X727961Y140602D01*
X728040Y140532D01*
X728116Y140458D01*
X728190Y140382D01*
X728260Y140303D01*
X728328Y140222D01*
X728393Y140139D01*
X728455Y140053D01*
X728514Y139965D01*
X728569Y139875D01*
X728622Y139783D01*
X728671Y139689D01*
X728716Y139594D01*
X728758Y139497D01*
X728797Y139398D01*
X728832Y139299D01*
X728864Y139198D01*
X728892Y139096D01*
X728916Y138993D01*
X728937Y138889D01*
X728954Y138785D01*
X728967Y138680D01*
X728976Y138574D01*
X728982Y138469D01*
X728984Y138363D01*
X728984Y135400D01*
D11*
X698000Y80000D02*
X698000Y74000D01*
X698000Y55000D02*
X698000Y48000D01*
X723000Y74000D02*
X723000Y80000D01*
X723000Y55000D02*
X723000Y48000D01*
D12*
X656700Y136800D02*
X655969Y136809D01*
X655239Y136836D01*
X654510Y136880D01*
X653782Y136942D01*
X653056Y137022D01*
X652332Y137120D01*
X651611Y137235D01*
X650892Y137368D01*
X650177Y137518D01*
X649466Y137685D01*
X648759Y137870D01*
X648057Y138072D01*
X647360Y138291D01*
X646669Y138527D01*
X645983Y138780D01*
X645304Y139049D01*
X644632Y139335D01*
X643966Y139637D01*
X643309Y139955D01*
X642659Y140289D01*
X642017Y140639D01*
X641385Y141004D01*
X640761Y141384D01*
X640147Y141780D01*
X639543Y142191D01*
X638948Y142616D01*
X638365Y143055D01*
X637792Y143509D01*
X637230Y143976D01*
X636680Y144457D01*
X636142Y144951D01*
X635616Y145458D01*
X635103Y145978D01*
X634602Y146510D01*
X634115Y147054D01*
X633641Y147610D01*
X633180Y148177D01*
X632734Y148755D01*
X632301Y149344D01*
X631883Y149944D01*
X631480Y150553D01*
X631092Y151172D01*
X630719Y151800D01*
X630362Y152437D01*
X630020Y153083D01*
X629694Y153736D01*
X629384Y154398D01*
X629090Y155067D01*
X628812Y155743D01*
X628551Y156425D01*
X628307Y157114D01*
X628079Y157808D01*
X627869Y158507D01*
X627675Y159212D01*
X627499Y159921D01*
X627340Y160634D01*
X627199Y161351D01*
X627075Y162071D01*
X626969Y162794D01*
X626880Y163519D01*
X626809Y164246D01*
X626756Y164975D01*
X626720Y165704D01*
X626702Y166435D01*
X626702Y167165D01*
X626720Y167896D01*
X626756Y168625D01*
X626809Y169354D01*
X626880Y170081D01*
X626969Y170806D01*
X627075Y171529D01*
X627199Y172249D01*
X627340Y172966D01*
X627499Y173679D01*
X627675Y174388D01*
X627869Y175093D01*
X628079Y175792D01*
X628307Y176486D01*
X628551Y177175D01*
X628812Y177857D01*
X629090Y178533D01*
X629384Y179202D01*
X629694Y179864D01*
X630020Y180517D01*
X630362Y181163D01*
X630719Y181800D01*
X631092Y182428D01*
X631480Y183047D01*
X631883Y183656D01*
X632301Y184256D01*
X632734Y184845D01*
X633180Y185423D01*
X633641Y185990D01*
X634115Y186546D01*
X634602Y187090D01*
X635103Y187622D01*
X635616Y188142D01*
X636142Y188649D01*
X636680Y189143D01*
X637230Y189624D01*
X637792Y190091D01*
X638365Y190545D01*
X638948Y190984D01*
X639543Y191409D01*
X640147Y191820D01*
X640761Y192216D01*
X641385Y192596D01*
X642017Y192961D01*
X642659Y193311D01*
X643309Y193645D01*
X643966Y193963D01*
X644632Y194265D01*
X645304Y194551D01*
X645983Y194820D01*
X646669Y195073D01*
X647360Y195309D01*
X648057Y195528D01*
X648759Y195730D01*
X649466Y195915D01*
X650177Y196082D01*
X650892Y196232D01*
X651611Y196365D01*
X652332Y196480D01*
X653056Y196578D01*
X653782Y196658D01*
X654510Y196720D01*
X655239Y196764D01*
X655969Y196791D01*
X656700Y196800D01*
X656700Y256800D01*
X656700Y136800D02*
X656700Y76800D01*
X116700Y76800D02*
X116700Y256800D01*
D10*
X649777Y170334D02*
X649777Y159666D01*
X650962Y159666D02*
X648591Y159666D01*
X648591Y170334D02*
X650962Y170334D01*
X658278Y159666D02*
X660649Y159666D01*
X658278Y159666D02*
X658183Y159668D01*
X658087Y159674D01*
X657992Y159683D01*
X657898Y159697D01*
X657804Y159714D01*
X657711Y159735D01*
X657618Y159760D01*
X657527Y159788D01*
X657437Y159820D01*
X657349Y159856D01*
X657262Y159895D01*
X657176Y159938D01*
X657093Y159984D01*
X657011Y160033D01*
X656931Y160086D01*
X656854Y160142D01*
X656778Y160200D01*
X656706Y160262D01*
X656636Y160327D01*
X656568Y160395D01*
X656503Y160465D01*
X656441Y160537D01*
X656383Y160613D01*
X656327Y160690D01*
X656274Y160770D01*
X656225Y160852D01*
X656179Y160935D01*
X656136Y161021D01*
X656097Y161108D01*
X656061Y161196D01*
X656029Y161286D01*
X656001Y161377D01*
X655976Y161470D01*
X655955Y161563D01*
X655938Y161657D01*
X655924Y161751D01*
X655915Y161846D01*
X655909Y161942D01*
X655907Y162037D01*
X655907Y167963D01*
X655909Y168058D01*
X655915Y168154D01*
X655924Y168249D01*
X655938Y168343D01*
X655955Y168437D01*
X655976Y168530D01*
X656001Y168623D01*
X656029Y168714D01*
X656061Y168804D01*
X656097Y168892D01*
X656136Y168979D01*
X656179Y169065D01*
X656225Y169148D01*
X656274Y169230D01*
X656327Y169310D01*
X656383Y169387D01*
X656441Y169463D01*
X656503Y169535D01*
X656568Y169605D01*
X656636Y169673D01*
X656706Y169738D01*
X656778Y169800D01*
X656854Y169858D01*
X656931Y169914D01*
X657011Y169967D01*
X657092Y170016D01*
X657176Y170062D01*
X657262Y170105D01*
X657349Y170144D01*
X657437Y170180D01*
X657527Y170212D01*
X657618Y170240D01*
X657711Y170265D01*
X657804Y170286D01*
X657898Y170303D01*
X657992Y170317D01*
X658087Y170326D01*
X658182Y170332D01*
X658278Y170334D01*
X660649Y170334D01*
X665482Y167963D02*
X668445Y170334D01*
X668445Y159666D01*
X665482Y159666D02*
X671409Y159666D01*
D13*
X716580Y-10000D02*
X716580Y-76040D01*
X630220Y-20160D02*
X106980Y-20160D01*
X630220Y-10000D02*
X716580Y-10000D01*
X630220Y-10000D02*
X630220Y-20160D01*
X20620Y-10000D02*
X20620Y-76040D01*
X20620Y-10000D02*
X106980Y-10000D01*
X106980Y-20160D01*
X89200Y-157320D02*
X648000Y-157320D01*
X89200Y-157320D02*
X89200Y-76040D01*
X20620Y-76040D01*
X648000Y-76040D02*
X648000Y-157320D01*
X648000Y-76040D02*
X716580Y-76040D01*
X678480Y-26193D02*
X678480Y-12540D01*
X678480Y-36193D02*
X678480Y-49847D01*
X678480Y-59847D02*
X678480Y-73500D01*
X58720Y-26193D02*
X58720Y-12540D01*
X58720Y-36193D02*
X58720Y-49847D01*
X58720Y-59847D02*
X58720Y-73500D01*
D14*
X685000Y96150D02*
X691350Y102500D01*
X685000Y83450D02*
X691350Y77100D01*
X685000Y70750D01*
X685000Y58050D02*
X691350Y51700D01*
X691350Y102500D02*
X729450Y102500D01*
X735800Y96150D01*
X735800Y83450D01*
X729450Y77100D01*
X735800Y70750D01*
X735800Y58050D01*
X729450Y51700D01*
X685000Y58050D02*
X685000Y70750D01*
X685000Y83450D02*
X685000Y96150D01*
X691350Y51700D02*
X685000Y45350D01*
X685000Y32650D02*
X691350Y26300D01*
X729450Y51700D02*
X735800Y45350D01*
X735800Y32650D01*
X729450Y26300D01*
X691350Y26300D01*
X685000Y32650D02*
X685000Y45350D01*
D12*
X680400Y49400D02*
X680035Y49404D01*
X679670Y49418D01*
X679305Y49440D01*
X678941Y49471D01*
X678578Y49511D01*
X678216Y49560D01*
X677855Y49617D01*
X677496Y49684D01*
X677139Y49759D01*
X676783Y49843D01*
X676430Y49935D01*
X676079Y50036D01*
X675730Y50145D01*
X675384Y50263D01*
X675042Y50390D01*
X674702Y50524D01*
X674366Y50667D01*
X674033Y50818D01*
X673704Y50977D01*
X673379Y51144D01*
X673059Y51319D01*
X672742Y51502D01*
X672431Y51692D01*
X672123Y51890D01*
X671821Y52095D01*
X671524Y52308D01*
X671232Y52528D01*
X670946Y52754D01*
X670665Y52988D01*
X670390Y53228D01*
X670121Y53475D01*
X669858Y53729D01*
X669601Y53989D01*
X669351Y54255D01*
X669107Y54527D01*
X668870Y54805D01*
X668640Y55089D01*
X668417Y55378D01*
X668201Y55672D01*
X667992Y55972D01*
X667790Y56276D01*
X667596Y56586D01*
X667410Y56900D01*
X667231Y57219D01*
X667060Y57541D01*
X666897Y57868D01*
X666742Y58199D01*
X666595Y58533D01*
X666456Y58871D01*
X666326Y59213D01*
X666203Y59557D01*
X666090Y59904D01*
X665984Y60254D01*
X665888Y60606D01*
X665800Y60961D01*
X665720Y61317D01*
X665650Y61675D01*
X665588Y62035D01*
X665534Y62397D01*
X665490Y62759D01*
X665454Y63123D01*
X665428Y63487D01*
X665410Y63852D01*
X665401Y64217D01*
X665401Y64583D01*
X665410Y64948D01*
X665428Y65313D01*
X665454Y65677D01*
X665490Y66041D01*
X665534Y66403D01*
X665588Y66765D01*
X665650Y67125D01*
X665720Y67483D01*
X665800Y67839D01*
X665888Y68194D01*
X665984Y68546D01*
X666090Y68896D01*
X666203Y69243D01*
X666326Y69587D01*
X666456Y69929D01*
X666595Y70267D01*
X666742Y70601D01*
X666897Y70932D01*
X667060Y71259D01*
X667231Y71581D01*
X667410Y71900D01*
X667596Y72214D01*
X667790Y72524D01*
X667992Y72828D01*
X668201Y73128D01*
X668417Y73422D01*
X668640Y73711D01*
X668870Y73995D01*
X669107Y74273D01*
X669351Y74545D01*
X669601Y74811D01*
X669858Y75071D01*
X670121Y75325D01*
X670390Y75572D01*
X670665Y75812D01*
X670946Y76046D01*
X671232Y76272D01*
X671524Y76492D01*
X671821Y76705D01*
X672123Y76910D01*
X672431Y77108D01*
X672742Y77298D01*
X673059Y77481D01*
X673379Y77656D01*
X673704Y77823D01*
X674033Y77982D01*
X674366Y78133D01*
X674702Y78276D01*
X675042Y78410D01*
X675384Y78537D01*
X675730Y78655D01*
X676079Y78764D01*
X676430Y78865D01*
X676783Y78957D01*
X677139Y79041D01*
X677496Y79116D01*
X677855Y79183D01*
X678216Y79240D01*
X678578Y79289D01*
X678941Y79329D01*
X679305Y79360D01*
X679670Y79382D01*
X680035Y79396D01*
X680400Y79400D01*
D10*
X686516Y18834D02*
X686516Y8166D01*
X686516Y18834D02*
X689479Y18834D01*
X689586Y18832D01*
X689693Y18826D01*
X689799Y18817D01*
X689905Y18803D01*
X690011Y18786D01*
X690116Y18765D01*
X690220Y18740D01*
X690323Y18711D01*
X690425Y18679D01*
X690526Y18643D01*
X690625Y18603D01*
X690723Y18560D01*
X690819Y18513D01*
X690914Y18463D01*
X691007Y18410D01*
X691097Y18353D01*
X691186Y18293D01*
X691272Y18230D01*
X691356Y18164D01*
X691438Y18094D01*
X691517Y18022D01*
X691593Y17947D01*
X691667Y17869D01*
X691737Y17789D01*
X691805Y17706D01*
X691870Y17621D01*
X691931Y17534D01*
X691990Y17444D01*
X692045Y17352D01*
X692097Y17259D01*
X692145Y17163D01*
X692190Y17066D01*
X692232Y16968D01*
X692269Y16868D01*
X692304Y16766D01*
X692334Y16664D01*
X692361Y16560D01*
X692384Y16456D01*
X692403Y16350D01*
X692418Y16244D01*
X692430Y16138D01*
X692438Y16031D01*
X692442Y15924D01*
X692442Y15818D01*
X692438Y15711D01*
X692430Y15604D01*
X692418Y15498D01*
X692403Y15392D01*
X692384Y15286D01*
X692361Y15182D01*
X692334Y15078D01*
X692304Y14976D01*
X692269Y14874D01*
X692232Y14774D01*
X692190Y14676D01*
X692145Y14579D01*
X692097Y14483D01*
X692045Y14389D01*
X691990Y14298D01*
X691931Y14208D01*
X691870Y14121D01*
X691805Y14036D01*
X691737Y13953D01*
X691667Y13873D01*
X691593Y13795D01*
X691517Y13720D01*
X691438Y13648D01*
X691356Y13578D01*
X691272Y13512D01*
X691186Y13449D01*
X691097Y13389D01*
X691007Y13332D01*
X690914Y13279D01*
X690819Y13229D01*
X690723Y13182D01*
X690625Y13139D01*
X690526Y13099D01*
X690425Y13063D01*
X690323Y13031D01*
X690220Y13002D01*
X690116Y12977D01*
X690011Y12956D01*
X689905Y12939D01*
X689799Y12925D01*
X689693Y12916D01*
X689586Y12910D01*
X689479Y12908D01*
X689479Y12907D02*
X686516Y12907D01*
X697057Y18834D02*
X699428Y8166D01*
X701798Y15278D01*
X704169Y8166D01*
X706540Y18834D01*
X712280Y18834D02*
X712280Y8166D01*
X712280Y18834D02*
X715244Y18834D01*
X715351Y18832D01*
X715458Y18826D01*
X715564Y18817D01*
X715670Y18803D01*
X715776Y18786D01*
X715881Y18765D01*
X715985Y18740D01*
X716088Y18711D01*
X716190Y18679D01*
X716291Y18643D01*
X716390Y18603D01*
X716488Y18560D01*
X716584Y18513D01*
X716679Y18463D01*
X716772Y18410D01*
X716862Y18353D01*
X716951Y18293D01*
X717037Y18230D01*
X717121Y18164D01*
X717203Y18094D01*
X717282Y18022D01*
X717358Y17947D01*
X717432Y17869D01*
X717502Y17789D01*
X717570Y17706D01*
X717635Y17621D01*
X717696Y17534D01*
X717755Y17444D01*
X717810Y17352D01*
X717862Y17259D01*
X717910Y17163D01*
X717955Y17066D01*
X717997Y16968D01*
X718034Y16868D01*
X718069Y16766D01*
X718099Y16664D01*
X718126Y16560D01*
X718149Y16456D01*
X718168Y16350D01*
X718183Y16244D01*
X718195Y16138D01*
X718203Y16031D01*
X718207Y15924D01*
X718207Y15818D01*
X718203Y15711D01*
X718195Y15604D01*
X718183Y15498D01*
X718168Y15392D01*
X718149Y15286D01*
X718126Y15182D01*
X718099Y15078D01*
X718069Y14976D01*
X718034Y14874D01*
X717997Y14774D01*
X717955Y14676D01*
X717910Y14579D01*
X717862Y14483D01*
X717810Y14389D01*
X717755Y14298D01*
X717696Y14208D01*
X717635Y14121D01*
X717570Y14036D01*
X717502Y13953D01*
X717432Y13873D01*
X717358Y13795D01*
X717282Y13720D01*
X717203Y13648D01*
X717121Y13578D01*
X717037Y13512D01*
X716951Y13449D01*
X716862Y13389D01*
X716772Y13332D01*
X716679Y13279D01*
X716584Y13229D01*
X716488Y13182D01*
X716390Y13139D01*
X716291Y13099D01*
X716190Y13063D01*
X716088Y13031D01*
X715985Y13002D01*
X715881Y12977D01*
X715776Y12956D01*
X715670Y12939D01*
X715564Y12925D01*
X715458Y12916D01*
X715351Y12910D01*
X715244Y12908D01*
X715244Y12907D02*
X712280Y12907D01*
X715836Y12907D02*
X718207Y8166D01*
X724277Y8166D02*
X724277Y18834D01*
X723092Y8166D02*
X725463Y8166D01*
X725463Y18834D02*
X723092Y18834D01*
X730839Y18834D02*
X730839Y8166D01*
X736766Y8166D02*
X730839Y18834D01*
X736766Y18834D02*
X736766Y8166D01*
D13*
X626000Y378800D02*
X117000Y378800D01*
X117000Y297520D01*
X626000Y297520D02*
X626000Y378800D01*
X626000Y297520D02*
X634000Y297520D01*
X117000Y297520D02*
X111650Y297520D01*
M02*
