G04 EAGLE Gerber RS-274X export*
G75*
%MOMM*%
%FSLAX34Y34*%
%LPD*%
%INBottom Silkscreen*%
%IPPOS*%
%AMOC8*
5,1,8,0,0,1.08239X$1,22.5*%
G01*
%ADD10C,0.203200*%
%ADD11C,0.152400*%
%ADD12C,0.200000*%
%ADD13C,0.300000*%
%ADD14R,0.381000X0.762000*%
%ADD15C,0.127000*%
%ADD16C,0.304800*%


D10*
X114500Y259387D02*
X114502Y259292D01*
X114508Y259196D01*
X114517Y259101D01*
X114531Y259007D01*
X114548Y258913D01*
X114569Y258820D01*
X114594Y258727D01*
X114622Y258636D01*
X114654Y258546D01*
X114690Y258458D01*
X114729Y258371D01*
X114772Y258285D01*
X114818Y258202D01*
X114867Y258120D01*
X114920Y258040D01*
X114976Y257963D01*
X115034Y257887D01*
X115096Y257815D01*
X115161Y257745D01*
X115229Y257677D01*
X115299Y257612D01*
X115371Y257550D01*
X115447Y257492D01*
X115524Y257436D01*
X115604Y257383D01*
X115685Y257334D01*
X115769Y257288D01*
X115855Y257245D01*
X115942Y257206D01*
X116030Y257170D01*
X116120Y257138D01*
X116211Y257110D01*
X116304Y257085D01*
X116397Y257064D01*
X116491Y257047D01*
X116585Y257033D01*
X116680Y257024D01*
X116776Y257018D01*
X116871Y257016D01*
X117007Y257018D01*
X117144Y257023D01*
X117280Y257033D01*
X117415Y257046D01*
X117551Y257062D01*
X117685Y257083D01*
X117820Y257107D01*
X117953Y257134D01*
X118086Y257166D01*
X118218Y257200D01*
X118349Y257239D01*
X118478Y257281D01*
X118607Y257326D01*
X118734Y257375D01*
X118860Y257428D01*
X118984Y257484D01*
X119107Y257543D01*
X119228Y257605D01*
X119348Y257671D01*
X119465Y257740D01*
X119581Y257813D01*
X119695Y257888D01*
X119806Y257966D01*
X119915Y258048D01*
X120023Y258132D01*
X120127Y258219D01*
X120230Y258309D01*
X120330Y258402D01*
X120427Y258498D01*
X120131Y265313D02*
X120129Y265408D01*
X120123Y265504D01*
X120114Y265599D01*
X120100Y265693D01*
X120083Y265787D01*
X120062Y265880D01*
X120037Y265973D01*
X120009Y266064D01*
X119977Y266154D01*
X119941Y266242D01*
X119902Y266329D01*
X119859Y266415D01*
X119813Y266499D01*
X119764Y266580D01*
X119711Y266660D01*
X119655Y266737D01*
X119597Y266813D01*
X119535Y266885D01*
X119470Y266955D01*
X119402Y267023D01*
X119332Y267088D01*
X119260Y267150D01*
X119184Y267208D01*
X119107Y267264D01*
X119027Y267317D01*
X118946Y267366D01*
X118862Y267412D01*
X118776Y267455D01*
X118689Y267494D01*
X118601Y267530D01*
X118511Y267562D01*
X118420Y267590D01*
X118327Y267615D01*
X118234Y267636D01*
X118140Y267653D01*
X118046Y267667D01*
X117951Y267676D01*
X117855Y267682D01*
X117760Y267684D01*
X117630Y267682D01*
X117500Y267676D01*
X117370Y267667D01*
X117241Y267654D01*
X117112Y267637D01*
X116984Y267616D01*
X116856Y267591D01*
X116729Y267563D01*
X116603Y267531D01*
X116478Y267495D01*
X116354Y267456D01*
X116232Y267413D01*
X116110Y267367D01*
X115990Y267316D01*
X115872Y267263D01*
X115755Y267206D01*
X115640Y267146D01*
X115526Y267082D01*
X115415Y267015D01*
X115305Y266945D01*
X115198Y266871D01*
X115093Y266795D01*
X118946Y263238D02*
X119027Y263289D01*
X119107Y263343D01*
X119185Y263399D01*
X119260Y263459D01*
X119333Y263522D01*
X119403Y263588D01*
X119470Y263656D01*
X119535Y263727D01*
X119597Y263801D01*
X119656Y263877D01*
X119712Y263955D01*
X119764Y264036D01*
X119814Y264118D01*
X119860Y264203D01*
X119902Y264289D01*
X119942Y264377D01*
X119977Y264466D01*
X120009Y264557D01*
X120038Y264649D01*
X120062Y264742D01*
X120083Y264835D01*
X120100Y264930D01*
X120114Y265025D01*
X120123Y265121D01*
X120129Y265217D01*
X120131Y265313D01*
X115686Y261462D02*
X115604Y261411D01*
X115524Y261357D01*
X115446Y261301D01*
X115371Y261241D01*
X115298Y261178D01*
X115228Y261112D01*
X115161Y261044D01*
X115096Y260973D01*
X115034Y260899D01*
X114975Y260823D01*
X114919Y260745D01*
X114867Y260664D01*
X114817Y260582D01*
X114771Y260497D01*
X114729Y260411D01*
X114689Y260323D01*
X114654Y260234D01*
X114622Y260143D01*
X114593Y260051D01*
X114569Y259958D01*
X114548Y259865D01*
X114531Y259770D01*
X114517Y259675D01*
X114508Y259579D01*
X114502Y259483D01*
X114500Y259387D01*
X115685Y261461D02*
X118945Y263239D01*
X108997Y267684D02*
X108997Y257016D01*
X108997Y267684D02*
X106033Y267684D01*
X105925Y267682D01*
X105817Y267676D01*
X105709Y267666D01*
X105602Y267652D01*
X105495Y267635D01*
X105389Y267613D01*
X105284Y267588D01*
X105179Y267558D01*
X105076Y267525D01*
X104975Y267488D01*
X104874Y267448D01*
X104775Y267404D01*
X104678Y267356D01*
X104583Y267305D01*
X104489Y267250D01*
X104398Y267192D01*
X104309Y267131D01*
X104222Y267066D01*
X104138Y266999D01*
X104056Y266928D01*
X103976Y266854D01*
X103900Y266778D01*
X103826Y266698D01*
X103756Y266616D01*
X103688Y266532D01*
X103623Y266445D01*
X103562Y266356D01*
X103504Y266265D01*
X103449Y266171D01*
X103398Y266076D01*
X103350Y265979D01*
X103306Y265880D01*
X103266Y265779D01*
X103229Y265678D01*
X103196Y265575D01*
X103166Y265470D01*
X103141Y265365D01*
X103119Y265259D01*
X103102Y265152D01*
X103088Y265045D01*
X103078Y264937D01*
X103072Y264829D01*
X103070Y264721D01*
X103070Y259979D01*
X103072Y259873D01*
X103078Y259768D01*
X103087Y259662D01*
X103100Y259557D01*
X103117Y259453D01*
X103138Y259349D01*
X103162Y259246D01*
X103190Y259144D01*
X103222Y259043D01*
X103257Y258944D01*
X103296Y258845D01*
X103338Y258748D01*
X103383Y258653D01*
X103432Y258559D01*
X103485Y258467D01*
X103540Y258377D01*
X103599Y258289D01*
X103661Y258203D01*
X103726Y258120D01*
X103794Y258039D01*
X103864Y257960D01*
X103938Y257884D01*
X104014Y257810D01*
X104093Y257740D01*
X104174Y257672D01*
X104257Y257607D01*
X104343Y257545D01*
X104431Y257486D01*
X104521Y257431D01*
X104613Y257378D01*
X104707Y257329D01*
X104802Y257284D01*
X104899Y257242D01*
X104998Y257203D01*
X105097Y257168D01*
X105198Y257136D01*
X105300Y257108D01*
X105403Y257084D01*
X105507Y257063D01*
X105611Y257046D01*
X105716Y257033D01*
X105822Y257024D01*
X105927Y257018D01*
X106033Y257016D01*
X108997Y257016D01*
X88769Y257016D02*
X86398Y257016D01*
X88769Y257016D02*
X88864Y257018D01*
X88960Y257024D01*
X89055Y257033D01*
X89149Y257047D01*
X89243Y257064D01*
X89336Y257085D01*
X89429Y257110D01*
X89520Y257138D01*
X89610Y257170D01*
X89698Y257206D01*
X89785Y257245D01*
X89871Y257288D01*
X89955Y257334D01*
X90036Y257383D01*
X90116Y257436D01*
X90193Y257492D01*
X90269Y257550D01*
X90341Y257612D01*
X90411Y257677D01*
X90479Y257745D01*
X90544Y257815D01*
X90606Y257887D01*
X90664Y257963D01*
X90720Y258040D01*
X90773Y258120D01*
X90822Y258202D01*
X90868Y258285D01*
X90911Y258371D01*
X90950Y258458D01*
X90986Y258546D01*
X91018Y258636D01*
X91046Y258727D01*
X91071Y258820D01*
X91092Y258913D01*
X91109Y259007D01*
X91123Y259101D01*
X91132Y259196D01*
X91138Y259292D01*
X91140Y259387D01*
X91139Y259387D02*
X91139Y265313D01*
X91140Y265313D02*
X91138Y265408D01*
X91132Y265504D01*
X91123Y265599D01*
X91109Y265693D01*
X91092Y265787D01*
X91071Y265880D01*
X91046Y265973D01*
X91018Y266064D01*
X90986Y266154D01*
X90950Y266242D01*
X90911Y266329D01*
X90868Y266415D01*
X90822Y266498D01*
X90773Y266580D01*
X90720Y266660D01*
X90664Y266737D01*
X90606Y266813D01*
X90544Y266885D01*
X90479Y266955D01*
X90411Y267023D01*
X90341Y267088D01*
X90269Y267150D01*
X90193Y267208D01*
X90116Y267264D01*
X90036Y267317D01*
X89955Y267366D01*
X89871Y267412D01*
X89785Y267455D01*
X89698Y267494D01*
X89610Y267530D01*
X89520Y267562D01*
X89429Y267590D01*
X89336Y267615D01*
X89243Y267636D01*
X89149Y267653D01*
X89055Y267667D01*
X88960Y267676D01*
X88865Y267682D01*
X88769Y267684D01*
X86398Y267684D01*
X78601Y267684D02*
X82157Y257016D01*
X75045Y257016D02*
X78601Y267684D01*
X75934Y259683D02*
X81268Y259683D01*
X69643Y257016D02*
X69643Y267684D01*
X66680Y267684D01*
X66573Y267682D01*
X66466Y267676D01*
X66360Y267667D01*
X66254Y267653D01*
X66148Y267636D01*
X66043Y267615D01*
X65939Y267590D01*
X65836Y267561D01*
X65734Y267529D01*
X65633Y267493D01*
X65534Y267453D01*
X65436Y267410D01*
X65340Y267363D01*
X65245Y267313D01*
X65152Y267260D01*
X65062Y267203D01*
X64973Y267143D01*
X64887Y267080D01*
X64803Y267014D01*
X64721Y266944D01*
X64642Y266872D01*
X64566Y266797D01*
X64492Y266719D01*
X64422Y266639D01*
X64354Y266556D01*
X64289Y266471D01*
X64228Y266384D01*
X64169Y266294D01*
X64114Y266203D01*
X64062Y266109D01*
X64014Y266013D01*
X63969Y265916D01*
X63927Y265818D01*
X63890Y265718D01*
X63855Y265616D01*
X63825Y265514D01*
X63798Y265410D01*
X63775Y265306D01*
X63756Y265200D01*
X63741Y265094D01*
X63729Y264988D01*
X63721Y264881D01*
X63717Y264774D01*
X63717Y264668D01*
X63721Y264561D01*
X63729Y264454D01*
X63741Y264348D01*
X63756Y264242D01*
X63775Y264136D01*
X63798Y264032D01*
X63825Y263928D01*
X63855Y263826D01*
X63890Y263724D01*
X63927Y263624D01*
X63969Y263526D01*
X64014Y263429D01*
X64062Y263333D01*
X64114Y263240D01*
X64169Y263148D01*
X64228Y263058D01*
X64289Y262971D01*
X64354Y262886D01*
X64422Y262803D01*
X64492Y262723D01*
X64566Y262645D01*
X64642Y262570D01*
X64721Y262498D01*
X64803Y262428D01*
X64887Y262362D01*
X64973Y262299D01*
X65062Y262239D01*
X65152Y262182D01*
X65245Y262129D01*
X65340Y262079D01*
X65436Y262032D01*
X65534Y261989D01*
X65633Y261949D01*
X65734Y261913D01*
X65836Y261881D01*
X65939Y261852D01*
X66043Y261827D01*
X66148Y261806D01*
X66254Y261789D01*
X66360Y261775D01*
X66466Y261766D01*
X66573Y261760D01*
X66680Y261758D01*
X66680Y261757D02*
X69643Y261757D01*
X66087Y261757D02*
X63717Y257016D01*
X57943Y257016D02*
X57943Y267684D01*
X54979Y267684D01*
X54871Y267682D01*
X54763Y267676D01*
X54655Y267666D01*
X54548Y267652D01*
X54441Y267635D01*
X54335Y267613D01*
X54230Y267588D01*
X54125Y267558D01*
X54022Y267525D01*
X53921Y267488D01*
X53820Y267448D01*
X53721Y267404D01*
X53624Y267356D01*
X53529Y267305D01*
X53435Y267250D01*
X53344Y267192D01*
X53255Y267131D01*
X53168Y267066D01*
X53084Y266999D01*
X53002Y266928D01*
X52922Y266854D01*
X52846Y266778D01*
X52772Y266698D01*
X52702Y266616D01*
X52634Y266532D01*
X52569Y266445D01*
X52508Y266356D01*
X52450Y266265D01*
X52395Y266171D01*
X52344Y266076D01*
X52296Y265979D01*
X52252Y265880D01*
X52212Y265779D01*
X52175Y265678D01*
X52142Y265575D01*
X52112Y265470D01*
X52087Y265365D01*
X52065Y265259D01*
X52048Y265152D01*
X52034Y265045D01*
X52024Y264937D01*
X52018Y264829D01*
X52016Y264721D01*
X52016Y259979D01*
X52018Y259873D01*
X52024Y259768D01*
X52033Y259662D01*
X52046Y259557D01*
X52063Y259453D01*
X52084Y259349D01*
X52108Y259246D01*
X52136Y259144D01*
X52168Y259043D01*
X52203Y258944D01*
X52242Y258845D01*
X52284Y258748D01*
X52329Y258653D01*
X52378Y258559D01*
X52431Y258467D01*
X52486Y258377D01*
X52545Y258289D01*
X52607Y258203D01*
X52672Y258120D01*
X52740Y258039D01*
X52810Y257960D01*
X52884Y257884D01*
X52960Y257810D01*
X53039Y257740D01*
X53120Y257672D01*
X53203Y257607D01*
X53289Y257545D01*
X53377Y257486D01*
X53467Y257431D01*
X53559Y257378D01*
X53653Y257329D01*
X53748Y257284D01*
X53845Y257242D01*
X53944Y257203D01*
X54043Y257168D01*
X54144Y257136D01*
X54246Y257108D01*
X54349Y257084D01*
X54453Y257063D01*
X54557Y257046D01*
X54662Y257033D01*
X54768Y257024D01*
X54873Y257018D01*
X54979Y257016D01*
X57943Y257016D01*
X125000Y101000D02*
X-22000Y101000D01*
X125000Y101000D02*
X125000Y249000D01*
X-22000Y249000D01*
X-22000Y101000D01*
D11*
X312638Y218662D02*
X312638Y227138D01*
X309813Y222429D01*
X306987Y227138D01*
X306987Y218662D01*
X302267Y221016D02*
X302267Y224784D01*
X302265Y224880D01*
X302259Y224976D01*
X302249Y225071D01*
X302236Y225166D01*
X302218Y225261D01*
X302197Y225355D01*
X302172Y225447D01*
X302143Y225539D01*
X302110Y225629D01*
X302074Y225718D01*
X302034Y225805D01*
X301990Y225891D01*
X301944Y225975D01*
X301893Y226057D01*
X301840Y226136D01*
X301783Y226214D01*
X301723Y226289D01*
X301660Y226362D01*
X301594Y226431D01*
X301526Y226499D01*
X301455Y226563D01*
X301381Y226624D01*
X301304Y226683D01*
X301226Y226738D01*
X301145Y226790D01*
X301062Y226838D01*
X300977Y226884D01*
X300891Y226925D01*
X300803Y226963D01*
X300713Y226998D01*
X300622Y227029D01*
X300530Y227056D01*
X300437Y227079D01*
X300343Y227098D01*
X300248Y227114D01*
X300153Y227126D01*
X300057Y227134D01*
X299961Y227138D01*
X299865Y227138D01*
X299769Y227134D01*
X299673Y227126D01*
X299578Y227114D01*
X299483Y227098D01*
X299389Y227079D01*
X299296Y227056D01*
X299204Y227029D01*
X299113Y226998D01*
X299023Y226963D01*
X298935Y226925D01*
X298849Y226884D01*
X298764Y226838D01*
X298681Y226790D01*
X298600Y226738D01*
X298522Y226683D01*
X298445Y226624D01*
X298371Y226563D01*
X298300Y226499D01*
X298232Y226431D01*
X298166Y226362D01*
X298103Y226289D01*
X298043Y226214D01*
X297986Y226136D01*
X297933Y226057D01*
X297882Y225975D01*
X297836Y225891D01*
X297792Y225805D01*
X297752Y225718D01*
X297716Y225629D01*
X297683Y225539D01*
X297654Y225447D01*
X297629Y225355D01*
X297608Y225261D01*
X297590Y225166D01*
X297577Y225071D01*
X297567Y224976D01*
X297561Y224880D01*
X297559Y224784D01*
X297558Y224784D02*
X297558Y221016D01*
X297559Y221016D02*
X297561Y220920D01*
X297567Y220824D01*
X297577Y220729D01*
X297590Y220634D01*
X297608Y220539D01*
X297629Y220445D01*
X297654Y220353D01*
X297683Y220261D01*
X297716Y220171D01*
X297752Y220082D01*
X297792Y219995D01*
X297836Y219909D01*
X297882Y219825D01*
X297933Y219743D01*
X297986Y219664D01*
X298043Y219586D01*
X298103Y219511D01*
X298166Y219438D01*
X298232Y219369D01*
X298300Y219301D01*
X298371Y219237D01*
X298445Y219176D01*
X298522Y219117D01*
X298600Y219062D01*
X298681Y219010D01*
X298764Y218962D01*
X298849Y218916D01*
X298935Y218875D01*
X299023Y218837D01*
X299113Y218802D01*
X299204Y218771D01*
X299296Y218744D01*
X299389Y218721D01*
X299483Y218702D01*
X299578Y218686D01*
X299673Y218674D01*
X299769Y218666D01*
X299865Y218662D01*
X299961Y218662D01*
X300057Y218666D01*
X300153Y218674D01*
X300248Y218686D01*
X300343Y218702D01*
X300437Y218721D01*
X300530Y218744D01*
X300622Y218771D01*
X300713Y218802D01*
X300803Y218837D01*
X300891Y218875D01*
X300977Y218916D01*
X301062Y218962D01*
X301145Y219010D01*
X301226Y219062D01*
X301304Y219117D01*
X301381Y219176D01*
X301455Y219237D01*
X301526Y219301D01*
X301594Y219369D01*
X301660Y219438D01*
X301723Y219511D01*
X301783Y219586D01*
X301840Y219664D01*
X301893Y219743D01*
X301944Y219825D01*
X301990Y219909D01*
X302034Y219995D01*
X302074Y220082D01*
X302110Y220171D01*
X302143Y220261D01*
X302172Y220353D01*
X302197Y220445D01*
X302218Y220539D01*
X302236Y220634D01*
X302249Y220729D01*
X302259Y220824D01*
X302265Y220920D01*
X302267Y221016D01*
X292967Y218662D02*
X292967Y227138D01*
X290613Y227138D01*
X290518Y227136D01*
X290424Y227130D01*
X290329Y227121D01*
X290235Y227108D01*
X290142Y227090D01*
X290050Y227070D01*
X289958Y227045D01*
X289868Y227017D01*
X289778Y226985D01*
X289690Y226950D01*
X289604Y226911D01*
X289519Y226868D01*
X289436Y226823D01*
X289355Y226774D01*
X289276Y226721D01*
X289199Y226666D01*
X289124Y226607D01*
X289052Y226546D01*
X288982Y226482D01*
X288915Y226415D01*
X288851Y226345D01*
X288790Y226273D01*
X288731Y226198D01*
X288676Y226121D01*
X288623Y226042D01*
X288574Y225961D01*
X288529Y225878D01*
X288486Y225793D01*
X288447Y225707D01*
X288412Y225619D01*
X288380Y225529D01*
X288352Y225439D01*
X288327Y225347D01*
X288307Y225255D01*
X288289Y225162D01*
X288276Y225068D01*
X288267Y224973D01*
X288261Y224879D01*
X288259Y224784D01*
X288258Y224784D02*
X288258Y221016D01*
X288259Y221016D02*
X288261Y220921D01*
X288267Y220827D01*
X288276Y220732D01*
X288289Y220638D01*
X288307Y220545D01*
X288327Y220453D01*
X288352Y220361D01*
X288380Y220271D01*
X288412Y220181D01*
X288447Y220093D01*
X288486Y220007D01*
X288529Y219922D01*
X288574Y219839D01*
X288623Y219758D01*
X288676Y219679D01*
X288731Y219602D01*
X288790Y219527D01*
X288851Y219455D01*
X288915Y219385D01*
X288982Y219318D01*
X289052Y219254D01*
X289124Y219193D01*
X289199Y219134D01*
X289276Y219079D01*
X289355Y219026D01*
X289436Y218977D01*
X289519Y218932D01*
X289604Y218889D01*
X289690Y218850D01*
X289778Y218815D01*
X289868Y218783D01*
X289958Y218755D01*
X290050Y218730D01*
X290142Y218710D01*
X290235Y218692D01*
X290329Y218679D01*
X290424Y218670D01*
X290518Y218664D01*
X290613Y218662D01*
X292967Y218662D01*
D10*
X593060Y260400D02*
X593060Y269600D01*
D11*
X614238Y275762D02*
X614238Y284238D01*
X611884Y284238D01*
X611789Y284236D01*
X611695Y284230D01*
X611600Y284221D01*
X611506Y284208D01*
X611413Y284190D01*
X611321Y284170D01*
X611229Y284145D01*
X611139Y284117D01*
X611049Y284085D01*
X610961Y284050D01*
X610875Y284011D01*
X610790Y283968D01*
X610707Y283923D01*
X610626Y283874D01*
X610547Y283821D01*
X610470Y283766D01*
X610395Y283707D01*
X610323Y283646D01*
X610253Y283582D01*
X610186Y283515D01*
X610122Y283445D01*
X610061Y283373D01*
X610002Y283298D01*
X609947Y283221D01*
X609894Y283142D01*
X609845Y283061D01*
X609800Y282978D01*
X609757Y282893D01*
X609718Y282807D01*
X609683Y282719D01*
X609651Y282629D01*
X609623Y282539D01*
X609598Y282447D01*
X609578Y282355D01*
X609560Y282262D01*
X609547Y282168D01*
X609538Y282073D01*
X609532Y281979D01*
X609530Y281884D01*
X609529Y281884D02*
X609529Y278116D01*
X609530Y278116D02*
X609532Y278021D01*
X609538Y277927D01*
X609547Y277832D01*
X609560Y277738D01*
X609578Y277645D01*
X609598Y277553D01*
X609623Y277461D01*
X609651Y277371D01*
X609683Y277281D01*
X609718Y277193D01*
X609757Y277107D01*
X609800Y277022D01*
X609845Y276939D01*
X609894Y276858D01*
X609947Y276779D01*
X610002Y276702D01*
X610061Y276627D01*
X610122Y276555D01*
X610186Y276485D01*
X610253Y276418D01*
X610323Y276354D01*
X610395Y276293D01*
X610470Y276234D01*
X610547Y276179D01*
X610626Y276126D01*
X610707Y276077D01*
X610790Y276032D01*
X610875Y275989D01*
X610961Y275950D01*
X611049Y275915D01*
X611139Y275883D01*
X611229Y275855D01*
X611321Y275830D01*
X611413Y275810D01*
X611506Y275792D01*
X611600Y275779D01*
X611695Y275770D01*
X611789Y275764D01*
X611884Y275762D01*
X614238Y275762D01*
X604938Y282354D02*
X602584Y284238D01*
X602584Y275762D01*
X604938Y275762D02*
X600229Y275762D01*
D10*
X558060Y269600D02*
X558060Y260400D01*
D11*
X579238Y275762D02*
X579238Y284238D01*
X576884Y284238D01*
X576789Y284236D01*
X576695Y284230D01*
X576600Y284221D01*
X576506Y284208D01*
X576413Y284190D01*
X576321Y284170D01*
X576229Y284145D01*
X576139Y284117D01*
X576049Y284085D01*
X575961Y284050D01*
X575875Y284011D01*
X575790Y283968D01*
X575707Y283923D01*
X575626Y283874D01*
X575547Y283821D01*
X575470Y283766D01*
X575395Y283707D01*
X575323Y283646D01*
X575253Y283582D01*
X575186Y283515D01*
X575122Y283445D01*
X575061Y283373D01*
X575002Y283298D01*
X574947Y283221D01*
X574894Y283142D01*
X574845Y283061D01*
X574800Y282978D01*
X574757Y282893D01*
X574718Y282807D01*
X574683Y282719D01*
X574651Y282629D01*
X574623Y282539D01*
X574598Y282447D01*
X574578Y282355D01*
X574560Y282262D01*
X574547Y282168D01*
X574538Y282073D01*
X574532Y281979D01*
X574530Y281884D01*
X574529Y281884D02*
X574529Y278116D01*
X574530Y278116D02*
X574532Y278021D01*
X574538Y277927D01*
X574547Y277832D01*
X574560Y277738D01*
X574578Y277645D01*
X574598Y277553D01*
X574623Y277461D01*
X574651Y277371D01*
X574683Y277281D01*
X574718Y277193D01*
X574757Y277107D01*
X574800Y277022D01*
X574845Y276939D01*
X574894Y276858D01*
X574947Y276779D01*
X575002Y276702D01*
X575061Y276627D01*
X575122Y276555D01*
X575186Y276485D01*
X575253Y276418D01*
X575323Y276354D01*
X575395Y276293D01*
X575470Y276234D01*
X575547Y276179D01*
X575626Y276126D01*
X575707Y276077D01*
X575790Y276032D01*
X575875Y275989D01*
X575961Y275950D01*
X576049Y275915D01*
X576139Y275883D01*
X576229Y275855D01*
X576321Y275830D01*
X576413Y275810D01*
X576506Y275792D01*
X576600Y275779D01*
X576695Y275770D01*
X576789Y275764D01*
X576884Y275762D01*
X579238Y275762D01*
X567348Y284238D02*
X567258Y284236D01*
X567168Y284230D01*
X567079Y284221D01*
X566990Y284208D01*
X566902Y284190D01*
X566814Y284170D01*
X566728Y284145D01*
X566642Y284117D01*
X566558Y284085D01*
X566475Y284050D01*
X566394Y284011D01*
X566315Y283969D01*
X566237Y283923D01*
X566161Y283875D01*
X566088Y283823D01*
X566017Y283768D01*
X565948Y283710D01*
X565882Y283649D01*
X565818Y283585D01*
X565757Y283519D01*
X565699Y283450D01*
X565644Y283379D01*
X565592Y283306D01*
X565544Y283230D01*
X565498Y283152D01*
X565456Y283073D01*
X565417Y282992D01*
X565382Y282909D01*
X565350Y282825D01*
X565322Y282739D01*
X565297Y282653D01*
X565277Y282565D01*
X565259Y282477D01*
X565246Y282388D01*
X565237Y282299D01*
X565231Y282209D01*
X565229Y282119D01*
X567348Y284238D02*
X567452Y284236D01*
X567555Y284230D01*
X567659Y284220D01*
X567761Y284206D01*
X567864Y284189D01*
X567965Y284167D01*
X568066Y284142D01*
X568165Y284112D01*
X568263Y284079D01*
X568360Y284043D01*
X568456Y284002D01*
X568550Y283958D01*
X568642Y283911D01*
X568732Y283860D01*
X568821Y283805D01*
X568907Y283747D01*
X568991Y283686D01*
X569072Y283622D01*
X569151Y283555D01*
X569228Y283485D01*
X569301Y283412D01*
X569372Y283336D01*
X569440Y283258D01*
X569505Y283177D01*
X569566Y283093D01*
X569625Y283008D01*
X569680Y282920D01*
X569732Y282830D01*
X569780Y282738D01*
X569825Y282645D01*
X569866Y282549D01*
X569904Y282453D01*
X569938Y282355D01*
X565935Y280471D02*
X565870Y280536D01*
X565807Y280603D01*
X565747Y280673D01*
X565690Y280746D01*
X565636Y280820D01*
X565585Y280897D01*
X565537Y280976D01*
X565492Y281056D01*
X565451Y281138D01*
X565413Y281222D01*
X565378Y281308D01*
X565347Y281395D01*
X565320Y281483D01*
X565296Y281571D01*
X565275Y281661D01*
X565259Y281752D01*
X565246Y281843D01*
X565236Y281935D01*
X565231Y282027D01*
X565229Y282119D01*
X565935Y280471D02*
X569938Y275762D01*
X565229Y275762D01*
D12*
X642500Y192500D02*
X642500Y157500D01*
X707500Y157500D01*
X707500Y192500D01*
X642500Y192500D01*
X643750Y202750D02*
X643750Y215250D01*
D11*
X681296Y220762D02*
X681296Y229238D01*
X682238Y220762D02*
X680354Y220762D01*
X680354Y229238D02*
X682238Y229238D01*
X674605Y220762D02*
X672722Y220762D01*
X674605Y220762D02*
X674690Y220764D01*
X674774Y220770D01*
X674858Y220779D01*
X674941Y220792D01*
X675024Y220809D01*
X675106Y220830D01*
X675187Y220854D01*
X675267Y220882D01*
X675345Y220914D01*
X675422Y220949D01*
X675498Y220987D01*
X675571Y221029D01*
X675643Y221074D01*
X675712Y221122D01*
X675780Y221173D01*
X675845Y221227D01*
X675907Y221284D01*
X675967Y221344D01*
X676024Y221406D01*
X676078Y221471D01*
X676129Y221539D01*
X676177Y221608D01*
X676222Y221680D01*
X676264Y221753D01*
X676302Y221829D01*
X676337Y221906D01*
X676369Y221984D01*
X676397Y222064D01*
X676421Y222145D01*
X676442Y222227D01*
X676459Y222310D01*
X676472Y222393D01*
X676481Y222477D01*
X676487Y222562D01*
X676489Y222646D01*
X676489Y227354D01*
X676487Y227439D01*
X676481Y227523D01*
X676472Y227607D01*
X676459Y227690D01*
X676442Y227773D01*
X676421Y227855D01*
X676397Y227936D01*
X676369Y228016D01*
X676337Y228094D01*
X676302Y228171D01*
X676264Y228247D01*
X676222Y228320D01*
X676177Y228392D01*
X676129Y228461D01*
X676078Y228529D01*
X676024Y228594D01*
X675967Y228656D01*
X675907Y228716D01*
X675845Y228773D01*
X675780Y228827D01*
X675712Y228878D01*
X675643Y228926D01*
X675571Y228971D01*
X675498Y229013D01*
X675422Y229051D01*
X675346Y229086D01*
X675267Y229118D01*
X675187Y229146D01*
X675106Y229170D01*
X675024Y229191D01*
X674941Y229208D01*
X674858Y229221D01*
X674774Y229230D01*
X674690Y229236D01*
X674605Y229238D01*
X672722Y229238D01*
X666361Y229238D02*
X666271Y229236D01*
X666181Y229230D01*
X666092Y229221D01*
X666003Y229208D01*
X665915Y229190D01*
X665827Y229170D01*
X665741Y229145D01*
X665655Y229117D01*
X665571Y229085D01*
X665488Y229050D01*
X665407Y229011D01*
X665328Y228969D01*
X665250Y228923D01*
X665174Y228875D01*
X665101Y228823D01*
X665030Y228768D01*
X664961Y228710D01*
X664895Y228649D01*
X664831Y228585D01*
X664770Y228519D01*
X664712Y228450D01*
X664657Y228379D01*
X664605Y228306D01*
X664557Y228230D01*
X664511Y228152D01*
X664469Y228073D01*
X664430Y227992D01*
X664395Y227909D01*
X664363Y227825D01*
X664335Y227739D01*
X664310Y227653D01*
X664290Y227565D01*
X664272Y227477D01*
X664259Y227388D01*
X664250Y227299D01*
X664244Y227209D01*
X664242Y227119D01*
X666361Y229238D02*
X666465Y229236D01*
X666568Y229230D01*
X666672Y229220D01*
X666774Y229206D01*
X666877Y229189D01*
X666978Y229167D01*
X667079Y229142D01*
X667178Y229112D01*
X667276Y229079D01*
X667373Y229043D01*
X667469Y229002D01*
X667563Y228958D01*
X667655Y228911D01*
X667745Y228860D01*
X667834Y228805D01*
X667920Y228747D01*
X668004Y228686D01*
X668085Y228622D01*
X668164Y228555D01*
X668241Y228485D01*
X668314Y228412D01*
X668385Y228336D01*
X668453Y228258D01*
X668518Y228177D01*
X668579Y228093D01*
X668638Y228008D01*
X668693Y227920D01*
X668745Y227830D01*
X668793Y227738D01*
X668838Y227645D01*
X668879Y227549D01*
X668917Y227453D01*
X668951Y227355D01*
X664948Y225471D02*
X664883Y225536D01*
X664820Y225603D01*
X664760Y225673D01*
X664703Y225746D01*
X664649Y225820D01*
X664598Y225897D01*
X664550Y225976D01*
X664505Y226056D01*
X664464Y226138D01*
X664426Y226222D01*
X664391Y226308D01*
X664360Y226395D01*
X664333Y226483D01*
X664309Y226571D01*
X664288Y226661D01*
X664272Y226752D01*
X664259Y226843D01*
X664249Y226935D01*
X664244Y227027D01*
X664242Y227119D01*
X664948Y225471D02*
X668951Y220762D01*
X664242Y220762D01*
X726471Y202762D02*
X728354Y202762D01*
X728439Y202764D01*
X728523Y202770D01*
X728607Y202779D01*
X728690Y202792D01*
X728773Y202809D01*
X728855Y202830D01*
X728936Y202854D01*
X729016Y202882D01*
X729094Y202914D01*
X729171Y202949D01*
X729247Y202987D01*
X729320Y203029D01*
X729392Y203074D01*
X729461Y203122D01*
X729529Y203173D01*
X729594Y203227D01*
X729656Y203284D01*
X729716Y203344D01*
X729773Y203406D01*
X729827Y203471D01*
X729878Y203539D01*
X729926Y203608D01*
X729971Y203680D01*
X730013Y203753D01*
X730051Y203829D01*
X730086Y203906D01*
X730118Y203984D01*
X730146Y204064D01*
X730170Y204145D01*
X730191Y204227D01*
X730208Y204310D01*
X730221Y204393D01*
X730230Y204477D01*
X730236Y204562D01*
X730238Y204646D01*
X730238Y209354D01*
X730236Y209439D01*
X730230Y209523D01*
X730221Y209607D01*
X730208Y209690D01*
X730191Y209773D01*
X730170Y209855D01*
X730146Y209936D01*
X730118Y210016D01*
X730086Y210094D01*
X730051Y210171D01*
X730013Y210247D01*
X729971Y210320D01*
X729926Y210392D01*
X729878Y210461D01*
X729827Y210529D01*
X729773Y210594D01*
X729716Y210656D01*
X729656Y210716D01*
X729594Y210773D01*
X729529Y210827D01*
X729461Y210878D01*
X729392Y210926D01*
X729320Y210971D01*
X729247Y211013D01*
X729171Y211051D01*
X729095Y211086D01*
X729016Y211118D01*
X728936Y211146D01*
X728855Y211170D01*
X728773Y211191D01*
X728690Y211208D01*
X728607Y211221D01*
X728523Y211230D01*
X728439Y211236D01*
X728354Y211238D01*
X726471Y211238D01*
X722700Y209354D02*
X720346Y211238D01*
X720346Y202762D01*
X722700Y202762D02*
X717991Y202762D01*
X628354Y202762D02*
X626471Y202762D01*
X628354Y202762D02*
X628439Y202764D01*
X628523Y202770D01*
X628607Y202779D01*
X628690Y202792D01*
X628773Y202809D01*
X628855Y202830D01*
X628936Y202854D01*
X629016Y202882D01*
X629094Y202914D01*
X629171Y202949D01*
X629247Y202987D01*
X629320Y203029D01*
X629392Y203074D01*
X629461Y203122D01*
X629529Y203173D01*
X629594Y203227D01*
X629656Y203284D01*
X629716Y203344D01*
X629773Y203406D01*
X629827Y203471D01*
X629878Y203539D01*
X629926Y203608D01*
X629971Y203680D01*
X630013Y203753D01*
X630051Y203829D01*
X630086Y203906D01*
X630118Y203984D01*
X630146Y204064D01*
X630170Y204145D01*
X630191Y204227D01*
X630208Y204310D01*
X630221Y204393D01*
X630230Y204477D01*
X630236Y204562D01*
X630238Y204646D01*
X630238Y209354D01*
X630236Y209439D01*
X630230Y209523D01*
X630221Y209607D01*
X630208Y209690D01*
X630191Y209773D01*
X630170Y209855D01*
X630146Y209936D01*
X630118Y210016D01*
X630086Y210094D01*
X630051Y210171D01*
X630013Y210247D01*
X629971Y210320D01*
X629926Y210392D01*
X629878Y210461D01*
X629827Y210529D01*
X629773Y210594D01*
X629716Y210656D01*
X629656Y210716D01*
X629594Y210773D01*
X629529Y210827D01*
X629461Y210878D01*
X629392Y210926D01*
X629320Y210971D01*
X629247Y211013D01*
X629171Y211051D01*
X629095Y211086D01*
X629016Y211118D01*
X628936Y211146D01*
X628855Y211170D01*
X628773Y211191D01*
X628690Y211208D01*
X628607Y211221D01*
X628523Y211230D01*
X628439Y211236D01*
X628354Y211238D01*
X626471Y211238D01*
X620110Y211238D02*
X620020Y211236D01*
X619930Y211230D01*
X619841Y211221D01*
X619752Y211208D01*
X619664Y211190D01*
X619576Y211170D01*
X619490Y211145D01*
X619404Y211117D01*
X619320Y211085D01*
X619237Y211050D01*
X619156Y211011D01*
X619077Y210969D01*
X618999Y210923D01*
X618923Y210875D01*
X618850Y210823D01*
X618779Y210768D01*
X618710Y210710D01*
X618644Y210649D01*
X618580Y210585D01*
X618519Y210519D01*
X618461Y210450D01*
X618406Y210379D01*
X618354Y210306D01*
X618306Y210230D01*
X618260Y210152D01*
X618218Y210073D01*
X618179Y209992D01*
X618144Y209909D01*
X618112Y209825D01*
X618084Y209739D01*
X618059Y209653D01*
X618039Y209565D01*
X618021Y209477D01*
X618008Y209388D01*
X617999Y209299D01*
X617993Y209209D01*
X617991Y209119D01*
X620110Y211238D02*
X620214Y211236D01*
X620317Y211230D01*
X620421Y211220D01*
X620523Y211206D01*
X620626Y211189D01*
X620727Y211167D01*
X620828Y211142D01*
X620927Y211112D01*
X621025Y211079D01*
X621122Y211043D01*
X621218Y211002D01*
X621312Y210958D01*
X621404Y210911D01*
X621494Y210860D01*
X621583Y210805D01*
X621669Y210747D01*
X621753Y210686D01*
X621834Y210622D01*
X621913Y210555D01*
X621990Y210485D01*
X622063Y210412D01*
X622134Y210336D01*
X622202Y210258D01*
X622267Y210177D01*
X622328Y210093D01*
X622387Y210008D01*
X622442Y209920D01*
X622494Y209830D01*
X622542Y209738D01*
X622587Y209645D01*
X622628Y209549D01*
X622666Y209453D01*
X622700Y209355D01*
X618697Y207471D02*
X618632Y207536D01*
X618569Y207603D01*
X618509Y207673D01*
X618452Y207746D01*
X618398Y207820D01*
X618347Y207897D01*
X618299Y207976D01*
X618254Y208056D01*
X618213Y208138D01*
X618175Y208222D01*
X618140Y208308D01*
X618109Y208395D01*
X618082Y208483D01*
X618058Y208571D01*
X618037Y208661D01*
X618021Y208752D01*
X618008Y208843D01*
X617998Y208935D01*
X617993Y209027D01*
X617991Y209119D01*
X618698Y207471D02*
X622700Y202762D01*
X617991Y202762D01*
D13*
X390000Y205000D02*
X390000Y209000D01*
X396000Y209000D02*
X396000Y205000D01*
D11*
X396091Y180872D02*
X397974Y180872D01*
X398059Y180874D01*
X398143Y180880D01*
X398227Y180889D01*
X398310Y180902D01*
X398393Y180919D01*
X398475Y180940D01*
X398556Y180964D01*
X398636Y180992D01*
X398714Y181024D01*
X398791Y181059D01*
X398867Y181097D01*
X398940Y181139D01*
X399012Y181184D01*
X399081Y181232D01*
X399149Y181283D01*
X399214Y181337D01*
X399276Y181394D01*
X399336Y181454D01*
X399393Y181516D01*
X399447Y181581D01*
X399498Y181649D01*
X399546Y181718D01*
X399591Y181790D01*
X399633Y181863D01*
X399671Y181939D01*
X399706Y182016D01*
X399738Y182094D01*
X399766Y182174D01*
X399790Y182255D01*
X399811Y182337D01*
X399828Y182420D01*
X399841Y182503D01*
X399850Y182587D01*
X399856Y182672D01*
X399858Y182756D01*
X399858Y187464D01*
X399856Y187549D01*
X399850Y187633D01*
X399841Y187717D01*
X399828Y187800D01*
X399811Y187883D01*
X399790Y187965D01*
X399766Y188046D01*
X399738Y188126D01*
X399706Y188204D01*
X399671Y188281D01*
X399633Y188357D01*
X399591Y188430D01*
X399546Y188502D01*
X399498Y188571D01*
X399447Y188639D01*
X399393Y188704D01*
X399336Y188766D01*
X399276Y188826D01*
X399214Y188883D01*
X399149Y188937D01*
X399081Y188988D01*
X399012Y189036D01*
X398940Y189081D01*
X398867Y189123D01*
X398791Y189161D01*
X398715Y189196D01*
X398636Y189228D01*
X398556Y189256D01*
X398475Y189280D01*
X398393Y189301D01*
X398310Y189318D01*
X398227Y189331D01*
X398143Y189340D01*
X398059Y189346D01*
X397974Y189348D01*
X396091Y189348D01*
X392320Y180872D02*
X389966Y180872D01*
X389870Y180874D01*
X389774Y180880D01*
X389679Y180890D01*
X389584Y180903D01*
X389489Y180921D01*
X389395Y180942D01*
X389303Y180967D01*
X389211Y180996D01*
X389121Y181029D01*
X389032Y181065D01*
X388945Y181105D01*
X388859Y181149D01*
X388775Y181195D01*
X388693Y181246D01*
X388614Y181299D01*
X388536Y181356D01*
X388461Y181416D01*
X388388Y181479D01*
X388319Y181545D01*
X388251Y181613D01*
X388187Y181684D01*
X388126Y181758D01*
X388067Y181835D01*
X388012Y181913D01*
X387960Y181994D01*
X387912Y182077D01*
X387866Y182162D01*
X387825Y182248D01*
X387787Y182336D01*
X387752Y182426D01*
X387721Y182517D01*
X387694Y182609D01*
X387671Y182702D01*
X387652Y182796D01*
X387636Y182891D01*
X387624Y182986D01*
X387616Y183082D01*
X387612Y183178D01*
X387612Y183274D01*
X387616Y183370D01*
X387624Y183466D01*
X387636Y183561D01*
X387652Y183656D01*
X387671Y183750D01*
X387694Y183843D01*
X387721Y183935D01*
X387752Y184026D01*
X387787Y184116D01*
X387825Y184204D01*
X387866Y184290D01*
X387912Y184375D01*
X387960Y184458D01*
X388012Y184539D01*
X388067Y184617D01*
X388126Y184694D01*
X388187Y184768D01*
X388251Y184839D01*
X388319Y184907D01*
X388388Y184973D01*
X388461Y185036D01*
X388536Y185096D01*
X388614Y185153D01*
X388693Y185206D01*
X388775Y185257D01*
X388859Y185303D01*
X388945Y185347D01*
X389032Y185387D01*
X389121Y185423D01*
X389211Y185456D01*
X389303Y185485D01*
X389395Y185510D01*
X389489Y185531D01*
X389584Y185549D01*
X389679Y185562D01*
X389774Y185572D01*
X389870Y185578D01*
X389966Y185580D01*
X389495Y189348D02*
X392320Y189348D01*
X389495Y189348D02*
X389409Y189346D01*
X389324Y189340D01*
X389238Y189330D01*
X389154Y189317D01*
X389070Y189299D01*
X388987Y189278D01*
X388905Y189253D01*
X388824Y189224D01*
X388744Y189192D01*
X388667Y189156D01*
X388590Y189117D01*
X388516Y189074D01*
X388444Y189028D01*
X388374Y188978D01*
X388306Y188925D01*
X388241Y188870D01*
X388178Y188811D01*
X388118Y188750D01*
X388061Y188686D01*
X388007Y188619D01*
X387956Y188550D01*
X387908Y188479D01*
X387863Y188406D01*
X387822Y188331D01*
X387785Y188254D01*
X387750Y188175D01*
X387720Y188095D01*
X387693Y188013D01*
X387670Y187931D01*
X387650Y187847D01*
X387635Y187763D01*
X387623Y187678D01*
X387615Y187593D01*
X387611Y187507D01*
X387611Y187421D01*
X387615Y187335D01*
X387623Y187250D01*
X387635Y187165D01*
X387650Y187081D01*
X387670Y186997D01*
X387693Y186915D01*
X387720Y186833D01*
X387750Y186753D01*
X387785Y186674D01*
X387822Y186597D01*
X387863Y186522D01*
X387908Y186449D01*
X387956Y186378D01*
X388007Y186309D01*
X388061Y186242D01*
X388118Y186178D01*
X388178Y186117D01*
X388241Y186058D01*
X388306Y186003D01*
X388374Y185950D01*
X388444Y185900D01*
X388516Y185854D01*
X388590Y185811D01*
X388667Y185772D01*
X388744Y185736D01*
X388824Y185704D01*
X388905Y185675D01*
X388987Y185650D01*
X389070Y185629D01*
X389154Y185611D01*
X389238Y185598D01*
X389324Y185588D01*
X389409Y185582D01*
X389495Y185580D01*
X389495Y185581D02*
X391378Y185581D01*
D13*
X257000Y185000D02*
X257000Y181000D01*
X263000Y181000D02*
X263000Y185000D01*
D11*
X262471Y200762D02*
X264354Y200762D01*
X264439Y200764D01*
X264523Y200770D01*
X264607Y200779D01*
X264690Y200792D01*
X264773Y200809D01*
X264855Y200830D01*
X264936Y200854D01*
X265016Y200882D01*
X265094Y200914D01*
X265171Y200949D01*
X265247Y200987D01*
X265320Y201029D01*
X265392Y201074D01*
X265461Y201122D01*
X265529Y201173D01*
X265594Y201227D01*
X265656Y201284D01*
X265716Y201344D01*
X265773Y201406D01*
X265827Y201471D01*
X265878Y201539D01*
X265926Y201608D01*
X265971Y201680D01*
X266013Y201753D01*
X266051Y201829D01*
X266086Y201906D01*
X266118Y201984D01*
X266146Y202064D01*
X266170Y202145D01*
X266191Y202227D01*
X266208Y202310D01*
X266221Y202393D01*
X266230Y202477D01*
X266236Y202562D01*
X266238Y202646D01*
X266238Y207354D01*
X266236Y207439D01*
X266230Y207523D01*
X266221Y207607D01*
X266208Y207690D01*
X266191Y207773D01*
X266170Y207855D01*
X266146Y207936D01*
X266118Y208016D01*
X266086Y208094D01*
X266051Y208171D01*
X266013Y208247D01*
X265971Y208320D01*
X265926Y208392D01*
X265878Y208461D01*
X265827Y208529D01*
X265773Y208594D01*
X265716Y208656D01*
X265656Y208716D01*
X265594Y208773D01*
X265529Y208827D01*
X265461Y208878D01*
X265392Y208926D01*
X265320Y208971D01*
X265247Y209013D01*
X265171Y209051D01*
X265095Y209086D01*
X265016Y209118D01*
X264936Y209146D01*
X264855Y209170D01*
X264773Y209191D01*
X264690Y209208D01*
X264607Y209221D01*
X264523Y209230D01*
X264439Y209236D01*
X264354Y209238D01*
X262471Y209238D01*
X258700Y200762D02*
X255875Y200762D01*
X255790Y200764D01*
X255706Y200770D01*
X255622Y200779D01*
X255539Y200792D01*
X255456Y200809D01*
X255374Y200830D01*
X255293Y200854D01*
X255213Y200882D01*
X255135Y200914D01*
X255058Y200949D01*
X254982Y200987D01*
X254909Y201029D01*
X254837Y201074D01*
X254768Y201122D01*
X254700Y201173D01*
X254635Y201227D01*
X254573Y201284D01*
X254513Y201344D01*
X254456Y201406D01*
X254402Y201471D01*
X254351Y201539D01*
X254303Y201608D01*
X254258Y201680D01*
X254216Y201753D01*
X254178Y201829D01*
X254143Y201906D01*
X254111Y201984D01*
X254083Y202064D01*
X254059Y202145D01*
X254038Y202227D01*
X254021Y202310D01*
X254008Y202393D01*
X253999Y202477D01*
X253993Y202561D01*
X253991Y202646D01*
X253991Y203587D01*
X253993Y203672D01*
X253999Y203756D01*
X254008Y203840D01*
X254021Y203923D01*
X254038Y204006D01*
X254059Y204088D01*
X254083Y204169D01*
X254111Y204249D01*
X254143Y204327D01*
X254178Y204404D01*
X254216Y204480D01*
X254258Y204553D01*
X254303Y204625D01*
X254351Y204694D01*
X254402Y204762D01*
X254456Y204827D01*
X254513Y204889D01*
X254573Y204949D01*
X254635Y205006D01*
X254700Y205060D01*
X254768Y205111D01*
X254837Y205159D01*
X254909Y205204D01*
X254982Y205246D01*
X255058Y205284D01*
X255135Y205319D01*
X255213Y205351D01*
X255293Y205379D01*
X255374Y205403D01*
X255456Y205424D01*
X255539Y205441D01*
X255622Y205454D01*
X255706Y205463D01*
X255790Y205469D01*
X255875Y205471D01*
X258700Y205471D01*
X258700Y209238D01*
X253991Y209238D01*
D14*
X423000Y215000D03*
D11*
X428348Y206618D02*
X428348Y198142D01*
X428348Y206618D02*
X425994Y206618D01*
X425898Y206616D01*
X425802Y206610D01*
X425707Y206600D01*
X425612Y206587D01*
X425517Y206569D01*
X425423Y206548D01*
X425331Y206523D01*
X425239Y206494D01*
X425149Y206461D01*
X425060Y206425D01*
X424973Y206385D01*
X424887Y206341D01*
X424803Y206295D01*
X424721Y206244D01*
X424642Y206191D01*
X424564Y206134D01*
X424489Y206074D01*
X424416Y206011D01*
X424347Y205945D01*
X424279Y205877D01*
X424215Y205806D01*
X424154Y205732D01*
X424095Y205655D01*
X424040Y205577D01*
X423988Y205496D01*
X423940Y205413D01*
X423894Y205328D01*
X423853Y205242D01*
X423815Y205154D01*
X423780Y205064D01*
X423749Y204973D01*
X423722Y204881D01*
X423699Y204788D01*
X423680Y204694D01*
X423664Y204599D01*
X423652Y204504D01*
X423644Y204408D01*
X423640Y204312D01*
X423640Y204216D01*
X423644Y204120D01*
X423652Y204024D01*
X423664Y203929D01*
X423680Y203834D01*
X423699Y203740D01*
X423722Y203647D01*
X423749Y203555D01*
X423780Y203464D01*
X423815Y203374D01*
X423853Y203286D01*
X423894Y203200D01*
X423940Y203115D01*
X423988Y203032D01*
X424040Y202951D01*
X424095Y202873D01*
X424154Y202796D01*
X424215Y202722D01*
X424279Y202651D01*
X424347Y202583D01*
X424416Y202517D01*
X424489Y202454D01*
X424564Y202394D01*
X424642Y202337D01*
X424721Y202284D01*
X424803Y202233D01*
X424887Y202187D01*
X424973Y202143D01*
X425060Y202103D01*
X425149Y202067D01*
X425239Y202034D01*
X425331Y202005D01*
X425423Y201980D01*
X425517Y201959D01*
X425612Y201941D01*
X425707Y201928D01*
X425802Y201918D01*
X425898Y201912D01*
X425994Y201910D01*
X425994Y201909D02*
X428348Y201909D01*
X425523Y201909D02*
X423639Y198142D01*
X419432Y204734D02*
X417078Y206618D01*
X417078Y198142D01*
X419432Y198142D02*
X414723Y198142D01*
D14*
X540000Y265000D03*
D11*
X544238Y275762D02*
X544238Y284238D01*
X541884Y284238D01*
X541788Y284236D01*
X541692Y284230D01*
X541597Y284220D01*
X541502Y284207D01*
X541407Y284189D01*
X541313Y284168D01*
X541221Y284143D01*
X541129Y284114D01*
X541039Y284081D01*
X540950Y284045D01*
X540863Y284005D01*
X540777Y283961D01*
X540693Y283915D01*
X540611Y283864D01*
X540532Y283811D01*
X540454Y283754D01*
X540379Y283694D01*
X540306Y283631D01*
X540237Y283565D01*
X540169Y283497D01*
X540105Y283426D01*
X540044Y283352D01*
X539985Y283275D01*
X539930Y283197D01*
X539878Y283116D01*
X539830Y283033D01*
X539784Y282948D01*
X539743Y282862D01*
X539705Y282774D01*
X539670Y282684D01*
X539639Y282593D01*
X539612Y282501D01*
X539589Y282408D01*
X539570Y282314D01*
X539554Y282219D01*
X539542Y282124D01*
X539534Y282028D01*
X539530Y281932D01*
X539530Y281836D01*
X539534Y281740D01*
X539542Y281644D01*
X539554Y281549D01*
X539570Y281454D01*
X539589Y281360D01*
X539612Y281267D01*
X539639Y281175D01*
X539670Y281084D01*
X539705Y280994D01*
X539743Y280906D01*
X539784Y280820D01*
X539830Y280735D01*
X539878Y280652D01*
X539930Y280571D01*
X539985Y280493D01*
X540044Y280416D01*
X540105Y280342D01*
X540169Y280271D01*
X540237Y280203D01*
X540306Y280137D01*
X540379Y280074D01*
X540454Y280014D01*
X540532Y279957D01*
X540611Y279904D01*
X540693Y279853D01*
X540777Y279807D01*
X540863Y279763D01*
X540950Y279723D01*
X541039Y279687D01*
X541129Y279654D01*
X541221Y279625D01*
X541313Y279600D01*
X541407Y279579D01*
X541502Y279561D01*
X541597Y279548D01*
X541692Y279538D01*
X541788Y279532D01*
X541884Y279530D01*
X541884Y279529D02*
X544238Y279529D01*
X541413Y279529D02*
X539529Y275762D01*
X532732Y284238D02*
X532642Y284236D01*
X532552Y284230D01*
X532463Y284221D01*
X532374Y284208D01*
X532286Y284190D01*
X532198Y284170D01*
X532112Y284145D01*
X532026Y284117D01*
X531942Y284085D01*
X531859Y284050D01*
X531778Y284011D01*
X531699Y283969D01*
X531621Y283923D01*
X531545Y283875D01*
X531472Y283823D01*
X531401Y283768D01*
X531332Y283710D01*
X531266Y283649D01*
X531202Y283585D01*
X531141Y283519D01*
X531083Y283450D01*
X531028Y283379D01*
X530976Y283306D01*
X530928Y283230D01*
X530882Y283152D01*
X530840Y283073D01*
X530801Y282992D01*
X530766Y282909D01*
X530734Y282825D01*
X530706Y282739D01*
X530681Y282653D01*
X530661Y282565D01*
X530643Y282477D01*
X530630Y282388D01*
X530621Y282299D01*
X530615Y282209D01*
X530613Y282119D01*
X532732Y284238D02*
X532836Y284236D01*
X532939Y284230D01*
X533043Y284220D01*
X533145Y284206D01*
X533248Y284189D01*
X533349Y284167D01*
X533450Y284142D01*
X533549Y284112D01*
X533647Y284079D01*
X533744Y284043D01*
X533840Y284002D01*
X533934Y283958D01*
X534026Y283911D01*
X534116Y283860D01*
X534205Y283805D01*
X534291Y283747D01*
X534375Y283686D01*
X534456Y283622D01*
X534535Y283555D01*
X534612Y283485D01*
X534685Y283412D01*
X534756Y283336D01*
X534824Y283258D01*
X534889Y283177D01*
X534950Y283093D01*
X535009Y283008D01*
X535064Y282920D01*
X535116Y282830D01*
X535164Y282738D01*
X535209Y282645D01*
X535250Y282549D01*
X535288Y282453D01*
X535322Y282355D01*
X531319Y280471D02*
X531254Y280536D01*
X531191Y280603D01*
X531131Y280673D01*
X531074Y280746D01*
X531020Y280820D01*
X530969Y280897D01*
X530921Y280976D01*
X530876Y281056D01*
X530835Y281138D01*
X530797Y281222D01*
X530762Y281308D01*
X530731Y281395D01*
X530704Y281483D01*
X530680Y281571D01*
X530659Y281661D01*
X530643Y281752D01*
X530630Y281843D01*
X530620Y281935D01*
X530615Y282027D01*
X530613Y282119D01*
X531320Y280471D02*
X535322Y275762D01*
X530613Y275762D01*
D14*
X505000Y265000D03*
D11*
X509238Y275762D02*
X509238Y284238D01*
X506884Y284238D01*
X506788Y284236D01*
X506692Y284230D01*
X506597Y284220D01*
X506502Y284207D01*
X506407Y284189D01*
X506313Y284168D01*
X506221Y284143D01*
X506129Y284114D01*
X506039Y284081D01*
X505950Y284045D01*
X505863Y284005D01*
X505777Y283961D01*
X505693Y283915D01*
X505611Y283864D01*
X505532Y283811D01*
X505454Y283754D01*
X505379Y283694D01*
X505306Y283631D01*
X505237Y283565D01*
X505169Y283497D01*
X505105Y283426D01*
X505044Y283352D01*
X504985Y283275D01*
X504930Y283197D01*
X504878Y283116D01*
X504830Y283033D01*
X504784Y282948D01*
X504743Y282862D01*
X504705Y282774D01*
X504670Y282684D01*
X504639Y282593D01*
X504612Y282501D01*
X504589Y282408D01*
X504570Y282314D01*
X504554Y282219D01*
X504542Y282124D01*
X504534Y282028D01*
X504530Y281932D01*
X504530Y281836D01*
X504534Y281740D01*
X504542Y281644D01*
X504554Y281549D01*
X504570Y281454D01*
X504589Y281360D01*
X504612Y281267D01*
X504639Y281175D01*
X504670Y281084D01*
X504705Y280994D01*
X504743Y280906D01*
X504784Y280820D01*
X504830Y280735D01*
X504878Y280652D01*
X504930Y280571D01*
X504985Y280493D01*
X505044Y280416D01*
X505105Y280342D01*
X505169Y280271D01*
X505237Y280203D01*
X505306Y280137D01*
X505379Y280074D01*
X505454Y280014D01*
X505532Y279957D01*
X505611Y279904D01*
X505693Y279853D01*
X505777Y279807D01*
X505863Y279763D01*
X505950Y279723D01*
X506039Y279687D01*
X506129Y279654D01*
X506221Y279625D01*
X506313Y279600D01*
X506407Y279579D01*
X506502Y279561D01*
X506597Y279548D01*
X506692Y279538D01*
X506788Y279532D01*
X506884Y279530D01*
X506884Y279529D02*
X509238Y279529D01*
X506413Y279529D02*
X504529Y275762D01*
X500322Y275762D02*
X497968Y275762D01*
X497872Y275764D01*
X497776Y275770D01*
X497681Y275780D01*
X497586Y275793D01*
X497491Y275811D01*
X497397Y275832D01*
X497305Y275857D01*
X497213Y275886D01*
X497123Y275919D01*
X497034Y275955D01*
X496947Y275995D01*
X496861Y276039D01*
X496777Y276085D01*
X496695Y276136D01*
X496616Y276189D01*
X496538Y276246D01*
X496463Y276306D01*
X496390Y276369D01*
X496321Y276435D01*
X496253Y276503D01*
X496189Y276574D01*
X496128Y276648D01*
X496069Y276725D01*
X496014Y276803D01*
X495962Y276884D01*
X495914Y276967D01*
X495868Y277052D01*
X495827Y277138D01*
X495789Y277226D01*
X495754Y277316D01*
X495723Y277407D01*
X495696Y277499D01*
X495673Y277592D01*
X495654Y277686D01*
X495638Y277781D01*
X495626Y277876D01*
X495618Y277972D01*
X495614Y278068D01*
X495614Y278164D01*
X495618Y278260D01*
X495626Y278356D01*
X495638Y278451D01*
X495654Y278546D01*
X495673Y278640D01*
X495696Y278733D01*
X495723Y278825D01*
X495754Y278916D01*
X495789Y279006D01*
X495827Y279094D01*
X495868Y279180D01*
X495914Y279265D01*
X495962Y279348D01*
X496014Y279429D01*
X496069Y279507D01*
X496128Y279584D01*
X496189Y279658D01*
X496253Y279729D01*
X496321Y279797D01*
X496390Y279863D01*
X496463Y279926D01*
X496538Y279986D01*
X496616Y280043D01*
X496695Y280096D01*
X496777Y280147D01*
X496861Y280193D01*
X496947Y280237D01*
X497034Y280277D01*
X497123Y280313D01*
X497213Y280346D01*
X497305Y280375D01*
X497397Y280400D01*
X497491Y280421D01*
X497586Y280439D01*
X497681Y280452D01*
X497776Y280462D01*
X497872Y280468D01*
X497968Y280470D01*
X497497Y284238D02*
X500322Y284238D01*
X497497Y284238D02*
X497411Y284236D01*
X497326Y284230D01*
X497240Y284220D01*
X497156Y284207D01*
X497072Y284189D01*
X496989Y284168D01*
X496907Y284143D01*
X496826Y284114D01*
X496746Y284082D01*
X496669Y284046D01*
X496592Y284007D01*
X496518Y283964D01*
X496446Y283918D01*
X496376Y283868D01*
X496308Y283815D01*
X496243Y283760D01*
X496180Y283701D01*
X496120Y283640D01*
X496063Y283576D01*
X496009Y283509D01*
X495958Y283440D01*
X495910Y283369D01*
X495865Y283296D01*
X495824Y283221D01*
X495787Y283144D01*
X495752Y283065D01*
X495722Y282985D01*
X495695Y282903D01*
X495672Y282821D01*
X495652Y282737D01*
X495637Y282653D01*
X495625Y282568D01*
X495617Y282483D01*
X495613Y282397D01*
X495613Y282311D01*
X495617Y282225D01*
X495625Y282140D01*
X495637Y282055D01*
X495652Y281971D01*
X495672Y281887D01*
X495695Y281805D01*
X495722Y281723D01*
X495752Y281643D01*
X495787Y281564D01*
X495824Y281487D01*
X495865Y281412D01*
X495910Y281339D01*
X495958Y281268D01*
X496009Y281199D01*
X496063Y281132D01*
X496120Y281068D01*
X496180Y281007D01*
X496243Y280948D01*
X496308Y280893D01*
X496376Y280840D01*
X496446Y280790D01*
X496518Y280744D01*
X496592Y280701D01*
X496669Y280662D01*
X496746Y280626D01*
X496826Y280594D01*
X496907Y280565D01*
X496989Y280540D01*
X497072Y280519D01*
X497156Y280501D01*
X497240Y280488D01*
X497326Y280478D01*
X497411Y280472D01*
X497497Y280470D01*
X497497Y280471D02*
X499380Y280471D01*
X166354Y210762D02*
X164471Y210762D01*
X166354Y210762D02*
X166439Y210764D01*
X166523Y210770D01*
X166607Y210779D01*
X166690Y210792D01*
X166773Y210809D01*
X166855Y210830D01*
X166936Y210854D01*
X167016Y210882D01*
X167094Y210914D01*
X167171Y210949D01*
X167247Y210987D01*
X167320Y211029D01*
X167392Y211074D01*
X167461Y211122D01*
X167529Y211173D01*
X167594Y211227D01*
X167656Y211284D01*
X167716Y211344D01*
X167773Y211406D01*
X167827Y211471D01*
X167878Y211539D01*
X167926Y211608D01*
X167971Y211680D01*
X168013Y211753D01*
X168051Y211829D01*
X168086Y211906D01*
X168118Y211984D01*
X168146Y212064D01*
X168170Y212145D01*
X168191Y212227D01*
X168208Y212310D01*
X168221Y212393D01*
X168230Y212477D01*
X168236Y212562D01*
X168238Y212646D01*
X168238Y217354D01*
X168236Y217439D01*
X168230Y217523D01*
X168221Y217607D01*
X168208Y217690D01*
X168191Y217773D01*
X168170Y217855D01*
X168146Y217936D01*
X168118Y218016D01*
X168086Y218094D01*
X168051Y218171D01*
X168013Y218247D01*
X167971Y218320D01*
X167926Y218392D01*
X167878Y218461D01*
X167827Y218529D01*
X167773Y218594D01*
X167716Y218656D01*
X167656Y218716D01*
X167594Y218773D01*
X167529Y218827D01*
X167461Y218878D01*
X167392Y218926D01*
X167320Y218971D01*
X167247Y219013D01*
X167171Y219051D01*
X167095Y219086D01*
X167016Y219118D01*
X166936Y219146D01*
X166855Y219170D01*
X166773Y219191D01*
X166690Y219208D01*
X166607Y219221D01*
X166523Y219230D01*
X166439Y219236D01*
X166354Y219238D01*
X164471Y219238D01*
X160700Y215471D02*
X157875Y215471D01*
X157790Y215469D01*
X157706Y215463D01*
X157622Y215454D01*
X157539Y215441D01*
X157456Y215424D01*
X157374Y215403D01*
X157293Y215379D01*
X157213Y215351D01*
X157135Y215319D01*
X157058Y215284D01*
X156982Y215246D01*
X156909Y215204D01*
X156837Y215159D01*
X156768Y215111D01*
X156700Y215060D01*
X156635Y215006D01*
X156573Y214949D01*
X156513Y214889D01*
X156456Y214827D01*
X156402Y214762D01*
X156351Y214694D01*
X156303Y214625D01*
X156258Y214553D01*
X156216Y214480D01*
X156178Y214404D01*
X156143Y214327D01*
X156111Y214249D01*
X156083Y214169D01*
X156059Y214088D01*
X156038Y214006D01*
X156021Y213923D01*
X156008Y213840D01*
X155999Y213756D01*
X155993Y213672D01*
X155991Y213587D01*
X155991Y213116D01*
X155992Y213116D02*
X155994Y213020D01*
X156000Y212924D01*
X156010Y212829D01*
X156023Y212734D01*
X156041Y212639D01*
X156062Y212545D01*
X156087Y212453D01*
X156116Y212361D01*
X156149Y212271D01*
X156185Y212182D01*
X156225Y212095D01*
X156269Y212009D01*
X156315Y211925D01*
X156366Y211843D01*
X156419Y211764D01*
X156476Y211686D01*
X156536Y211611D01*
X156599Y211538D01*
X156665Y211469D01*
X156733Y211401D01*
X156804Y211337D01*
X156878Y211276D01*
X156955Y211217D01*
X157033Y211162D01*
X157114Y211110D01*
X157197Y211062D01*
X157282Y211016D01*
X157368Y210975D01*
X157456Y210937D01*
X157546Y210902D01*
X157637Y210871D01*
X157729Y210844D01*
X157822Y210821D01*
X157916Y210802D01*
X158011Y210786D01*
X158106Y210774D01*
X158202Y210766D01*
X158298Y210762D01*
X158394Y210762D01*
X158490Y210766D01*
X158586Y210774D01*
X158681Y210786D01*
X158776Y210802D01*
X158870Y210821D01*
X158963Y210844D01*
X159055Y210871D01*
X159146Y210902D01*
X159236Y210937D01*
X159324Y210975D01*
X159410Y211016D01*
X159495Y211062D01*
X159578Y211110D01*
X159659Y211162D01*
X159737Y211217D01*
X159814Y211276D01*
X159888Y211337D01*
X159959Y211401D01*
X160027Y211469D01*
X160093Y211538D01*
X160156Y211611D01*
X160216Y211686D01*
X160273Y211764D01*
X160326Y211843D01*
X160377Y211925D01*
X160423Y212009D01*
X160467Y212095D01*
X160507Y212182D01*
X160543Y212271D01*
X160576Y212361D01*
X160605Y212453D01*
X160630Y212545D01*
X160651Y212639D01*
X160669Y212734D01*
X160682Y212829D01*
X160692Y212924D01*
X160698Y213020D01*
X160700Y213116D01*
X160700Y215471D01*
X160698Y215592D01*
X160692Y215712D01*
X160683Y215833D01*
X160669Y215953D01*
X160652Y216072D01*
X160631Y216191D01*
X160606Y216309D01*
X160577Y216427D01*
X160544Y216543D01*
X160508Y216658D01*
X160468Y216772D01*
X160425Y216885D01*
X160378Y216996D01*
X160327Y217105D01*
X160273Y217213D01*
X160215Y217320D01*
X160154Y217424D01*
X160090Y217526D01*
X160023Y217626D01*
X159952Y217724D01*
X159878Y217820D01*
X159801Y217913D01*
X159722Y218004D01*
X159639Y218092D01*
X159554Y218177D01*
X159466Y218260D01*
X159375Y218339D01*
X159282Y218416D01*
X159186Y218490D01*
X159088Y218561D01*
X158988Y218628D01*
X158886Y218692D01*
X158782Y218753D01*
X158675Y218811D01*
X158567Y218865D01*
X158458Y218916D01*
X158347Y218963D01*
X158234Y219006D01*
X158120Y219046D01*
X158005Y219082D01*
X157889Y219115D01*
X157771Y219144D01*
X157653Y219169D01*
X157534Y219190D01*
X157415Y219207D01*
X157295Y219221D01*
X157174Y219230D01*
X157054Y219236D01*
X156933Y219238D01*
D13*
X182500Y181500D02*
X182500Y177500D01*
X188500Y177500D02*
X188500Y181500D01*
D11*
X187742Y197262D02*
X189625Y197262D01*
X189710Y197264D01*
X189794Y197270D01*
X189878Y197279D01*
X189961Y197292D01*
X190044Y197309D01*
X190126Y197330D01*
X190207Y197354D01*
X190287Y197382D01*
X190365Y197414D01*
X190442Y197449D01*
X190518Y197487D01*
X190591Y197529D01*
X190663Y197574D01*
X190732Y197622D01*
X190800Y197673D01*
X190865Y197727D01*
X190927Y197784D01*
X190987Y197844D01*
X191044Y197906D01*
X191098Y197971D01*
X191149Y198039D01*
X191197Y198108D01*
X191242Y198180D01*
X191284Y198253D01*
X191322Y198329D01*
X191357Y198406D01*
X191389Y198484D01*
X191417Y198564D01*
X191441Y198645D01*
X191462Y198727D01*
X191479Y198810D01*
X191492Y198893D01*
X191501Y198977D01*
X191507Y199062D01*
X191509Y199146D01*
X191509Y203854D01*
X191507Y203939D01*
X191501Y204023D01*
X191492Y204107D01*
X191479Y204190D01*
X191462Y204273D01*
X191441Y204355D01*
X191417Y204436D01*
X191389Y204516D01*
X191357Y204594D01*
X191322Y204671D01*
X191284Y204747D01*
X191242Y204820D01*
X191197Y204892D01*
X191149Y204961D01*
X191098Y205029D01*
X191044Y205094D01*
X190987Y205156D01*
X190927Y205216D01*
X190865Y205273D01*
X190800Y205327D01*
X190732Y205378D01*
X190663Y205426D01*
X190591Y205471D01*
X190518Y205513D01*
X190442Y205551D01*
X190366Y205586D01*
X190287Y205618D01*
X190207Y205646D01*
X190126Y205670D01*
X190044Y205691D01*
X189961Y205708D01*
X189878Y205721D01*
X189794Y205730D01*
X189710Y205736D01*
X189625Y205738D01*
X187742Y205738D01*
X183971Y205738D02*
X183971Y204796D01*
X183971Y205738D02*
X179262Y205738D01*
X181616Y197262D01*
X241471Y210762D02*
X243354Y210762D01*
X243439Y210764D01*
X243523Y210770D01*
X243607Y210779D01*
X243690Y210792D01*
X243773Y210809D01*
X243855Y210830D01*
X243936Y210854D01*
X244016Y210882D01*
X244094Y210914D01*
X244171Y210949D01*
X244247Y210987D01*
X244320Y211029D01*
X244392Y211074D01*
X244461Y211122D01*
X244529Y211173D01*
X244594Y211227D01*
X244656Y211284D01*
X244716Y211344D01*
X244773Y211406D01*
X244827Y211471D01*
X244878Y211539D01*
X244926Y211608D01*
X244971Y211680D01*
X245013Y211753D01*
X245051Y211829D01*
X245086Y211906D01*
X245118Y211984D01*
X245146Y212064D01*
X245170Y212145D01*
X245191Y212227D01*
X245208Y212310D01*
X245221Y212393D01*
X245230Y212477D01*
X245236Y212562D01*
X245238Y212646D01*
X245238Y217354D01*
X245236Y217439D01*
X245230Y217523D01*
X245221Y217607D01*
X245208Y217690D01*
X245191Y217773D01*
X245170Y217855D01*
X245146Y217936D01*
X245118Y218016D01*
X245086Y218094D01*
X245051Y218171D01*
X245013Y218247D01*
X244971Y218320D01*
X244926Y218392D01*
X244878Y218461D01*
X244827Y218529D01*
X244773Y218594D01*
X244716Y218656D01*
X244656Y218716D01*
X244594Y218773D01*
X244529Y218827D01*
X244461Y218878D01*
X244392Y218926D01*
X244320Y218971D01*
X244247Y219013D01*
X244171Y219051D01*
X244095Y219086D01*
X244016Y219118D01*
X243936Y219146D01*
X243855Y219170D01*
X243773Y219191D01*
X243690Y219208D01*
X243607Y219221D01*
X243523Y219230D01*
X243439Y219236D01*
X243354Y219238D01*
X241471Y219238D01*
X237700Y213116D02*
X237698Y213212D01*
X237692Y213308D01*
X237682Y213403D01*
X237669Y213498D01*
X237651Y213593D01*
X237630Y213687D01*
X237605Y213779D01*
X237576Y213871D01*
X237543Y213961D01*
X237507Y214050D01*
X237467Y214137D01*
X237423Y214223D01*
X237377Y214307D01*
X237326Y214389D01*
X237273Y214468D01*
X237216Y214546D01*
X237156Y214621D01*
X237093Y214694D01*
X237027Y214763D01*
X236959Y214831D01*
X236888Y214895D01*
X236814Y214956D01*
X236737Y215015D01*
X236659Y215070D01*
X236578Y215122D01*
X236495Y215170D01*
X236410Y215216D01*
X236324Y215257D01*
X236236Y215295D01*
X236146Y215330D01*
X236055Y215361D01*
X235963Y215388D01*
X235870Y215411D01*
X235776Y215430D01*
X235681Y215446D01*
X235586Y215458D01*
X235490Y215466D01*
X235394Y215470D01*
X235298Y215470D01*
X235202Y215466D01*
X235106Y215458D01*
X235011Y215446D01*
X234916Y215430D01*
X234822Y215411D01*
X234729Y215388D01*
X234637Y215361D01*
X234546Y215330D01*
X234456Y215295D01*
X234368Y215257D01*
X234282Y215216D01*
X234197Y215170D01*
X234114Y215122D01*
X234033Y215070D01*
X233955Y215015D01*
X233878Y214956D01*
X233804Y214895D01*
X233733Y214831D01*
X233665Y214763D01*
X233599Y214694D01*
X233536Y214621D01*
X233476Y214546D01*
X233419Y214468D01*
X233366Y214389D01*
X233315Y214307D01*
X233269Y214223D01*
X233225Y214137D01*
X233185Y214050D01*
X233149Y213961D01*
X233116Y213871D01*
X233087Y213779D01*
X233062Y213687D01*
X233041Y213593D01*
X233023Y213498D01*
X233010Y213403D01*
X233000Y213308D01*
X232994Y213212D01*
X232992Y213116D01*
X232994Y213020D01*
X233000Y212924D01*
X233010Y212829D01*
X233023Y212734D01*
X233041Y212639D01*
X233062Y212545D01*
X233087Y212453D01*
X233116Y212361D01*
X233149Y212271D01*
X233185Y212182D01*
X233225Y212095D01*
X233269Y212009D01*
X233315Y211925D01*
X233366Y211843D01*
X233419Y211764D01*
X233476Y211686D01*
X233536Y211611D01*
X233599Y211538D01*
X233665Y211469D01*
X233733Y211401D01*
X233804Y211337D01*
X233878Y211276D01*
X233955Y211217D01*
X234033Y211162D01*
X234114Y211110D01*
X234197Y211062D01*
X234282Y211016D01*
X234368Y210975D01*
X234456Y210937D01*
X234546Y210902D01*
X234637Y210871D01*
X234729Y210844D01*
X234822Y210821D01*
X234916Y210802D01*
X235011Y210786D01*
X235106Y210774D01*
X235202Y210766D01*
X235298Y210762D01*
X235394Y210762D01*
X235490Y210766D01*
X235586Y210774D01*
X235681Y210786D01*
X235776Y210802D01*
X235870Y210821D01*
X235963Y210844D01*
X236055Y210871D01*
X236146Y210902D01*
X236236Y210937D01*
X236324Y210975D01*
X236410Y211016D01*
X236495Y211062D01*
X236578Y211110D01*
X236659Y211162D01*
X236737Y211217D01*
X236814Y211276D01*
X236888Y211337D01*
X236959Y211401D01*
X237027Y211469D01*
X237093Y211538D01*
X237156Y211611D01*
X237216Y211686D01*
X237273Y211764D01*
X237326Y211843D01*
X237377Y211925D01*
X237423Y212009D01*
X237467Y212095D01*
X237507Y212182D01*
X237543Y212271D01*
X237576Y212361D01*
X237605Y212453D01*
X237630Y212545D01*
X237651Y212639D01*
X237669Y212734D01*
X237682Y212829D01*
X237692Y212924D01*
X237698Y213020D01*
X237700Y213116D01*
X237230Y217354D02*
X237228Y217440D01*
X237222Y217525D01*
X237212Y217611D01*
X237199Y217695D01*
X237181Y217779D01*
X237160Y217862D01*
X237135Y217944D01*
X237106Y218025D01*
X237074Y218105D01*
X237038Y218182D01*
X236999Y218259D01*
X236956Y218333D01*
X236910Y218405D01*
X236860Y218475D01*
X236807Y218543D01*
X236752Y218608D01*
X236693Y218671D01*
X236632Y218731D01*
X236568Y218788D01*
X236501Y218842D01*
X236432Y218893D01*
X236361Y218941D01*
X236288Y218986D01*
X236213Y219027D01*
X236136Y219064D01*
X236057Y219099D01*
X235977Y219129D01*
X235895Y219156D01*
X235813Y219179D01*
X235729Y219199D01*
X235645Y219214D01*
X235560Y219226D01*
X235475Y219234D01*
X235389Y219238D01*
X235303Y219238D01*
X235217Y219234D01*
X235132Y219226D01*
X235047Y219214D01*
X234963Y219199D01*
X234879Y219179D01*
X234797Y219156D01*
X234715Y219129D01*
X234635Y219099D01*
X234556Y219064D01*
X234479Y219027D01*
X234404Y218986D01*
X234331Y218941D01*
X234260Y218893D01*
X234191Y218842D01*
X234124Y218788D01*
X234060Y218731D01*
X233999Y218671D01*
X233940Y218608D01*
X233885Y218543D01*
X233832Y218475D01*
X233782Y218405D01*
X233736Y218333D01*
X233693Y218259D01*
X233654Y218182D01*
X233618Y218105D01*
X233586Y218025D01*
X233557Y217944D01*
X233532Y217862D01*
X233511Y217779D01*
X233493Y217695D01*
X233480Y217611D01*
X233470Y217525D01*
X233464Y217440D01*
X233462Y217354D01*
X233464Y217268D01*
X233470Y217183D01*
X233480Y217097D01*
X233493Y217013D01*
X233511Y216929D01*
X233532Y216846D01*
X233557Y216764D01*
X233586Y216683D01*
X233618Y216603D01*
X233654Y216526D01*
X233693Y216449D01*
X233736Y216375D01*
X233782Y216303D01*
X233832Y216233D01*
X233885Y216165D01*
X233940Y216100D01*
X233999Y216037D01*
X234060Y215977D01*
X234124Y215920D01*
X234191Y215866D01*
X234260Y215815D01*
X234331Y215767D01*
X234404Y215722D01*
X234479Y215681D01*
X234556Y215644D01*
X234635Y215609D01*
X234715Y215579D01*
X234797Y215552D01*
X234879Y215529D01*
X234963Y215509D01*
X235047Y215494D01*
X235132Y215482D01*
X235217Y215474D01*
X235303Y215470D01*
X235389Y215470D01*
X235475Y215474D01*
X235560Y215482D01*
X235645Y215494D01*
X235729Y215509D01*
X235813Y215529D01*
X235895Y215552D01*
X235977Y215579D01*
X236057Y215609D01*
X236136Y215644D01*
X236213Y215681D01*
X236288Y215722D01*
X236361Y215767D01*
X236432Y215815D01*
X236501Y215866D01*
X236568Y215920D01*
X236632Y215977D01*
X236693Y216037D01*
X236752Y216100D01*
X236807Y216165D01*
X236860Y216233D01*
X236910Y216303D01*
X236956Y216375D01*
X236999Y216449D01*
X237038Y216526D01*
X237074Y216603D01*
X237106Y216683D01*
X237135Y216764D01*
X237160Y216846D01*
X237181Y216929D01*
X237199Y217013D01*
X237212Y217097D01*
X237222Y217183D01*
X237228Y217268D01*
X237230Y217354D01*
X600471Y202762D02*
X602354Y202762D01*
X602439Y202764D01*
X602523Y202770D01*
X602607Y202779D01*
X602690Y202792D01*
X602773Y202809D01*
X602855Y202830D01*
X602936Y202854D01*
X603016Y202882D01*
X603094Y202914D01*
X603171Y202949D01*
X603247Y202987D01*
X603320Y203029D01*
X603392Y203074D01*
X603461Y203122D01*
X603529Y203173D01*
X603594Y203227D01*
X603656Y203284D01*
X603716Y203344D01*
X603773Y203406D01*
X603827Y203471D01*
X603878Y203539D01*
X603926Y203608D01*
X603971Y203680D01*
X604013Y203753D01*
X604051Y203829D01*
X604086Y203906D01*
X604118Y203984D01*
X604146Y204064D01*
X604170Y204145D01*
X604191Y204227D01*
X604208Y204310D01*
X604221Y204393D01*
X604230Y204477D01*
X604236Y204562D01*
X604238Y204646D01*
X604238Y209354D01*
X604236Y209439D01*
X604230Y209523D01*
X604221Y209607D01*
X604208Y209690D01*
X604191Y209773D01*
X604170Y209855D01*
X604146Y209936D01*
X604118Y210016D01*
X604086Y210094D01*
X604051Y210171D01*
X604013Y210247D01*
X603971Y210320D01*
X603926Y210392D01*
X603878Y210461D01*
X603827Y210529D01*
X603773Y210594D01*
X603716Y210656D01*
X603656Y210716D01*
X603594Y210773D01*
X603529Y210827D01*
X603461Y210878D01*
X603392Y210926D01*
X603320Y210971D01*
X603247Y211013D01*
X603171Y211051D01*
X603095Y211086D01*
X603016Y211118D01*
X602936Y211146D01*
X602855Y211170D01*
X602773Y211191D01*
X602690Y211208D01*
X602607Y211221D01*
X602523Y211230D01*
X602439Y211236D01*
X602354Y211238D01*
X600471Y211238D01*
X594817Y206529D02*
X591991Y206529D01*
X594817Y206529D02*
X594902Y206531D01*
X594986Y206537D01*
X595070Y206546D01*
X595153Y206559D01*
X595236Y206576D01*
X595318Y206597D01*
X595399Y206621D01*
X595479Y206649D01*
X595557Y206681D01*
X595634Y206716D01*
X595710Y206754D01*
X595783Y206796D01*
X595855Y206841D01*
X595924Y206889D01*
X595992Y206940D01*
X596057Y206994D01*
X596119Y207051D01*
X596179Y207111D01*
X596236Y207173D01*
X596290Y207238D01*
X596341Y207306D01*
X596389Y207375D01*
X596434Y207447D01*
X596476Y207520D01*
X596514Y207596D01*
X596549Y207673D01*
X596581Y207751D01*
X596609Y207831D01*
X596633Y207912D01*
X596654Y207994D01*
X596671Y208077D01*
X596684Y208160D01*
X596693Y208244D01*
X596699Y208329D01*
X596701Y208413D01*
X596700Y208413D02*
X596700Y208884D01*
X596698Y208980D01*
X596692Y209076D01*
X596682Y209171D01*
X596669Y209266D01*
X596651Y209361D01*
X596630Y209455D01*
X596605Y209547D01*
X596576Y209639D01*
X596543Y209729D01*
X596507Y209818D01*
X596467Y209905D01*
X596423Y209991D01*
X596377Y210075D01*
X596326Y210157D01*
X596273Y210236D01*
X596216Y210314D01*
X596156Y210389D01*
X596093Y210462D01*
X596027Y210531D01*
X595959Y210599D01*
X595888Y210663D01*
X595814Y210724D01*
X595737Y210783D01*
X595659Y210838D01*
X595578Y210890D01*
X595495Y210938D01*
X595410Y210984D01*
X595324Y211025D01*
X595236Y211063D01*
X595146Y211098D01*
X595055Y211129D01*
X594963Y211156D01*
X594870Y211179D01*
X594776Y211198D01*
X594681Y211214D01*
X594586Y211226D01*
X594490Y211234D01*
X594394Y211238D01*
X594298Y211238D01*
X594202Y211234D01*
X594106Y211226D01*
X594011Y211214D01*
X593916Y211198D01*
X593822Y211179D01*
X593729Y211156D01*
X593637Y211129D01*
X593546Y211098D01*
X593456Y211063D01*
X593368Y211025D01*
X593282Y210984D01*
X593197Y210938D01*
X593114Y210890D01*
X593033Y210838D01*
X592955Y210783D01*
X592878Y210724D01*
X592804Y210663D01*
X592733Y210599D01*
X592665Y210531D01*
X592599Y210462D01*
X592536Y210389D01*
X592476Y210314D01*
X592419Y210236D01*
X592366Y210157D01*
X592315Y210075D01*
X592269Y209991D01*
X592225Y209905D01*
X592185Y209818D01*
X592149Y209729D01*
X592116Y209639D01*
X592087Y209547D01*
X592062Y209455D01*
X592041Y209361D01*
X592023Y209266D01*
X592010Y209171D01*
X592000Y209076D01*
X591994Y208980D01*
X591992Y208884D01*
X591991Y208884D02*
X591991Y206529D01*
X591993Y206408D01*
X591999Y206288D01*
X592008Y206167D01*
X592022Y206047D01*
X592039Y205928D01*
X592060Y205809D01*
X592085Y205691D01*
X592114Y205573D01*
X592147Y205457D01*
X592183Y205342D01*
X592223Y205228D01*
X592266Y205115D01*
X592313Y205004D01*
X592364Y204895D01*
X592418Y204787D01*
X592476Y204680D01*
X592537Y204576D01*
X592601Y204474D01*
X592668Y204374D01*
X592739Y204276D01*
X592813Y204180D01*
X592890Y204087D01*
X592969Y203996D01*
X593052Y203908D01*
X593137Y203823D01*
X593225Y203740D01*
X593316Y203661D01*
X593409Y203584D01*
X593505Y203510D01*
X593603Y203439D01*
X593703Y203372D01*
X593805Y203308D01*
X593909Y203247D01*
X594016Y203189D01*
X594124Y203135D01*
X594233Y203084D01*
X594344Y203037D01*
X594457Y202994D01*
X594571Y202954D01*
X594686Y202918D01*
X594802Y202885D01*
X594920Y202856D01*
X595038Y202831D01*
X595157Y202810D01*
X595276Y202793D01*
X595396Y202779D01*
X595517Y202770D01*
X595637Y202764D01*
X595758Y202762D01*
D15*
X521400Y101000D02*
X446200Y101000D01*
X274750Y101000D01*
X273750Y233875D01*
X446200Y233875D01*
X521400Y233875D01*
X521400Y101000D01*
X446200Y101000D02*
X446200Y233875D01*
D16*
X473124Y127758D02*
X473124Y120224D01*
X490076Y120224D01*
X490076Y127758D01*
X482542Y125875D02*
X482542Y120224D01*
X473124Y139627D02*
X473126Y139748D01*
X473132Y139868D01*
X473141Y139989D01*
X473155Y140109D01*
X473172Y140228D01*
X473193Y140347D01*
X473218Y140465D01*
X473247Y140583D01*
X473280Y140699D01*
X473316Y140814D01*
X473356Y140928D01*
X473399Y141041D01*
X473446Y141152D01*
X473497Y141261D01*
X473551Y141369D01*
X473609Y141476D01*
X473670Y141580D01*
X473734Y141682D01*
X473801Y141782D01*
X473872Y141880D01*
X473946Y141976D01*
X474023Y142069D01*
X474102Y142160D01*
X474185Y142248D01*
X474270Y142333D01*
X474358Y142416D01*
X474449Y142495D01*
X474542Y142572D01*
X474638Y142646D01*
X474736Y142717D01*
X474836Y142784D01*
X474938Y142848D01*
X475042Y142909D01*
X475149Y142967D01*
X475257Y143021D01*
X475366Y143072D01*
X475477Y143119D01*
X475590Y143162D01*
X475704Y143202D01*
X475819Y143238D01*
X475935Y143271D01*
X476053Y143300D01*
X476171Y143325D01*
X476290Y143346D01*
X476409Y143363D01*
X476529Y143377D01*
X476650Y143386D01*
X476770Y143392D01*
X476891Y143394D01*
X473124Y139627D02*
X473126Y139437D01*
X473133Y139246D01*
X473144Y139056D01*
X473160Y138867D01*
X473181Y138677D01*
X473206Y138489D01*
X473235Y138300D01*
X473269Y138113D01*
X473308Y137927D01*
X473351Y137741D01*
X473398Y137557D01*
X473450Y137373D01*
X473506Y137191D01*
X473566Y137011D01*
X473631Y136832D01*
X473700Y136654D01*
X473773Y136479D01*
X473851Y136305D01*
X473932Y136133D01*
X474018Y135963D01*
X474108Y135795D01*
X474201Y135629D01*
X474299Y135465D01*
X474400Y135304D01*
X474506Y135146D01*
X474615Y134990D01*
X474728Y134836D01*
X474844Y134686D01*
X474964Y134538D01*
X475088Y134393D01*
X475215Y134251D01*
X475345Y134112D01*
X475478Y133976D01*
X486309Y134448D02*
X486430Y134450D01*
X486550Y134456D01*
X486671Y134465D01*
X486791Y134479D01*
X486910Y134496D01*
X487029Y134517D01*
X487147Y134542D01*
X487265Y134571D01*
X487381Y134604D01*
X487496Y134640D01*
X487610Y134680D01*
X487723Y134723D01*
X487834Y134770D01*
X487943Y134821D01*
X488051Y134875D01*
X488158Y134933D01*
X488262Y134994D01*
X488364Y135058D01*
X488464Y135125D01*
X488562Y135196D01*
X488658Y135270D01*
X488751Y135347D01*
X488842Y135426D01*
X488930Y135509D01*
X489015Y135594D01*
X489098Y135682D01*
X489177Y135773D01*
X489254Y135866D01*
X489328Y135962D01*
X489399Y136060D01*
X489466Y136160D01*
X489530Y136262D01*
X489591Y136366D01*
X489649Y136473D01*
X489703Y136581D01*
X489754Y136690D01*
X489801Y136801D01*
X489844Y136914D01*
X489884Y137028D01*
X489920Y137143D01*
X489953Y137259D01*
X489982Y137377D01*
X490007Y137495D01*
X490028Y137614D01*
X490045Y137733D01*
X490059Y137853D01*
X490068Y137974D01*
X490074Y138094D01*
X490076Y138215D01*
X490074Y138383D01*
X490068Y138552D01*
X490058Y138720D01*
X490044Y138887D01*
X490026Y139055D01*
X490004Y139222D01*
X489978Y139388D01*
X489948Y139554D01*
X489914Y139718D01*
X489876Y139882D01*
X489835Y140046D01*
X489789Y140208D01*
X489740Y140369D01*
X489686Y140528D01*
X489629Y140687D01*
X489569Y140844D01*
X489504Y140999D01*
X489436Y141153D01*
X489364Y141305D01*
X489289Y141456D01*
X489210Y141604D01*
X489127Y141751D01*
X489041Y141896D01*
X488952Y142038D01*
X488859Y142179D01*
X488763Y142317D01*
X488663Y142453D01*
X483013Y136332D02*
X483076Y136229D01*
X483141Y136128D01*
X483211Y136030D01*
X483283Y135933D01*
X483358Y135839D01*
X483436Y135747D01*
X483517Y135658D01*
X483600Y135572D01*
X483687Y135488D01*
X483776Y135407D01*
X483867Y135329D01*
X483961Y135253D01*
X484057Y135181D01*
X484156Y135112D01*
X484256Y135045D01*
X484359Y134982D01*
X484463Y134923D01*
X484570Y134866D01*
X484678Y134813D01*
X484787Y134764D01*
X484899Y134717D01*
X485011Y134675D01*
X485125Y134636D01*
X485240Y134600D01*
X485356Y134569D01*
X485473Y134540D01*
X485591Y134516D01*
X485710Y134495D01*
X485829Y134478D01*
X485948Y134465D01*
X486068Y134456D01*
X486189Y134450D01*
X486309Y134448D01*
X480187Y141511D02*
X480124Y141614D01*
X480059Y141715D01*
X479989Y141813D01*
X479917Y141910D01*
X479842Y142004D01*
X479764Y142096D01*
X479683Y142185D01*
X479600Y142271D01*
X479513Y142355D01*
X479424Y142436D01*
X479333Y142514D01*
X479239Y142590D01*
X479143Y142662D01*
X479044Y142731D01*
X478944Y142798D01*
X478841Y142861D01*
X478737Y142920D01*
X478630Y142977D01*
X478522Y143030D01*
X478413Y143079D01*
X478301Y143126D01*
X478189Y143168D01*
X478075Y143207D01*
X477960Y143243D01*
X477844Y143274D01*
X477727Y143303D01*
X477609Y143327D01*
X477490Y143348D01*
X477371Y143365D01*
X477252Y143378D01*
X477132Y143387D01*
X477011Y143393D01*
X476891Y143395D01*
X480187Y141511D02*
X483013Y136331D01*
X490076Y151546D02*
X473124Y151546D01*
X490076Y151546D02*
X490076Y156255D01*
X490074Y156391D01*
X490068Y156526D01*
X490058Y156662D01*
X490045Y156797D01*
X490027Y156931D01*
X490006Y157065D01*
X489980Y157199D01*
X489951Y157331D01*
X489918Y157463D01*
X489882Y157594D01*
X489841Y157723D01*
X489797Y157851D01*
X489749Y157978D01*
X489698Y158104D01*
X489643Y158228D01*
X489584Y158350D01*
X489522Y158471D01*
X489456Y158590D01*
X489387Y158707D01*
X489315Y158822D01*
X489239Y158934D01*
X489161Y159045D01*
X489079Y159153D01*
X488994Y159259D01*
X488906Y159362D01*
X488815Y159463D01*
X488721Y159561D01*
X488624Y159656D01*
X488525Y159748D01*
X488423Y159838D01*
X488318Y159925D01*
X488211Y160008D01*
X488102Y160088D01*
X487990Y160166D01*
X487876Y160240D01*
X487761Y160310D01*
X487643Y160378D01*
X487523Y160441D01*
X487401Y160502D01*
X487278Y160559D01*
X487153Y160612D01*
X487027Y160662D01*
X486899Y160708D01*
X486770Y160750D01*
X486640Y160789D01*
X486509Y160823D01*
X486377Y160854D01*
X486244Y160882D01*
X486110Y160905D01*
X485976Y160924D01*
X485841Y160940D01*
X485706Y160952D01*
X485571Y160960D01*
X485435Y160964D01*
X485299Y160964D01*
X485163Y160960D01*
X485028Y160952D01*
X484893Y160940D01*
X484758Y160924D01*
X484624Y160905D01*
X484490Y160882D01*
X484357Y160854D01*
X484225Y160823D01*
X484094Y160789D01*
X483964Y160750D01*
X483835Y160708D01*
X483707Y160662D01*
X483581Y160612D01*
X483456Y160559D01*
X483333Y160502D01*
X483211Y160441D01*
X483091Y160378D01*
X482973Y160310D01*
X482858Y160240D01*
X482744Y160166D01*
X482632Y160088D01*
X482523Y160008D01*
X482416Y159925D01*
X482311Y159838D01*
X482209Y159748D01*
X482110Y159656D01*
X482013Y159561D01*
X481919Y159463D01*
X481828Y159362D01*
X481740Y159259D01*
X481655Y159153D01*
X481573Y159045D01*
X481495Y158934D01*
X481419Y158822D01*
X481347Y158707D01*
X481278Y158590D01*
X481212Y158471D01*
X481150Y158350D01*
X481091Y158228D01*
X481036Y158104D01*
X480985Y157978D01*
X480937Y157851D01*
X480893Y157723D01*
X480852Y157594D01*
X480816Y157463D01*
X480783Y157331D01*
X480754Y157199D01*
X480728Y157065D01*
X480707Y156931D01*
X480689Y156797D01*
X480676Y156662D01*
X480666Y156526D01*
X480660Y156391D01*
X480658Y156255D01*
X480658Y151546D01*
X479716Y168110D02*
X479716Y179411D01*
X481600Y187451D02*
X481933Y187455D01*
X482267Y187467D01*
X482600Y187487D01*
X482932Y187515D01*
X483264Y187550D01*
X483594Y187594D01*
X483924Y187646D01*
X484252Y187705D01*
X484579Y187772D01*
X484904Y187847D01*
X485227Y187930D01*
X485548Y188020D01*
X485866Y188118D01*
X486183Y188224D01*
X486496Y188337D01*
X486807Y188458D01*
X487115Y188586D01*
X487420Y188721D01*
X487722Y188864D01*
X487721Y188864D02*
X487831Y188904D01*
X487940Y188948D01*
X488047Y188995D01*
X488152Y189045D01*
X488255Y189099D01*
X488357Y189157D01*
X488457Y189218D01*
X488554Y189282D01*
X488650Y189349D01*
X488743Y189420D01*
X488834Y189493D01*
X488922Y189570D01*
X489007Y189650D01*
X489090Y189732D01*
X489170Y189817D01*
X489247Y189905D01*
X489321Y189995D01*
X489393Y190088D01*
X489460Y190183D01*
X489525Y190281D01*
X489586Y190380D01*
X489645Y190481D01*
X489699Y190585D01*
X489750Y190690D01*
X489798Y190796D01*
X489842Y190905D01*
X489882Y191014D01*
X489919Y191125D01*
X489951Y191237D01*
X489980Y191351D01*
X490006Y191465D01*
X490027Y191580D01*
X490045Y191695D01*
X490058Y191811D01*
X490068Y191927D01*
X490074Y192044D01*
X490076Y192161D01*
X490074Y192278D01*
X490068Y192395D01*
X490058Y192511D01*
X490045Y192627D01*
X490027Y192742D01*
X490006Y192857D01*
X489980Y192971D01*
X489951Y193085D01*
X489919Y193197D01*
X489882Y193308D01*
X489842Y193417D01*
X489798Y193526D01*
X489750Y193632D01*
X489699Y193737D01*
X489645Y193841D01*
X489586Y193942D01*
X489525Y194042D01*
X489460Y194139D01*
X489392Y194234D01*
X489321Y194327D01*
X489247Y194417D01*
X489170Y194505D01*
X489090Y194590D01*
X489007Y194672D01*
X488922Y194752D01*
X488834Y194829D01*
X488743Y194902D01*
X488650Y194973D01*
X488554Y195040D01*
X488457Y195104D01*
X488357Y195165D01*
X488255Y195223D01*
X488152Y195277D01*
X488047Y195327D01*
X487940Y195374D01*
X487831Y195418D01*
X487721Y195458D01*
X487722Y195457D02*
X487420Y195600D01*
X487115Y195735D01*
X486807Y195863D01*
X486496Y195984D01*
X486183Y196097D01*
X485866Y196203D01*
X485548Y196301D01*
X485227Y196391D01*
X484904Y196474D01*
X484579Y196549D01*
X484252Y196616D01*
X483924Y196675D01*
X483594Y196727D01*
X483264Y196771D01*
X482932Y196806D01*
X482600Y196834D01*
X482267Y196854D01*
X481933Y196866D01*
X481600Y196870D01*
X481600Y187452D02*
X481267Y187456D01*
X480933Y187468D01*
X480600Y187488D01*
X480268Y187516D01*
X479936Y187551D01*
X479606Y187595D01*
X479276Y187647D01*
X478948Y187706D01*
X478621Y187773D01*
X478296Y187848D01*
X477973Y187931D01*
X477652Y188021D01*
X477334Y188119D01*
X477017Y188225D01*
X476704Y188338D01*
X476393Y188459D01*
X476085Y188587D01*
X475780Y188722D01*
X475478Y188865D01*
X475479Y188864D02*
X475369Y188904D01*
X475260Y188948D01*
X475153Y188995D01*
X475048Y189045D01*
X474945Y189099D01*
X474843Y189157D01*
X474743Y189218D01*
X474645Y189282D01*
X474550Y189349D01*
X474457Y189420D01*
X474366Y189494D01*
X474278Y189570D01*
X474193Y189650D01*
X474110Y189732D01*
X474030Y189817D01*
X473953Y189905D01*
X473879Y189995D01*
X473807Y190088D01*
X473740Y190183D01*
X473675Y190281D01*
X473614Y190380D01*
X473555Y190481D01*
X473501Y190585D01*
X473450Y190690D01*
X473402Y190796D01*
X473358Y190905D01*
X473318Y191014D01*
X473281Y191125D01*
X473249Y191237D01*
X473220Y191351D01*
X473194Y191465D01*
X473173Y191580D01*
X473155Y191695D01*
X473142Y191811D01*
X473132Y191927D01*
X473126Y192044D01*
X473124Y192161D01*
X475478Y195457D02*
X475780Y195600D01*
X476085Y195735D01*
X476393Y195863D01*
X476704Y195984D01*
X477017Y196097D01*
X477334Y196203D01*
X477652Y196301D01*
X477973Y196391D01*
X478296Y196474D01*
X478621Y196549D01*
X478948Y196616D01*
X479276Y196675D01*
X479606Y196727D01*
X479936Y196771D01*
X480268Y196806D01*
X480600Y196834D01*
X480933Y196854D01*
X481267Y196866D01*
X481600Y196870D01*
X475479Y195458D02*
X475369Y195418D01*
X475260Y195374D01*
X475153Y195327D01*
X475048Y195277D01*
X474945Y195223D01*
X474843Y195165D01*
X474743Y195104D01*
X474646Y195040D01*
X474550Y194973D01*
X474457Y194902D01*
X474366Y194829D01*
X474278Y194752D01*
X474193Y194672D01*
X474110Y194590D01*
X474030Y194505D01*
X473953Y194417D01*
X473879Y194327D01*
X473807Y194234D01*
X473740Y194139D01*
X473675Y194041D01*
X473614Y193942D01*
X473555Y193841D01*
X473501Y193737D01*
X473450Y193632D01*
X473402Y193526D01*
X473358Y193417D01*
X473318Y193308D01*
X473281Y193197D01*
X473249Y193085D01*
X473220Y192971D01*
X473194Y192857D01*
X473173Y192742D01*
X473155Y192627D01*
X473142Y192511D01*
X473132Y192395D01*
X473126Y192278D01*
X473124Y192161D01*
X476891Y188394D02*
X486309Y195928D01*
X486309Y204702D02*
X490076Y209411D01*
X473124Y209411D01*
X473124Y204702D02*
X473124Y214120D01*
D10*
X18250Y75400D02*
X11900Y69050D01*
X30950Y75400D02*
X37300Y69050D01*
X43650Y75400D01*
X56350Y75400D02*
X62700Y69050D01*
X69050Y75400D01*
X81750Y75400D02*
X88100Y69050D01*
X11900Y69050D02*
X11900Y30950D01*
X18250Y24600D01*
X30950Y24600D01*
X37300Y30950D01*
X43650Y24600D01*
X56350Y24600D01*
X62700Y30950D01*
X69050Y24600D01*
X81750Y24600D01*
X88100Y30950D01*
X37300Y30950D02*
X37300Y69050D01*
X62700Y69050D02*
X62700Y30950D01*
X88100Y30950D02*
X88100Y69050D01*
X81750Y75400D02*
X69050Y75400D01*
X56350Y75400D02*
X43650Y75400D01*
X30950Y75400D02*
X18250Y75400D01*
X38650Y78750D02*
X38720Y79027D01*
X38797Y79302D01*
X38881Y79575D01*
X38972Y79846D01*
X39069Y80115D01*
X39173Y80381D01*
X39283Y80645D01*
X39400Y80906D01*
X39523Y81164D01*
X39652Y81419D01*
X39787Y81670D01*
X39929Y81919D01*
X40076Y82163D01*
X40230Y82404D01*
X40389Y82642D01*
X40555Y82875D01*
X40725Y83104D01*
X40902Y83329D01*
X41084Y83549D01*
X41271Y83765D01*
X41463Y83977D01*
X41661Y84183D01*
X41863Y84385D01*
X42071Y84581D01*
X42283Y84773D01*
X42499Y84959D01*
X42721Y85140D01*
X42946Y85316D01*
X43176Y85485D01*
X43410Y85650D01*
X43648Y85808D01*
X43890Y85961D01*
X44135Y86107D01*
X44384Y86248D01*
X44636Y86382D01*
X44892Y86510D01*
X45150Y86632D01*
X45411Y86748D01*
X45676Y86857D01*
X45942Y86959D01*
X46212Y87055D01*
X46483Y87145D01*
X46757Y87227D01*
X47032Y87303D01*
X47309Y87373D01*
X47588Y87435D01*
X47869Y87491D01*
X48150Y87540D01*
X48433Y87581D01*
X48717Y87616D01*
X49001Y87644D01*
X49286Y87665D01*
X49571Y87679D01*
X49857Y87686D01*
X50143Y87686D01*
X50429Y87679D01*
X50714Y87665D01*
X50999Y87644D01*
X51283Y87616D01*
X51567Y87581D01*
X51850Y87540D01*
X52131Y87491D01*
X52412Y87435D01*
X52691Y87373D01*
X52968Y87303D01*
X53243Y87227D01*
X53517Y87145D01*
X53788Y87055D01*
X54058Y86959D01*
X54324Y86857D01*
X54589Y86748D01*
X54850Y86632D01*
X55108Y86510D01*
X55364Y86382D01*
X55616Y86248D01*
X55865Y86107D01*
X56110Y85961D01*
X56352Y85808D01*
X56590Y85650D01*
X56824Y85485D01*
X57054Y85316D01*
X57279Y85140D01*
X57501Y84959D01*
X57717Y84773D01*
X57929Y84581D01*
X58137Y84385D01*
X58339Y84183D01*
X58537Y83977D01*
X58729Y83765D01*
X58916Y83549D01*
X59098Y83329D01*
X59275Y83104D01*
X59445Y82875D01*
X59611Y82642D01*
X59770Y82404D01*
X59924Y82163D01*
X60071Y81919D01*
X60213Y81670D01*
X60348Y81419D01*
X60477Y81164D01*
X60600Y80906D01*
X60717Y80645D01*
X60827Y80381D01*
X60931Y80115D01*
X61028Y79846D01*
X61119Y79575D01*
X61203Y79302D01*
X61280Y79027D01*
X61350Y78750D01*
X61326Y18234D02*
X61326Y7566D01*
X60141Y7566D02*
X62512Y7566D01*
X62512Y18234D02*
X60141Y18234D01*
X49600Y9937D02*
X49602Y9842D01*
X49608Y9746D01*
X49617Y9651D01*
X49631Y9557D01*
X49648Y9463D01*
X49669Y9370D01*
X49694Y9277D01*
X49722Y9186D01*
X49754Y9096D01*
X49790Y9008D01*
X49829Y8921D01*
X49872Y8835D01*
X49918Y8752D01*
X49967Y8670D01*
X50020Y8590D01*
X50076Y8513D01*
X50134Y8437D01*
X50196Y8365D01*
X50261Y8295D01*
X50329Y8227D01*
X50399Y8162D01*
X50471Y8100D01*
X50547Y8042D01*
X50624Y7986D01*
X50704Y7933D01*
X50785Y7884D01*
X50869Y7838D01*
X50955Y7795D01*
X51042Y7756D01*
X51130Y7720D01*
X51220Y7688D01*
X51311Y7660D01*
X51404Y7635D01*
X51497Y7614D01*
X51591Y7597D01*
X51685Y7583D01*
X51780Y7574D01*
X51876Y7568D01*
X51971Y7566D01*
X52107Y7568D01*
X52244Y7573D01*
X52380Y7583D01*
X52515Y7596D01*
X52651Y7612D01*
X52785Y7633D01*
X52920Y7657D01*
X53053Y7684D01*
X53186Y7716D01*
X53318Y7750D01*
X53449Y7789D01*
X53578Y7831D01*
X53707Y7876D01*
X53834Y7925D01*
X53960Y7978D01*
X54084Y8034D01*
X54207Y8093D01*
X54328Y8155D01*
X54448Y8221D01*
X54565Y8290D01*
X54681Y8363D01*
X54795Y8438D01*
X54906Y8516D01*
X55015Y8598D01*
X55123Y8682D01*
X55227Y8769D01*
X55330Y8859D01*
X55430Y8952D01*
X55527Y9048D01*
X55231Y15863D02*
X55229Y15958D01*
X55223Y16054D01*
X55214Y16149D01*
X55200Y16243D01*
X55183Y16337D01*
X55162Y16430D01*
X55137Y16523D01*
X55109Y16614D01*
X55077Y16704D01*
X55041Y16792D01*
X55002Y16879D01*
X54959Y16965D01*
X54913Y17049D01*
X54864Y17130D01*
X54811Y17210D01*
X54755Y17287D01*
X54697Y17363D01*
X54635Y17435D01*
X54570Y17505D01*
X54502Y17573D01*
X54432Y17638D01*
X54360Y17700D01*
X54284Y17758D01*
X54207Y17814D01*
X54127Y17867D01*
X54046Y17916D01*
X53962Y17962D01*
X53876Y18005D01*
X53789Y18044D01*
X53701Y18080D01*
X53611Y18112D01*
X53520Y18140D01*
X53427Y18165D01*
X53334Y18186D01*
X53240Y18203D01*
X53146Y18217D01*
X53051Y18226D01*
X52955Y18232D01*
X52860Y18234D01*
X52730Y18232D01*
X52600Y18226D01*
X52470Y18217D01*
X52341Y18204D01*
X52212Y18187D01*
X52084Y18166D01*
X51956Y18141D01*
X51829Y18113D01*
X51703Y18081D01*
X51578Y18045D01*
X51454Y18006D01*
X51332Y17963D01*
X51210Y17917D01*
X51090Y17866D01*
X50972Y17813D01*
X50855Y17756D01*
X50740Y17696D01*
X50626Y17632D01*
X50515Y17565D01*
X50405Y17495D01*
X50298Y17421D01*
X50193Y17345D01*
X54046Y13788D02*
X54127Y13839D01*
X54207Y13893D01*
X54285Y13949D01*
X54360Y14009D01*
X54433Y14072D01*
X54503Y14138D01*
X54570Y14206D01*
X54635Y14277D01*
X54697Y14351D01*
X54756Y14427D01*
X54812Y14505D01*
X54864Y14586D01*
X54914Y14668D01*
X54960Y14753D01*
X55002Y14839D01*
X55042Y14927D01*
X55077Y15016D01*
X55109Y15107D01*
X55138Y15199D01*
X55162Y15292D01*
X55183Y15385D01*
X55200Y15480D01*
X55214Y15575D01*
X55223Y15671D01*
X55229Y15767D01*
X55231Y15863D01*
X50786Y12012D02*
X50704Y11961D01*
X50624Y11907D01*
X50546Y11851D01*
X50471Y11791D01*
X50398Y11728D01*
X50328Y11662D01*
X50261Y11594D01*
X50196Y11523D01*
X50134Y11449D01*
X50075Y11373D01*
X50019Y11295D01*
X49967Y11214D01*
X49917Y11132D01*
X49871Y11047D01*
X49829Y10961D01*
X49789Y10873D01*
X49754Y10784D01*
X49722Y10693D01*
X49693Y10601D01*
X49669Y10508D01*
X49648Y10415D01*
X49631Y10320D01*
X49617Y10225D01*
X49608Y10129D01*
X49602Y10033D01*
X49600Y9937D01*
X50785Y12011D02*
X54045Y13789D01*
X43843Y18234D02*
X43843Y7566D01*
X43843Y18234D02*
X40879Y18234D01*
X40772Y18232D01*
X40665Y18226D01*
X40559Y18217D01*
X40453Y18203D01*
X40347Y18186D01*
X40242Y18165D01*
X40138Y18140D01*
X40035Y18111D01*
X39933Y18079D01*
X39832Y18043D01*
X39733Y18003D01*
X39635Y17960D01*
X39539Y17913D01*
X39444Y17863D01*
X39351Y17810D01*
X39261Y17753D01*
X39172Y17693D01*
X39086Y17630D01*
X39002Y17564D01*
X38920Y17494D01*
X38841Y17422D01*
X38765Y17347D01*
X38691Y17269D01*
X38621Y17189D01*
X38553Y17106D01*
X38488Y17021D01*
X38427Y16934D01*
X38368Y16844D01*
X38313Y16753D01*
X38261Y16659D01*
X38213Y16563D01*
X38168Y16466D01*
X38126Y16368D01*
X38089Y16268D01*
X38054Y16166D01*
X38024Y16064D01*
X37997Y15960D01*
X37974Y15856D01*
X37955Y15750D01*
X37940Y15644D01*
X37928Y15538D01*
X37920Y15431D01*
X37916Y15324D01*
X37916Y15218D01*
X37920Y15111D01*
X37928Y15004D01*
X37940Y14898D01*
X37955Y14792D01*
X37974Y14686D01*
X37997Y14582D01*
X38024Y14478D01*
X38054Y14376D01*
X38089Y14274D01*
X38126Y14174D01*
X38168Y14076D01*
X38213Y13979D01*
X38261Y13883D01*
X38313Y13790D01*
X38368Y13698D01*
X38427Y13608D01*
X38488Y13521D01*
X38553Y13436D01*
X38621Y13353D01*
X38691Y13273D01*
X38765Y13195D01*
X38841Y13120D01*
X38920Y13048D01*
X39002Y12978D01*
X39086Y12912D01*
X39172Y12849D01*
X39261Y12789D01*
X39351Y12732D01*
X39444Y12679D01*
X39539Y12629D01*
X39635Y12582D01*
X39733Y12539D01*
X39832Y12499D01*
X39933Y12463D01*
X40035Y12431D01*
X40138Y12402D01*
X40242Y12377D01*
X40347Y12356D01*
X40453Y12339D01*
X40559Y12325D01*
X40665Y12316D01*
X40772Y12310D01*
X40879Y12308D01*
X40879Y12307D02*
X43843Y12307D01*
D15*
X626000Y297520D02*
X634000Y297520D01*
X626000Y297520D02*
X626000Y378800D01*
X117000Y378800D01*
X117000Y297520D01*
X111650Y297520D01*
M02*
