M48
;GenerationSoftware,Autodesk,EAGLE,9.6.1*%
;CreationDate,2022-01-26T19:57:01Z*%
FMAT,2
ICI,OFF
METRIC,TZ,000.000
T4C0.350
T3C0.784
T2C0.800
T1C1.016
%
G90
M71
T1
X7540Y3730
X7540Y6270
X5000Y3730
X5000Y6270
X2460Y3730
X2460Y6270
X72310Y3900
X69770Y3900
X72310Y6440
X69770Y6440
X72310Y8980
X69770Y8980
T2
X28962Y20395
X28962Y12775
X28962Y15315
X28962Y17855
X31502Y17855
X31502Y15315
X31502Y20395
X31502Y12775
T3
X62800Y8965
X60260Y8965
X57720Y8965
X55180Y8965
X52640Y8965
X50100Y8965
X47560Y8965
X45020Y8965
X42480Y8965
X39940Y8965
X37400Y8965
X34860Y8965
X32320Y8965
X29780Y8965
X27240Y8965
X24700Y8965
X22160Y8965
X19620Y8965
X17080Y8965
X14540Y8965
X14540Y24395
X17080Y24395
X19620Y24395
X22160Y24395
X24700Y24395
X27240Y24395
X29780Y24395
X32320Y24395
X34860Y24395
X37400Y24395
X39940Y24395
X42480Y24395
X45020Y24395
X47560Y24395
X50100Y24395
X52640Y24395
X55180Y24395
X57720Y24395
X60260Y24395
X62800Y24395
T4
X48500Y6250
X53750Y6500
X45250Y6500
X10500Y11750
X11000Y16250
X10250Y17500
X36250Y10750
X42250Y25500
X5000Y12000
X47500Y17750
X9500Y15250
X45000Y17750
X52750Y5000
X56750Y5750
X25000Y5000
X29000Y5500
X32750Y5750
X36750Y6250
X41000Y6500
X14000Y27000
X24000Y7500
X55300Y10400
X57500Y7500
X57500Y11500
X55000Y17000
X57500Y17000
X57500Y22000
X55000Y22000
X51500Y22000
X51500Y17000
X51500Y13500
X47500Y13500
X46000Y13500
X46000Y17500
X46000Y22000
X45500Y27000
X23500Y14000
X26000Y14000
X20000Y16000
X22500Y15500
X20500Y19500
X22500Y19500
X26000Y21500
X26000Y23500
X33500Y22000
X37500Y22000
X37500Y18500
X41000Y18500
X41000Y27000
X37500Y27000
X33500Y27000
X29500Y27000
X25000Y27000
X20000Y27000
X43250Y26750
X44000Y12500
X47250Y26750
X48750Y17750
X48500Y26750
X49750Y17750
X60000Y27404
X63500Y14000
X62250Y28000
X64500Y14000
X23400Y24900
X22400Y21500
X21200Y16400
X21200Y14900
X26900Y5954
X21600Y10900
X26250Y10000
X40250Y25500
M30